<?xml version="1.0" encoding="utf-8" standalone="no"?>
<!DOCTYPE svg PUBLIC "-//W3C//DTD SVG 1.1//EN"
  "http://www.w3.org/Graphics/SVG/1.1/DTD/svg11.dtd">
<svg xmlns:xlink="http://www.w3.org/1999/xlink" width="411.499174pt" height="165.110845pt" viewBox="0 0 411.499174 165.110845" xmlns="http://www.w3.org/2000/svg" version="1.1">
 <metadata>
  <rdf:RDF xmlns:dc="http://purl.org/dc/elements/1.1/" xmlns:cc="http://creativecommons.org/ns#" xmlns:rdf="http://www.w3.org/1999/02/22-rdf-syntax-ns#">
   <cc:Work>
    <dc:type rdf:resource="http://purl.org/dc/dcmitype/StillImage"/>
    <dc:date>2024-01-15T17:19:42.205527</dc:date>
    <dc:format>image/svg+xml</dc:format>
    <dc:creator>
     <cc:Agent>
      <dc:title>Matplotlib v3.8.2, https://matplotlib.org/</dc:title>
     </cc:Agent>
    </dc:creator>
   </cc:Work>
  </rdf:RDF>
 </metadata>
 <defs>
  <style type="text/css">*{stroke-linejoin: round; stroke-linecap: butt}</style>
 </defs>
 <g id="figure_1">
  <g id="patch_1">
   <path d="M 0 165.110845 
L 411.499174 165.110845 
L 411.499174 0 
L 0 0 
z
" style="fill: #ffffff"/>
  </g>
  <g id="axes_1">
   <g id="patch_2">
    <path d="M 41.599174 129.6 
L 404.299174 129.6 
L 404.299174 7.2 
L 41.599174 7.2 
z
" style="fill: #ffffff"/>
   </g>
   <g id="matplotlib.axis_1">
    <g id="xtick_1">
     <g id="line2d_1">
      <path d="M 58.085538 129.6 
L 58.085538 7.2 
" clip-path="url(#pc1405b7eed)" style="fill: none; stroke: #d3d3d3; stroke-width: 0.2; stroke-linecap: square"/>
     </g>
     <g id="line2d_2">
      <defs>
       <path id="m421827472a" d="M 0 0 
L 0 -3.5 
" style="stroke: #000000; stroke-width: 0.8"/>
      </defs>
      <g>
       <use xlink:href="#m421827472a" x="58.085538" y="129.6" style="stroke: #000000; stroke-width: 0.8"/>
      </g>
     </g>
     <g id="text_1">
      <!-- $\mathdefault{0}$ -->
      <g transform="translate(55.59487 140.018498) scale(0.1 -0.1)">
       <defs>
        <path id="CMR17-30" d="M 2688 2038 
C 2688 2430 2682 3099 2413 3613 
C 2176 4063 1798 4224 1466 4224 
C 1158 4224 768 4082 525 3620 
C 269 3137 243 2539 243 2038 
C 243 1671 250 1112 448 623 
C 723 -39 1216 -128 1466 -128 
C 1760 -128 2208 -7 2470 604 
C 2662 1048 2688 1568 2688 2038 
z
M 1466 -26 
C 1056 -26 813 328 723 816 
C 653 1196 653 1749 653 2109 
C 653 2604 653 3015 736 3407 
C 858 3954 1216 4121 1466 4121 
C 1728 4121 2067 3947 2189 3420 
C 2272 3054 2278 2623 2278 2109 
C 2278 1691 2278 1176 2202 797 
C 2067 96 1690 -26 1466 -26 
z
" transform="scale(0.015625)"/>
       </defs>
       <use xlink:href="#CMR17-30" transform="scale(0.996264)"/>
      </g>
     </g>
    </g>
    <g id="xtick_2">
     <g id="line2d_3">
      <path d="M 102.049174 129.6 
L 102.049174 7.2 
" clip-path="url(#pc1405b7eed)" style="fill: none; stroke: #d3d3d3; stroke-width: 0.2; stroke-linecap: square"/>
     </g>
     <g id="line2d_4">
      <g>
       <use xlink:href="#m421827472a" x="102.049174" y="129.6" style="stroke: #000000; stroke-width: 0.8"/>
      </g>
     </g>
     <g id="text_2">
      <!-- $\mathdefault{5}$ -->
      <g transform="translate(99.558506 140.018498) scale(0.1 -0.1)">
       <defs>
        <path id="CMR17-35" d="M 730 3750 
C 794 3724 1056 3641 1325 3641 
C 1920 3641 2246 3961 2432 4140 
C 2432 4191 2432 4224 2394 4224 
C 2387 4224 2374 4224 2323 4198 
C 2099 4102 1837 4032 1517 4032 
C 1325 4032 1037 4055 723 4191 
C 653 4224 640 4224 634 4224 
C 602 4224 595 4217 595 4090 
L 595 2231 
C 595 2113 595 2080 659 2080 
C 691 2080 704 2093 736 2139 
C 941 2435 1222 2560 1542 2560 
C 1766 2560 2246 2415 2246 1293 
C 2246 1087 2246 716 2054 422 
C 1894 159 1645 25 1370 25 
C 947 25 518 319 403 812 
C 429 806 480 793 506 793 
C 589 793 749 838 749 1036 
C 749 1209 627 1280 506 1280 
C 358 1280 262 1190 262 1011 
C 262 454 704 -128 1382 -128 
C 2042 -128 2669 441 2669 1267 
C 2669 2054 2170 2662 1549 2662 
C 1222 2662 947 2540 730 2304 
L 730 3750 
z
" transform="scale(0.015625)"/>
       </defs>
       <use xlink:href="#CMR17-35" transform="scale(0.996264)"/>
      </g>
     </g>
    </g>
    <g id="xtick_3">
     <g id="line2d_5">
      <path d="M 146.01281 129.6 
L 146.01281 7.2 
" clip-path="url(#pc1405b7eed)" style="fill: none; stroke: #d3d3d3; stroke-width: 0.2; stroke-linecap: square"/>
     </g>
     <g id="line2d_6">
      <g>
       <use xlink:href="#m421827472a" x="146.01281" y="129.6" style="stroke: #000000; stroke-width: 0.8"/>
      </g>
     </g>
     <g id="text_3">
      <!-- $\mathdefault{10}$ -->
      <g transform="translate(141.031475 140.018498) scale(0.1 -0.1)">
       <defs>
        <path id="CMR17-31" d="M 1702 4083 
C 1702 4217 1696 4224 1606 4224 
C 1357 3927 979 3833 621 3820 
C 602 3820 570 3820 563 3808 
C 557 3795 557 3782 557 3648 
C 755 3648 1088 3686 1344 3839 
L 1344 467 
C 1344 243 1331 166 781 166 
L 589 166 
L 589 0 
C 896 6 1216 12 1523 12 
C 1830 12 2150 6 2458 0 
L 2458 166 
L 2266 166 
C 1715 166 1702 236 1702 467 
L 1702 4083 
z
" transform="scale(0.015625)"/>
       </defs>
       <use xlink:href="#CMR17-31" transform="scale(0.996264)"/>
       <use xlink:href="#CMR17-30" transform="translate(45.690477 0) scale(0.996264)"/>
      </g>
     </g>
    </g>
    <g id="xtick_4">
     <g id="line2d_7">
      <path d="M 189.976447 129.6 
L 189.976447 7.2 
" clip-path="url(#pc1405b7eed)" style="fill: none; stroke: #d3d3d3; stroke-width: 0.2; stroke-linecap: square"/>
     </g>
     <g id="line2d_8">
      <g>
       <use xlink:href="#m421827472a" x="189.976447" y="129.6" style="stroke: #000000; stroke-width: 0.8"/>
      </g>
     </g>
     <g id="text_4">
      <!-- $\mathdefault{15}$ -->
      <g transform="translate(184.995111 140.018498) scale(0.1 -0.1)">
       <use xlink:href="#CMR17-31" transform="scale(0.996264)"/>
       <use xlink:href="#CMR17-35" transform="translate(45.690477 0) scale(0.996264)"/>
      </g>
     </g>
    </g>
    <g id="xtick_5">
     <g id="line2d_9">
      <path d="M 233.940083 129.6 
L 233.940083 7.2 
" clip-path="url(#pc1405b7eed)" style="fill: none; stroke: #d3d3d3; stroke-width: 0.2; stroke-linecap: square"/>
     </g>
     <g id="line2d_10">
      <g>
       <use xlink:href="#m421827472a" x="233.940083" y="129.6" style="stroke: #000000; stroke-width: 0.8"/>
      </g>
     </g>
     <g id="text_5">
      <!-- $\mathdefault{20}$ -->
      <g transform="translate(228.958748 140.018498) scale(0.1 -0.1)">
       <defs>
        <path id="CMR17-32" d="M 2669 990 
L 2554 990 
C 2490 537 2438 460 2413 422 
C 2381 371 1920 371 1830 371 
L 602 371 
C 832 620 1280 1073 1824 1596 
C 2214 1966 2669 2400 2669 3033 
C 2669 3788 2067 4224 1395 4224 
C 691 4224 262 3603 262 3027 
C 262 2777 448 2745 525 2745 
C 589 2745 781 2783 781 3007 
C 781 3206 614 3264 525 3264 
C 486 3264 448 3257 422 3244 
C 544 3788 915 4057 1306 4057 
C 1862 4057 2227 3616 2227 3033 
C 2227 2477 1901 1998 1536 1583 
L 262 147 
L 262 0 
L 2515 0 
L 2669 990 
z
" transform="scale(0.015625)"/>
       </defs>
       <use xlink:href="#CMR17-32" transform="scale(0.996264)"/>
       <use xlink:href="#CMR17-30" transform="translate(45.690477 0) scale(0.996264)"/>
      </g>
     </g>
    </g>
    <g id="xtick_6">
     <g id="line2d_11">
      <path d="M 277.903719 129.6 
L 277.903719 7.2 
" clip-path="url(#pc1405b7eed)" style="fill: none; stroke: #d3d3d3; stroke-width: 0.2; stroke-linecap: square"/>
     </g>
     <g id="line2d_12">
      <g>
       <use xlink:href="#m421827472a" x="277.903719" y="129.6" style="stroke: #000000; stroke-width: 0.8"/>
      </g>
     </g>
     <g id="text_6">
      <!-- $\mathdefault{25}$ -->
      <g transform="translate(272.922384 140.018498) scale(0.1 -0.1)">
       <use xlink:href="#CMR17-32" transform="scale(0.996264)"/>
       <use xlink:href="#CMR17-35" transform="translate(45.690477 0) scale(0.996264)"/>
      </g>
     </g>
    </g>
    <g id="xtick_7">
     <g id="line2d_13">
      <path d="M 321.867356 129.6 
L 321.867356 7.2 
" clip-path="url(#pc1405b7eed)" style="fill: none; stroke: #d3d3d3; stroke-width: 0.2; stroke-linecap: square"/>
     </g>
     <g id="line2d_14">
      <g>
       <use xlink:href="#m421827472a" x="321.867356" y="129.6" style="stroke: #000000; stroke-width: 0.8"/>
      </g>
     </g>
     <g id="text_7">
      <!-- $\mathdefault{30}$ -->
      <g transform="translate(316.88602 140.018498) scale(0.1 -0.1)">
       <defs>
        <path id="CMR17-33" d="M 1414 2176 
C 1984 2176 2234 1673 2234 1094 
C 2234 322 1824 25 1453 25 
C 1114 25 563 193 390 691 
C 422 678 454 678 486 678 
C 640 678 755 780 755 947 
C 755 1132 614 1216 486 1216 
C 378 1216 211 1164 211 927 
C 211 335 787 -128 1466 -128 
C 2176 -128 2720 432 2720 1087 
C 2720 1718 2208 2176 1600 2246 
C 2086 2347 2554 2776 2554 3353 
C 2554 3856 2048 4224 1472 4224 
C 890 4224 378 3862 378 3347 
C 378 3123 544 3084 627 3084 
C 762 3084 877 3167 877 3334 
C 877 3500 762 3584 627 3584 
C 602 3584 570 3584 544 3571 
C 730 3999 1235 4076 1459 4076 
C 1683 4076 2106 3966 2106 3347 
C 2106 3167 2080 2851 1862 2574 
C 1670 2329 1453 2316 1242 2297 
C 1210 2297 1062 2284 1037 2284 
C 992 2278 966 2272 966 2227 
C 966 2182 973 2176 1101 2176 
L 1414 2176 
z
" transform="scale(0.015625)"/>
       </defs>
       <use xlink:href="#CMR17-33" transform="scale(0.996264)"/>
       <use xlink:href="#CMR17-30" transform="translate(45.690477 0) scale(0.996264)"/>
      </g>
     </g>
    </g>
    <g id="xtick_8">
     <g id="line2d_15">
      <path d="M 365.830992 129.6 
L 365.830992 7.2 
" clip-path="url(#pc1405b7eed)" style="fill: none; stroke: #d3d3d3; stroke-width: 0.2; stroke-linecap: square"/>
     </g>
     <g id="line2d_16">
      <g>
       <use xlink:href="#m421827472a" x="365.830992" y="129.6" style="stroke: #000000; stroke-width: 0.8"/>
      </g>
     </g>
     <g id="text_8">
      <!-- $\mathdefault{35}$ -->
      <g transform="translate(360.849657 140.018498) scale(0.1 -0.1)">
       <use xlink:href="#CMR17-33" transform="scale(0.996264)"/>
       <use xlink:href="#CMR17-35" transform="translate(45.690477 0) scale(0.996264)"/>
      </g>
     </g>
    </g>
    <g id="text_9">
     <!-- $w_{1}$ [mm] -->
     <g transform="translate(201.441457 154.922053) scale(0.12 -0.12)">
      <defs>
       <path id="CMMI12-77" d="M 2202 389 
C 2342 6 2739 -64 2982 -64 
C 3469 -64 3757 357 3936 798 
C 4083 1168 4320 2011 4320 2388 
C 4320 2777 4122 2816 4064 2816 
C 3910 2816 3770 2662 3770 2534 
C 3770 2458 3814 2413 3846 2388 
C 3904 2330 4070 2158 4070 1826 
C 4070 1609 3891 1008 3757 708 
C 3578 319 3341 64 3008 64 
C 2650 64 2534 332 2534 625 
C 2534 810 2592 1034 2618 1142 
L 2886 2215 
C 2918 2343 2976 2566 2976 2591 
C 2976 2687 2899 2752 2803 2752 
C 2618 2752 2573 2591 2534 2438 
C 2470 2189 2202 1110 2176 970 
C 2150 861 2150 791 2150 651 
C 2150 498 1946 255 1939 242 
C 1869 172 1766 64 1568 64 
C 1062 64 1062 542 1062 651 
C 1062 855 1107 1136 1395 1896 
C 1472 2094 1504 2177 1504 2305 
C 1504 2573 1312 2816 998 2816 
C 410 2816 173 1890 173 1838 
C 173 1813 198 1781 243 1781 
C 301 1781 307 1807 333 1896 
C 493 2458 742 2687 979 2687 
C 1043 2687 1146 2681 1146 2477 
C 1146 2445 1146 2311 1037 2030 
C 736 1232 672 970 672 728 
C 672 57 1222 -64 1549 -64 
C 1658 -64 1946 -64 2202 389 
z
" transform="scale(0.015625)"/>
       <path id="CMR17-5b" d="M 1504 -1600 
L 1504 -1376 
L 902 -1376 
L 902 4575 
L 1504 4575 
L 1504 4800 
L 678 4800 
L 678 -1600 
L 1504 -1600 
z
" transform="scale(0.015625)"/>
       <path id="CMR17-6d" d="M 4326 1954 
C 4326 2276 4269 2816 3507 2816 
C 3072 2816 2771 2520 2656 2173 
L 2650 2173 
C 2573 2700 2195 2816 1837 2816 
C 1331 2816 1069 2424 973 2166 
L 966 2166 
L 966 2816 
L 211 2745 
L 211 2578 
C 589 2578 646 2540 646 2231 
L 646 443 
C 646 198 621 166 211 166 
L 211 0 
C 365 12 646 12 813 12 
C 979 12 1267 12 1421 0 
L 1421 166 
C 1011 166 986 192 986 443 
L 986 1678 
C 986 2269 1344 2713 1792 2713 
C 2266 2713 2317 2289 2317 1980 
L 2317 443 
C 2317 198 2291 166 1882 166 
L 1882 0 
C 2035 12 2317 12 2483 12 
C 2650 12 2938 12 3091 0 
L 3091 166 
C 2682 166 2656 192 2656 443 
L 2656 1678 
C 2656 2269 3014 2713 3462 2713 
C 3936 2713 3987 2289 3987 1980 
L 3987 443 
C 3987 198 3962 166 3552 166 
L 3552 0 
C 3706 12 3987 12 4154 12 
C 4320 12 4608 12 4762 0 
L 4762 166 
C 4352 166 4326 192 4326 443 
L 4326 1954 
z
" transform="scale(0.015625)"/>
       <path id="CMR17-5d" d="M 915 4800 
L 90 4800 
L 90 4575 
L 691 4575 
L 691 -1376 
L 90 -1376 
L 90 -1600 
L 915 -1600 
L 915 4800 
z
" transform="scale(0.015625)"/>
      </defs>
      <use xlink:href="#CMMI12-77" transform="scale(0.996264)"/>
      <use xlink:href="#CMR17-31" transform="translate(69.73199 -14.943915) scale(0.697382)"/>
      <use xlink:href="#CMR17-5b" transform="translate(132.28927 0) scale(0.996264)"/>
      <use xlink:href="#CMR17-6d" transform="translate(157.160328 0) scale(0.996264)"/>
      <use xlink:href="#CMR17-6d" transform="translate(234.079918 0) scale(0.996264)"/>
      <use xlink:href="#CMR17-5d" transform="translate(310.999508 0) scale(0.996264)"/>
     </g>
    </g>
   </g>
   <g id="matplotlib.axis_2">
    <g id="ytick_1">
     <g id="line2d_17">
      <path d="M 41.599174 124.036364 
L 404.299174 124.036364 
" clip-path="url(#pc1405b7eed)" style="fill: none; stroke: #d3d3d3; stroke-width: 0.2; stroke-linecap: square"/>
     </g>
     <g id="line2d_18">
      <defs>
       <path id="m37ffb34197" d="M 0 0 
L 3.5 0 
" style="stroke: #000000; stroke-width: 0.8"/>
      </defs>
      <g>
       <use xlink:href="#m37ffb34197" x="41.599174" y="124.036364" style="stroke: #000000; stroke-width: 0.8"/>
      </g>
     </g>
     <g id="text_10">
      <!-- $\mathdefault{0}$ -->
      <g transform="translate(33.117839 127.495613) scale(0.1 -0.1)">
       <use xlink:href="#CMR17-30" transform="scale(0.996264)"/>
      </g>
     </g>
    </g>
    <g id="ytick_2">
     <g id="line2d_19">
      <path d="M 41.599174 90.439526 
L 404.299174 90.439526 
" clip-path="url(#pc1405b7eed)" style="fill: none; stroke: #d3d3d3; stroke-width: 0.2; stroke-linecap: square"/>
     </g>
     <g id="line2d_20">
      <g>
       <use xlink:href="#m37ffb34197" x="41.599174" y="90.439526" style="stroke: #000000; stroke-width: 0.8"/>
      </g>
     </g>
     <g id="text_11">
      <!-- $\mathdefault{100}$ -->
      <g transform="translate(23.155168 93.898775) scale(0.1 -0.1)">
       <use xlink:href="#CMR17-31" transform="scale(0.996264)"/>
       <use xlink:href="#CMR17-30" transform="translate(45.690477 0) scale(0.996264)"/>
       <use xlink:href="#CMR17-30" transform="translate(91.380954 0) scale(0.996264)"/>
      </g>
     </g>
    </g>
    <g id="ytick_3">
     <g id="line2d_21">
      <path d="M 41.599174 56.842688 
L 404.299174 56.842688 
" clip-path="url(#pc1405b7eed)" style="fill: none; stroke: #d3d3d3; stroke-width: 0.2; stroke-linecap: square"/>
     </g>
     <g id="line2d_22">
      <g>
       <use xlink:href="#m37ffb34197" x="41.599174" y="56.842688" style="stroke: #000000; stroke-width: 0.8"/>
      </g>
     </g>
     <g id="text_12">
      <!-- $\mathdefault{200}$ -->
      <g transform="translate(23.155168 60.301937) scale(0.1 -0.1)">
       <use xlink:href="#CMR17-32" transform="scale(0.996264)"/>
       <use xlink:href="#CMR17-30" transform="translate(45.690477 0) scale(0.996264)"/>
       <use xlink:href="#CMR17-30" transform="translate(91.380954 0) scale(0.996264)"/>
      </g>
     </g>
    </g>
    <g id="ytick_4">
     <g id="line2d_23">
      <path d="M 41.599174 23.24585 
L 404.299174 23.24585 
" clip-path="url(#pc1405b7eed)" style="fill: none; stroke: #d3d3d3; stroke-width: 0.2; stroke-linecap: square"/>
     </g>
     <g id="line2d_24">
      <g>
       <use xlink:href="#m37ffb34197" x="41.599174" y="23.24585" style="stroke: #000000; stroke-width: 0.8"/>
      </g>
     </g>
     <g id="text_13">
      <!-- $\mathdefault{300}$ -->
      <g transform="translate(23.155168 26.705099) scale(0.1 -0.1)">
       <use xlink:href="#CMR17-33" transform="scale(0.996264)"/>
       <use xlink:href="#CMR17-30" transform="translate(45.690477 0) scale(0.996264)"/>
       <use xlink:href="#CMR17-30" transform="translate(91.380954 0) scale(0.996264)"/>
      </g>
     </g>
    </g>
    <g id="text_14">
     <!-- $F_{A}$ [kN] -->
     <g transform="translate(16.166376 88.288849) rotate(-90) scale(0.12 -0.12)">
      <defs>
       <path id="CMMI12-46" d="M 1901 2054 
L 2515 2054 
C 3002 2054 3040 1947 3040 1764 
C 3040 1683 3027 1595 2995 1456 
C 2982 1431 2976 1399 2976 1387 
C 2976 1343 3002 1318 3046 1318 
C 3098 1318 3104 1343 3130 1444 
L 3501 2929 
C 3501 2955 3482 2993 3437 2993 
C 3379 2993 3373 2968 3347 2858 
C 3213 2375 3085 2240 2528 2240 
L 1946 2240 
L 2362 3908 
C 2419 4134 2432 4153 2694 4153 
L 3552 4153 
C 4352 4153 4467 3915 4467 3457 
C 4467 3419 4467 3277 4448 3109 
C 4442 3084 4429 3000 4429 2974 
C 4429 2922 4461 2903 4499 2903 
C 4544 2903 4570 2929 4582 3045 
L 4717 4172 
C 4717 4191 4730 4255 4730 4268 
C 4730 4339 4672 4339 4557 4339 
L 1523 4339 
C 1402 4339 1338 4339 1338 4223 
C 1338 4153 1382 4153 1491 4153 
C 1888 4153 1888 4108 1888 4037 
C 1888 4005 1882 3979 1862 3908 
L 998 468 
C 941 248 928 185 480 185 
C 358 185 294 185 294 70 
C 294 0 352 0 390 0 
C 512 0 640 12 762 12 
L 1594 12 
C 1734 12 1888 0 2029 0 
C 2086 0 2163 0 2163 115 
C 2163 185 2125 185 1984 185 
C 1478 185 1466 229 1466 324 
C 1466 355 1478 405 1491 449 
L 1901 2054 
z
" transform="scale(0.015625)"/>
       <path id="CMMI12-41" d="M 1088 720 
C 864 335 646 205 339 185 
C 269 179 218 179 218 64 
C 218 25 250 0 294 0 
C 410 0 698 12 813 12 
C 998 12 1203 0 1382 0 
C 1421 0 1498 0 1498 121 
C 1498 179 1446 185 1408 185 
C 1261 198 1139 250 1139 407 
C 1139 498 1178 570 1261 714 
L 1747 1536 
L 3379 1536 
C 3386 1477 3386 1425 3392 1366 
C 3411 1196 3488 518 3488 394 
C 3488 198 3162 185 3059 185 
C 2989 185 2918 185 2918 70 
C 2918 0 2976 0 3014 0 
C 3123 0 3251 12 3360 12 
L 3725 12 
C 4115 12 4397 0 4403 0 
C 4448 0 4518 0 4518 121 
C 4518 185 4461 185 4365 185 
C 4013 185 4006 244 3987 440 
L 3597 4403 
C 3584 4531 3558 4544 3488 4544 
C 3424 4544 3386 4531 3328 4435 
L 1088 720 
z
M 1856 1721 
L 3142 3831 
L 3360 1721 
L 1856 1721 
z
" transform="scale(0.015625)"/>
       <path id="CMR17-6b" d="M 1670 1679 
C 1664 1692 1632 1730 1632 1749 
C 1632 1762 2086 2175 2144 2226 
C 2509 2532 2739 2563 2906 2570 
L 2906 2735 
C 2867 2735 2854 2735 2848 2729 
L 2534 2722 
C 2355 2722 2080 2722 1907 2735 
L 1907 2570 
C 1997 2563 2061 2513 2061 2423 
C 2061 2296 1933 2175 1926 2175 
L 960 1298 
L 960 4416 
L 198 4345 
L 198 4179 
C 576 4179 634 4141 634 3835 
L 634 439 
C 634 198 608 166 198 166 
L 198 0 
C 352 12 634 12 794 12 
C 954 12 1235 12 1389 0 
L 1389 166 
C 979 166 954 191 954 439 
L 954 1139 
L 1395 1540 
L 2042 586 
C 2118 471 2182 382 2182 299 
C 2182 185 2067 166 1990 166 
L 1990 0 
C 2144 12 2419 12 2579 12 
C 2694 12 2931 6 3040 0 
L 3040 166 
C 2739 166 2669 223 2477 503 
L 1670 1679 
z
" transform="scale(0.015625)"/>
       <path id="CMR17-4e" d="M 1312 4275 
C 1267 4345 1261 4352 1139 4352 
L 326 4352 
L 326 4185 
L 448 4185 
C 704 4185 819 4153 838 4147 
L 838 624 
C 838 465 838 166 326 166 
L 326 0 
C 474 12 742 12 902 12 
C 1062 12 1331 12 1478 0 
L 1478 166 
C 966 166 966 465 966 624 
L 966 4057 
C 1011 4019 1011 4007 1056 3943 
L 3430 76 
C 3475 0 3494 0 3526 0 
C 3590 0 3590 19 3590 140 
L 3590 3726 
C 3590 3885 3590 4185 4102 4185 
L 4102 4352 
C 3955 4339 3686 4339 3526 4339 
C 3366 4339 3098 4339 2950 4352 
L 2950 4185 
C 3462 4185 3462 3885 3462 3726 
L 3462 777 
L 1312 4275 
z
" transform="scale(0.015625)"/>
      </defs>
      <use xlink:href="#CMMI12-46" transform="scale(0.996264)"/>
      <use xlink:href="#CMMI12-41" transform="translate(63.148204 -14.943915) scale(0.697382)"/>
      <use xlink:href="#CMR17-5b" transform="translate(144.911599 0) scale(0.996264)"/>
      <use xlink:href="#CMR17-6b" transform="translate(169.782657 0) scale(0.996264)"/>
      <use xlink:href="#CMR17-4e" transform="translate(218.075573 0) scale(0.996264)"/>
      <use xlink:href="#CMR17-5d" transform="translate(287.148003 0) scale(0.996264)"/>
     </g>
    </g>
   </g>
   <g id="line2d_25">
    <path d="M 58.085628 124.036028 
L 58.376907 122.950073 
L 58.668186 121.864118 
L 58.959465 120.778163 
L 59.250744 119.692208 
L 59.542023 118.606253 
L 59.833302 117.520298 
L 60.124582 116.434343 
L 60.415861 115.348388 
L 60.70714 114.262433 
L 60.998419 113.176478 
L 61.289698 112.090523 
L 61.580977 111.004568 
L 61.872256 109.918613 
L 62.163536 108.832658 
L 62.454815 107.746703 
L 62.746094 106.660748 
L 63.037373 105.574793 
L 63.328652 104.488838 
L 63.619931 103.402883 
L 63.91121 102.316928 
L 64.202489 101.230973 
L 64.493769 100.145018 
L 64.785048 99.059063 
L 65.076327 97.973108 
L 65.367606 96.887153 
L 65.658885 95.801198 
L 65.950164 94.715243 
L 66.241443 93.629288 
L 66.532723 92.543333 
L 66.824002 91.457378 
L 67.115281 90.371423 
L 67.40656 89.285468 
L 67.697839 88.199513 
L 67.989118 87.113558 
L 68.280397 86.027603 
L 68.571676 84.941648 
L 68.862956 83.855692 
L 69.154235 82.769737 
L 69.445514 81.683782 
L 69.736793 80.597827 
L 70.028072 79.511872 
L 70.319351 78.425917 
L 70.61063 77.339962 
L 70.90191 76.254007 
L 71.193189 75.168052 
L 71.484468 74.082097 
L 71.775747 72.996142 
L 72.067026 71.910187 
L 72.358305 70.824232 
L 72.649584 69.738277 
L 72.940863 68.652322 
L 73.232143 67.566367 
L 73.523422 66.480412 
L 73.814701 65.394457 
L 74.10598 64.308502 
L 74.397259 63.222547 
L 74.688538 62.136592 
L 74.979817 61.050637 
L 75.271097 59.964682 
L 75.562376 58.878727 
L 75.853655 57.792772 
L 76.144934 56.706817 
L 76.436213 55.620862 
L 76.727492 54.534907 
L 77.018771 53.448952 
L 77.310051 52.362997 
L 77.60133 51.277042 
L 77.892609 50.191087 
L 78.183888 49.105132 
L 78.475167 48.019177 
L 78.766446 46.933222 
L 79.057725 45.847267 
L 79.349004 44.761312 
L 79.640284 43.675357 
L 79.931563 42.589402 
L 80.222842 41.503447 
L 80.514121 40.417492 
L 80.8054 39.331537 
L 81.096679 38.245582 
L 81.387958 37.159627 
L 81.679238 36.073672 
L 81.970517 34.987717 
L 82.261796 33.901762 
L 82.553075 32.815807 
L 82.844354 31.729852 
L 83.135633 30.643897 
L 83.426912 29.557942 
L 83.718191 28.471987 
L 84.009471 27.386032 
L 84.30075 26.300077 
L 84.592029 25.214122 
L 84.883308 24.128167 
L 85.174587 23.042212 
L 85.465866 21.956257 
L 85.757145 20.870302 
L 86.048425 19.784347 
L 86.339704 18.698392 
L 86.630983 17.612437 
L 86.922262 16.526482 
" clip-path="url(#pc1405b7eed)" style="fill: none; stroke: #000000; stroke-width: 0.7; stroke-linecap: square"/>
   </g>
   <g id="line2d_26">
    <path d="M 58.085808 124.036028 
L 58.960817 122.950073 
L 59.835826 121.864118 
L 60.710834 120.778163 
L 61.585843 119.692208 
L 62.460851 118.606253 
L 63.33586 117.520298 
L 64.210869 116.434343 
L 65.085877 115.348388 
L 65.960886 114.262433 
L 66.835895 113.176478 
L 67.710903 112.090523 
L 68.585912 111.004568 
L 69.460921 109.918613 
L 70.335929 108.832658 
L 71.210938 107.746703 
L 72.085947 106.660748 
L 72.960955 105.574793 
L 73.835964 104.488838 
L 74.710973 103.402883 
L 75.585981 102.316928 
L 76.46099 101.230973 
L 77.335999 100.145018 
L 78.211007 99.059063 
L 79.086016 97.973108 
L 79.961024 96.887153 
L 80.836033 95.801198 
L 81.711042 94.715243 
L 82.58605 93.629288 
L 83.461059 92.543333 
L 84.336068 91.457378 
L 85.211076 90.371423 
L 86.086085 89.285468 
L 86.961094 88.199513 
L 87.836102 87.113558 
L 88.711111 86.027603 
L 89.58612 84.941648 
L 90.461128 83.855692 
L 91.336137 82.769737 
L 92.211146 81.683782 
L 93.086154 80.597827 
L 93.961163 79.511872 
L 94.836172 78.425917 
L 95.71118 77.339962 
L 96.586189 76.254007 
L 97.461198 75.168052 
L 98.336206 74.082097 
L 99.211215 72.996142 
L 100.086223 71.910187 
L 100.961232 70.824232 
L 101.836241 69.738277 
L 102.711249 68.652322 
L 103.586258 67.566367 
L 104.461267 66.480412 
L 105.336275 65.394457 
L 106.211284 64.308502 
L 107.086293 63.222547 
L 107.961301 62.136592 
L 108.83631 61.050637 
L 109.711319 59.964682 
L 110.586327 58.878727 
L 111.461336 57.792772 
L 112.336345 56.706817 
L 113.211353 55.620862 
L 114.086362 54.534907 
L 114.961371 53.448952 
L 115.836379 52.362997 
L 116.711388 51.277042 
L 117.586396 50.191087 
L 118.461405 49.105132 
L 119.336414 48.019177 
L 120.211422 46.933222 
L 121.086431 45.847267 
L 121.96144 44.761312 
L 122.836448 43.675357 
L 123.711457 42.589402 
L 124.586466 41.503447 
L 125.461474 40.417492 
L 126.336483 39.331537 
L 127.211492 38.245582 
L 128.0865 37.159627 
L 128.961509 36.073672 
L 129.836518 34.987717 
L 130.711526 33.901762 
L 131.586535 32.815807 
L 132.461544 31.729852 
L 133.336552 30.643897 
L 134.211561 29.557942 
L 135.086569 28.471987 
L 135.961578 27.386032 
L 136.836587 26.300077 
L 137.711595 25.214122 
L 138.586604 24.128167 
L 139.461613 23.042212 
L 140.336621 21.956257 
L 141.21163 20.870302 
L 142.086639 19.784347 
L 142.961647 18.698392 
L 143.836656 17.612437 
L 144.711665 16.526482 
" clip-path="url(#pc1405b7eed)" style="fill: none; stroke-dasharray: 0.7,1.155; stroke-dashoffset: 0; stroke: #000000; stroke-width: 0.7"/>
   </g>
   <g id="line2d_27">
    <path d="M 58.085969 124.036028 
L 59.481057 122.950073 
L 60.876144 121.864118 
L 62.271231 120.778163 
L 63.666319 119.692208 
L 65.061406 118.606253 
L 66.456494 117.520298 
L 67.851581 116.434343 
L 69.246669 115.348388 
L 70.641756 114.262433 
L 72.036843 113.176478 
L 73.431931 112.090523 
L 74.827018 111.004568 
L 76.222106 109.918613 
L 77.617193 108.832658 
L 79.012281 107.746703 
L 80.407368 106.660748 
L 81.802455 105.574793 
L 83.197543 104.488838 
L 84.59263 103.402883 
L 85.987718 102.316928 
L 87.382805 101.230973 
L 88.777893 100.145018 
L 90.17298 99.059063 
L 91.568067 97.973108 
L 92.963155 96.887153 
L 94.358242 95.801198 
L 95.75333 94.715243 
L 97.148417 93.629288 
L 98.543505 92.543333 
L 99.938592 91.457378 
L 101.333679 90.371423 
L 102.728767 89.285468 
L 104.123854 88.199513 
L 105.518942 87.113558 
L 106.914029 86.027603 
L 108.309117 84.941648 
L 109.704204 83.855692 
L 111.099291 82.769737 
L 112.494379 81.683782 
L 113.889466 80.597827 
L 115.284554 79.511872 
L 116.679641 78.425917 
L 118.074729 77.339962 
L 119.469816 76.254007 
L 120.864903 75.168052 
L 122.259991 74.082097 
L 123.655078 72.996142 
L 125.050166 71.910187 
L 126.445253 70.824232 
L 127.840341 69.738277 
L 129.235428 68.652322 
L 130.630515 67.566367 
L 132.025603 66.480412 
L 133.42069 65.394457 
L 134.815778 64.308502 
L 136.210865 63.222547 
L 137.605953 62.136592 
L 139.00104 61.050637 
L 140.396127 59.964682 
L 141.791215 58.878727 
L 143.186302 57.792772 
L 144.58139 56.706817 
L 145.976477 55.620862 
L 147.371565 54.534907 
L 148.766652 53.448952 
L 150.161739 52.362997 
L 151.556827 51.277042 
L 152.951914 50.191087 
L 154.347002 49.105132 
L 155.742089 48.019177 
L 157.137177 46.933222 
L 158.532264 45.847267 
L 159.927351 44.761312 
L 161.322439 43.675357 
L 162.717526 42.589402 
L 164.112614 41.503447 
L 165.507701 40.417492 
L 166.902789 39.331537 
L 168.297876 38.245582 
L 169.692963 37.159627 
L 171.088051 36.073672 
L 172.483138 34.987717 
L 173.878226 33.901762 
L 175.273313 32.815807 
L 176.668401 31.729852 
L 178.063488 30.643897 
L 179.458575 29.557942 
L 180.853663 28.471987 
L 182.24875 27.386032 
L 183.643838 26.300077 
L 185.038925 25.214122 
L 186.434013 24.128167 
L 187.8291 23.042212 
L 189.224187 21.956257 
L 190.619275 20.870302 
L 192.014362 19.784347 
L 193.40945 18.698392 
L 194.804537 17.612437 
L 196.199625 16.526482 
" clip-path="url(#pc1405b7eed)" style="fill: none; stroke-dasharray: 2.59,1.12; stroke-dashoffset: 0; stroke: #000000; stroke-width: 0.7"/>
   </g>
   <g id="line2d_28">
    <path d="M 58.085626 124.036028 
L 58.372954 122.950073 
L 58.660282 121.864118 
L 58.94761 120.778163 
L 59.234938 119.692208 
L 59.522265 118.606253 
L 59.809593 117.520298 
L 60.096921 116.434343 
L 60.384249 115.348388 
L 60.671577 114.262433 
L 60.958905 113.176478 
L 61.246232 112.090523 
L 61.53356 111.004568 
L 62.782236 109.918613 
L 64.72286 108.832658 
L 66.393413 107.746703 
L 67.933999 106.660748 
L 69.373651 105.574793 
L 70.724417 104.488838 
L 72.017659 103.402883 
L 73.242944 102.316928 
L 74.440143 101.230973 
L 75.59787 100.145018 
L 76.723694 99.059063 
L 77.824099 97.973108 
L 78.904896 96.887153 
L 79.971804 95.801198 
L 81.019962 94.715243 
L 82.055034 93.629288 
L 83.077406 92.543333 
L 84.091605 91.457378 
L 85.097716 90.371423 
L 86.095879 89.285468 
L 87.086933 88.199513 
L 88.074085 87.113558 
L 89.050192 86.027603 
L 90.022652 84.941648 
L 90.992143 83.855692 
L 91.961964 82.769737 
L 92.921603 81.683782 
L 93.881647 80.597827 
L 94.838131 79.511872 
L 95.791863 78.425917 
L 96.745836 77.339962 
L 97.697087 76.254007 
L 98.644912 75.168052 
L 99.586632 74.082097 
L 100.532151 72.996142 
L 101.47435 71.910187 
L 102.417535 70.824232 
L 103.357469 69.738277 
L 104.294224 68.652322 
L 105.234443 67.566367 
L 106.16906 66.480412 
L 107.103849 65.394457 
L 108.041963 64.308502 
L 108.973804 63.222547 
L 109.906659 62.136592 
L 110.839629 61.050637 
L 111.771804 59.964682 
L 112.702786 58.878727 
L 113.632984 57.792772 
L 114.563262 56.706817 
L 115.49155 55.620862 
L 116.421969 54.534907 
L 117.350426 53.448952 
L 118.278956 52.362997 
L 119.207546 51.277042 
L 120.13618 50.191087 
L 121.060142 49.105132 
L 121.988887 48.019177 
L 122.913022 46.933222 
L 123.839072 45.847267 
L 124.766105 44.761312 
L 125.690449 43.675357 
L 126.614856 42.589402 
L 127.541059 41.503447 
L 128.465554 40.417492 
L 129.388395 39.331537 
L 130.312991 38.245582 
L 131.237618 37.159627 
L 132.162269 36.073672 
L 133.085317 34.987717 
L 134.010024 33.901762 
L 134.933148 32.815807 
L 135.855347 31.729852 
L 136.778551 30.643897 
L 137.699262 29.557942 
L 138.624074 28.471987 
L 140.032641 27.386032 
L 142.874168 26.300077 
L 146.481743 25.214122 
L 150.668774 24.128167 
L 155.369854 23.042212 
L 160.545141 21.956257 
L 166.167993 20.870302 
L 172.224902 19.784347 
L 178.693459 18.698392 
L 185.55982 17.612437 
L 192.807914 16.526482 
" clip-path="url(#pc1405b7eed)" style="fill: none; stroke: #ff0000; stroke-width: 0.7; stroke-linecap: square"/>
   </g>
   <g id="line2d_29">
    <path d="M 58.085626 124.036028 
L 58.372954 122.950073 
L 58.660282 121.864118 
L 58.94761 120.778163 
L 59.234938 119.692208 
L 59.522265 118.606253 
L 59.809593 117.520298 
L 60.096921 116.434343 
L 60.384249 115.348388 
L 60.671577 114.262433 
L 60.958905 113.176478 
L 61.246232 112.090523 
L 61.53356 111.004568 
L 62.293664 109.918613 
L 63.454832 108.832658 
L 64.532365 107.746703 
L 65.582787 106.660748 
L 66.612138 105.574793 
L 67.620355 104.488838 
L 68.618263 103.402883 
L 69.597423 102.316928 
L 70.574638 101.230973 
L 71.542339 100.145018 
L 72.502608 99.059063 
L 73.457314 97.973108 
L 74.408251 96.887153 
L 75.357358 95.801198 
L 76.301574 94.715243 
L 77.243084 93.629288 
L 78.181595 92.543333 
L 79.118907 91.457378 
L 80.054724 90.371423 
L 80.988822 89.285468 
L 81.921366 88.199513 
L 82.853701 87.113558 
L 83.782172 86.027603 
L 84.710218 84.941648 
L 85.638032 83.855692 
L 86.5671 82.769737 
L 87.4922 81.683782 
L 88.41839 80.597827 
L 89.34366 79.511872 
L 90.26833 78.425917 
L 91.193793 77.339962 
L 92.118545 76.254007 
L 93.042199 75.168052 
L 93.9634 74.082097 
L 94.886928 72.996142 
L 95.809281 71.910187 
L 96.73252 70.824232 
L 97.654554 69.738277 
L 98.575392 68.652322 
L 99.498239 67.566367 
L 100.41866 66.480412 
L 101.339445 65.394457 
L 102.26211 64.308502 
L 103.181967 63.222547 
L 104.102546 62.136592 
L 105.023393 61.050637 
L 105.944053 59.964682 
L 106.864322 58.878727 
L 107.784385 57.792772 
L 108.704653 56.706817 
L 109.624108 55.620862 
L 110.544747 54.534907 
L 111.464571 53.448952 
L 112.384561 52.362997 
L 113.304704 51.277042 
L 114.224984 50.191087 
L 115.143103 49.105132 
L 116.063654 48.019177 
L 116.982061 46.933222 
L 117.901494 45.847267 
L 118.821496 44.761312 
L 119.740274 43.675357 
L 120.659164 42.589402 
L 121.579005 41.503447 
L 122.498088 40.417492 
L 123.416436 39.331537 
L 124.335706 38.245582 
L 125.255054 37.159627 
L 126.174475 36.073672 
L 127.093174 34.987717 
L 128.012735 33.901762 
L 128.931579 32.815807 
L 129.850025 31.729852 
L 130.769008 30.643897 
L 131.686824 29.557942 
L 132.606682 28.471987 
L 134.315222 27.386032 
L 137.36651 26.300077 
L 141.109569 25.214122 
L 145.413434 24.128167 
L 150.221084 23.042212 
L 155.500611 21.956257 
L 161.22346 20.870302 
L 167.373717 19.784347 
L 173.935962 18.698392 
L 180.890781 17.612437 
L 188.230796 16.526482 
" clip-path="url(#pc1405b7eed)" style="fill: none; stroke-dasharray: 0.7,1.155; stroke-dashoffset: 0; stroke: #ff0000; stroke-width: 0.7"/>
   </g>
   <g id="line2d_30">
    <path d="M 58.085626 124.036028 
L 58.372954 122.950073 
L 58.660282 121.864118 
L 58.94761 120.778163 
L 59.234938 119.692208 
L 59.522265 118.606253 
L 59.809593 117.520298 
L 60.096921 116.434343 
L 60.384249 115.348388 
L 60.671577 114.262433 
L 60.958905 113.176478 
L 61.246232 112.090523 
L 61.53356 111.004568 
L 62.53795 109.918613 
L 64.088846 108.832658 
L 65.462889 107.746703 
L 66.758393 106.660748 
L 67.992895 105.574793 
L 69.172386 104.488838 
L 70.317961 103.402883 
L 71.420184 102.316928 
L 72.507391 101.230973 
L 73.570105 100.145018 
L 74.613151 99.059063 
L 75.640707 97.973108 
L 76.656573 96.887153 
L 77.664581 95.801198 
L 78.660768 94.715243 
L 79.649059 93.629288 
L 80.6295 92.543333 
L 81.605256 91.457378 
L 82.57622 90.371423 
L 83.54235 89.285468 
L 84.504149 88.199513 
L 85.463893 87.113558 
L 86.416182 86.027603 
L 87.366435 84.941648 
L 88.315088 83.855692 
L 89.264532 82.769737 
L 90.206902 81.683782 
L 91.150019 80.597827 
L 92.090895 79.511872 
L 93.030096 78.425917 
L 93.969815 77.339962 
L 94.907816 76.254007 
L 95.843555 75.168052 
L 96.775016 74.082097 
L 97.709539 72.996142 
L 98.641815 71.910187 
L 99.575028 70.824232 
L 100.506012 69.738277 
L 101.434808 68.652322 
L 102.366341 67.566367 
L 103.29386 66.480412 
L 104.221647 65.394457 
L 105.152037 64.308502 
L 106.077886 63.222547 
L 107.004602 62.136592 
L 107.931511 61.050637 
L 108.857929 59.964682 
L 109.783554 58.878727 
L 110.708685 57.792772 
L 111.633957 56.706817 
L 112.557829 55.620862 
L 113.483358 54.534907 
L 114.407498 53.448952 
L 115.331759 52.362997 
L 116.256125 51.277042 
L 117.180582 50.191087 
L 118.101623 49.105132 
L 119.02627 48.019177 
L 119.947542 46.933222 
L 120.870283 45.847267 
L 121.793801 44.761312 
L 122.715362 43.675357 
L 123.63701 42.589402 
L 124.560032 41.503447 
L 125.481821 40.417492 
L 126.402415 39.331537 
L 127.324348 38.245582 
L 128.246336 37.159627 
L 129.168372 36.073672 
L 130.089246 34.987717 
L 131.011379 33.901762 
L 131.932364 32.815807 
L 132.852686 31.729852 
L 133.77378 30.643897 
L 134.693043 29.557942 
L 135.615378 28.471987 
L 137.173932 27.386032 
L 140.120339 26.300077 
L 143.795656 25.214122 
L 148.041104 24.128167 
L 152.795469 23.042212 
L 158.022876 21.956257 
L 163.695727 20.870302 
L 169.79931 19.784347 
L 176.314711 18.698392 
L 183.2253 17.612437 
L 190.519355 16.526482 
" clip-path="url(#pc1405b7eed)" style="fill: none; stroke-dasharray: 2.59,1.12; stroke-dashoffset: 0; stroke: #ff0000; stroke-width: 0.7"/>
   </g>
   <g id="line2d_31">
    <path d="M 58.085538 124.036364 
L 124.910265 53.046245 
L 125.789538 55.465217 
L 136.34081 42.765613 
L 137.220083 44.479051 
L 149.529901 32.888142 
L 150.409174 36.583794 
L 166.236083 23.044269 
L 167.994628 27.378261 
L 244.491356 14.981028 
L 248.887719 25.429644 
L 346.486992 12.763636 
L 381.657901 14.813043 
L 387.81281 22.641107 
" clip-path="url(#pc1405b7eed)" style="fill: none; stroke: #0000ff; stroke-width: 0.7; stroke-linecap: square"/>
   </g>
   <g id="patch_3">
    <path d="M 41.599174 129.6 
L 41.599174 7.2 
" style="fill: none; stroke: #000000; stroke-width: 0.5; stroke-linejoin: miter; stroke-linecap: square"/>
   </g>
   <g id="patch_4">
    <path d="M 41.599174 129.6 
L 404.299174 129.6 
" style="fill: none; stroke: #000000; stroke-width: 0.5; stroke-linejoin: miter; stroke-linecap: square"/>
   </g>
   <g id="legend_1">
    <g id="patch_5">
     <path d="M 266.143146 124.6 
L 397.299174 124.6 
Q 399.299174 124.6 399.299174 122.6 
L 399.299174 25.01429 
Q 399.299174 23.01429 397.299174 23.01429 
L 266.143146 23.01429 
Q 264.143146 23.01429 264.143146 25.01429 
L 264.143146 122.6 
Q 264.143146 124.6 266.143146 124.6 
z
" style="fill: #ffffff; opacity: 0.8; stroke: #cccccc; stroke-width: 0.5; stroke-linejoin: miter"/>
    </g>
    <g id="line2d_32">
     <path d="M 268.143146 30.51429 
L 278.143146 30.51429 
L 288.143146 30.51429 
" style="fill: none; stroke: #000000; stroke-width: 0.7; stroke-linecap: square"/>
    </g>
    <g id="text_15">
     <!-- $EI^{I}$ konstant -->
     <g transform="translate(296.143146 34.01429) scale(0.1 -0.1)">
      <defs>
       <path id="CMMI12-45" d="M 4448 1489 
C 4454 1508 4474 1553 4474 1578 
C 4474 1611 4448 1643 4410 1643 
C 4384 1643 4371 1636 4352 1617 
C 4339 1611 4339 1598 4282 1469 
C 3904 570 3629 185 2605 185 
L 1670 185 
C 1581 185 1568 185 1530 192 
C 1459 198 1453 211 1453 262 
C 1453 307 1466 346 1478 403 
L 1920 2176 
L 2554 2176 
C 3053 2176 3091 2066 3091 1874 
C 3091 1810 3091 1752 3046 1559 
C 3034 1534 3027 1508 3027 1489 
C 3027 1444 3059 1424 3098 1424 
C 3155 1424 3162 1469 3187 1559 
L 3552 3036 
C 3552 3068 3526 3099 3488 3099 
C 3430 3099 3424 3074 3398 2986 
C 3270 2500 3142 2361 2573 2361 
L 1965 2361 
L 2362 3913 
C 2419 4134 2432 4153 2694 4153 
L 3610 4153 
C 4397 4153 4557 3945 4557 3465 
C 4557 3459 4557 3282 4531 3074 
C 4525 3049 4518 3011 4518 2998 
C 4518 2948 4550 2929 4589 2929 
C 4634 2929 4659 2954 4672 3068 
L 4806 4172 
C 4806 4191 4819 4255 4819 4268 
C 4819 4339 4762 4339 4646 4339 
L 1523 4339 
C 1402 4339 1338 4339 1338 4223 
C 1338 4153 1382 4153 1491 4153 
C 1888 4153 1888 4109 1888 4039 
C 1888 4008 1882 3983 1862 3913 
L 998 474 
C 941 249 928 185 480 185 
C 358 185 294 185 294 70 
C 294 0 333 0 461 0 
L 3674 0 
C 3814 0 3821 6 3866 108 
L 4448 1489 
z
" transform="scale(0.015625)"/>
       <path id="CMMI12-49" d="M 2355 3879 
C 2413 4102 2426 4166 2893 4166 
C 3034 4166 3085 4166 3085 4287 
C 3085 4352 3014 4352 2995 4352 
C 2880 4352 2739 4339 2624 4339 
L 1837 4339 
C 1709 4339 1562 4352 1434 4352 
C 1382 4352 1312 4352 1312 4230 
C 1312 4166 1363 4166 1491 4166 
C 1888 4166 1888 4115 1888 4045 
C 1888 4000 1875 3962 1862 3905 
L 998 472 
C 941 249 928 185 461 185 
C 320 185 262 185 262 64 
C 262 0 326 0 358 0 
C 474 0 614 12 730 12 
L 1517 12 
C 1645 12 1786 0 1914 0 
C 1965 0 2042 0 2042 115 
C 2042 185 2003 185 1862 185 
C 1466 185 1466 236 1466 312 
C 1466 325 1466 357 1491 459 
L 2355 3879 
z
" transform="scale(0.015625)"/>
       <path id="CMR17-6f" d="M 2758 1356 
C 2758 2176 2163 2816 1466 2816 
C 768 2816 173 2176 173 1356 
C 173 550 768 -64 1466 -64 
C 2163 -64 2758 550 2758 1356 
z
M 1466 51 
C 1165 51 909 230 762 480 
C 602 768 582 1126 582 1408 
C 582 1676 595 2009 762 2297 
C 890 2508 1139 2713 1466 2713 
C 1754 2713 1997 2553 2150 2329 
C 2349 2028 2349 1606 2349 1408 
C 2349 1158 2336 774 2163 467 
C 1984 172 1709 51 1466 51 
z
" transform="scale(0.015625)"/>
       <path id="CMR17-6e" d="M 2656 1954 
C 2656 2282 2592 2816 1837 2816 
C 1331 2816 1069 2424 973 2166 
L 966 2166 
L 966 2816 
L 211 2745 
L 211 2578 
C 589 2578 646 2540 646 2231 
L 646 443 
C 646 198 621 166 211 166 
L 211 0 
C 365 12 646 12 813 12 
C 979 12 1267 12 1421 0 
L 1421 166 
C 1011 166 986 192 986 443 
L 986 1678 
C 986 2269 1344 2713 1792 2713 
C 2266 2713 2317 2289 2317 1980 
L 2317 443 
C 2317 198 2291 166 1882 166 
L 1882 0 
C 2035 12 2317 12 2483 12 
C 2650 12 2938 12 3091 0 
L 3091 166 
C 2682 166 2656 192 2656 443 
L 2656 1954 
z
" transform="scale(0.015625)"/>
       <path id="CMR17-73" d="M 1978 2688 
C 1978 2803 1971 2809 1933 2809 
C 1907 2809 1901 2803 1824 2707 
C 1805 2681 1747 2617 1728 2592 
C 1523 2809 1235 2816 1126 2816 
C 416 2816 160 2444 160 2073 
C 160 1497 813 1363 998 1324 
C 1402 1241 1542 1216 1677 1100 
C 1760 1024 1901 883 1901 652 
C 1901 384 1747 38 1158 38 
C 602 38 403 460 288 1024 
C 269 1113 269 1120 218 1120 
C 166 1120 160 1113 160 985 
L 160 64 
C 160 -52 166 -58 205 -58 
C 237 -58 243 -52 275 0 
C 314 57 410 211 448 275 
C 576 102 800 -64 1158 -64 
C 1792 -64 2131 281 2131 780 
C 2131 1107 1958 1280 1875 1356 
C 1683 1555 1459 1600 1190 1651 
C 838 1728 390 1817 390 2208 
C 390 2374 480 2726 1126 2726 
C 1811 2726 1850 2086 1862 1881 
C 1869 1849 1901 1843 1920 1843 
C 1978 1843 1978 1862 1978 1971 
L 1978 2688 
z
" transform="scale(0.015625)"/>
       <path id="CMR17-74" d="M 966 2585 
L 1862 2585 
L 1862 2752 
L 966 2752 
L 966 3968 
L 851 3968 
C 838 3292 614 2700 70 2687 
L 70 2585 
L 627 2585 
L 627 778 
C 627 655 627 -64 1370 -64 
C 1747 -64 1965 308 1965 784 
L 1965 1151 
L 1850 1151 
L 1850 790 
C 1850 347 1677 51 1408 51 
C 1222 51 966 179 966 765 
L 966 2585 
z
" transform="scale(0.015625)"/>
       <path id="CMR17-61" d="M 2304 1656 
C 2304 2048 2304 2275 2035 2534 
C 1798 2751 1523 2816 1306 2816 
C 800 2816 435 2408 435 1977 
C 435 1740 627 1728 666 1728 
C 749 1728 896 1779 896 1958 
C 896 2118 774 2188 666 2188 
C 640 2188 608 2182 589 2176 
C 723 2594 1069 2713 1293 2713 
C 1613 2713 1965 2421 1965 1875 
L 1965 1632 
C 1587 1619 1133 1568 774 1373 
C 371 1147 256 822 256 576 
C 256 77 832 -64 1171 -64 
C 1523 -64 1850 135 1990 505 
C 2003 219 2182 -39 2464 -39 
C 2598 -39 2938 51 2938 563 
L 2938 926 
L 2822 926 
L 2822 557 
C 2822 161 2650 109 2566 109 
C 2304 109 2304 446 2304 732 
L 2304 1656 
z
M 1965 887 
C 1965 323 1568 38 1216 38 
C 896 38 646 278 646 576 
C 646 771 730 1114 1101 1322 
C 1408 1497 1760 1523 1965 1536 
L 1965 887 
z
" transform="scale(0.015625)"/>
      </defs>
      <use xlink:href="#CMMI12-45" transform="scale(0.996264)"/>
      <use xlink:href="#CMMI12-49" transform="translate(78.051636 0) scale(0.996264)"/>
      <use xlink:href="#CMMI12-49" transform="translate(128.90815 36.153639) scale(0.697382)"/>
      <use xlink:href="#CMR17-6b" transform="translate(195.081631 0) scale(0.996264)"/>
      <use xlink:href="#CMR17-6f" transform="translate(240.772092 0) scale(0.996264)"/>
      <use xlink:href="#CMR17-6e" transform="translate(286.46257 0) scale(0.996264)"/>
      <use xlink:href="#CMR17-73" transform="translate(337.357939 0) scale(0.996264)"/>
      <use xlink:href="#CMR17-74" transform="translate(373.159277 0) scale(0.996264)"/>
      <use xlink:href="#CMR17-61" transform="translate(408.440045 0) scale(0.996264)"/>
      <use xlink:href="#CMR17-6e" transform="translate(454.130522 0) scale(0.996264)"/>
      <use xlink:href="#CMR17-74" transform="translate(502.423438 0) scale(0.996264)"/>
     </g>
    </g>
    <g id="line2d_33">
     <path d="M 268.143146 44.451468 
L 278.143146 44.451468 
L 288.143146 44.451468 
" style="fill: none; stroke-dasharray: 0.7,1.155; stroke-dashoffset: 0; stroke: #000000; stroke-width: 0.7"/>
    </g>
    <g id="text_16">
     <!-- $EI^{II}$ konstant -->
     <g transform="translate(296.143146 47.951468) scale(0.1 -0.1)">
      <use xlink:href="#CMMI12-45" transform="scale(0.996264)"/>
      <use xlink:href="#CMMI12-49" transform="translate(78.051636 0) scale(0.996264)"/>
      <use xlink:href="#CMMI12-49" transform="translate(128.90815 36.153639) scale(0.697382)"/>
      <use xlink:href="#CMMI12-49" transform="translate(164.507532 36.153639) scale(0.697382)"/>
      <use xlink:href="#CMR17-6b" transform="translate(230.681012 0) scale(0.996264)"/>
      <use xlink:href="#CMR17-6f" transform="translate(276.371474 0) scale(0.996264)"/>
      <use xlink:href="#CMR17-6e" transform="translate(322.061952 0) scale(0.996264)"/>
      <use xlink:href="#CMR17-73" transform="translate(372.957321 0) scale(0.996264)"/>
      <use xlink:href="#CMR17-74" transform="translate(408.758659 0) scale(0.996264)"/>
      <use xlink:href="#CMR17-61" transform="translate(444.039427 0) scale(0.996264)"/>
      <use xlink:href="#CMR17-6e" transform="translate(489.729904 0) scale(0.996264)"/>
      <use xlink:href="#CMR17-74" transform="translate(538.02282 0) scale(0.996264)"/>
     </g>
    </g>
    <g id="line2d_34">
     <path d="M 268.143146 58.388647 
L 278.143146 58.388647 
L 288.143146 58.388647 
" style="fill: none; stroke-dasharray: 2.59,1.12; stroke-dashoffset: 0; stroke: #000000; stroke-width: 0.7"/>
    </g>
    <g id="text_17">
     <!-- Abschätzung Norm -->
     <g transform="translate(296.143146 61.888647) scale(0.1 -0.1)">
      <defs>
       <path id="CMR17-41" d="M 2323 4441 
C 2291 4524 2278 4544 2214 4544 
C 2150 4544 2138 4524 2106 4441 
L 749 580 
C 627 236 371 166 147 166 
L 147 0 
C 262 12 518 12 640 12 
C 800 12 1056 12 1210 0 
L 1210 166 
C 909 179 864 382 864 459 
C 864 516 877 548 890 586 
L 1229 1536 
L 2906 1536 
L 3290 453 
C 3322 376 3322 363 3322 338 
C 3322 166 3046 166 2925 166 
L 2925 0 
C 3110 12 3443 12 3642 12 
C 3808 12 4128 12 4282 0 
L 4282 166 
C 3942 166 3827 166 3744 402 
L 2323 4441 
z
M 2067 3924 
L 2848 1702 
L 1286 1702 
L 2067 3924 
z
" transform="scale(0.015625)"/>
       <path id="CMR17-62" d="M 960 4416 
L 198 4345 
L 198 4179 
C 576 4179 634 4141 634 3843 
L 634 -13 
L 749 -13 
L 934 445 
C 1120 141 1395 -64 1766 -64 
C 2406 -64 3053 503 3053 1382 
C 3053 2209 2477 2816 1830 2816 
C 1434 2816 1152 2603 960 2351 
L 960 4416 
z
M 973 2022 
C 973 2138 973 2157 1062 2293 
C 1312 2681 1670 2713 1792 2713 
C 1984 2713 2643 2610 2643 1388 
C 2643 109 1888 38 1734 38 
C 1536 38 1248 115 1043 490 
C 973 613 973 626 973 742 
L 973 2022 
z
" transform="scale(0.015625)"/>
       <path id="CMR17-63" d="M 2234 2240 
C 2112 2240 1933 2240 1933 2015 
C 1933 1836 2080 1785 2163 1785 
C 2208 1785 2394 1804 2394 2028 
C 2394 2476 1958 2816 1466 2816 
C 787 2816 211 2201 211 1379 
C 211 521 813 -64 1466 -64 
C 2259 -64 2458 676 2458 747 
C 2458 773 2451 792 2406 792 
C 2362 792 2355 786 2330 702 
C 2163 180 1798 51 1523 51 
C 1114 51 621 431 621 1385 
C 621 2358 1094 2700 1472 2700 
C 1722 2700 2093 2582 2234 2240 
z
" transform="scale(0.015625)"/>
       <path id="CMR17-68" d="M 2656 1954 
C 2656 2282 2592 2816 1837 2816 
C 1312 2816 1056 2392 979 2179 
L 973 2179 
L 973 4416 
L 211 4345 
L 211 4179 
C 589 4179 646 4141 646 3843 
L 646 443 
C 646 198 621 166 211 166 
L 211 0 
C 365 12 646 12 813 12 
C 979 12 1267 12 1421 0 
L 1421 166 
C 1011 166 986 192 986 443 
L 986 1678 
C 986 2269 1344 2713 1792 2713 
C 2266 2713 2317 2289 2317 1980 
L 2317 443 
C 2317 198 2291 166 1882 166 
L 1882 0 
C 2035 12 2317 12 2483 12 
C 2650 12 2938 12 3091 0 
L 3091 166 
C 2682 166 2656 192 2656 443 
L 2656 1954 
z
" transform="scale(0.015625)"/>
       <path id="CMR17-7f" d="M 1133 3961 
C 1133 4121 1005 4217 883 4217 
C 717 4217 627 4076 627 3968 
C 627 3840 730 3712 883 3712 
C 1018 3712 1133 3820 1133 3961 
z
M 2304 3961 
C 2304 4089 2202 4217 2048 4217 
C 1914 4217 1798 4108 1798 3968 
C 1798 3808 1926 3712 2048 3712 
C 2214 3712 2304 3852 2304 3961 
z
" transform="scale(0.015625)"/>
       <path id="CMR17-7a" d="M 2310 2604 
C 2362 2668 2362 2681 2362 2694 
C 2362 2752 2336 2752 2221 2752 
L 275 2752 
L 211 1760 
L 326 1760 
C 371 2380 442 2649 1178 2649 
L 1958 2649 
L 128 96 
C 128 6 134 0 269 0 
L 2291 0 
L 2381 1152 
L 2266 1152 
C 2214 441 2131 115 1350 115 
L 531 115 
L 2310 2604 
z
" transform="scale(0.015625)"/>
       <path id="CMR17-75" d="M 1882 2745 
L 1882 2579 
C 2259 2579 2317 2540 2317 2229 
L 2317 1053 
C 2317 510 2029 38 1555 38 
C 1030 38 986 355 986 691 
L 986 2816 
L 211 2745 
L 211 2579 
C 467 2579 640 2579 646 2320 
L 646 1079 
C 646 646 646 368 813 187 
C 896 103 1056 -64 1517 -64 
C 2061 -64 2272 400 2323 536 
L 2330 536 
L 2330 -64 
L 3091 -13 
L 3091 154 
C 2714 154 2656 193 2656 503 
L 2656 2816 
L 1882 2745 
z
" transform="scale(0.015625)"/>
       <path id="CMR17-67" d="M 710 1165 
C 832 1068 1043 960 1299 960 
C 1805 960 2240 1359 2240 1895 
C 2240 2063 2189 2321 1997 2521 
C 2176 2713 2438 2777 2586 2777 
C 2611 2777 2650 2777 2682 2758 
C 2656 2751 2598 2726 2598 2623 
C 2598 2540 2656 2483 2739 2483 
C 2835 2483 2886 2547 2886 2630 
C 2886 2751 2790 2880 2586 2880 
C 2330 2880 2106 2758 1926 2591 
C 1734 2764 1504 2828 1299 2828 
C 794 2828 358 2431 358 1895 
C 358 1527 570 1294 634 1230 
C 442 1004 442 742 442 710 
C 442 544 506 300 723 166 
C 390 82 128 -184 128 -517 
C 128 -996 736 -1344 1466 -1344 
C 2170 -1344 2803 -1009 2803 -510 
C 2803 384 1856 384 1363 384 
C 1216 384 954 384 922 390 
C 723 422 589 601 589 825 
C 589 883 589 1024 710 1165 
z
M 1299 1068 
C 736 1068 736 1766 736 1895 
C 736 2024 736 2719 1299 2719 
C 1862 2719 1862 2024 1862 1895 
C 1862 1766 1862 1068 1299 1068 
z
M 1466 -1236 
C 826 -1236 384 -883 384 -517 
C 384 -311 493 -118 634 -11 
C 794 102 858 102 1293 102 
C 1818 102 2547 102 2547 -517 
C 2547 -883 2106 -1236 1466 -1236 
z
" transform="scale(0.015625)"/>
       <path id="CMR17-72" d="M 960 1517 
C 960 2134 1222 2713 1702 2713 
C 1747 2713 1792 2707 1837 2687 
C 1837 2687 1696 2642 1696 2475 
C 1696 2321 1818 2257 1914 2257 
C 1990 2257 2131 2302 2131 2482 
C 2131 2687 1926 2816 1709 2816 
C 1222 2816 1011 2340 947 2115 
L 941 2115 
L 941 2816 
L 198 2745 
L 198 2578 
C 576 2578 634 2540 634 2231 
L 634 443 
C 634 198 608 166 198 166 
L 198 0 
C 352 12 646 12 813 12 
C 998 12 1325 12 1498 0 
L 1498 166 
C 1037 166 960 166 960 455 
L 960 1517 
z
" transform="scale(0.015625)"/>
      </defs>
      <use xlink:href="#CMR17-41" transform="scale(0.996264)"/>
      <use xlink:href="#CMR17-62" transform="translate(69.07243 0) scale(0.996264)"/>
      <use xlink:href="#CMR17-73" transform="translate(119.9678 0) scale(0.996264)"/>
      <use xlink:href="#CMR17-63" transform="translate(155.769137 0) scale(0.996264)"/>
      <use xlink:href="#CMR17-68" transform="translate(193.652344 0) scale(0.996264)"/>
      <use xlink:href="#CMR17-7f" transform="translate(244.547714 0) scale(0.996264)"/>
      <use xlink:href="#CMR17-61" transform="translate(244.547714 0) scale(0.996264)"/>
      <use xlink:href="#CMR17-74" transform="translate(290.238191 0) scale(0.996264)"/>
      <use xlink:href="#CMR17-7a" transform="translate(325.518958 0) scale(0.996264)"/>
      <use xlink:href="#CMR17-75" transform="translate(366.004619 0) scale(0.996264)"/>
      <use xlink:href="#CMR17-6e" transform="translate(416.899989 0) scale(0.996264)"/>
      <use xlink:href="#CMR17-67" transform="translate(467.795358 0) scale(0.996264)"/>
      <use xlink:href="#CMR17-4e" transform="translate(543.561802 0) scale(0.996264)"/>
      <use xlink:href="#CMR17-6f" transform="translate(612.634232 0) scale(0.996264)"/>
      <use xlink:href="#CMR17-72" transform="translate(658.324709 0) scale(0.996264)"/>
      <use xlink:href="#CMR17-6d" transform="translate(693.605477 0) scale(0.996264)"/>
     </g>
    </g>
    <g id="line2d_35">
     <path d="M 268.143146 72.797805 
L 278.143146 72.797805 
L 288.143146 72.797805 
" style="fill: none; stroke: #ff0000; stroke-width: 0.7; stroke-linecap: square"/>
    </g>
    <g id="text_18">
     <!-- nicht-linear $M(\chi)$ -->
     <g transform="translate(296.143146 76.297805) scale(0.1 -0.1)">
      <defs>
       <path id="CMR17-69" d="M 992 3961 
C 992 4102 877 4224 730 4224 
C 589 4224 467 4108 467 3961 
C 467 3820 582 3699 730 3699 
C 870 3699 992 3814 992 3961 
z
M 243 2745 
L 243 2579 
C 602 2579 653 2540 653 2231 
L 653 443 
C 653 198 627 166 218 166 
L 218 0 
C 371 12 646 12 806 12 
C 960 12 1222 12 1370 0 
L 1370 166 
C 992 166 979 205 979 436 
L 979 2816 
L 243 2745 
z
" transform="scale(0.015625)"/>
       <path id="CMR17-2d" d="M 1632 1254 
L 1632 1536 
L 26 1536 
L 26 1254 
L 1632 1254 
z
" transform="scale(0.015625)"/>
       <path id="CMR17-6c" d="M 979 4416 
L 218 4345 
L 218 4179 
C 595 4179 653 4141 653 3835 
L 653 439 
C 653 198 627 166 218 166 
L 218 0 
C 371 12 653 12 813 12 
C 979 12 1261 12 1414 0 
L 1414 166 
C 1005 166 979 191 979 439 
L 979 4416 
z
" transform="scale(0.015625)"/>
       <path id="CMR17-65" d="M 2438 1503 
C 2464 1529 2464 1542 2464 1606 
C 2464 2251 2118 2816 1389 2816 
C 710 2816 173 2175 173 1394 
C 173 554 781 -64 1459 -64 
C 2176 -64 2458 619 2458 755 
C 2458 800 2419 800 2406 800 
C 2362 800 2355 787 2330 709 
C 2189 270 1837 51 1504 51 
C 1229 51 954 206 781 490 
C 582 819 582 1200 582 1503 
L 2438 1503 
z
M 589 1600 
C 634 2511 1126 2713 1382 2713 
C 1818 2713 2112 2308 2118 1600 
L 589 1600 
z
" transform="scale(0.015625)"/>
       <path id="CMMI12-4d" d="M 5811 3886 
C 5869 4102 5882 4166 6336 4166 
C 6458 4166 6515 4166 6515 4287 
C 6515 4352 6470 4352 6349 4352 
L 5581 4352 
C 5421 4352 5414 4345 5344 4243 
L 3008 567 
L 2528 4211 
C 2509 4352 2502 4352 2336 4352 
L 1542 4352 
C 1421 4352 1363 4352 1363 4230 
C 1363 4166 1421 4166 1517 4166 
C 1907 4166 1907 4115 1907 4045 
C 1907 4032 1907 3994 1882 3898 
L 1062 650 
C 986 344 838 204 410 185 
C 390 185 314 179 314 70 
C 314 0 371 0 397 0 
C 525 0 851 12 979 12 
L 1286 12 
C 1376 12 1485 0 1574 0 
C 1619 0 1690 0 1690 121 
C 1690 179 1626 185 1600 185 
C 1389 191 1184 230 1184 459 
C 1184 523 1184 529 1210 618 
L 2093 4128 
L 2099 4128 
L 2630 172 
C 2650 19 2656 0 2714 0 
C 2784 0 2816 51 2848 108 
L 5421 4159 
L 5427 4159 
L 4499 472 
C 4442 249 4429 185 3981 185 
C 3859 185 3795 185 3795 70 
C 3795 0 3853 0 3891 0 
C 4000 0 4128 12 4237 12 
L 4992 12 
C 5101 12 5235 0 5344 0 
C 5395 0 5466 0 5466 121 
C 5466 185 5408 185 5312 185 
C 4922 185 4922 236 4922 300 
C 4922 306 4922 351 4934 402 
L 5811 3886 
z
" transform="scale(0.015625)"/>
       <path id="CMR17-28" d="M 1958 -1562 
C 1958 -1556 1958 -1543 1939 -1524 
C 1645 -1223 858 -403 858 1596 
C 858 3595 1632 4408 1946 4729 
C 1946 4735 1958 4748 1958 4767 
C 1958 4787 1939 4800 1914 4800 
C 1843 4800 1299 4325 986 3620 
C 666 2909 576 2218 576 1603 
C 576 1141 621 360 1005 -467 
C 1312 -1133 1837 -1600 1914 -1600 
C 1946 -1600 1958 -1588 1958 -1562 
z
" transform="scale(0.015625)"/>
       <path id="CMMI12-1f" d="M 2112 1035 
C 1939 1562 1978 1511 1818 1956 
C 1619 2503 1568 2547 1478 2636 
C 1363 2739 1146 2816 922 2816 
C 563 2816 390 2484 390 2401 
C 390 2363 422 2344 461 2344 
C 512 2344 525 2376 531 2401 
C 627 2649 826 2687 883 2687 
C 1069 2687 1248 2230 1363 1925 
C 1517 1537 1594 1270 1766 653 
L 256 -1050 
C 198 -1120 198 -1146 198 -1152 
C 198 -1204 230 -1216 256 -1216 
C 282 -1216 301 -1204 320 -1184 
C 499 -1006 896 -535 1062 -345 
L 1805 494 
C 2118 -479 2118 -491 2214 -727 
C 2317 -968 2451 -1280 2995 -1280 
C 3360 -1280 3526 -955 3526 -866 
C 3526 -822 3488 -809 3456 -809 
C 3405 -809 3398 -835 3379 -886 
C 3309 -1064 3142 -1152 3040 -1152 
C 2957 -1152 2854 -1152 2573 -447 
C 2406 -21 2259 487 2150 882 
L 3667 2598 
C 3718 2655 3725 2662 3725 2687 
C 3725 2732 3693 2752 3661 2752 
C 3642 2752 3622 2752 3558 2681 
L 2112 1035 
z
" transform="scale(0.015625)"/>
       <path id="CMR17-29" d="M 1683 1596 
C 1683 2057 1638 2839 1254 3665 
C 947 4332 422 4800 346 4800 
C 326 4800 301 4793 301 4761 
C 301 4748 307 4742 314 4729 
C 621 4408 1402 3595 1402 1603 
C 1402 -396 627 -1210 314 -1530 
C 307 -1543 301 -1549 301 -1562 
C 301 -1594 326 -1600 346 -1600 
C 416 -1600 960 -1127 1274 -422 
C 1594 289 1683 981 1683 1596 
z
" transform="scale(0.015625)"/>
      </defs>
      <use xlink:href="#CMR17-6e" transform="scale(0.996264)"/>
      <use xlink:href="#CMR17-69" transform="translate(50.89537 0) scale(0.996264)"/>
      <use xlink:href="#CMR17-63" transform="translate(75.766428 0) scale(0.996264)"/>
      <use xlink:href="#CMR17-68" transform="translate(113.649635 0) scale(0.996264)"/>
      <use xlink:href="#CMR17-74" transform="translate(161.942551 0) scale(0.996264)"/>
      <use xlink:href="#CMR17-2d" transform="translate(197.223318 0) scale(0.996264)"/>
      <use xlink:href="#CMR17-6c" transform="translate(227.299285 0) scale(0.996264)"/>
      <use xlink:href="#CMR17-69" transform="translate(252.170343 0) scale(0.996264)"/>
      <use xlink:href="#CMR17-6e" transform="translate(277.041402 0) scale(0.996264)"/>
      <use xlink:href="#CMR17-65" transform="translate(327.936772 0) scale(0.996264)"/>
      <use xlink:href="#CMR17-61" transform="translate(368.422432 0) scale(0.996264)"/>
      <use xlink:href="#CMR17-72" transform="translate(414.112909 0) scale(0.996264)"/>
      <use xlink:href="#CMMI12-4d" transform="translate(479.469643 0) scale(0.996264)"/>
      <use xlink:href="#CMR17-28" transform="translate(584.249722 0) scale(0.996264)"/>
      <use xlink:href="#CMMI12-1f" transform="translate(619.53049 0) scale(0.996264)"/>
      <use xlink:href="#CMR17-29" transform="translate(680.643449 0) scale(0.996264)"/>
     </g>
    </g>
    <g id="line2d_36">
     <path d="M 268.143146 87.288465 
L 278.143146 87.288465 
L 288.143146 87.288465 
" style="fill: none; stroke-dasharray: 0.7,1.155; stroke-dashoffset: 0; stroke: #ff0000; stroke-width: 0.7"/>
    </g>
    <g id="text_19">
     <!-- Zugversteifung $\lambda = 1$ -->
     <g transform="translate(296.143146 90.788465) scale(0.1 -0.1)">
      <defs>
       <path id="CMR17-5a" d="M 3302 4223 
C 3302 4345 3296 4352 3162 4352 
L 442 4352 
L 378 2943 
L 493 2943 
C 531 3669 723 4185 1760 4185 
L 2816 4185 
L 339 204 
C 294 134 294 128 294 83 
C 294 0 307 0 435 0 
L 3245 0 
L 3334 1663 
L 3219 1663 
C 3162 828 3117 179 1894 179 
L 781 179 
L 3302 4223 
z
" transform="scale(0.015625)"/>
       <path id="CMR17-76" d="M 2502 2173 
C 2560 2315 2662 2572 3034 2585 
L 3034 2752 
C 2912 2745 2752 2739 2630 2739 
C 2496 2739 2285 2739 2157 2752 
L 2157 2585 
C 2317 2572 2406 2495 2406 2328 
C 2406 2270 2406 2257 2368 2167 
L 1664 379 
L 902 2308 
C 864 2392 864 2405 864 2431 
C 864 2585 1075 2585 1171 2585 
L 1171 2752 
C 1018 2739 736 2739 576 2739 
C 403 2739 205 2739 64 2752 
L 64 2585 
C 307 2585 442 2585 518 2386 
L 1446 44 
C 1485 -52 1491 -64 1549 -64 
C 1606 -64 1613 -52 1651 44 
L 2502 2173 
z
" transform="scale(0.015625)"/>
       <path id="CMR17-66" d="M 979 2585 
L 1709 2585 
L 1709 2752 
L 966 2752 
L 966 3539 
C 966 4076 1235 4377 1510 4377 
C 1594 4377 1690 4363 1754 4339 
C 1702 4326 1568 4281 1568 4121 
C 1568 3955 1696 3904 1786 3904 
C 1875 3904 2003 3955 2003 4121 
C 2003 4353 1773 4480 1517 4480 
C 1152 4480 653 4211 653 3526 
L 653 2752 
L 141 2752 
L 141 2585 
L 653 2585 
L 653 441 
C 653 198 627 166 218 166 
L 218 0 
C 371 12 666 12 832 12 
C 1018 12 1344 12 1517 0 
L 1517 166 
C 1056 166 979 166 979 454 
L 979 2585 
z
" transform="scale(0.015625)"/>
       <path id="CMMI12-15" d="M 1978 3963 
C 1818 4416 1312 4416 1229 4416 
C 1190 4416 1120 4416 1120 4351 
C 1120 4300 1158 4294 1190 4287 
C 1286 4275 1363 4262 1466 4078 
C 1530 3957 2189 2055 2189 2042 
C 2189 2036 2182 2029 2131 1978 
L 467 305 
C 390 229 339 178 339 95 
C 339 6 416 -71 518 -71 
C 544 -71 614 -58 653 -20 
C 755 76 1670 1190 2253 1877 
C 2419 1380 2624 795 2822 261 
C 2854 165 2886 76 2976 -7 
C 3040 -64 3053 -64 3232 -64 
L 3354 -64 
C 3379 -64 3424 -64 3424 -13 
C 3424 12 3418 19 3392 44 
C 3334 114 3290 229 3264 305 
L 1978 3963 
z
" transform="scale(0.015625)"/>
       <path id="CMR17-3d" d="M 4115 2048 
C 4211 2048 4307 2048 4307 2156 
C 4307 2272 4198 2272 4090 2272 
L 512 2272 
C 403 2272 294 2272 294 2156 
C 294 2048 390 2048 486 2048 
L 4115 2048 
z
M 4090 927 
C 4198 927 4307 927 4307 1043 
C 4307 1152 4211 1152 4115 1152 
L 486 1152 
C 390 1152 294 1152 294 1043 
C 294 927 403 927 512 927 
L 4090 927 
z
" transform="scale(0.015625)"/>
      </defs>
      <use xlink:href="#CMR17-5a" transform="scale(0.996264)"/>
      <use xlink:href="#CMR17-75" transform="translate(56.100171 0) scale(0.996264)"/>
      <use xlink:href="#CMR17-67" transform="translate(106.995541 0) scale(0.996264)"/>
      <use xlink:href="#CMR17-76" transform="translate(152.686018 0) scale(0.996264)"/>
      <use xlink:href="#CMR17-65" transform="translate(198.37648 0) scale(0.996264)"/>
      <use xlink:href="#CMR17-72" transform="translate(238.862141 0) scale(0.996264)"/>
      <use xlink:href="#CMR17-73" transform="translate(274.142908 0) scale(0.996264)"/>
      <use xlink:href="#CMR17-74" transform="translate(309.944246 0) scale(0.996264)"/>
      <use xlink:href="#CMR17-65" transform="translate(345.225014 0) scale(0.996264)"/>
      <use xlink:href="#CMR17-69" transform="translate(385.710674 0) scale(0.996264)"/>
      <use xlink:href="#CMR17-66" transform="translate(410.581733 0) scale(0.996264)"/>
      <use xlink:href="#CMR17-75" transform="translate(438.055245 0) scale(0.996264)"/>
      <use xlink:href="#CMR17-6e" transform="translate(488.950615 0) scale(0.996264)"/>
      <use xlink:href="#CMR17-67" transform="translate(539.845985 0) scale(0.996264)"/>
      <use xlink:href="#CMMI12-15" transform="translate(615.612428 0) scale(0.996264)"/>
      <use xlink:href="#CMR17-3d" transform="translate(700.190509 0) scale(0.996264)"/>
      <use xlink:href="#CMR17-31" transform="translate(799.579306 0) scale(0.996264)"/>
     </g>
    </g>
    <g id="line2d_37">
     <path d="M 268.143146 101.225643 
L 278.143146 101.225643 
L 288.143146 101.225643 
" style="fill: none; stroke-dasharray: 2.59,1.12; stroke-dashoffset: 0; stroke: #ff0000; stroke-width: 0.7"/>
    </g>
    <g id="text_20">
     <!-- Zugversteifung $\lambda = 0.5$ -->
     <g transform="translate(296.143146 104.725643) scale(0.1 -0.1)">
      <defs>
       <path id="CMMI12-3a" d="M 1178 307 
C 1178 492 1024 620 870 620 
C 685 620 557 467 557 313 
C 557 128 710 0 864 0 
C 1050 0 1178 153 1178 307 
z
" transform="scale(0.015625)"/>
      </defs>
      <use xlink:href="#CMR17-5a" transform="scale(0.996264)"/>
      <use xlink:href="#CMR17-75" transform="translate(56.100171 0) scale(0.996264)"/>
      <use xlink:href="#CMR17-67" transform="translate(106.995541 0) scale(0.996264)"/>
      <use xlink:href="#CMR17-76" transform="translate(152.686018 0) scale(0.996264)"/>
      <use xlink:href="#CMR17-65" transform="translate(198.37648 0) scale(0.996264)"/>
      <use xlink:href="#CMR17-72" transform="translate(238.862141 0) scale(0.996264)"/>
      <use xlink:href="#CMR17-73" transform="translate(274.142908 0) scale(0.996264)"/>
      <use xlink:href="#CMR17-74" transform="translate(309.944246 0) scale(0.996264)"/>
      <use xlink:href="#CMR17-65" transform="translate(345.225014 0) scale(0.996264)"/>
      <use xlink:href="#CMR17-69" transform="translate(385.710674 0) scale(0.996264)"/>
      <use xlink:href="#CMR17-66" transform="translate(410.581733 0) scale(0.996264)"/>
      <use xlink:href="#CMR17-75" transform="translate(438.055245 0) scale(0.996264)"/>
      <use xlink:href="#CMR17-6e" transform="translate(488.950615 0) scale(0.996264)"/>
      <use xlink:href="#CMR17-67" transform="translate(539.845985 0) scale(0.996264)"/>
      <use xlink:href="#CMMI12-15" transform="translate(615.612428 0) scale(0.996264)"/>
      <use xlink:href="#CMR17-3d" transform="translate(700.190509 0) scale(0.996264)"/>
      <use xlink:href="#CMR17-30" transform="translate(799.579306 0) scale(0.996264)"/>
      <use xlink:href="#CMMI12-3a" transform="translate(845.269783 0) scale(0.996264)"/>
      <use xlink:href="#CMR17-35" transform="translate(872.36696 0) scale(0.996264)"/>
     </g>
    </g>
    <g id="line2d_38">
     <path d="M 268.143146 115.162822 
L 278.143146 115.162822 
L 288.143146 115.162822 
" style="fill: none; stroke: #0000ff; stroke-width: 0.7; stroke-linecap: square"/>
    </g>
    <g id="text_21">
     <!-- Versuch A3V2 -->
     <g transform="translate(296.143146 118.662822) scale(0.1 -0.1)">
      <defs>
       <path id="CMR17-56" d="M 3776 3762 
C 3834 3903 3936 4179 4365 4185 
L 4365 4352 
C 4218 4339 4051 4339 3891 4339 
C 3738 4339 3475 4339 3328 4352 
L 3328 4185 
C 3648 4166 3661 3942 3661 3903 
C 3661 3833 3642 3788 3622 3737 
L 2362 448 
L 1043 3903 
C 1024 3948 1011 3980 1011 4012 
C 1011 4185 1267 4185 1402 4185 
L 1402 4352 
C 1197 4339 896 4339 685 4339 
C 518 4339 218 4339 64 4352 
L 64 4185 
C 435 4185 506 4160 582 3955 
L 2106 -26 
C 2138 -116 2144 -128 2214 -128 
C 2285 -128 2291 -116 2323 -26 
L 3776 3762 
z
" transform="scale(0.015625)"/>
      </defs>
      <use xlink:href="#CMR17-56" transform="scale(0.996264)"/>
      <use xlink:href="#CMR17-65" transform="translate(61.265174 0) scale(0.996264)"/>
      <use xlink:href="#CMR17-72" transform="translate(101.750835 0) scale(0.996264)"/>
      <use xlink:href="#CMR17-73" transform="translate(137.031603 0) scale(0.996264)"/>
      <use xlink:href="#CMR17-75" transform="translate(172.83294 0) scale(0.996264)"/>
      <use xlink:href="#CMR17-63" transform="translate(223.72831 0) scale(0.996264)"/>
      <use xlink:href="#CMR17-68" transform="translate(261.611517 0) scale(0.996264)"/>
      <use xlink:href="#CMR17-41" transform="translate(342.582853 0) scale(0.996264)"/>
      <use xlink:href="#CMR17-33" transform="translate(411.655283 0) scale(0.996264)"/>
      <use xlink:href="#CMR17-56" transform="translate(457.34576 0) scale(0.996264)"/>
      <use xlink:href="#CMR17-32" transform="translate(526.418189 0) scale(0.996264)"/>
     </g>
    </g>
   </g>
  </g>
 </g>
 <defs>
  <clipPath id="pc1405b7eed">
   <rect x="41.599174" y="7.2" width="362.7" height="122.4"/>
  </clipPath>
 </defs>
</svg>
