<?xml version="1.0" encoding="utf-8" standalone="no"?>
<!DOCTYPE svg PUBLIC "-//W3C//DTD SVG 1.1//EN"
  "http://www.w3.org/Graphics/SVG/1.1/DTD/svg11.dtd">
<svg xmlns:xlink="http://www.w3.org/1999/xlink" width="468pt" height="180pt" viewBox="0 0 468 180" xmlns="http://www.w3.org/2000/svg" version="1.1">
 <metadata>
  <rdf:RDF xmlns:dc="http://purl.org/dc/elements/1.1/" xmlns:cc="http://creativecommons.org/ns#" xmlns:rdf="http://www.w3.org/1999/02/22-rdf-syntax-ns#">
   <cc:Work>
    <dc:type rdf:resource="http://purl.org/dc/dcmitype/StillImage"/>
    <dc:date>2024-03-19T11:19:26.035005</dc:date>
    <dc:format>image/svg+xml</dc:format>
    <dc:creator>
     <cc:Agent>
      <dc:title>Matplotlib v3.8.3, https://matplotlib.org/</dc:title>
     </cc:Agent>
    </dc:creator>
   </cc:Work>
  </rdf:RDF>
 </metadata>
 <defs>
  <style type="text/css">*{stroke-linejoin: round; stroke-linecap: butt}</style>
 </defs>
 <g id="figure_1">
  <g id="patch_1">
   <path d="M 0 180 
L 468 180 
L 468 0 
L 0 0 
z
" style="fill: #ffffff"/>
  </g>
  <g id="axes_1">
   <g id="patch_2">
    <path d="M 58.5 144 
L 421.2 144 
L 421.2 21.6 
L 58.5 21.6 
z
" style="fill: #ffffff"/>
   </g>
   <g id="matplotlib.axis_1">
    <g id="xtick_1">
     <g id="line2d_1">
      <path d="M 74.986364 144 
L 74.986364 21.6 
" clip-path="url(#p1c5bba977c)" style="fill: none; stroke: #d3d3d3; stroke-width: 0.2; stroke-linecap: square"/>
     </g>
     <g id="line2d_2">
      <defs>
       <path id="mb7e77a7ab2" d="M 0 0 
L 0 -3.5 
" style="stroke: #000000; stroke-width: 0.8"/>
      </defs>
      <g>
       <use xlink:href="#mb7e77a7ab2" x="74.986364" y="144" style="stroke: #000000; stroke-width: 0.8"/>
      </g>
     </g>
     <g id="text_1">
      <!-- $\mathdefault{0}$ -->
      <g transform="translate(72.495696 154.418498) scale(0.1 -0.1)">
       <defs>
        <path id="CMR17-30" d="M 2688 2025 
C 2688 2416 2682 3080 2413 3591 
C 2176 4039 1798 4198 1466 4198 
C 1158 4198 768 4058 525 3597 
C 269 3118 243 2524 243 2025 
C 243 1661 250 1106 448 619 
C 723 -39 1216 -128 1466 -128 
C 1760 -128 2208 -7 2470 600 
C 2662 1042 2688 1559 2688 2025 
z
M 1466 -26 
C 1056 -26 813 325 723 812 
C 653 1188 653 1738 653 2096 
C 653 2588 653 2997 736 3387 
C 858 3929 1216 4096 1466 4096 
C 1728 4096 2067 3923 2189 3400 
C 2272 3036 2278 2607 2278 2096 
C 2278 1680 2278 1169 2202 792 
C 2067 95 1690 -26 1466 -26 
z
" transform="scale(0.015625)"/>
       </defs>
       <use xlink:href="#CMR17-30" transform="scale(0.996264)"/>
      </g>
     </g>
    </g>
    <g id="xtick_2">
     <g id="line2d_3">
      <path d="M 118.95 144 
L 118.95 21.6 
" clip-path="url(#p1c5bba977c)" style="fill: none; stroke: #d3d3d3; stroke-width: 0.2; stroke-linecap: square"/>
     </g>
     <g id="line2d_4">
      <g>
       <use xlink:href="#mb7e77a7ab2" x="118.95" y="144" style="stroke: #000000; stroke-width: 0.8"/>
      </g>
     </g>
     <g id="text_2">
      <!-- $\mathdefault{5}$ -->
      <g transform="translate(116.459332 154.418498) scale(0.1 -0.1)">
       <defs>
        <path id="CMR17-35" d="M 730 3692 
C 794 3666 1056 3584 1325 3584 
C 1920 3584 2246 3911 2432 4100 
C 2432 4157 2432 4192 2394 4192 
C 2387 4192 2374 4192 2323 4163 
C 2099 4058 1837 3973 1517 3973 
C 1325 3973 1037 3999 723 4139 
C 653 4171 640 4171 634 4171 
C 602 4171 595 4164 595 4037 
L 595 2203 
C 595 2089 595 2057 659 2057 
C 691 2057 704 2070 736 2114 
C 941 2401 1222 2522 1542 2522 
C 1766 2522 2246 2382 2246 1289 
C 2246 1085 2246 715 2054 421 
C 1894 159 1645 25 1370 25 
C 947 25 518 320 403 814 
C 429 807 480 795 506 795 
C 589 795 749 840 749 1038 
C 749 1210 627 1280 506 1280 
C 358 1280 262 1190 262 1011 
C 262 454 704 -128 1382 -128 
C 2042 -128 2669 440 2669 1264 
C 2669 2030 2170 2624 1549 2624 
C 1222 2624 947 2503 730 2274 
L 730 3692 
z
" transform="scale(0.015625)"/>
       </defs>
       <use xlink:href="#CMR17-35" transform="scale(0.996264)"/>
      </g>
     </g>
    </g>
    <g id="xtick_3">
     <g id="line2d_5">
      <path d="M 162.913636 144 
L 162.913636 21.6 
" clip-path="url(#p1c5bba977c)" style="fill: none; stroke: #d3d3d3; stroke-width: 0.2; stroke-linecap: square"/>
     </g>
     <g id="line2d_6">
      <g>
       <use xlink:href="#mb7e77a7ab2" x="162.913636" y="144" style="stroke: #000000; stroke-width: 0.8"/>
      </g>
     </g>
     <g id="text_3">
      <!-- $\mathdefault{10}$ -->
      <g transform="translate(157.932301 154.418498) scale(0.1 -0.1)">
       <defs>
        <path id="CMR17-31" d="M 1702 4058 
C 1702 4192 1696 4192 1606 4192 
C 1357 3916 979 3827 621 3827 
C 602 3827 570 3827 563 3808 
C 557 3795 557 3782 557 3648 
C 755 3648 1088 3686 1344 3839 
L 1344 461 
C 1344 236 1331 160 781 160 
L 589 160 
L 589 0 
C 896 0 1216 0 1523 0 
C 1830 0 2150 0 2458 0 
L 2458 160 
L 2266 160 
C 1715 160 1702 230 1702 458 
L 1702 4058 
z
" transform="scale(0.015625)"/>
       </defs>
       <use xlink:href="#CMR17-31" transform="scale(0.996264)"/>
       <use xlink:href="#CMR17-30" transform="translate(45.690477 0) scale(0.996264)"/>
      </g>
     </g>
    </g>
    <g id="xtick_4">
     <g id="line2d_7">
      <path d="M 206.877273 144 
L 206.877273 21.6 
" clip-path="url(#p1c5bba977c)" style="fill: none; stroke: #d3d3d3; stroke-width: 0.2; stroke-linecap: square"/>
     </g>
     <g id="line2d_8">
      <g>
       <use xlink:href="#mb7e77a7ab2" x="206.877273" y="144" style="stroke: #000000; stroke-width: 0.8"/>
      </g>
     </g>
     <g id="text_4">
      <!-- $\mathdefault{15}$ -->
      <g transform="translate(201.895937 154.418498) scale(0.1 -0.1)">
       <use xlink:href="#CMR17-31" transform="scale(0.996264)"/>
       <use xlink:href="#CMR17-35" transform="translate(45.690477 0) scale(0.996264)"/>
      </g>
     </g>
    </g>
    <g id="xtick_5">
     <g id="line2d_9">
      <path d="M 250.840909 144 
L 250.840909 21.6 
" clip-path="url(#p1c5bba977c)" style="fill: none; stroke: #d3d3d3; stroke-width: 0.2; stroke-linecap: square"/>
     </g>
     <g id="line2d_10">
      <g>
       <use xlink:href="#mb7e77a7ab2" x="250.840909" y="144" style="stroke: #000000; stroke-width: 0.8"/>
      </g>
     </g>
     <g id="text_5">
      <!-- $\mathdefault{20}$ -->
      <g transform="translate(245.859574 154.418498) scale(0.1 -0.1)">
       <defs>
        <path id="CMR17-32" d="M 2669 989 
L 2554 989 
C 2490 536 2438 459 2413 420 
C 2381 369 1920 369 1830 369 
L 602 369 
C 832 619 1280 1072 1824 1597 
C 2214 1967 2669 2402 2669 3035 
C 2669 3790 2067 4224 1395 4224 
C 691 4224 262 3604 262 3030 
C 262 2780 448 2748 525 2748 
C 589 2748 781 2787 781 3010 
C 781 3207 614 3264 525 3264 
C 486 3264 448 3258 422 3245 
C 544 3790 915 4058 1306 4058 
C 1862 4058 2227 3617 2227 3035 
C 2227 2479 1901 2000 1536 1584 
L 262 146 
L 262 0 
L 2515 0 
L 2669 989 
z
" transform="scale(0.015625)"/>
       </defs>
       <use xlink:href="#CMR17-32" transform="scale(0.996264)"/>
       <use xlink:href="#CMR17-30" transform="translate(45.690477 0) scale(0.996264)"/>
      </g>
     </g>
    </g>
    <g id="xtick_6">
     <g id="line2d_11">
      <path d="M 294.804545 144 
L 294.804545 21.6 
" clip-path="url(#p1c5bba977c)" style="fill: none; stroke: #d3d3d3; stroke-width: 0.2; stroke-linecap: square"/>
     </g>
     <g id="line2d_12">
      <g>
       <use xlink:href="#mb7e77a7ab2" x="294.804545" y="144" style="stroke: #000000; stroke-width: 0.8"/>
      </g>
     </g>
     <g id="text_6">
      <!-- $\mathdefault{25}$ -->
      <g transform="translate(289.82321 154.418498) scale(0.1 -0.1)">
       <use xlink:href="#CMR17-32" transform="scale(0.996264)"/>
       <use xlink:href="#CMR17-35" transform="translate(45.690477 0) scale(0.996264)"/>
      </g>
     </g>
    </g>
    <g id="xtick_7">
     <g id="line2d_13">
      <path d="M 338.768182 144 
L 338.768182 21.6 
" clip-path="url(#p1c5bba977c)" style="fill: none; stroke: #d3d3d3; stroke-width: 0.2; stroke-linecap: square"/>
     </g>
     <g id="line2d_14">
      <g>
       <use xlink:href="#mb7e77a7ab2" x="338.768182" y="144" style="stroke: #000000; stroke-width: 0.8"/>
      </g>
     </g>
     <g id="text_7">
      <!-- $\mathdefault{30}$ -->
      <g transform="translate(333.786847 154.418498) scale(0.1 -0.1)">
       <defs>
        <path id="CMR17-33" d="M 1414 2157 
C 1984 2157 2234 1662 2234 1090 
C 2234 320 1824 25 1453 25 
C 1114 25 563 194 390 693 
C 422 680 454 680 486 680 
C 640 680 755 782 755 948 
C 755 1133 614 1216 486 1216 
C 378 1216 211 1165 211 926 
C 211 335 787 -128 1466 -128 
C 2176 -128 2720 430 2720 1085 
C 2720 1707 2208 2157 1600 2227 
C 2086 2328 2554 2756 2554 3329 
C 2554 3820 2048 4179 1472 4179 
C 890 4179 378 3829 378 3329 
C 378 3110 544 3072 627 3072 
C 762 3072 877 3155 877 3321 
C 877 3486 762 3569 627 3569 
C 602 3569 570 3569 544 3557 
C 730 3959 1235 4032 1459 4032 
C 1683 4032 2106 3925 2106 3320 
C 2106 3143 2080 2828 1862 2550 
C 1670 2304 1453 2304 1242 2284 
C 1210 2284 1062 2269 1037 2269 
C 992 2263 966 2257 966 2208 
C 966 2163 973 2157 1101 2157 
L 1414 2157 
z
" transform="scale(0.015625)"/>
       </defs>
       <use xlink:href="#CMR17-33" transform="scale(0.996264)"/>
       <use xlink:href="#CMR17-30" transform="translate(45.690477 0) scale(0.996264)"/>
      </g>
     </g>
    </g>
    <g id="xtick_8">
     <g id="line2d_15">
      <path d="M 382.731818 144 
L 382.731818 21.6 
" clip-path="url(#p1c5bba977c)" style="fill: none; stroke: #d3d3d3; stroke-width: 0.2; stroke-linecap: square"/>
     </g>
     <g id="line2d_16">
      <g>
       <use xlink:href="#mb7e77a7ab2" x="382.731818" y="144" style="stroke: #000000; stroke-width: 0.8"/>
      </g>
     </g>
     <g id="text_8">
      <!-- $\mathdefault{35}$ -->
      <g transform="translate(377.750483 154.418498) scale(0.1 -0.1)">
       <use xlink:href="#CMR17-33" transform="scale(0.996264)"/>
       <use xlink:href="#CMR17-35" transform="translate(45.690477 0) scale(0.996264)"/>
      </g>
     </g>
    </g>
    <g id="text_9">
     <!-- $w_{1}$ [mm] -->
     <g transform="translate(218.342283 169.322053) scale(0.12 -0.12)">
      <defs>
       <path id="CMMI12-77" d="M 2202 390 
C 2342 6 2739 -64 2982 -64 
C 3469 -64 3757 358 3936 798 
C 4083 1169 4320 2012 4320 2389 
C 4320 2778 4122 2816 4064 2816 
C 3910 2816 3770 2663 3770 2535 
C 3770 2459 3814 2414 3846 2389 
C 3904 2331 4070 2159 4070 1827 
C 4070 1609 3891 1009 3757 709 
C 3578 319 3341 64 3008 64 
C 2650 64 2534 332 2534 626 
C 2534 811 2592 1035 2618 1143 
L 2886 2216 
C 2918 2344 2976 2567 2976 2593 
C 2976 2689 2899 2753 2803 2753 
C 2618 2753 2573 2593 2534 2440 
C 2470 2191 2202 1111 2176 971 
C 2150 862 2150 792 2150 651 
C 2150 498 1946 255 1939 243 
C 1869 172 1766 64 1568 64 
C 1062 64 1062 543 1062 651 
C 1062 856 1107 1137 1395 1897 
C 1472 2095 1504 2178 1504 2305 
C 1504 2574 1312 2816 998 2816 
C 410 2816 173 1890 173 1839 
C 173 1814 198 1782 243 1782 
C 301 1782 307 1807 333 1896 
C 493 2454 742 2682 979 2682 
C 1043 2682 1146 2682 1146 2478 
C 1146 2446 1146 2312 1037 2031 
C 736 1233 672 971 672 728 
C 672 57 1222 -64 1549 -64 
C 1658 -64 1946 -64 2202 390 
z
" transform="scale(0.015625)"/>
       <path id="CMR17-5b" d="M 1504 -1600 
L 1504 -1377 
L 902 -1377 
L 902 4544 
L 1504 4544 
L 1504 4767 
L 678 4767 
L 678 -1600 
L 1504 -1600 
z
" transform="scale(0.015625)"/>
       <path id="CMR17-6d" d="M 4326 1933 
C 4326 2252 4269 2790 3507 2790 
C 3072 2790 2771 2496 2656 2151 
L 2650 2151 
C 2573 2676 2195 2790 1837 2790 
C 1331 2790 1069 2400 973 2144 
L 966 2144 
L 966 2790 
L 211 2720 
L 211 2554 
C 589 2554 646 2515 646 2208 
L 646 428 
C 646 184 621 153 211 153 
L 211 -13 
C 365 0 646 0 813 0 
C 979 0 1267 0 1421 -13 
L 1421 153 
C 1011 153 986 178 986 428 
L 986 1658 
C 986 2247 1344 2688 1792 2688 
C 2266 2688 2317 2266 2317 1958 
L 2317 428 
C 2317 184 2291 153 1882 153 
L 1882 -13 
C 2035 0 2317 0 2483 0 
C 2650 0 2938 0 3091 -13 
L 3091 153 
C 2682 153 2656 178 2656 428 
L 2656 1658 
C 2656 2247 3014 2688 3462 2688 
C 3936 2688 3987 2266 3987 1958 
L 3987 428 
C 3987 184 3962 153 3552 153 
L 3552 -13 
C 3706 0 3987 0 4154 0 
C 4320 0 4608 0 4762 -13 
L 4762 153 
C 4352 153 4326 178 4326 428 
L 4326 1933 
z
" transform="scale(0.015625)"/>
       <path id="CMR17-5d" d="M 915 4767 
L 90 4767 
L 90 4544 
L 691 4544 
L 691 -1377 
L 90 -1377 
L 90 -1600 
L 915 -1600 
L 915 4767 
z
" transform="scale(0.015625)"/>
      </defs>
      <use xlink:href="#CMMI12-77" transform="scale(0.996264)"/>
      <use xlink:href="#CMR17-31" transform="translate(69.73199 -14.943915) scale(0.697382)"/>
      <use xlink:href="#CMR17-5b" transform="translate(132.28927 0) scale(0.996264)"/>
      <use xlink:href="#CMR17-6d" transform="translate(157.160328 0) scale(0.996264)"/>
      <use xlink:href="#CMR17-6d" transform="translate(234.079918 0) scale(0.996264)"/>
      <use xlink:href="#CMR17-5d" transform="translate(310.999508 0) scale(0.996264)"/>
     </g>
    </g>
   </g>
   <g id="matplotlib.axis_2">
    <g id="ytick_1">
     <g id="line2d_17">
      <path d="M 58.5 138.436364 
L 421.2 138.436364 
" clip-path="url(#p1c5bba977c)" style="fill: none; stroke: #d3d3d3; stroke-width: 0.2; stroke-linecap: square"/>
     </g>
     <g id="line2d_18">
      <defs>
       <path id="mdcc15ed7e9" d="M 0 0 
L 3.5 0 
" style="stroke: #000000; stroke-width: 0.8"/>
      </defs>
      <g>
       <use xlink:href="#mdcc15ed7e9" x="58.5" y="138.436364" style="stroke: #000000; stroke-width: 0.8"/>
      </g>
     </g>
     <g id="text_10">
      <!-- $\mathdefault{0}$ -->
      <g transform="translate(50.018665 141.895613) scale(0.1 -0.1)">
       <use xlink:href="#CMR17-30" transform="scale(0.996264)"/>
      </g>
     </g>
    </g>
    <g id="ytick_2">
     <g id="line2d_19">
      <path d="M 58.5 104.839526 
L 421.2 104.839526 
" clip-path="url(#p1c5bba977c)" style="fill: none; stroke: #d3d3d3; stroke-width: 0.2; stroke-linecap: square"/>
     </g>
     <g id="line2d_20">
      <g>
       <use xlink:href="#mdcc15ed7e9" x="58.5" y="104.839526" style="stroke: #000000; stroke-width: 0.8"/>
      </g>
     </g>
     <g id="text_11">
      <!-- $\mathdefault{100}$ -->
      <g transform="translate(40.055994 108.298775) scale(0.1 -0.1)">
       <use xlink:href="#CMR17-31" transform="scale(0.996264)"/>
       <use xlink:href="#CMR17-30" transform="translate(45.690477 0) scale(0.996264)"/>
       <use xlink:href="#CMR17-30" transform="translate(91.380954 0) scale(0.996264)"/>
      </g>
     </g>
    </g>
    <g id="ytick_3">
     <g id="line2d_21">
      <path d="M 58.5 71.242688 
L 421.2 71.242688 
" clip-path="url(#p1c5bba977c)" style="fill: none; stroke: #d3d3d3; stroke-width: 0.2; stroke-linecap: square"/>
     </g>
     <g id="line2d_22">
      <g>
       <use xlink:href="#mdcc15ed7e9" x="58.5" y="71.242688" style="stroke: #000000; stroke-width: 0.8"/>
      </g>
     </g>
     <g id="text_12">
      <!-- $\mathdefault{200}$ -->
      <g transform="translate(40.055994 74.701937) scale(0.1 -0.1)">
       <use xlink:href="#CMR17-32" transform="scale(0.996264)"/>
       <use xlink:href="#CMR17-30" transform="translate(45.690477 0) scale(0.996264)"/>
       <use xlink:href="#CMR17-30" transform="translate(91.380954 0) scale(0.996264)"/>
      </g>
     </g>
    </g>
    <g id="ytick_4">
     <g id="line2d_23">
      <path d="M 58.5 37.64585 
L 421.2 37.64585 
" clip-path="url(#p1c5bba977c)" style="fill: none; stroke: #d3d3d3; stroke-width: 0.2; stroke-linecap: square"/>
     </g>
     <g id="line2d_24">
      <g>
       <use xlink:href="#mdcc15ed7e9" x="58.5" y="37.64585" style="stroke: #000000; stroke-width: 0.8"/>
      </g>
     </g>
     <g id="text_13">
      <!-- $\mathdefault{300}$ -->
      <g transform="translate(40.055994 41.105099) scale(0.1 -0.1)">
       <use xlink:href="#CMR17-33" transform="scale(0.996264)"/>
       <use xlink:href="#CMR17-30" transform="translate(45.690477 0) scale(0.996264)"/>
       <use xlink:href="#CMR17-30" transform="translate(91.380954 0) scale(0.996264)"/>
      </g>
     </g>
    </g>
    <g id="text_14">
     <!-- $F_{A}$ [kN] -->
     <g transform="translate(33.067202 102.688849) rotate(-90) scale(0.12 -0.12)">
      <defs>
       <path id="CMMI12-46" d="M 1901 2055 
L 2515 2055 
C 3002 2055 3040 1946 3040 1761 
C 3040 1678 3027 1589 2995 1448 
C 2982 1423 2976 1391 2976 1378 
C 2976 1333 3002 1308 3046 1308 
C 3098 1308 3104 1333 3130 1435 
L 3501 2935 
C 3501 2961 3482 2999 3437 2999 
C 3379 2999 3373 2974 3347 2863 
C 3213 2376 3085 2240 2528 2240 
L 1946 2240 
L 2362 3926 
C 2419 4154 2432 4154 2694 4154 
L 3552 4154 
C 4352 4154 4467 3918 4467 3464 
C 4467 3426 4467 3285 4448 3119 
C 4442 3094 4429 3011 4429 2985 
C 4429 2934 4461 2915 4499 2915 
C 4544 2915 4570 2941 4582 3055 
L 4717 4174 
C 4717 4195 4730 4263 4730 4277 
C 4730 4352 4672 4352 4557 4352 
L 1523 4352 
C 1402 4352 1338 4352 1338 4229 
C 1338 4154 1382 4154 1491 4154 
C 1888 4154 1888 4113 1888 4050 
C 1888 4018 1882 3992 1862 3922 
L 998 473 
C 941 249 928 185 480 185 
C 358 185 294 185 294 70 
C 294 0 352 0 390 0 
C 512 0 640 0 762 0 
L 1594 0 
C 1734 0 1888 0 2029 0 
C 2086 0 2163 0 2163 115 
C 2163 185 2125 185 1984 185 
C 1478 185 1466 229 1466 324 
C 1466 356 1478 406 1491 449 
L 1901 2055 
z
" transform="scale(0.015625)"/>
       <path id="CMMI12-41" d="M 1088 691 
C 864 314 646 186 339 186 
C 269 180 218 180 218 58 
C 218 24 250 0 294 0 
C 410 0 698 0 813 0 
C 998 0 1203 0 1382 0 
C 1421 0 1498 0 1498 122 
C 1498 180 1446 186 1408 186 
C 1261 186 1139 236 1139 388 
C 1139 476 1178 546 1261 685 
L 1747 1479 
L 3379 1479 
C 3386 1423 3386 1373 3392 1316 
C 3411 1152 3488 495 3488 376 
C 3488 186 3162 186 3059 186 
C 2989 186 2918 186 2918 70 
C 2918 0 2976 0 3014 0 
C 3123 0 3251 0 3360 0 
L 3725 0 
C 4115 0 4397 0 4403 0 
C 4448 0 4518 0 4518 122 
C 4518 186 4461 186 4365 186 
C 4013 186 4006 244 3987 434 
L 3597 4404 
C 3584 4531 3558 4544 3488 4544 
C 3424 4544 3386 4531 3328 4435 
L 1088 691 
z
M 1856 1664 
L 3142 3819 
L 3360 1664 
L 1856 1664 
z
" transform="scale(0.015625)"/>
       <path id="CMR17-6b" d="M 1670 1673 
C 1664 1686 1632 1724 1632 1743 
C 1632 1756 2086 2171 2144 2222 
C 2509 2528 2739 2560 2906 2560 
L 2906 2733 
C 2867 2733 2854 2733 2848 2720 
L 2534 2720 
C 2355 2720 2080 2720 1907 2733 
L 1907 2566 
C 1997 2559 2061 2508 2061 2419 
C 2061 2291 1933 2170 1926 2170 
L 960 1289 
L 960 4396 
L 198 4326 
L 198 4160 
C 576 4160 634 4122 634 3817 
L 634 426 
C 634 184 608 153 198 153 
L 198 -13 
C 352 0 634 0 794 0 
C 954 0 1235 0 1389 -13 
L 1389 153 
C 979 153 954 178 954 428 
L 954 1130 
L 1395 1532 
L 2042 574 
C 2118 459 2182 369 2182 286 
C 2182 172 2067 153 1990 153 
L 1990 -13 
C 2144 0 2419 0 2579 0 
C 2694 0 2931 0 3040 0 
L 3040 153 
C 2739 153 2669 210 2477 491 
L 1670 1673 
z
" transform="scale(0.015625)"/>
       <path id="CMR17-4e" d="M 1312 4250 
C 1267 4320 1261 4320 1139 4320 
L 326 4320 
L 326 4160 
L 448 4160 
C 704 4160 819 4129 838 4122 
L 838 610 
C 838 451 838 153 326 153 
L 326 -13 
C 474 0 742 0 902 0 
C 1062 0 1331 0 1478 -13 
L 1478 153 
C 966 153 966 451 966 610 
L 966 4033 
C 1011 3995 1011 3982 1056 3919 
L 3430 76 
C 3475 0 3494 0 3526 0 
C 3590 0 3590 19 3590 139 
L 3590 3705 
C 3590 3863 3590 4160 4102 4160 
L 4102 4326 
C 3955 4320 3686 4320 3526 4320 
C 3366 4320 3098 4320 2950 4326 
L 2950 4160 
C 3462 4160 3462 3862 3462 3703 
L 3462 763 
L 1312 4250 
z
" transform="scale(0.015625)"/>
      </defs>
      <use xlink:href="#CMMI12-46" transform="scale(0.996264)"/>
      <use xlink:href="#CMMI12-41" transform="translate(63.148204 -14.943915) scale(0.697382)"/>
      <use xlink:href="#CMR17-5b" transform="translate(144.911599 0) scale(0.996264)"/>
      <use xlink:href="#CMR17-6b" transform="translate(169.782657 0) scale(0.996264)"/>
      <use xlink:href="#CMR17-4e" transform="translate(218.075573 0) scale(0.996264)"/>
      <use xlink:href="#CMR17-5d" transform="translate(287.148003 0) scale(0.996264)"/>
     </g>
    </g>
   </g>
   <g id="line2d_25">
    <path d="M 74.986477 138.436028 
L 75.354301 137.350073 
L 75.722124 136.264118 
L 76.089947 135.178163 
L 76.457771 134.092208 
L 76.825594 133.006253 
L 77.193417 131.920298 
L 77.56124 130.834343 
L 77.929064 129.748388 
L 78.296887 128.662433 
L 78.66471 127.576478 
L 79.032533 126.490523 
L 79.400357 125.404568 
L 79.76818 124.318613 
L 80.136003 123.232658 
L 80.503826 122.146703 
L 80.87165 121.060748 
L 81.239473 119.974793 
L 81.607296 118.888838 
L 81.97512 117.802883 
L 82.342943 116.716928 
L 82.710766 115.630973 
L 83.078589 114.545018 
L 83.446413 113.459063 
L 83.814236 112.373108 
L 84.182059 111.287153 
L 84.549882 110.201198 
L 84.917706 109.115243 
L 85.285529 108.029288 
L 85.653352 106.943333 
L 86.021176 105.857378 
L 86.388999 104.771423 
L 86.756822 103.685468 
L 87.124645 102.599513 
L 87.492469 101.513558 
L 87.860292 100.427603 
L 88.228115 99.341648 
L 88.595938 98.255692 
L 88.963762 97.169737 
L 89.331585 96.083782 
L 89.699408 94.997827 
L 90.067232 93.911872 
L 90.435055 92.825917 
L 90.802878 91.739962 
L 91.170701 90.654007 
L 91.538525 89.568052 
L 91.906348 88.482097 
L 92.274171 87.396142 
L 92.641994 86.310187 
L 93.009818 85.224232 
L 93.377641 84.138277 
L 93.745464 83.052322 
L 94.113287 81.966367 
L 94.481111 80.880412 
L 94.848934 79.794457 
L 95.216757 78.708502 
L 95.584581 77.622547 
L 95.952404 76.536592 
L 96.320227 75.450637 
L 96.68805 74.364682 
L 97.055874 73.278727 
L 97.423697 72.192772 
L 97.79152 71.106817 
L 98.159343 70.020862 
L 98.527167 68.934907 
L 98.89499 67.848952 
L 99.262813 66.762997 
L 99.630637 65.677042 
L 99.99846 64.591087 
L 100.366283 63.505132 
L 100.734106 62.419177 
L 101.10193 61.333222 
L 101.469753 60.247267 
L 101.837576 59.161312 
L 102.205399 58.075357 
L 102.573223 56.989402 
L 102.941046 55.903447 
L 103.308869 54.817492 
L 103.676692 53.731537 
L 104.044516 52.645582 
L 104.412339 51.559627 
L 104.780162 50.473672 
L 105.147986 49.387717 
L 105.515809 48.301762 
L 105.883632 47.215807 
L 106.251455 46.129852 
L 106.619279 45.043897 
L 106.987102 43.957942 
L 107.354925 42.871987 
L 107.722748 41.786032 
L 108.090572 40.700077 
L 108.458395 39.614122 
L 108.826218 38.528167 
L 109.194042 37.442212 
L 109.561865 36.356257 
L 109.929688 35.270302 
L 110.297511 34.184347 
L 110.665335 33.098392 
L 111.033158 32.012437 
L 111.400981 30.926482 
" clip-path="url(#p1c5bba977c)" style="fill: none; stroke: #000000; stroke-width: 0.7; stroke-linecap: square"/>
   </g>
   <g id="line2d_26">
    <path d="M 74.986705 138.436028 
L 76.091654 137.350073 
L 77.196603 136.264118 
L 78.301552 135.178163 
L 79.406501 134.092208 
L 80.51145 133.006253 
L 81.616399 131.920298 
L 82.721347 130.834343 
L 83.826296 129.748388 
L 84.931245 128.662433 
L 86.036194 127.576478 
L 87.141143 126.490523 
L 88.246092 125.404568 
L 89.35104 124.318613 
L 90.455989 123.232658 
L 91.560938 122.146703 
L 92.665887 121.060748 
L 93.770836 119.974793 
L 94.875785 118.888838 
L 95.980734 117.802883 
L 97.085682 116.716928 
L 98.190631 115.630973 
L 99.29558 114.545018 
L 100.400529 113.459063 
L 101.505478 112.373108 
L 102.610427 111.287153 
L 103.715375 110.201198 
L 104.820324 109.115243 
L 105.925273 108.029288 
L 107.030222 106.943333 
L 108.135171 105.857378 
L 109.24012 104.771423 
L 110.345069 103.685468 
L 111.450017 102.599513 
L 112.554966 101.513558 
L 113.659915 100.427603 
L 114.764864 99.341648 
L 115.869813 98.255692 
L 116.974762 97.169737 
L 118.07971 96.083782 
L 119.184659 94.997827 
L 120.289608 93.911872 
L 121.394557 92.825917 
L 122.499506 91.739962 
L 123.604455 90.654007 
L 124.709403 89.568052 
L 125.814352 88.482097 
L 126.919301 87.396142 
L 128.02425 86.310187 
L 129.129199 85.224232 
L 130.234148 84.138277 
L 131.339097 83.052322 
L 132.444045 81.966367 
L 133.548994 80.880412 
L 134.653943 79.794457 
L 135.758892 78.708502 
L 136.863841 77.622547 
L 137.96879 76.536592 
L 139.073738 75.450637 
L 140.178687 74.364682 
L 141.283636 73.278727 
L 142.388585 72.192772 
L 143.493534 71.106817 
L 144.598483 70.020862 
L 145.703432 68.934907 
L 146.80838 67.848952 
L 147.913329 66.762997 
L 149.018278 65.677042 
L 150.123227 64.591087 
L 151.228176 63.505132 
L 152.333125 62.419177 
L 153.438073 61.333222 
L 154.543022 60.247267 
L 155.647971 59.161312 
L 156.75292 58.075357 
L 157.857869 56.989402 
L 158.962818 55.903447 
L 160.067766 54.817492 
L 161.172715 53.731537 
L 162.277664 52.645582 
L 163.382613 51.559627 
L 164.487562 50.473672 
L 165.592511 49.387717 
L 166.69746 48.301762 
L 167.802408 47.215807 
L 168.907357 46.129852 
L 170.012306 45.043897 
L 171.117255 43.957942 
L 172.222204 42.871987 
L 173.327153 41.786032 
L 174.432101 40.700077 
L 175.53705 39.614122 
L 176.641999 38.528167 
L 177.746948 37.442212 
L 178.851897 36.356257 
L 179.956846 35.270302 
L 181.061795 34.184347 
L 182.166743 33.098392 
L 183.271692 32.012437 
L 184.376641 30.926482 
" clip-path="url(#p1c5bba977c)" style="fill: none; stroke-dasharray: 0.7,1.155; stroke-dashoffset: 0; stroke: #000000; stroke-width: 0.7"/>
   </g>
   <g id="line2d_27">
    <path d="M 74.986909 138.436028 
L 76.748606 137.350073 
L 78.510303 136.264118 
L 80.272 135.178163 
L 82.033697 134.092208 
L 83.795394 133.006253 
L 85.557092 131.920298 
L 87.318789 130.834343 
L 89.080486 129.748388 
L 90.842183 128.662433 
L 92.60388 127.576478 
L 94.365577 126.490523 
L 96.127274 125.404568 
L 97.888972 124.318613 
L 99.650669 123.232658 
L 101.412366 122.146703 
L 103.174063 121.060748 
L 104.93576 119.974793 
L 106.697457 118.888838 
L 108.459154 117.802883 
L 110.220852 116.716928 
L 111.982549 115.630973 
L 113.744246 114.545018 
L 115.505943 113.459063 
L 117.26764 112.373108 
L 119.029337 111.287153 
L 120.791034 110.201198 
L 122.552732 109.115243 
L 124.314429 108.029288 
L 126.076126 106.943333 
L 127.837823 105.857378 
L 129.59952 104.771423 
L 131.361217 103.685468 
L 133.122914 102.599513 
L 134.884612 101.513558 
L 136.646309 100.427603 
L 138.408006 99.341648 
L 140.169703 98.255692 
L 141.9314 97.169737 
L 143.693097 96.083782 
L 145.454794 94.997827 
L 147.216492 93.911872 
L 148.978189 92.825917 
L 150.739886 91.739962 
L 152.501583 90.654007 
L 154.26328 89.568052 
L 156.024977 88.482097 
L 157.786674 87.396142 
L 159.548372 86.310187 
L 161.310069 85.224232 
L 163.071766 84.138277 
L 164.833463 83.052322 
L 166.59516 81.966367 
L 168.356857 80.880412 
L 170.118554 79.794457 
L 171.880252 78.708502 
L 173.641949 77.622547 
L 175.403646 76.536592 
L 177.165343 75.450637 
L 178.92704 74.364682 
L 180.688737 73.278727 
L 182.450434 72.192772 
L 184.212132 71.106817 
L 185.973829 70.020862 
L 187.735526 68.934907 
L 189.497223 67.848952 
L 191.25892 66.762997 
L 193.020617 65.677042 
L 194.782315 64.591087 
L 196.544012 63.505132 
L 198.305709 62.419177 
L 200.067406 61.333222 
L 201.829103 60.247267 
L 203.5908 59.161312 
L 205.352497 58.075357 
L 207.114195 56.989402 
L 208.875892 55.903447 
L 210.637589 54.817492 
L 212.399286 53.731537 
L 214.160983 52.645582 
L 215.92268 51.559627 
L 217.684377 50.473672 
L 219.446075 49.387717 
L 221.207772 48.301762 
L 222.969469 47.215807 
L 224.731166 46.129852 
L 226.492863 45.043897 
L 228.25456 43.957942 
L 230.016257 42.871987 
L 231.777955 41.786032 
L 233.539652 40.700077 
L 235.301349 39.614122 
L 237.063046 38.528167 
L 238.824743 37.442212 
L 240.58644 36.356257 
L 242.348137 35.270302 
L 244.109835 34.184347 
L 245.871532 33.098392 
L 247.633229 32.012437 
L 249.394926 30.926482 
" clip-path="url(#p1c5bba977c)" style="fill: none; stroke-dasharray: 2.59,1.12; stroke-dashoffset: 0; stroke: #000000; stroke-width: 0.7"/>
   </g>
   <g id="line2d_28">
    <path d="M 74.986471 138.436028 
L 75.332231 137.350073 
L 75.677991 136.264118 
L 76.023752 135.178163 
L 76.369512 134.092208 
L 76.715273 133.006253 
L 77.061033 131.920298 
L 77.406793 130.834343 
L 77.752554 129.748388 
L 78.098314 128.662433 
L 78.444075 127.576478 
L 78.789835 126.490523 
L 79.135595 125.404568 
L 83.81408 124.318613 
L 85.738508 123.232658 
L 87.499 122.146703 
L 89.147068 121.060748 
L 90.691495 119.974793 
L 92.168386 118.888838 
L 93.577388 117.802883 
L 94.948181 116.716928 
L 96.282645 115.630973 
L 97.578853 114.545018 
L 98.856 113.459063 
L 100.107141 112.373108 
L 101.341415 111.287153 
L 102.563301 110.201198 
L 103.769823 109.115243 
L 104.965312 108.029288 
L 106.150375 106.943333 
L 107.328433 105.857378 
L 108.499738 104.771423 
L 109.66202 103.685468 
L 110.823617 102.599513 
L 111.974123 101.513558 
L 113.124178 100.427603 
L 114.271417 99.341648 
L 115.413447 98.255692 
L 116.553004 97.169737 
L 117.689753 96.083782 
L 118.824223 94.997827 
L 119.956068 93.911872 
L 121.08585 92.825917 
L 122.21531 91.739962 
L 123.340765 90.654007 
L 124.465992 89.568052 
L 125.583504 88.482097 
L 126.698917 87.396142 
L 127.816154 86.310187 
L 128.929983 85.224232 
L 130.043732 84.138277 
L 131.159268 83.052322 
L 132.272774 81.966367 
L 133.385029 80.880412 
L 134.49721 79.794457 
L 135.609301 78.708502 
L 136.720293 77.622547 
L 137.830416 76.536592 
L 138.941297 75.450637 
L 140.052112 74.364682 
L 141.161101 73.278727 
L 142.271777 72.192772 
L 143.382356 71.106817 
L 144.490371 70.020862 
L 145.600062 68.934907 
L 146.708018 67.848952 
L 147.814538 66.762997 
L 148.922063 65.677042 
L 150.028627 64.591087 
L 151.135202 63.505132 
L 152.242775 62.419177 
L 153.349379 61.333222 
L 154.455356 60.247267 
L 155.561985 59.161312 
L 156.669598 58.075357 
L 157.77624 56.989402 
L 158.882287 55.903447 
L 159.98894 54.817492 
L 161.095017 53.731537 
L 162.201109 52.645582 
L 163.307776 51.559627 
L 164.41389 50.473672 
L 165.520016 49.387717 
L 166.626153 48.301762 
L 167.732826 47.215807 
L 168.838975 46.129852 
L 169.945132 45.043897 
L 171.049809 43.957942 
L 172.155989 42.871987 
L 178.225376 41.786032 
L 189.273021 40.700077 
L 200.771399 39.614122 
L 212.700751 38.528167 
L 225.040926 37.442212 
L 237.77579 36.356257 
L 250.888329 35.270302 
L 264.362099 34.184347 
L 278.180505 33.098392 
L 292.331898 32.012437 
L 306.801249 30.926482 
" clip-path="url(#p1c5bba977c)" style="fill: none; stroke: #006400; stroke-width: 0.7; stroke-linecap: square"/>
   </g>
   <g id="line2d_29">
    <path d="M 74.986471 138.436028 
L 75.332231 137.350073 
L 75.677991 136.264118 
L 76.023752 135.178163 
L 76.369512 134.092208 
L 76.715273 133.006253 
L 77.061033 131.920298 
L 77.406793 130.834343 
L 77.752554 129.748388 
L 78.098314 128.662433 
L 78.444075 127.576478 
L 78.789835 126.490523 
L 79.135595 125.404568 
L 81.622151 124.318613 
L 82.931076 123.232658 
L 84.199791 122.146703 
L 85.443568 121.060748 
L 86.659719 119.974793 
L 87.860755 118.888838 
L 89.042765 117.802883 
L 90.217374 116.716928 
L 91.383348 115.630973 
L 92.538088 114.545018 
L 93.68963 113.459063 
L 94.833565 112.373108 
L 95.973514 111.287153 
L 97.110993 110.201198 
L 98.244012 109.115243 
L 99.374235 108.029288 
L 100.50159 106.943333 
L 101.627438 105.857378 
L 102.751647 104.771423 
L 103.872896 103.685468 
L 104.995062 102.599513 
L 106.112928 101.513558 
L 107.231539 100.427603 
L 108.349631 99.341648 
L 109.465943 98.255692 
L 110.581721 97.169737 
L 111.69673 96.083782 
L 112.811163 94.997827 
L 113.924796 93.911872 
L 115.037854 92.825917 
L 116.151141 91.739962 
L 117.262827 90.654007 
L 118.374716 89.568052 
L 119.4831 88.482097 
L 120.590651 87.396142 
L 121.699263 86.310187 
L 122.806375 85.224232 
L 123.913591 84.138277 
L 125.02181 83.052322 
L 126.129163 81.966367 
L 127.236019 80.880412 
L 128.342942 79.794457 
L 129.449917 78.708502 
L 130.556444 77.622547 
L 131.66263 76.536592 
L 132.76926 75.450637 
L 133.875926 74.364682 
L 134.981769 73.278727 
L 136.088493 72.192772 
L 137.195225 71.106817 
L 138.300762 70.020862 
L 139.407162 68.934907 
L 140.512763 67.848952 
L 141.617696 66.762997 
L 142.723148 65.677042 
L 143.828158 64.591087 
L 144.933197 63.505132 
L 146.038748 62.419177 
L 147.143849 61.333222 
L 148.248667 60.247267 
L 149.353823 59.161312 
L 150.459477 58.075357 
L 151.564678 56.989402 
L 152.669608 55.903447 
L 153.77485 54.817492 
L 154.879828 53.731537 
L 155.984828 52.645582 
L 157.090124 51.559627 
L 158.195166 50.473672 
L 159.300227 49.387717 
L 160.405306 48.301762 
L 161.510659 47.215807 
L 162.61577 46.129852 
L 163.720896 45.043897 
L 164.825313 43.957942 
L 165.930474 42.871987 
L 174.103315 41.786032 
L 185.253142 40.700077 
L 196.848653 39.614122 
L 208.870015 38.528167 
L 221.301618 37.442212 
L 234.122897 36.356257 
L 247.320422 35.270302 
L 260.874615 34.184347 
L 274.773257 33.098392 
L 289.003238 32.012437 
L 303.543181 30.926482 
" clip-path="url(#p1c5bba977c)" style="fill: none; stroke-dasharray: 0.7,1.155; stroke-dashoffset: 0; stroke: #006400; stroke-width: 0.7"/>
   </g>
   <g id="line2d_30">
    <path d="M 74.986471 138.436028 
L 75.332231 137.350073 
L 75.677991 136.264118 
L 76.023752 135.178163 
L 76.369512 134.092208 
L 76.715273 133.006253 
L 77.061033 131.920298 
L 77.406793 130.834343 
L 77.752554 129.748388 
L 78.098314 128.662433 
L 78.444075 127.576478 
L 78.789835 126.490523 
L 79.135595 125.404568 
L 82.718116 124.318613 
L 84.334792 123.232658 
L 85.849395 122.146703 
L 87.295318 121.060748 
L 88.675607 119.974793 
L 90.01457 118.888838 
L 91.310076 117.802883 
L 92.582778 116.716928 
L 93.832996 115.630973 
L 95.05847 114.545018 
L 96.272815 113.459063 
L 97.470353 112.373108 
L 98.657464 111.287153 
L 99.837147 110.201198 
L 101.006917 109.115243 
L 102.169774 108.029288 
L 103.325982 106.943333 
L 104.477936 105.857378 
L 105.625693 104.771423 
L 106.767458 103.685468 
L 107.909339 102.599513 
L 109.043526 101.513558 
L 110.177859 100.427603 
L 111.310524 99.341648 
L 112.439695 98.255692 
L 113.567363 97.169737 
L 114.693241 96.083782 
L 115.817693 94.997827 
L 116.940432 93.911872 
L 118.061852 92.825917 
L 119.183226 91.739962 
L 120.301796 90.654007 
L 121.420354 89.568052 
L 122.533302 88.482097 
L 123.644784 87.396142 
L 124.757709 86.310187 
L 125.868179 85.224232 
L 126.978661 84.138277 
L 128.090539 83.052322 
L 129.200969 81.966367 
L 130.310524 80.880412 
L 131.420076 79.794457 
L 132.529609 78.708502 
L 133.638368 77.622547 
L 134.746523 76.536592 
L 135.855279 75.450637 
L 136.964019 74.364682 
L 138.071435 73.278727 
L 139.180135 72.192772 
L 140.288791 71.106817 
L 141.395566 70.020862 
L 142.503612 68.934907 
L 143.61039 67.848952 
L 144.716117 66.762997 
L 145.822606 65.677042 
L 146.928392 64.591087 
L 148.0342 63.505132 
L 149.140761 62.419177 
L 150.246614 61.333222 
L 151.352011 60.247267 
L 152.457904 59.161312 
L 153.564537 58.075357 
L 154.670459 56.989402 
L 155.775948 55.903447 
L 156.881895 54.817492 
L 157.987422 53.731537 
L 159.092969 52.645582 
L 160.19895 51.559627 
L 161.304528 50.473672 
L 162.410121 49.387717 
L 163.515729 48.301762 
L 164.621742 47.215807 
L 165.727372 46.129852 
L 166.833014 45.043897 
L 167.937561 43.957942 
L 169.043231 42.871987 
L 176.164346 41.786032 
L 187.263081 40.700077 
L 198.810026 39.614122 
L 210.785383 38.528167 
L 223.171272 37.442212 
L 235.949343 36.356257 
L 249.104375 35.270302 
L 262.618357 34.184347 
L 276.476881 33.098392 
L 290.667568 32.012437 
L 305.172215 30.926482 
" clip-path="url(#p1c5bba977c)" style="fill: none; stroke-dasharray: 2.59,1.12; stroke-dashoffset: 0; stroke: #006400; stroke-width: 0.7"/>
   </g>
   <g id="line2d_31">
    <path d="M 74.986364 138.436364 
L 141.811091 67.446245 
L 142.690364 69.865217 
L 153.241636 57.165613 
L 154.120909 58.879051 
L 166.430727 47.288142 
L 167.31 50.983794 
L 183.136909 37.444269 
L 184.895455 41.778261 
L 261.392182 29.381028 
L 265.788545 39.829644 
L 363.387818 27.163636 
L 398.558727 29.213043 
L 404.713636 37.041107 
" clip-path="url(#p1c5bba977c)" style="fill: none; stroke: #0000ff; stroke-width: 0.7; stroke-linecap: square"/>
   </g>
   <g id="patch_3">
    <path d="M 58.5 144 
L 58.5 21.6 
" style="fill: none; stroke: #000000; stroke-width: 0.5; stroke-linejoin: miter; stroke-linecap: square"/>
   </g>
   <g id="patch_4">
    <path d="M 58.5 144 
L 421.2 144 
" style="fill: none; stroke: #000000; stroke-width: 0.5; stroke-linejoin: miter; stroke-linecap: square"/>
   </g>
   <g id="legend_1">
    <g id="patch_5">
     <path d="M 283.043973 139 
L 414.2 139 
Q 416.2 139 416.2 137 
L 416.2 39.41429 
Q 416.2 37.41429 414.2 37.41429 
L 283.043973 37.41429 
Q 281.043973 37.41429 281.043973 39.41429 
L 281.043973 137 
Q 281.043973 139 283.043973 139 
z
" style="fill: #ffffff; opacity: 0.8; stroke: #cccccc; stroke-width: 0.5; stroke-linejoin: miter"/>
    </g>
    <g id="line2d_32">
     <path d="M 285.043973 44.91429 
L 295.043973 44.91429 
L 305.043973 44.91429 
" style="fill: none; stroke: #000000; stroke-width: 0.7; stroke-linecap: square"/>
    </g>
    <g id="text_15">
     <!-- $EI^{I}$ konstant -->
     <g transform="translate(313.043973 48.41429) scale(0.1 -0.1)">
      <defs>
       <path id="CMMI12-45" d="M 4448 1489 
C 4454 1508 4474 1554 4474 1579 
C 4474 1611 4448 1643 4410 1643 
C 4384 1643 4371 1637 4352 1617 
C 4339 1611 4339 1598 4282 1469 
C 3904 570 3629 185 2605 185 
L 1670 185 
C 1581 185 1568 185 1530 192 
C 1459 198 1453 211 1453 262 
C 1453 307 1466 345 1478 403 
L 1920 2176 
L 2554 2176 
C 3053 2176 3091 2066 3091 1874 
C 3091 1810 3091 1752 3046 1560 
C 3034 1534 3027 1508 3027 1489 
C 3027 1444 3059 1425 3098 1425 
C 3155 1425 3162 1469 3187 1559 
L 3552 3042 
C 3552 3073 3526 3105 3488 3105 
C 3430 3105 3424 3080 3398 2990 
C 3270 2501 3142 2361 2573 2361 
L 1965 2361 
L 2362 3930 
C 2419 4154 2432 4154 2694 4154 
L 3610 4154 
C 4397 4154 4557 3943 4557 3458 
C 4557 3451 4557 3273 4531 3062 
C 4525 3036 4518 2998 4518 2985 
C 4518 2934 4550 2915 4589 2915 
C 4634 2915 4659 2941 4672 3055 
L 4806 4174 
C 4806 4195 4819 4263 4819 4277 
C 4819 4352 4762 4352 4646 4352 
L 1523 4352 
C 1402 4352 1338 4352 1338 4229 
C 1338 4154 1382 4154 1491 4154 
C 1888 4154 1888 4114 1888 4052 
C 1888 4020 1882 3994 1862 3924 
L 998 473 
C 941 249 928 185 480 185 
C 358 185 294 185 294 70 
C 294 0 333 0 461 0 
L 3674 0 
C 3814 0 3821 6 3866 110 
L 4448 1489 
z
" transform="scale(0.015625)"/>
       <path id="CMMI12-49" d="M 2355 3880 
C 2413 4103 2426 4167 2893 4167 
C 3034 4167 3085 4167 3085 4288 
C 3085 4352 3014 4352 2995 4352 
C 2880 4352 2739 4352 2624 4352 
L 1837 4352 
C 1709 4352 1562 4352 1434 4352 
C 1382 4352 1312 4352 1312 4231 
C 1312 4167 1363 4167 1491 4167 
C 1888 4167 1888 4116 1888 4046 
C 1888 4002 1875 3963 1862 3906 
L 998 472 
C 941 249 928 185 461 185 
C 320 185 262 185 262 64 
C 262 0 326 0 358 0 
C 474 0 614 0 730 0 
L 1517 0 
C 1645 0 1786 0 1914 0 
C 1965 0 2042 0 2042 115 
C 2042 185 2003 185 1862 185 
C 1466 185 1466 236 1466 312 
C 1466 325 1466 357 1491 459 
L 2355 3880 
z
" transform="scale(0.015625)"/>
       <path id="CMR17-6f" d="M 2758 1356 
C 2758 2176 2163 2816 1466 2816 
C 768 2816 173 2176 173 1356 
C 173 551 768 -64 1466 -64 
C 2163 -64 2758 551 2758 1356 
z
M 1466 51 
C 1165 51 909 230 762 480 
C 602 767 582 1126 582 1408 
C 582 1677 595 2010 762 2298 
C 890 2509 1139 2714 1466 2714 
C 1754 2714 1997 2554 2150 2330 
C 2349 2029 2349 1607 2349 1408 
C 2349 1158 2336 775 2163 467 
C 1984 173 1709 51 1466 51 
z
" transform="scale(0.015625)"/>
       <path id="CMR17-6e" d="M 2656 1933 
C 2656 2259 2592 2790 1837 2790 
C 1331 2790 1069 2400 973 2144 
L 966 2144 
L 966 2790 
L 211 2720 
L 211 2554 
C 589 2554 646 2515 646 2208 
L 646 428 
C 646 184 621 153 211 153 
L 211 -13 
C 365 0 646 0 813 0 
C 979 0 1267 0 1421 -13 
L 1421 153 
C 1011 153 986 178 986 428 
L 986 1658 
C 986 2247 1344 2688 1792 2688 
C 2266 2688 2317 2266 2317 1958 
L 2317 428 
C 2317 184 2291 153 1882 153 
L 1882 -13 
C 2035 0 2317 0 2483 0 
C 2650 0 2938 0 3091 -13 
L 3091 153 
C 2682 153 2656 178 2656 428 
L 2656 1933 
z
" transform="scale(0.015625)"/>
       <path id="CMR17-73" d="M 1978 2697 
C 1978 2813 1971 2819 1933 2819 
C 1907 2819 1901 2813 1824 2717 
C 1805 2691 1747 2626 1728 2601 
C 1523 2819 1235 2819 1126 2819 
C 416 2819 160 2447 160 2076 
C 160 1498 813 1365 998 1325 
C 1402 1243 1542 1217 1677 1101 
C 1760 1025 1901 884 1901 654 
C 1901 384 1747 38 1158 38 
C 602 38 403 460 288 1021 
C 269 1110 269 1117 218 1117 
C 166 1117 160 1110 160 983 
L 160 63 
C 160 -51 166 -58 205 -58 
C 237 -58 243 -51 275 0 
C 314 57 410 211 448 276 
C 576 103 800 -64 1158 -64 
C 1792 -64 2131 283 2131 784 
C 2131 1112 1958 1285 1875 1362 
C 1683 1561 1459 1606 1190 1657 
C 838 1735 390 1825 390 2217 
C 390 2383 480 2737 1126 2737 
C 1811 2737 1850 2094 1862 1888 
C 1869 1856 1901 1849 1920 1849 
C 1978 1849 1978 1869 1978 1978 
L 1978 2697 
z
" transform="scale(0.015625)"/>
       <path id="CMR17-74" d="M 966 2560 
L 1862 2560 
L 1862 2725 
L 966 2725 
L 966 3904 
L 851 3904 
C 838 3245 614 2668 70 2668 
L 70 2560 
L 627 2560 
L 627 771 
C 627 650 627 -64 1370 -64 
C 1747 -64 1965 306 1965 777 
L 1965 1140 
L 1850 1140 
L 1850 783 
C 1850 344 1677 51 1408 51 
C 1222 51 966 178 966 758 
L 966 2560 
z
" transform="scale(0.015625)"/>
       <path id="CMR17-61" d="M 2304 1653 
C 2304 2072 2304 2294 2035 2543 
C 1798 2752 1523 2816 1306 2816 
C 800 2816 435 2407 435 1971 
C 435 1728 627 1728 666 1728 
C 749 1728 896 1778 896 1954 
C 896 2112 774 2181 666 2181 
C 640 2181 608 2174 589 2168 
C 723 2592 1069 2714 1293 2714 
C 1613 2714 1965 2429 1965 1885 
L 1965 1600 
C 1587 1600 1133 1549 774 1357 
C 371 1133 256 813 256 570 
C 256 77 832 -64 1171 -64 
C 1523 -64 1850 139 1990 511 
C 2003 233 2182 -18 2464 -18 
C 2598 -18 2938 70 2938 567 
L 2938 920 
L 2822 920 
L 2822 562 
C 2822 178 2650 128 2566 128 
C 2304 128 2304 458 2304 738 
L 2304 1653 
z
M 1965 870 
C 1965 317 1568 38 1216 38 
C 896 38 646 275 646 570 
C 646 761 730 1100 1101 1305 
C 1408 1478 1760 1504 1965 1504 
L 1965 870 
z
" transform="scale(0.015625)"/>
      </defs>
      <use xlink:href="#CMMI12-45" transform="scale(0.996264)"/>
      <use xlink:href="#CMMI12-49" transform="translate(78.051636 0) scale(0.996264)"/>
      <use xlink:href="#CMMI12-49" transform="translate(128.90815 36.153639) scale(0.697382)"/>
      <use xlink:href="#CMR17-6b" transform="translate(195.081631 0) scale(0.996264)"/>
      <use xlink:href="#CMR17-6f" transform="translate(240.772092 0) scale(0.996264)"/>
      <use xlink:href="#CMR17-6e" transform="translate(286.46257 0) scale(0.996264)"/>
      <use xlink:href="#CMR17-73" transform="translate(337.357939 0) scale(0.996264)"/>
      <use xlink:href="#CMR17-74" transform="translate(373.159277 0) scale(0.996264)"/>
      <use xlink:href="#CMR17-61" transform="translate(408.440045 0) scale(0.996264)"/>
      <use xlink:href="#CMR17-6e" transform="translate(454.130522 0) scale(0.996264)"/>
      <use xlink:href="#CMR17-74" transform="translate(502.423438 0) scale(0.996264)"/>
     </g>
    </g>
    <g id="line2d_33">
     <path d="M 285.043973 58.851468 
L 295.043973 58.851468 
L 305.043973 58.851468 
" style="fill: none; stroke-dasharray: 0.7,1.155; stroke-dashoffset: 0; stroke: #000000; stroke-width: 0.7"/>
    </g>
    <g id="text_16">
     <!-- $EI^{II}$ konstant -->
     <g transform="translate(313.043973 62.351468) scale(0.1 -0.1)">
      <use xlink:href="#CMMI12-45" transform="scale(0.996264)"/>
      <use xlink:href="#CMMI12-49" transform="translate(78.051636 0) scale(0.996264)"/>
      <use xlink:href="#CMMI12-49" transform="translate(128.90815 36.153639) scale(0.697382)"/>
      <use xlink:href="#CMMI12-49" transform="translate(164.507532 36.153639) scale(0.697382)"/>
      <use xlink:href="#CMR17-6b" transform="translate(230.681012 0) scale(0.996264)"/>
      <use xlink:href="#CMR17-6f" transform="translate(276.371474 0) scale(0.996264)"/>
      <use xlink:href="#CMR17-6e" transform="translate(322.061952 0) scale(0.996264)"/>
      <use xlink:href="#CMR17-73" transform="translate(372.957321 0) scale(0.996264)"/>
      <use xlink:href="#CMR17-74" transform="translate(408.758659 0) scale(0.996264)"/>
      <use xlink:href="#CMR17-61" transform="translate(444.039427 0) scale(0.996264)"/>
      <use xlink:href="#CMR17-6e" transform="translate(489.729904 0) scale(0.996264)"/>
      <use xlink:href="#CMR17-74" transform="translate(538.02282 0) scale(0.996264)"/>
     </g>
    </g>
    <g id="line2d_34">
     <path d="M 285.043973 72.788647 
L 295.043973 72.788647 
L 305.043973 72.788647 
" style="fill: none; stroke-dasharray: 2.59,1.12; stroke-dashoffset: 0; stroke: #000000; stroke-width: 0.7"/>
    </g>
    <g id="text_17">
     <!-- Abschätzung Norm -->
     <g transform="translate(313.043973 76.288647) scale(0.1 -0.1)">
      <defs>
       <path id="CMR17-41" d="M 2323 4378 
C 2291 4461 2278 4480 2214 4480 
C 2150 4480 2138 4461 2106 4378 
L 749 566 
C 627 223 371 153 147 153 
L 147 -13 
C 262 0 518 0 640 0 
C 800 0 1056 0 1210 -13 
L 1210 153 
C 909 153 864 361 864 439 
C 864 497 877 530 890 569 
L 1229 1536 
L 2906 1536 
L 3290 442 
C 3322 365 3322 352 3322 327 
C 3322 153 3046 153 2925 153 
L 2925 0 
C 3110 0 3443 0 3642 0 
C 3808 0 4128 0 4282 -13 
L 4282 153 
C 3942 153 3827 153 3744 387 
L 2323 4378 
z
M 2067 3893 
L 2848 1702 
L 1286 1702 
L 2067 3893 
z
" transform="scale(0.015625)"/>
       <path id="CMR17-62" d="M 960 4396 
L 198 4326 
L 198 4160 
C 576 4160 634 4122 634 3817 
L 634 -13 
L 749 -13 
L 934 441 
C 1120 141 1395 -64 1766 -64 
C 2406 -64 3053 500 3053 1370 
C 3053 2188 2477 2790 1830 2790 
C 1434 2790 1152 2579 960 2330 
L 960 4396 
z
M 973 2004 
C 973 2118 973 2138 1062 2272 
C 1312 2657 1670 2688 1792 2688 
C 1984 2688 2643 2585 2643 1376 
C 2643 108 1888 38 1734 38 
C 1536 38 1248 114 1043 486 
C 973 608 973 621 973 735 
L 973 2004 
z
" transform="scale(0.015625)"/>
       <path id="CMR17-63" d="M 2234 2240 
C 2112 2240 1933 2240 1933 2017 
C 1933 1838 2080 1787 2163 1787 
C 2208 1787 2394 1807 2394 2024 
C 2394 2467 1958 2803 1466 2803 
C 787 2803 211 2178 211 1363 
C 211 516 813 -64 1466 -64 
C 2259 -64 2458 677 2458 748 
C 2458 774 2451 793 2406 793 
C 2362 793 2355 787 2330 703 
C 2163 180 1798 51 1523 51 
C 1114 51 621 427 621 1369 
C 621 2338 1094 2688 1472 2688 
C 1722 2688 2093 2573 2234 2240 
z
" transform="scale(0.015625)"/>
       <path id="CMR17-68" d="M 2656 1933 
C 2656 2259 2592 2790 1837 2790 
C 1312 2790 1056 2368 979 2157 
L 973 2157 
L 973 4396 
L 211 4326 
L 211 4160 
C 589 4160 646 4122 646 3817 
L 646 426 
C 646 184 621 153 211 153 
L 211 -13 
C 365 0 646 0 813 0 
C 979 0 1267 0 1421 -13 
L 1421 153 
C 1011 153 986 178 986 428 
L 986 1658 
C 986 2247 1344 2688 1792 2688 
C 2266 2688 2317 2266 2317 1958 
L 2317 428 
C 2317 184 2291 153 1882 153 
L 1882 -13 
C 2035 0 2317 0 2483 0 
C 2650 0 2938 0 3091 -13 
L 3091 153 
C 2682 153 2656 178 2656 428 
L 2656 1933 
z
" transform="scale(0.015625)"/>
       <path id="CMR17-7f" d="M 1133 3961 
C 1133 4120 1005 4215 883 4215 
C 717 4215 627 4075 627 3967 
C 627 3840 730 3712 883 3712 
C 1018 3712 1133 3821 1133 3961 
z
M 2304 3961 
C 2304 4088 2202 4215 2048 4215 
C 1914 4215 1798 4107 1798 3967 
C 1798 3808 1926 3712 2048 3712 
C 2214 3712 2304 3852 2304 3961 
z
" transform="scale(0.015625)"/>
       <path id="CMR17-7a" d="M 2310 2605 
C 2362 2670 2362 2682 2362 2695 
C 2362 2752 2336 2752 2221 2752 
L 275 2752 
L 211 1760 
L 326 1760 
C 371 2381 442 2650 1178 2650 
L 1958 2650 
L 128 96 
C 128 0 134 0 269 0 
L 2291 0 
L 2381 1152 
L 2266 1152 
C 2214 442 2131 115 1350 115 
L 531 115 
L 2310 2605 
z
" transform="scale(0.015625)"/>
       <path id="CMR17-75" d="M 1882 2693 
L 1882 2528 
C 2259 2528 2317 2489 2317 2186 
L 2317 1032 
C 2317 500 2029 38 1555 38 
C 1030 38 986 348 986 678 
L 986 2763 
L 211 2693 
L 211 2528 
C 467 2528 640 2528 646 2274 
L 646 1058 
C 646 633 646 361 813 183 
C 896 101 1056 -64 1517 -64 
C 2061 -64 2272 377 2323 506 
L 2330 506 
L 2330 -63 
L 3091 -63 
L 3091 128 
C 2714 128 2656 166 2656 473 
L 2656 2763 
L 1882 2693 
z
" transform="scale(0.015625)"/>
       <path id="CMR17-67" d="M 710 1164 
C 832 1068 1043 960 1299 960 
C 1805 960 2240 1357 2240 1888 
C 2240 2054 2189 2310 1997 2509 
C 2176 2692 2438 2752 2586 2752 
C 2611 2752 2650 2752 2682 2734 
C 2656 2728 2598 2703 2598 2605 
C 2598 2527 2656 2471 2739 2471 
C 2835 2471 2886 2533 2886 2614 
C 2886 2731 2790 2854 2586 2854 
C 2330 2854 2106 2738 1926 2580 
C 1734 2753 1504 2816 1299 2816 
C 794 2816 358 2419 358 1888 
C 358 1522 570 1292 634 1228 
C 442 1004 442 743 442 711 
C 442 545 506 302 723 168 
C 390 85 128 -169 128 -486 
C 128 -943 736 -1280 1466 -1280 
C 2170 -1280 2803 -956 2803 -479 
C 2803 384 1856 384 1363 384 
C 1216 384 954 384 922 391 
C 723 423 589 602 589 826 
C 589 883 589 1024 710 1164 
z
M 1299 1068 
C 736 1068 736 1760 736 1889 
C 736 2016 736 2708 1299 2708 
C 1862 2708 1862 2016 1862 1889 
C 1862 1760 1862 1068 1299 1068 
z
M 1466 -1171 
C 826 -1171 384 -835 384 -486 
C 384 -289 493 -105 634 -4 
C 794 104 858 104 1293 104 
C 1818 104 2547 104 2547 -486 
C 2547 -835 2106 -1171 1466 -1171 
z
" transform="scale(0.015625)"/>
       <path id="CMR17-72" d="M 960 1497 
C 960 2112 1222 2688 1702 2688 
C 1747 2688 1792 2682 1837 2662 
C 1837 2662 1696 2617 1696 2452 
C 1696 2298 1818 2234 1914 2234 
C 1990 2234 2131 2279 2131 2458 
C 2131 2663 1926 2790 1709 2790 
C 1222 2790 1011 2317 947 2093 
L 941 2093 
L 941 2790 
L 198 2720 
L 198 2554 
C 576 2554 634 2515 634 2208 
L 634 428 
C 634 184 608 153 198 153 
L 198 -13 
C 352 0 646 0 813 0 
C 998 0 1325 0 1498 -13 
L 1498 153 
C 1037 153 960 153 960 440 
L 960 1497 
z
" transform="scale(0.015625)"/>
      </defs>
      <use xlink:href="#CMR17-41" transform="scale(0.996264)"/>
      <use xlink:href="#CMR17-62" transform="translate(69.07243 0) scale(0.996264)"/>
      <use xlink:href="#CMR17-73" transform="translate(119.9678 0) scale(0.996264)"/>
      <use xlink:href="#CMR17-63" transform="translate(155.769137 0) scale(0.996264)"/>
      <use xlink:href="#CMR17-68" transform="translate(193.652344 0) scale(0.996264)"/>
      <use xlink:href="#CMR17-7f" transform="translate(244.547714 0) scale(0.996264)"/>
      <use xlink:href="#CMR17-61" transform="translate(244.547714 0) scale(0.996264)"/>
      <use xlink:href="#CMR17-74" transform="translate(290.238191 0) scale(0.996264)"/>
      <use xlink:href="#CMR17-7a" transform="translate(325.518958 0) scale(0.996264)"/>
      <use xlink:href="#CMR17-75" transform="translate(366.004619 0) scale(0.996264)"/>
      <use xlink:href="#CMR17-6e" transform="translate(416.899989 0) scale(0.996264)"/>
      <use xlink:href="#CMR17-67" transform="translate(467.795358 0) scale(0.996264)"/>
      <use xlink:href="#CMR17-4e" transform="translate(543.561802 0) scale(0.996264)"/>
      <use xlink:href="#CMR17-6f" transform="translate(612.634232 0) scale(0.996264)"/>
      <use xlink:href="#CMR17-72" transform="translate(658.324709 0) scale(0.996264)"/>
      <use xlink:href="#CMR17-6d" transform="translate(693.605477 0) scale(0.996264)"/>
     </g>
    </g>
    <g id="line2d_35">
     <path d="M 285.043973 87.197805 
L 295.043973 87.197805 
L 305.043973 87.197805 
" style="fill: none; stroke: #006400; stroke-width: 0.7; stroke-linecap: square"/>
    </g>
    <g id="text_18">
     <!-- nicht-linear $M(\chi)$ -->
     <g transform="translate(313.043973 90.697805) scale(0.1 -0.1)">
      <defs>
       <path id="CMR17-69" d="M 992 3909 
C 992 4049 877 4170 730 4170 
C 589 4170 467 4056 467 3909 
C 467 3769 582 3648 730 3648 
C 870 3648 992 3763 992 3909 
z
M 243 2706 
L 243 2541 
C 602 2541 653 2502 653 2197 
L 653 427 
C 653 184 627 153 218 153 
L 218 -13 
C 371 0 646 0 806 0 
C 960 0 1222 0 1370 -13 
L 1370 153 
C 992 153 979 191 979 420 
L 979 2776 
L 243 2706 
z
" transform="scale(0.015625)"/>
       <path id="CMR17-2d" d="M 1632 1216 
L 1632 1496 
L 26 1496 
L 26 1216 
L 1632 1216 
z
" transform="scale(0.015625)"/>
       <path id="CMR17-6c" d="M 979 4396 
L 218 4326 
L 218 4160 
C 595 4160 653 4122 653 3817 
L 653 426 
C 653 184 627 153 218 153 
L 218 -13 
C 371 0 653 0 813 0 
C 979 0 1261 0 1414 -13 
L 1414 153 
C 1005 153 979 178 979 426 
L 979 4396 
z
" transform="scale(0.015625)"/>
       <path id="CMR17-65" d="M 2438 1472 
C 2464 1498 2464 1511 2464 1576 
C 2464 2238 2118 2816 1389 2816 
C 710 2816 173 2169 173 1383 
C 173 551 781 -64 1459 -64 
C 2176 -64 2458 607 2458 740 
C 2458 784 2419 784 2406 784 
C 2362 784 2355 771 2330 696 
C 2189 265 1837 51 1504 51 
C 1229 51 954 203 781 480 
C 582 803 582 1176 582 1472 
L 2438 1472 
z
M 589 1568 
C 634 2505 1126 2714 1382 2714 
C 1818 2714 2112 2297 2118 1568 
L 589 1568 
z
" transform="scale(0.015625)"/>
       <path id="CMMI12-4d" d="M 5811 3886 
C 5869 4103 5882 4167 6336 4167 
C 6458 4167 6515 4167 6515 4288 
C 6515 4352 6470 4352 6349 4352 
L 5581 4352 
C 5421 4352 5414 4346 5344 4243 
L 3008 562 
L 2528 4211 
C 2509 4352 2502 4352 2336 4352 
L 1542 4352 
C 1421 4352 1363 4352 1363 4231 
C 1363 4167 1421 4167 1517 4167 
C 1907 4167 1907 4116 1907 4046 
C 1907 4034 1907 3995 1882 3899 
L 1062 634 
C 986 327 838 186 410 186 
C 390 186 314 186 314 73 
C 314 0 371 0 397 0 
C 525 0 851 0 979 0 
L 1286 0 
C 1376 0 1485 0 1574 0 
C 1619 0 1690 0 1690 122 
C 1690 180 1626 186 1600 186 
C 1389 186 1184 224 1184 454 
C 1184 518 1184 524 1210 613 
L 2093 4129 
L 2099 4129 
L 2630 172 
C 2650 19 2656 0 2714 0 
C 2784 0 2816 51 2848 109 
L 5421 4161 
L 5427 4161 
L 4499 473 
C 4442 250 4429 186 3981 186 
C 3859 186 3795 186 3795 70 
C 3795 0 3853 0 3891 0 
C 4000 0 4128 0 4237 0 
L 4992 0 
C 5101 0 5235 0 5344 0 
C 5395 0 5466 0 5466 122 
C 5466 186 5408 186 5312 186 
C 4922 186 4922 234 4922 294 
C 4922 301 4922 345 4934 396 
L 5811 3886 
z
" transform="scale(0.015625)"/>
       <path id="CMR17-28" d="M 1958 -1561 
C 1958 -1555 1958 -1542 1939 -1523 
C 1645 -1224 858 -407 858 1581 
C 858 3569 1632 4379 1946 4697 
C 1946 4704 1958 4717 1958 4736 
C 1958 4755 1939 4768 1914 4768 
C 1843 4768 1299 4296 986 3594 
C 666 2887 576 2199 576 1588 
C 576 1128 621 351 1005 -471 
C 1312 -1135 1837 -1600 1914 -1600 
C 1946 -1600 1958 -1587 1958 -1561 
z
" transform="scale(0.015625)"/>
       <path id="CMMI12-1f" d="M 2112 1039 
C 1939 1566 1978 1515 1818 1959 
C 1619 2505 1568 2550 1478 2639 
C 1363 2740 1146 2816 922 2816 
C 563 2816 390 2486 390 2403 
C 390 2365 422 2346 461 2346 
C 512 2346 525 2378 531 2403 
C 627 2651 826 2689 883 2689 
C 1069 2689 1248 2232 1363 1928 
C 1517 1540 1594 1273 1766 657 
L 256 -1049 
C 198 -1119 198 -1144 198 -1151 
C 198 -1202 230 -1215 256 -1215 
C 282 -1215 301 -1202 320 -1183 
C 499 -1004 896 -533 1062 -342 
L 1805 499 
C 2118 -479 2118 -492 2214 -727 
C 2317 -968 2451 -1280 2995 -1280 
C 3360 -1280 3526 -955 3526 -866 
C 3526 -822 3488 -809 3456 -809 
C 3405 -809 3398 -835 3379 -886 
C 3309 -1063 3142 -1152 3040 -1152 
C 2957 -1152 2854 -1152 2573 -447 
C 2406 -21 2259 486 2150 880 
L 3667 2594 
C 3718 2652 3725 2658 3725 2683 
C 3725 2727 3693 2746 3661 2746 
C 3642 2746 3622 2746 3558 2677 
L 2112 1039 
z
" transform="scale(0.015625)"/>
       <path id="CMR17-29" d="M 1683 1581 
C 1683 2040 1638 2817 1254 3639 
C 947 4303 422 4768 346 4768 
C 326 4768 301 4761 301 4729 
C 301 4717 307 4710 314 4697 
C 621 4378 1402 3568 1402 1584 
C 1402 -407 627 -1217 314 -1537 
C 307 -1549 301 -1556 301 -1568 
C 301 -1600 326 -1600 346 -1600 
C 416 -1600 960 -1128 1274 -426 
C 1594 281 1683 969 1683 1581 
z
" transform="scale(0.015625)"/>
      </defs>
      <use xlink:href="#CMR17-6e" transform="scale(0.996264)"/>
      <use xlink:href="#CMR17-69" transform="translate(50.89537 0) scale(0.996264)"/>
      <use xlink:href="#CMR17-63" transform="translate(75.766428 0) scale(0.996264)"/>
      <use xlink:href="#CMR17-68" transform="translate(113.649635 0) scale(0.996264)"/>
      <use xlink:href="#CMR17-74" transform="translate(161.942551 0) scale(0.996264)"/>
      <use xlink:href="#CMR17-2d" transform="translate(197.223318 0) scale(0.996264)"/>
      <use xlink:href="#CMR17-6c" transform="translate(227.299285 0) scale(0.996264)"/>
      <use xlink:href="#CMR17-69" transform="translate(252.170343 0) scale(0.996264)"/>
      <use xlink:href="#CMR17-6e" transform="translate(277.041402 0) scale(0.996264)"/>
      <use xlink:href="#CMR17-65" transform="translate(327.936772 0) scale(0.996264)"/>
      <use xlink:href="#CMR17-61" transform="translate(368.422432 0) scale(0.996264)"/>
      <use xlink:href="#CMR17-72" transform="translate(414.112909 0) scale(0.996264)"/>
      <use xlink:href="#CMMI12-4d" transform="translate(479.469643 0) scale(0.996264)"/>
      <use xlink:href="#CMR17-28" transform="translate(584.249722 0) scale(0.996264)"/>
      <use xlink:href="#CMMI12-1f" transform="translate(619.53049 0) scale(0.996264)"/>
      <use xlink:href="#CMR17-29" transform="translate(680.643449 0) scale(0.996264)"/>
     </g>
    </g>
    <g id="line2d_36">
     <path d="M 285.043973 101.688465 
L 295.043973 101.688465 
L 305.043973 101.688465 
" style="fill: none; stroke-dasharray: 0.7,1.155; stroke-dashoffset: 0; stroke: #006400; stroke-width: 0.7"/>
    </g>
    <g id="text_19">
     <!-- Zugversteifung $\lambda = 1$ -->
     <g transform="translate(313.043973 105.188465) scale(0.1 -0.1)">
      <defs>
       <path id="CMR17-5a" d="M 3302 4230 
C 3302 4352 3296 4352 3162 4352 
L 442 4352 
L 378 2948 
L 493 2948 
C 531 3675 723 4192 1760 4192 
L 2816 4192 
L 339 204 
C 294 134 294 127 294 83 
C 294 0 307 0 435 0 
L 3245 0 
L 3334 1666 
L 3219 1666 
C 3162 829 3117 178 1894 178 
L 781 178 
L 3302 4230 
z
" transform="scale(0.015625)"/>
       <path id="CMR17-76" d="M 2502 2163 
C 2560 2304 2662 2560 3034 2560 
L 3034 2726 
C 2912 2726 2752 2726 2630 2726 
C 2496 2726 2285 2726 2157 2732 
L 2157 2566 
C 2317 2553 2406 2477 2406 2311 
C 2406 2253 2406 2240 2368 2151 
L 1664 377 
L 902 2286 
C 864 2369 864 2381 864 2407 
C 864 2560 1075 2560 1171 2560 
L 1171 2732 
C 1018 2726 736 2726 576 2726 
C 403 2726 205 2726 64 2732 
L 64 2560 
C 307 2560 442 2560 518 2362 
L 1446 44 
C 1485 -51 1491 -64 1549 -64 
C 1606 -64 1613 -51 1651 44 
L 2502 2163 
z
" transform="scale(0.015625)"/>
       <path id="CMR17-66" d="M 979 2560 
L 1709 2560 
L 1709 2725 
L 966 2725 
L 966 3494 
C 966 4022 1235 4352 1510 4352 
C 1594 4352 1690 4327 1754 4282 
C 1702 4269 1568 4225 1568 4067 
C 1568 3901 1696 3850 1786 3850 
C 1875 3850 2003 3901 2003 4067 
C 2003 4308 1773 4454 1517 4454 
C 1152 4454 653 4156 653 3481 
L 653 2725 
L 141 2725 
L 141 2560 
L 653 2560 
L 653 427 
C 653 184 627 153 218 153 
L 218 -13 
C 371 0 666 0 832 0 
C 1018 0 1344 0 1517 -13 
L 1517 153 
C 1056 153 979 153 979 439 
L 979 2560 
z
" transform="scale(0.015625)"/>
       <path id="CMMI12-15" d="M 1978 3965 
C 1818 4416 1312 4416 1229 4416 
C 1190 4416 1120 4416 1120 4352 
C 1120 4302 1158 4295 1190 4289 
C 1286 4276 1363 4263 1466 4080 
C 1530 3959 2189 2059 2189 2046 
C 2189 2040 2182 2033 2131 1982 
L 467 311 
C 390 234 339 183 339 102 
C 339 12 416 -64 518 -64 
C 544 -64 614 -51 653 -13 
C 755 82 1670 1194 2253 1881 
C 2419 1383 2624 797 2822 261 
C 2854 166 2886 76 2976 -6 
C 3040 -64 3053 -64 3232 -64 
L 3354 -64 
C 3379 -64 3424 -64 3424 -13 
C 3424 13 3418 19 3392 45 
C 3334 115 3290 229 3264 306 
L 1978 3965 
z
" transform="scale(0.015625)"/>
       <path id="CMR17-3d" d="M 4115 2017 
C 4211 2017 4307 2017 4307 2125 
C 4307 2240 4198 2240 4090 2240 
L 512 2240 
C 403 2240 294 2240 294 2125 
C 294 2017 390 2017 486 2017 
L 4115 2017 
z
M 4090 896 
C 4198 896 4307 896 4307 1011 
C 4307 1119 4211 1119 4115 1119 
L 486 1119 
C 390 1119 294 1119 294 1011 
C 294 896 403 896 512 896 
L 4090 896 
z
" transform="scale(0.015625)"/>
      </defs>
      <use xlink:href="#CMR17-5a" transform="scale(0.996264)"/>
      <use xlink:href="#CMR17-75" transform="translate(56.100171 0) scale(0.996264)"/>
      <use xlink:href="#CMR17-67" transform="translate(106.995541 0) scale(0.996264)"/>
      <use xlink:href="#CMR17-76" transform="translate(152.686018 0) scale(0.996264)"/>
      <use xlink:href="#CMR17-65" transform="translate(198.37648 0) scale(0.996264)"/>
      <use xlink:href="#CMR17-72" transform="translate(238.862141 0) scale(0.996264)"/>
      <use xlink:href="#CMR17-73" transform="translate(274.142908 0) scale(0.996264)"/>
      <use xlink:href="#CMR17-74" transform="translate(309.944246 0) scale(0.996264)"/>
      <use xlink:href="#CMR17-65" transform="translate(345.225014 0) scale(0.996264)"/>
      <use xlink:href="#CMR17-69" transform="translate(385.710674 0) scale(0.996264)"/>
      <use xlink:href="#CMR17-66" transform="translate(410.581733 0) scale(0.996264)"/>
      <use xlink:href="#CMR17-75" transform="translate(438.055245 0) scale(0.996264)"/>
      <use xlink:href="#CMR17-6e" transform="translate(488.950615 0) scale(0.996264)"/>
      <use xlink:href="#CMR17-67" transform="translate(539.845985 0) scale(0.996264)"/>
      <use xlink:href="#CMMI12-15" transform="translate(615.612428 0) scale(0.996264)"/>
      <use xlink:href="#CMR17-3d" transform="translate(700.190509 0) scale(0.996264)"/>
      <use xlink:href="#CMR17-31" transform="translate(799.579306 0) scale(0.996264)"/>
     </g>
    </g>
    <g id="line2d_37">
     <path d="M 285.043973 115.625643 
L 295.043973 115.625643 
L 305.043973 115.625643 
" style="fill: none; stroke-dasharray: 2.59,1.12; stroke-dashoffset: 0; stroke: #006400; stroke-width: 0.7"/>
    </g>
    <g id="text_20">
     <!-- Zugversteifung $\lambda = 0.5$ -->
     <g transform="translate(313.043973 119.125643) scale(0.1 -0.1)">
      <defs>
       <path id="CMMI12-3a" d="M 1178 307 
C 1178 492 1024 619 870 619 
C 685 619 557 466 557 313 
C 557 128 710 0 864 0 
C 1050 0 1178 153 1178 307 
z
" transform="scale(0.015625)"/>
      </defs>
      <use xlink:href="#CMR17-5a" transform="scale(0.996264)"/>
      <use xlink:href="#CMR17-75" transform="translate(56.100171 0) scale(0.996264)"/>
      <use xlink:href="#CMR17-67" transform="translate(106.995541 0) scale(0.996264)"/>
      <use xlink:href="#CMR17-76" transform="translate(152.686018 0) scale(0.996264)"/>
      <use xlink:href="#CMR17-65" transform="translate(198.37648 0) scale(0.996264)"/>
      <use xlink:href="#CMR17-72" transform="translate(238.862141 0) scale(0.996264)"/>
      <use xlink:href="#CMR17-73" transform="translate(274.142908 0) scale(0.996264)"/>
      <use xlink:href="#CMR17-74" transform="translate(309.944246 0) scale(0.996264)"/>
      <use xlink:href="#CMR17-65" transform="translate(345.225014 0) scale(0.996264)"/>
      <use xlink:href="#CMR17-69" transform="translate(385.710674 0) scale(0.996264)"/>
      <use xlink:href="#CMR17-66" transform="translate(410.581733 0) scale(0.996264)"/>
      <use xlink:href="#CMR17-75" transform="translate(438.055245 0) scale(0.996264)"/>
      <use xlink:href="#CMR17-6e" transform="translate(488.950615 0) scale(0.996264)"/>
      <use xlink:href="#CMR17-67" transform="translate(539.845985 0) scale(0.996264)"/>
      <use xlink:href="#CMMI12-15" transform="translate(615.612428 0) scale(0.996264)"/>
      <use xlink:href="#CMR17-3d" transform="translate(700.190509 0) scale(0.996264)"/>
      <use xlink:href="#CMR17-30" transform="translate(799.579306 0) scale(0.996264)"/>
      <use xlink:href="#CMMI12-3a" transform="translate(845.269783 0) scale(0.996264)"/>
      <use xlink:href="#CMR17-35" transform="translate(872.36696 0) scale(0.996264)"/>
     </g>
    </g>
    <g id="line2d_38">
     <path d="M 285.043973 129.562822 
L 295.043973 129.562822 
L 305.043973 129.562822 
" style="fill: none; stroke: #0000ff; stroke-width: 0.7; stroke-linecap: square"/>
    </g>
    <g id="text_21">
     <!-- Versuch A3V2 -->
     <g transform="translate(313.043973 133.062822) scale(0.1 -0.1)">
      <defs>
       <path id="CMR17-56" d="M 3776 3745 
C 3834 3886 3936 4160 4365 4160 
L 4365 4332 
C 4218 4319 4051 4319 3891 4319 
C 3738 4319 3475 4319 3328 4332 
L 3328 4160 
C 3648 4160 3661 3936 3661 3898 
C 3661 3827 3642 3783 3622 3732 
L 2362 446 
L 1043 3886 
C 1024 3931 1011 3963 1011 3994 
C 1011 4160 1267 4160 1402 4160 
L 1402 4319 
C 1197 4319 896 4319 685 4319 
C 518 4319 218 4319 64 4332 
L 64 4160 
C 435 4160 506 4135 582 3931 
L 2106 -26 
C 2138 -115 2144 -128 2214 -128 
C 2285 -128 2291 -115 2323 -26 
L 3776 3745 
z
" transform="scale(0.015625)"/>
      </defs>
      <use xlink:href="#CMR17-56" transform="scale(0.996264)"/>
      <use xlink:href="#CMR17-65" transform="translate(61.265174 0) scale(0.996264)"/>
      <use xlink:href="#CMR17-72" transform="translate(101.750835 0) scale(0.996264)"/>
      <use xlink:href="#CMR17-73" transform="translate(137.031603 0) scale(0.996264)"/>
      <use xlink:href="#CMR17-75" transform="translate(172.83294 0) scale(0.996264)"/>
      <use xlink:href="#CMR17-63" transform="translate(223.72831 0) scale(0.996264)"/>
      <use xlink:href="#CMR17-68" transform="translate(261.611517 0) scale(0.996264)"/>
      <use xlink:href="#CMR17-41" transform="translate(342.582853 0) scale(0.996264)"/>
      <use xlink:href="#CMR17-33" transform="translate(411.655283 0) scale(0.996264)"/>
      <use xlink:href="#CMR17-56" transform="translate(457.34576 0) scale(0.996264)"/>
      <use xlink:href="#CMR17-32" transform="translate(526.418189 0) scale(0.996264)"/>
     </g>
    </g>
   </g>
  </g>
 </g>
 <defs>
  <clipPath id="p1c5bba977c">
   <rect x="58.5" y="21.6" width="362.7" height="122.4"/>
  </clipPath>
 </defs>
</svg>
