<?xml version="1.0" encoding="utf-8" standalone="no"?>
<!DOCTYPE svg PUBLIC "-//W3C//DTD SVG 1.1//EN"
  "http://www.w3.org/Graphics/SVG/1.1/DTD/svg11.dtd">
<svg xmlns:xlink="http://www.w3.org/1999/xlink" width="468pt" height="180pt" viewBox="0 0 468 180" xmlns="http://www.w3.org/2000/svg" version="1.1">
 <metadata>
  <rdf:RDF xmlns:dc="http://purl.org/dc/elements/1.1/" xmlns:cc="http://creativecommons.org/ns#" xmlns:rdf="http://www.w3.org/1999/02/22-rdf-syntax-ns#">
   <cc:Work>
    <dc:type rdf:resource="http://purl.org/dc/dcmitype/StillImage"/>
    <dc:date>2024-01-15T17:20:24.750566</dc:date>
    <dc:format>image/svg+xml</dc:format>
    <dc:creator>
     <cc:Agent>
      <dc:title>Matplotlib v3.8.2, https://matplotlib.org/</dc:title>
     </cc:Agent>
    </dc:creator>
   </cc:Work>
  </rdf:RDF>
 </metadata>
 <defs>
  <style type="text/css">*{stroke-linejoin: round; stroke-linecap: butt}</style>
 </defs>
 <g id="figure_1">
  <g id="patch_1">
   <path d="M 0 180 
L 468 180 
L 468 0 
L 0 0 
z
" style="fill: #ffffff"/>
  </g>
  <g id="axes_1">
   <g id="patch_2">
    <path d="M 58.5 144 
L 421.2 144 
L 421.2 21.6 
L 58.5 21.6 
z
" style="fill: #ffffff"/>
   </g>
   <g id="matplotlib.axis_1">
    <g id="xtick_1">
     <g id="line2d_1">
      <path d="M 74.986364 144 
L 74.986364 21.6 
" clip-path="url(#p869ed87de5)" style="fill: none; stroke: #d3d3d3; stroke-width: 0.2; stroke-linecap: square"/>
     </g>
     <g id="line2d_2">
      <defs>
       <path id="m2a48d9793b" d="M 0 0 
L 0 -3.5 
" style="stroke: #000000; stroke-width: 0.8"/>
      </defs>
      <g>
       <use xlink:href="#m2a48d9793b" x="74.986364" y="144" style="stroke: #000000; stroke-width: 0.8"/>
      </g>
     </g>
     <g id="text_1">
      <!-- $\mathdefault{0}$ -->
      <g transform="translate(72.495696 154.418498) scale(0.1 -0.1)">
       <defs>
        <path id="CMR17-30" d="M 2688 2038 
C 2688 2430 2682 3099 2413 3613 
C 2176 4063 1798 4224 1466 4224 
C 1158 4224 768 4082 525 3620 
C 269 3137 243 2539 243 2038 
C 243 1671 250 1112 448 623 
C 723 -39 1216 -128 1466 -128 
C 1760 -128 2208 -7 2470 604 
C 2662 1048 2688 1568 2688 2038 
z
M 1466 -26 
C 1056 -26 813 328 723 816 
C 653 1196 653 1749 653 2109 
C 653 2604 653 3015 736 3407 
C 858 3954 1216 4121 1466 4121 
C 1728 4121 2067 3947 2189 3420 
C 2272 3054 2278 2623 2278 2109 
C 2278 1691 2278 1176 2202 797 
C 2067 96 1690 -26 1466 -26 
z
" transform="scale(0.015625)"/>
       </defs>
       <use xlink:href="#CMR17-30" transform="scale(0.996264)"/>
      </g>
     </g>
    </g>
    <g id="xtick_2">
     <g id="line2d_3">
      <path d="M 119.054925 144 
L 119.054925 21.6 
" clip-path="url(#p869ed87de5)" style="fill: none; stroke: #d3d3d3; stroke-width: 0.2; stroke-linecap: square"/>
     </g>
     <g id="line2d_4">
      <g>
       <use xlink:href="#m2a48d9793b" x="119.054925" y="144" style="stroke: #000000; stroke-width: 0.8"/>
      </g>
     </g>
     <g id="text_2">
      <!-- $\mathdefault{5}$ -->
      <g transform="translate(116.564258 154.418498) scale(0.1 -0.1)">
       <defs>
        <path id="CMR17-35" d="M 730 3750 
C 794 3724 1056 3641 1325 3641 
C 1920 3641 2246 3961 2432 4140 
C 2432 4191 2432 4224 2394 4224 
C 2387 4224 2374 4224 2323 4198 
C 2099 4102 1837 4032 1517 4032 
C 1325 4032 1037 4055 723 4191 
C 653 4224 640 4224 634 4224 
C 602 4224 595 4217 595 4090 
L 595 2231 
C 595 2113 595 2080 659 2080 
C 691 2080 704 2093 736 2139 
C 941 2435 1222 2560 1542 2560 
C 1766 2560 2246 2415 2246 1293 
C 2246 1087 2246 716 2054 422 
C 1894 159 1645 25 1370 25 
C 947 25 518 319 403 812 
C 429 806 480 793 506 793 
C 589 793 749 838 749 1036 
C 749 1209 627 1280 506 1280 
C 358 1280 262 1190 262 1011 
C 262 454 704 -128 1382 -128 
C 2042 -128 2669 441 2669 1267 
C 2669 2054 2170 2662 1549 2662 
C 1222 2662 947 2540 730 2304 
L 730 3750 
z
" transform="scale(0.015625)"/>
       </defs>
       <use xlink:href="#CMR17-35" transform="scale(0.996264)"/>
      </g>
     </g>
    </g>
    <g id="xtick_3">
     <g id="line2d_5">
      <path d="M 163.123487 144 
L 163.123487 21.6 
" clip-path="url(#p869ed87de5)" style="fill: none; stroke: #d3d3d3; stroke-width: 0.2; stroke-linecap: square"/>
     </g>
     <g id="line2d_6">
      <g>
       <use xlink:href="#m2a48d9793b" x="163.123487" y="144" style="stroke: #000000; stroke-width: 0.8"/>
      </g>
     </g>
     <g id="text_3">
      <!-- $\mathdefault{10}$ -->
      <g transform="translate(158.142151 154.418498) scale(0.1 -0.1)">
       <defs>
        <path id="CMR17-31" d="M 1702 4083 
C 1702 4217 1696 4224 1606 4224 
C 1357 3927 979 3833 621 3820 
C 602 3820 570 3820 563 3808 
C 557 3795 557 3782 557 3648 
C 755 3648 1088 3686 1344 3839 
L 1344 467 
C 1344 243 1331 166 781 166 
L 589 166 
L 589 0 
C 896 6 1216 12 1523 12 
C 1830 12 2150 6 2458 0 
L 2458 166 
L 2266 166 
C 1715 166 1702 236 1702 467 
L 1702 4083 
z
" transform="scale(0.015625)"/>
       </defs>
       <use xlink:href="#CMR17-31" transform="scale(0.996264)"/>
       <use xlink:href="#CMR17-30" transform="translate(45.690477 0) scale(0.996264)"/>
      </g>
     </g>
    </g>
    <g id="xtick_4">
     <g id="line2d_7">
      <path d="M 207.192048 144 
L 207.192048 21.6 
" clip-path="url(#p869ed87de5)" style="fill: none; stroke: #d3d3d3; stroke-width: 0.2; stroke-linecap: square"/>
     </g>
     <g id="line2d_8">
      <g>
       <use xlink:href="#m2a48d9793b" x="207.192048" y="144" style="stroke: #000000; stroke-width: 0.8"/>
      </g>
     </g>
     <g id="text_4">
      <!-- $\mathdefault{15}$ -->
      <g transform="translate(202.210713 154.418498) scale(0.1 -0.1)">
       <use xlink:href="#CMR17-31" transform="scale(0.996264)"/>
       <use xlink:href="#CMR17-35" transform="translate(45.690477 0) scale(0.996264)"/>
      </g>
     </g>
    </g>
    <g id="xtick_5">
     <g id="line2d_9">
      <path d="M 251.26061 144 
L 251.26061 21.6 
" clip-path="url(#p869ed87de5)" style="fill: none; stroke: #d3d3d3; stroke-width: 0.2; stroke-linecap: square"/>
     </g>
     <g id="line2d_10">
      <g>
       <use xlink:href="#m2a48d9793b" x="251.26061" y="144" style="stroke: #000000; stroke-width: 0.8"/>
      </g>
     </g>
     <g id="text_5">
      <!-- $\mathdefault{20}$ -->
      <g transform="translate(246.279274 154.418498) scale(0.1 -0.1)">
       <defs>
        <path id="CMR17-32" d="M 2669 990 
L 2554 990 
C 2490 537 2438 460 2413 422 
C 2381 371 1920 371 1830 371 
L 602 371 
C 832 620 1280 1073 1824 1596 
C 2214 1966 2669 2400 2669 3033 
C 2669 3788 2067 4224 1395 4224 
C 691 4224 262 3603 262 3027 
C 262 2777 448 2745 525 2745 
C 589 2745 781 2783 781 3007 
C 781 3206 614 3264 525 3264 
C 486 3264 448 3257 422 3244 
C 544 3788 915 4057 1306 4057 
C 1862 4057 2227 3616 2227 3033 
C 2227 2477 1901 1998 1536 1583 
L 262 147 
L 262 0 
L 2515 0 
L 2669 990 
z
" transform="scale(0.015625)"/>
       </defs>
       <use xlink:href="#CMR17-32" transform="scale(0.996264)"/>
       <use xlink:href="#CMR17-30" transform="translate(45.690477 0) scale(0.996264)"/>
      </g>
     </g>
    </g>
    <g id="xtick_6">
     <g id="line2d_11">
      <path d="M 295.329171 144 
L 295.329171 21.6 
" clip-path="url(#p869ed87de5)" style="fill: none; stroke: #d3d3d3; stroke-width: 0.2; stroke-linecap: square"/>
     </g>
     <g id="line2d_12">
      <g>
       <use xlink:href="#m2a48d9793b" x="295.329171" y="144" style="stroke: #000000; stroke-width: 0.8"/>
      </g>
     </g>
     <g id="text_6">
      <!-- $\mathdefault{25}$ -->
      <g transform="translate(290.347836 154.418498) scale(0.1 -0.1)">
       <use xlink:href="#CMR17-32" transform="scale(0.996264)"/>
       <use xlink:href="#CMR17-35" transform="translate(45.690477 0) scale(0.996264)"/>
      </g>
     </g>
    </g>
    <g id="xtick_7">
     <g id="line2d_13">
      <path d="M 339.397733 144 
L 339.397733 21.6 
" clip-path="url(#p869ed87de5)" style="fill: none; stroke: #d3d3d3; stroke-width: 0.2; stroke-linecap: square"/>
     </g>
     <g id="line2d_14">
      <g>
       <use xlink:href="#m2a48d9793b" x="339.397733" y="144" style="stroke: #000000; stroke-width: 0.8"/>
      </g>
     </g>
     <g id="text_7">
      <!-- $\mathdefault{30}$ -->
      <g transform="translate(334.416397 154.418498) scale(0.1 -0.1)">
       <defs>
        <path id="CMR17-33" d="M 1414 2176 
C 1984 2176 2234 1673 2234 1094 
C 2234 322 1824 25 1453 25 
C 1114 25 563 193 390 691 
C 422 678 454 678 486 678 
C 640 678 755 780 755 947 
C 755 1132 614 1216 486 1216 
C 378 1216 211 1164 211 927 
C 211 335 787 -128 1466 -128 
C 2176 -128 2720 432 2720 1087 
C 2720 1718 2208 2176 1600 2246 
C 2086 2347 2554 2776 2554 3353 
C 2554 3856 2048 4224 1472 4224 
C 890 4224 378 3862 378 3347 
C 378 3123 544 3084 627 3084 
C 762 3084 877 3167 877 3334 
C 877 3500 762 3584 627 3584 
C 602 3584 570 3584 544 3571 
C 730 3999 1235 4076 1459 4076 
C 1683 4076 2106 3966 2106 3347 
C 2106 3167 2080 2851 1862 2574 
C 1670 2329 1453 2316 1242 2297 
C 1210 2297 1062 2284 1037 2284 
C 992 2278 966 2272 966 2227 
C 966 2182 973 2176 1101 2176 
L 1414 2176 
z
" transform="scale(0.015625)"/>
       </defs>
       <use xlink:href="#CMR17-33" transform="scale(0.996264)"/>
       <use xlink:href="#CMR17-30" transform="translate(45.690477 0) scale(0.996264)"/>
      </g>
     </g>
    </g>
    <g id="xtick_8">
     <g id="line2d_15">
      <path d="M 383.466294 144 
L 383.466294 21.6 
" clip-path="url(#p869ed87de5)" style="fill: none; stroke: #d3d3d3; stroke-width: 0.2; stroke-linecap: square"/>
     </g>
     <g id="line2d_16">
      <g>
       <use xlink:href="#m2a48d9793b" x="383.466294" y="144" style="stroke: #000000; stroke-width: 0.8"/>
      </g>
     </g>
     <g id="text_8">
      <!-- $\mathdefault{35}$ -->
      <g transform="translate(378.484959 154.418498) scale(0.1 -0.1)">
       <use xlink:href="#CMR17-33" transform="scale(0.996264)"/>
       <use xlink:href="#CMR17-35" transform="translate(45.690477 0) scale(0.996264)"/>
      </g>
     </g>
    </g>
    <g id="text_9">
     <!-- $w_{1}$ [mm] -->
     <g transform="translate(218.342283 169.322053) scale(0.12 -0.12)">
      <defs>
       <path id="CMMI12-77" d="M 2202 389 
C 2342 6 2739 -64 2982 -64 
C 3469 -64 3757 357 3936 798 
C 4083 1168 4320 2011 4320 2388 
C 4320 2777 4122 2816 4064 2816 
C 3910 2816 3770 2662 3770 2534 
C 3770 2458 3814 2413 3846 2388 
C 3904 2330 4070 2158 4070 1826 
C 4070 1609 3891 1008 3757 708 
C 3578 319 3341 64 3008 64 
C 2650 64 2534 332 2534 625 
C 2534 810 2592 1034 2618 1142 
L 2886 2215 
C 2918 2343 2976 2566 2976 2591 
C 2976 2687 2899 2752 2803 2752 
C 2618 2752 2573 2591 2534 2438 
C 2470 2189 2202 1110 2176 970 
C 2150 861 2150 791 2150 651 
C 2150 498 1946 255 1939 242 
C 1869 172 1766 64 1568 64 
C 1062 64 1062 542 1062 651 
C 1062 855 1107 1136 1395 1896 
C 1472 2094 1504 2177 1504 2305 
C 1504 2573 1312 2816 998 2816 
C 410 2816 173 1890 173 1838 
C 173 1813 198 1781 243 1781 
C 301 1781 307 1807 333 1896 
C 493 2458 742 2687 979 2687 
C 1043 2687 1146 2681 1146 2477 
C 1146 2445 1146 2311 1037 2030 
C 736 1232 672 970 672 728 
C 672 57 1222 -64 1549 -64 
C 1658 -64 1946 -64 2202 389 
z
" transform="scale(0.015625)"/>
       <path id="CMR17-5b" d="M 1504 -1600 
L 1504 -1376 
L 902 -1376 
L 902 4575 
L 1504 4575 
L 1504 4800 
L 678 4800 
L 678 -1600 
L 1504 -1600 
z
" transform="scale(0.015625)"/>
       <path id="CMR17-6d" d="M 4326 1954 
C 4326 2276 4269 2816 3507 2816 
C 3072 2816 2771 2520 2656 2173 
L 2650 2173 
C 2573 2700 2195 2816 1837 2816 
C 1331 2816 1069 2424 973 2166 
L 966 2166 
L 966 2816 
L 211 2745 
L 211 2578 
C 589 2578 646 2540 646 2231 
L 646 443 
C 646 198 621 166 211 166 
L 211 0 
C 365 12 646 12 813 12 
C 979 12 1267 12 1421 0 
L 1421 166 
C 1011 166 986 192 986 443 
L 986 1678 
C 986 2269 1344 2713 1792 2713 
C 2266 2713 2317 2289 2317 1980 
L 2317 443 
C 2317 198 2291 166 1882 166 
L 1882 0 
C 2035 12 2317 12 2483 12 
C 2650 12 2938 12 3091 0 
L 3091 166 
C 2682 166 2656 192 2656 443 
L 2656 1678 
C 2656 2269 3014 2713 3462 2713 
C 3936 2713 3987 2289 3987 1980 
L 3987 443 
C 3987 198 3962 166 3552 166 
L 3552 0 
C 3706 12 3987 12 4154 12 
C 4320 12 4608 12 4762 0 
L 4762 166 
C 4352 166 4326 192 4326 443 
L 4326 1954 
z
" transform="scale(0.015625)"/>
       <path id="CMR17-5d" d="M 915 4800 
L 90 4800 
L 90 4575 
L 691 4575 
L 691 -1376 
L 90 -1376 
L 90 -1600 
L 915 -1600 
L 915 4800 
z
" transform="scale(0.015625)"/>
      </defs>
      <use xlink:href="#CMMI12-77" transform="scale(0.996264)"/>
      <use xlink:href="#CMR17-31" transform="translate(69.73199 -14.943915) scale(0.697382)"/>
      <use xlink:href="#CMR17-5b" transform="translate(132.28927 0) scale(0.996264)"/>
      <use xlink:href="#CMR17-6d" transform="translate(157.160328 0) scale(0.996264)"/>
      <use xlink:href="#CMR17-6d" transform="translate(234.079918 0) scale(0.996264)"/>
      <use xlink:href="#CMR17-5d" transform="translate(310.999508 0) scale(0.996264)"/>
     </g>
    </g>
   </g>
   <g id="matplotlib.axis_2">
    <g id="ytick_1">
     <g id="line2d_17">
      <path d="M 58.5 138.436364 
L 421.2 138.436364 
" clip-path="url(#p869ed87de5)" style="fill: none; stroke: #d3d3d3; stroke-width: 0.2; stroke-linecap: square"/>
     </g>
     <g id="line2d_18">
      <defs>
       <path id="me931d4d4a9" d="M 0 0 
L 3.5 0 
" style="stroke: #000000; stroke-width: 0.8"/>
      </defs>
      <g>
       <use xlink:href="#me931d4d4a9" x="58.5" y="138.436364" style="stroke: #000000; stroke-width: 0.8"/>
      </g>
     </g>
     <g id="text_10">
      <!-- $\mathdefault{0}$ -->
      <g transform="translate(50.018665 141.895613) scale(0.1 -0.1)">
       <use xlink:href="#CMR17-30" transform="scale(0.996264)"/>
      </g>
     </g>
    </g>
    <g id="ytick_2">
     <g id="line2d_19">
      <path d="M 58.5 117.241558 
L 421.2 117.241558 
" clip-path="url(#p869ed87de5)" style="fill: none; stroke: #d3d3d3; stroke-width: 0.2; stroke-linecap: square"/>
     </g>
     <g id="line2d_20">
      <g>
       <use xlink:href="#me931d4d4a9" x="58.5" y="117.241558" style="stroke: #000000; stroke-width: 0.8"/>
      </g>
     </g>
     <g id="text_11">
      <!-- $\mathdefault{20}$ -->
      <g transform="translate(45.037329 120.700808) scale(0.1 -0.1)">
       <use xlink:href="#CMR17-32" transform="scale(0.996264)"/>
       <use xlink:href="#CMR17-30" transform="translate(45.690477 0) scale(0.996264)"/>
      </g>
     </g>
    </g>
    <g id="ytick_3">
     <g id="line2d_21">
      <path d="M 58.5 96.046753 
L 421.2 96.046753 
" clip-path="url(#p869ed87de5)" style="fill: none; stroke: #d3d3d3; stroke-width: 0.2; stroke-linecap: square"/>
     </g>
     <g id="line2d_22">
      <g>
       <use xlink:href="#me931d4d4a9" x="58.5" y="96.046753" style="stroke: #000000; stroke-width: 0.8"/>
      </g>
     </g>
     <g id="text_12">
      <!-- $\mathdefault{40}$ -->
      <g transform="translate(45.037329 99.506002) scale(0.1 -0.1)">
       <defs>
        <path id="CMR17-34" d="M 2150 4147 
C 2150 4281 2144 4288 2029 4288 
L 128 1254 
L 128 1088 
L 1779 1088 
L 1779 460 
C 1779 230 1766 166 1318 166 
L 1197 166 
L 1197 0 
C 1402 12 1747 12 1965 12 
C 2182 12 2528 12 2733 0 
L 2733 166 
L 2611 166 
C 2163 166 2150 230 2150 460 
L 2150 1088 
L 2803 1088 
L 2803 1254 
L 2150 1254 
L 2150 4147 
z
M 1798 3723 
L 1798 1254 
L 256 1254 
L 1798 3723 
z
" transform="scale(0.015625)"/>
       </defs>
       <use xlink:href="#CMR17-34" transform="scale(0.996264)"/>
       <use xlink:href="#CMR17-30" transform="translate(45.690477 0) scale(0.996264)"/>
      </g>
     </g>
    </g>
    <g id="ytick_4">
     <g id="line2d_23">
      <path d="M 58.5 74.851948 
L 421.2 74.851948 
" clip-path="url(#p869ed87de5)" style="fill: none; stroke: #d3d3d3; stroke-width: 0.2; stroke-linecap: square"/>
     </g>
     <g id="line2d_24">
      <g>
       <use xlink:href="#me931d4d4a9" x="58.5" y="74.851948" style="stroke: #000000; stroke-width: 0.8"/>
      </g>
     </g>
     <g id="text_13">
      <!-- $\mathdefault{60}$ -->
      <g transform="translate(45.037329 78.311197) scale(0.1 -0.1)">
       <defs>
        <path id="CMR17-36" d="M 678 2198 
C 678 3712 1395 4076 1811 4076 
C 1946 4076 2272 4049 2400 3782 
C 2298 3782 2106 3782 2106 3558 
C 2106 3385 2246 3328 2336 3328 
C 2394 3328 2566 3353 2566 3571 
C 2566 3987 2246 4224 1805 4224 
C 1043 4224 243 3411 243 2011 
C 243 257 966 -128 1478 -128 
C 2099 -128 2688 431 2688 1295 
C 2688 2101 2170 2688 1517 2688 
C 1126 2688 838 2430 678 1979 
L 678 2198 
z
M 1478 25 
C 691 25 691 1212 691 1450 
C 691 1914 909 2585 1504 2585 
C 1613 2585 1926 2585 2138 2140 
C 2253 1889 2253 1624 2253 1302 
C 2253 954 2253 696 2118 438 
C 1978 173 1773 25 1478 25 
z
" transform="scale(0.015625)"/>
       </defs>
       <use xlink:href="#CMR17-36" transform="scale(0.996264)"/>
       <use xlink:href="#CMR17-30" transform="translate(45.690477 0) scale(0.996264)"/>
      </g>
     </g>
    </g>
    <g id="ytick_5">
     <g id="line2d_25">
      <path d="M 58.5 53.657143 
L 421.2 53.657143 
" clip-path="url(#p869ed87de5)" style="fill: none; stroke: #d3d3d3; stroke-width: 0.2; stroke-linecap: square"/>
     </g>
     <g id="line2d_26">
      <g>
       <use xlink:href="#me931d4d4a9" x="58.5" y="53.657143" style="stroke: #000000; stroke-width: 0.8"/>
      </g>
     </g>
     <g id="text_14">
      <!-- $\mathdefault{80}$ -->
      <g transform="translate(45.037329 57.116392) scale(0.1 -0.1)">
       <defs>
        <path id="CMR17-38" d="M 1741 2289 
C 2144 2494 2554 2803 2554 3298 
C 2554 3884 1990 4224 1472 4224 
C 890 4224 378 3800 378 3215 
C 378 3054 416 2777 666 2533 
C 730 2469 998 2276 1171 2154 
C 883 2006 211 1652 211 945 
C 211 282 838 -128 1459 -128 
C 2144 -128 2720 366 2720 1022 
C 2720 1607 2330 1877 2074 2051 
L 1741 2289 
z
M 902 2855 
C 851 2887 595 3086 595 3388 
C 595 3781 998 4076 1459 4076 
C 1965 4076 2336 3716 2336 3298 
C 2336 2700 1670 2359 1638 2359 
C 1632 2359 1626 2359 1574 2398 
L 902 2855 
z
M 2080 1536 
C 2176 1466 2483 1253 2483 861 
C 2483 385 2010 25 1472 25 
C 890 25 448 443 448 951 
C 448 1459 838 1884 1280 2083 
L 2080 1536 
z
" transform="scale(0.015625)"/>
       </defs>
       <use xlink:href="#CMR17-38" transform="scale(0.996264)"/>
       <use xlink:href="#CMR17-30" transform="translate(45.690477 0) scale(0.996264)"/>
      </g>
     </g>
    </g>
    <g id="ytick_6">
     <g id="line2d_27">
      <path d="M 58.5 32.462338 
L 421.2 32.462338 
" clip-path="url(#p869ed87de5)" style="fill: none; stroke: #d3d3d3; stroke-width: 0.2; stroke-linecap: square"/>
     </g>
     <g id="line2d_28">
      <g>
       <use xlink:href="#me931d4d4a9" x="58.5" y="32.462338" style="stroke: #000000; stroke-width: 0.8"/>
      </g>
     </g>
     <g id="text_15">
      <!-- $\mathdefault{100}$ -->
      <g transform="translate(40.055994 35.921587) scale(0.1 -0.1)">
       <use xlink:href="#CMR17-31" transform="scale(0.996264)"/>
       <use xlink:href="#CMR17-30" transform="translate(45.690477 0) scale(0.996264)"/>
       <use xlink:href="#CMR17-30" transform="translate(91.380954 0) scale(0.996264)"/>
      </g>
     </g>
    </g>
    <g id="text_16">
     <!-- $F_{A}$ [kN] -->
     <g transform="translate(33.067202 102.688849) rotate(-90) scale(0.12 -0.12)">
      <defs>
       <path id="CMMI12-46" d="M 1901 2054 
L 2515 2054 
C 3002 2054 3040 1947 3040 1764 
C 3040 1683 3027 1595 2995 1456 
C 2982 1431 2976 1399 2976 1387 
C 2976 1343 3002 1318 3046 1318 
C 3098 1318 3104 1343 3130 1444 
L 3501 2929 
C 3501 2955 3482 2993 3437 2993 
C 3379 2993 3373 2968 3347 2858 
C 3213 2375 3085 2240 2528 2240 
L 1946 2240 
L 2362 3908 
C 2419 4134 2432 4153 2694 4153 
L 3552 4153 
C 4352 4153 4467 3915 4467 3457 
C 4467 3419 4467 3277 4448 3109 
C 4442 3084 4429 3000 4429 2974 
C 4429 2922 4461 2903 4499 2903 
C 4544 2903 4570 2929 4582 3045 
L 4717 4172 
C 4717 4191 4730 4255 4730 4268 
C 4730 4339 4672 4339 4557 4339 
L 1523 4339 
C 1402 4339 1338 4339 1338 4223 
C 1338 4153 1382 4153 1491 4153 
C 1888 4153 1888 4108 1888 4037 
C 1888 4005 1882 3979 1862 3908 
L 998 468 
C 941 248 928 185 480 185 
C 358 185 294 185 294 70 
C 294 0 352 0 390 0 
C 512 0 640 12 762 12 
L 1594 12 
C 1734 12 1888 0 2029 0 
C 2086 0 2163 0 2163 115 
C 2163 185 2125 185 1984 185 
C 1478 185 1466 229 1466 324 
C 1466 355 1478 405 1491 449 
L 1901 2054 
z
" transform="scale(0.015625)"/>
       <path id="CMMI12-41" d="M 1088 720 
C 864 335 646 205 339 185 
C 269 179 218 179 218 64 
C 218 25 250 0 294 0 
C 410 0 698 12 813 12 
C 998 12 1203 0 1382 0 
C 1421 0 1498 0 1498 121 
C 1498 179 1446 185 1408 185 
C 1261 198 1139 250 1139 407 
C 1139 498 1178 570 1261 714 
L 1747 1536 
L 3379 1536 
C 3386 1477 3386 1425 3392 1366 
C 3411 1196 3488 518 3488 394 
C 3488 198 3162 185 3059 185 
C 2989 185 2918 185 2918 70 
C 2918 0 2976 0 3014 0 
C 3123 0 3251 12 3360 12 
L 3725 12 
C 4115 12 4397 0 4403 0 
C 4448 0 4518 0 4518 121 
C 4518 185 4461 185 4365 185 
C 4013 185 4006 244 3987 440 
L 3597 4403 
C 3584 4531 3558 4544 3488 4544 
C 3424 4544 3386 4531 3328 4435 
L 1088 720 
z
M 1856 1721 
L 3142 3831 
L 3360 1721 
L 1856 1721 
z
" transform="scale(0.015625)"/>
       <path id="CMR17-6b" d="M 1670 1679 
C 1664 1692 1632 1730 1632 1749 
C 1632 1762 2086 2175 2144 2226 
C 2509 2532 2739 2563 2906 2570 
L 2906 2735 
C 2867 2735 2854 2735 2848 2729 
L 2534 2722 
C 2355 2722 2080 2722 1907 2735 
L 1907 2570 
C 1997 2563 2061 2513 2061 2423 
C 2061 2296 1933 2175 1926 2175 
L 960 1298 
L 960 4416 
L 198 4345 
L 198 4179 
C 576 4179 634 4141 634 3835 
L 634 439 
C 634 198 608 166 198 166 
L 198 0 
C 352 12 634 12 794 12 
C 954 12 1235 12 1389 0 
L 1389 166 
C 979 166 954 191 954 439 
L 954 1139 
L 1395 1540 
L 2042 586 
C 2118 471 2182 382 2182 299 
C 2182 185 2067 166 1990 166 
L 1990 0 
C 2144 12 2419 12 2579 12 
C 2694 12 2931 6 3040 0 
L 3040 166 
C 2739 166 2669 223 2477 503 
L 1670 1679 
z
" transform="scale(0.015625)"/>
       <path id="CMR17-4e" d="M 1312 4275 
C 1267 4345 1261 4352 1139 4352 
L 326 4352 
L 326 4185 
L 448 4185 
C 704 4185 819 4153 838 4147 
L 838 624 
C 838 465 838 166 326 166 
L 326 0 
C 474 12 742 12 902 12 
C 1062 12 1331 12 1478 0 
L 1478 166 
C 966 166 966 465 966 624 
L 966 4057 
C 1011 4019 1011 4007 1056 3943 
L 3430 76 
C 3475 0 3494 0 3526 0 
C 3590 0 3590 19 3590 140 
L 3590 3726 
C 3590 3885 3590 4185 4102 4185 
L 4102 4352 
C 3955 4339 3686 4339 3526 4339 
C 3366 4339 3098 4339 2950 4352 
L 2950 4185 
C 3462 4185 3462 3885 3462 3726 
L 3462 777 
L 1312 4275 
z
" transform="scale(0.015625)"/>
      </defs>
      <use xlink:href="#CMMI12-46" transform="scale(0.996264)"/>
      <use xlink:href="#CMMI12-41" transform="translate(63.148204 -14.943915) scale(0.697382)"/>
      <use xlink:href="#CMR17-5b" transform="translate(144.911599 0) scale(0.996264)"/>
      <use xlink:href="#CMR17-6b" transform="translate(169.782657 0) scale(0.996264)"/>
      <use xlink:href="#CMR17-4e" transform="translate(218.075573 0) scale(0.996264)"/>
      <use xlink:href="#CMR17-5d" transform="translate(287.148003 0) scale(0.996264)"/>
     </g>
    </g>
   </g>
   <g id="line2d_29">
    <path d="M 74.986364 138.436364 
L 77.504567 132.803382 
L 78.921057 130.925721 
L 79.39322 129.048061 
L 81.754036 126.23157 
L 86.003504 123.258607 
L 104.417867 116.843267 
L 125.665209 107.924379 
L 135.580636 103.230227 
L 155.883652 94.31134 
L 191.768052 77.412394 
L 222.93082 64.738185 
L 258.81522 55.349882 
L 289.033662 48.77807 
L 322.085084 40.328598 
L 353.247852 32.974427 
L 369.301399 30.314408 
L 384.882784 28.593219 
L 404.713636 27.654389 
" clip-path="url(#p869ed87de5)" style="fill: none; stroke: #0000ff; stroke-width: 0.7; stroke-linecap: square"/>
   </g>
   <g id="line2d_30">
    <path d="M 76.78407 137.376623 
L 80.599605 135.127379 
L 84.41515 132.878134 
L 88.230685 130.628889 
L 92.046221 128.379645 
L 95.861764 126.1304 
L 99.6773 123.881156 
L 103.492843 121.631911 
L 107.308379 119.382666 
L 111.123914 117.133422 
L 114.939458 114.884177 
L 118.755005 112.634932 
L 122.570541 110.385688 
L 126.386076 108.136443 
L 130.201611 105.887199 
L 134.017147 103.637954 
L 137.83269 101.388709 
L 141.648226 99.139465 
L 145.463765 96.89022 
L 149.279313 94.640975 
L 153.094861 92.391731 
L 156.910384 90.142486 
L 160.725931 87.893241 
L 164.541438 85.643997 
L 168.356978 83.394752 
L 172.172525 81.145508 
L 175.988073 78.896263 
L 179.803613 76.647018 
L 183.61916 74.397774 
L 187.4347 72.148529 
L 191.250247 69.899284 
L 195.065787 67.65004 
L 198.881335 65.400795 
L 202.696882 63.15155 
L 206.512422 60.902306 
L 210.327879 58.653061 
L 214.143427 56.403817 
L 217.958975 54.154572 
L 221.774506 51.905327 
L 227.228091 49.656083 
L 241.084739 47.406838 
L 256.937968 45.157593 
L 272.800965 42.908349 
L 288.643179 40.659104 
L 304.501333 38.40986 
L 320.350852 36.160615 
L 336.212634 33.91137 
L 352.073957 31.662126 
L 367.907978 29.412881 
L 383.796274 27.163636 
" clip-path="url(#p869ed87de5)" style="fill: none; stroke: #800080; stroke-width: 0.7; stroke-linecap: square"/>
   </g>
   <g id="line2d_31">
    <path d="M 76.479239 137.376623 
L 79.647786 135.127379 
L 82.816342 132.878134 
L 85.984889 130.628889 
L 89.153446 128.379645 
L 92.321992 126.1304 
L 95.490549 123.881156 
L 98.659096 121.631911 
L 101.827653 119.382666 
L 104.996199 117.133422 
L 108.164756 114.884177 
L 111.333302 112.634932 
L 114.501851 110.385688 
L 117.670404 108.136443 
L 120.838952 105.887199 
L 124.007501 103.637954 
L 127.176066 101.388709 
L 130.34461 99.139465 
L 133.513167 96.89022 
L 136.681716 94.640975 
L 139.850264 92.391731 
L 143.018817 90.142486 
L 146.187369 87.893241 
L 149.355922 85.643997 
L 152.524467 83.394752 
L 155.693019 81.145508 
L 158.861564 78.896263 
L 162.030125 76.647018 
L 165.198677 74.397774 
L 168.367205 72.148529 
L 171.535733 69.899284 
L 174.704352 67.65004 
L 177.87288 65.400795 
L 181.041408 63.15155 
L 184.210026 60.902306 
L 187.378562 58.653061 
L 190.54709 56.403817 
L 193.715618 54.154572 
L 196.884237 51.905327 
L 200.052765 49.656083 
L 203.221293 47.406838 
L 206.389821 45.157593 
L 209.558357 42.908349 
L 212.726967 40.659104 
L 215.895495 38.40986 
L 219.064023 36.160615 
L 222.23265 33.91137 
L 225.401178 31.662126 
L 228.569706 29.412881 
L 231.738234 27.163636 
" clip-path="url(#p869ed87de5)" style="fill: none; stroke-dasharray: 2.59,1.12; stroke-dashoffset: 0; stroke: #800080; stroke-width: 0.7"/>
   </g>
   <g id="line2d_32">
    <path d="M 75.08045 137.376623 
L 75.280151 135.127379 
L 75.479861 132.878134 
L 75.679562 130.628889 
L 75.879263 128.379645 
L 76.078964 126.1304 
L 76.278665 123.881156 
L 76.478366 121.631911 
L 76.678068 119.382666 
L 76.877769 117.133422 
L 77.07747 114.884177 
L 77.277171 112.634932 
L 77.476872 110.385688 
L 77.676573 108.136443 
L 77.876274 105.887199 
L 78.075975 103.637954 
L 78.275676 101.388709 
L 78.475377 99.139465 
L 78.675087 96.89022 
L 78.874788 94.640975 
L 79.07449 92.391731 
L 79.274191 90.142486 
L 79.473892 87.893241 
L 79.673593 85.643997 
L 79.873294 83.394752 
L 80.072995 81.145508 
L 80.272696 78.896263 
L 80.472397 76.647018 
L 80.672098 74.397774 
L 80.871799 72.148529 
L 81.071501 69.899284 
L 81.271201 67.65004 
L 81.470903 65.400795 
L 81.670604 63.15155 
L 81.870305 60.902306 
L 82.070006 58.653061 
L 82.269716 56.403817 
L 82.469417 54.154572 
L 82.669118 51.905327 
L 85.530604 49.656083 
L 101.457238 47.406838 
L 117.385165 45.157593 
L 133.325753 42.908349 
L 149.23933 40.659104 
L 165.173732 38.40986 
L 181.096765 36.160615 
L 197.035739 33.91137 
L 212.974188 31.662126 
L 228.877127 29.412881 
L 244.850757 27.163636 
" clip-path="url(#p869ed87de5)" style="fill: none; stroke-dasharray: 0.7,1.155; stroke-dashoffset: 0; stroke: #800080; stroke-width: 0.7"/>
   </g>
   <g id="line2d_33">
    <path d="M 75.037466 137.376623 
L 75.145927 135.127379 
L 75.254389 132.878134 
L 75.36285 130.628889 
L 75.471312 128.379645 
L 75.579773 126.1304 
L 75.688235 123.881156 
L 75.796696 121.631911 
L 75.905158 119.382666 
L 76.013619 117.133422 
L 76.122081 114.884177 
L 76.230542 112.634932 
L 76.339004 110.385688 
L 76.447466 108.136443 
L 76.555927 105.887199 
L 76.664389 103.637954 
L 76.77285 101.388709 
L 76.881312 99.139465 
L 76.989773 96.89022 
L 77.098235 94.640975 
L 77.206697 92.391731 
L 77.315158 90.142486 
L 77.423619 87.893241 
L 77.532081 85.643997 
L 77.640543 83.394752 
L 77.749004 81.145508 
L 77.857466 78.896263 
L 77.965927 76.647018 
L 78.074389 74.397774 
L 78.18285 72.148529 
L 78.291312 69.899284 
L 78.399773 67.65004 
L 78.508235 65.400795 
L 78.616697 63.15155 
L 78.725158 60.902306 
L 78.83362 58.653061 
L 78.942081 56.403817 
L 79.050543 54.154572 
L 79.159004 51.905327 
L 79.267466 49.656083 
L 79.375927 47.406838 
L 79.484389 45.157593 
L 79.592851 42.908349 
L 79.701312 40.659104 
L 79.809774 38.40986 
L 79.918235 36.160615 
L 80.026697 33.91137 
L 80.135158 31.662126 
L 80.243619 29.412881 
L 80.352081 27.163636 
" clip-path="url(#p869ed87de5)" style="fill: none; stroke: #dda0dd; stroke-width: 0.7; stroke-linecap: square"/>
   </g>
   <g id="line2d_34">
    <path d="M 75.171214 137.376623 
L 75.563547 135.127379 
L 75.955881 132.878134 
L 76.348223 130.628889 
L 76.740557 128.379645 
L 77.13289 126.1304 
L 77.525224 123.881156 
L 77.917558 121.631911 
L 78.309891 119.382666 
L 78.702234 117.133422 
L 79.094567 114.884177 
L 79.486901 112.634932 
L 79.879234 110.385688 
L 80.271568 108.136443 
L 80.663902 105.887199 
L 81.056244 103.637954 
L 81.448577 101.388709 
L 81.840911 99.139465 
L 82.233244 96.89022 
L 82.625578 94.640975 
L 83.017921 92.391731 
L 83.410254 90.142486 
L 83.802588 87.893241 
L 84.194921 85.643997 
L 84.587255 83.394752 
L 84.979589 81.145508 
L 85.371931 78.896263 
L 85.764265 76.647018 
L 86.156598 74.397774 
L 86.548932 72.148529 
L 86.941265 69.899284 
L 87.333599 67.65004 
L 87.725941 65.400795 
L 88.118275 63.15155 
L 88.510608 60.902306 
L 88.902942 58.653061 
L 89.295276 56.403817 
L 89.687609 54.154572 
L 90.079952 51.905327 
L 90.472285 49.656083 
L 90.864619 47.406838 
L 91.256952 45.157593 
L 91.649286 42.908349 
L 92.041628 40.659104 
L 92.433961 38.40986 
L 92.826297 36.160615 
L 93.21863 33.91137 
L 93.610963 31.662126 
L 94.003304 29.412881 
L 94.39564 27.163636 
" clip-path="url(#p869ed87de5)" style="fill: none; stroke-dasharray: 2.59,1.12; stroke-dashoffset: 0; stroke: #dda0dd; stroke-width: 0.7"/>
   </g>
   <g id="patch_3">
    <path d="M 58.5 144 
L 58.5 21.6 
" style="fill: none; stroke: #000000; stroke-width: 0.5; stroke-linejoin: miter; stroke-linecap: square"/>
   </g>
   <g id="patch_4">
    <path d="M 58.5 144 
L 421.2 144 
" style="fill: none; stroke: #000000; stroke-width: 0.5; stroke-linejoin: miter; stroke-linecap: square"/>
   </g>
   <g id="legend_1">
    <g id="patch_5">
     <path d="M 237.630761 139 
L 414.2 139 
Q 416.2 139 416.2 137 
L 416.2 54.37693 
Q 416.2 52.37693 414.2 52.37693 
L 237.630761 52.37693 
Q 235.630761 52.37693 235.630761 54.37693 
L 235.630761 137 
Q 235.630761 139 237.630761 139 
z
" style="fill: #ffffff; opacity: 0.8; stroke: #cccccc; stroke-width: 0.5; stroke-linejoin: miter"/>
    </g>
    <g id="line2d_35">
     <path d="M 239.630761 59.87693 
L 249.630761 59.87693 
L 259.630761 59.87693 
" style="fill: none; stroke: #0000ff; stroke-width: 0.7; stroke-linecap: square"/>
    </g>
    <g id="text_17">
     <!-- Versuch SV14 -->
     <g transform="translate(267.630761 63.37693) scale(0.1 -0.1)">
      <defs>
       <path id="CMR17-56" d="M 3776 3762 
C 3834 3903 3936 4179 4365 4185 
L 4365 4352 
C 4218 4339 4051 4339 3891 4339 
C 3738 4339 3475 4339 3328 4352 
L 3328 4185 
C 3648 4166 3661 3942 3661 3903 
C 3661 3833 3642 3788 3622 3737 
L 2362 448 
L 1043 3903 
C 1024 3948 1011 3980 1011 4012 
C 1011 4185 1267 4185 1402 4185 
L 1402 4352 
C 1197 4339 896 4339 685 4339 
C 518 4339 218 4339 64 4352 
L 64 4185 
C 435 4185 506 4160 582 3955 
L 2106 -26 
C 2138 -116 2144 -128 2214 -128 
C 2285 -128 2291 -116 2323 -26 
L 3776 3762 
z
" transform="scale(0.015625)"/>
       <path id="CMR17-65" d="M 2438 1503 
C 2464 1529 2464 1542 2464 1606 
C 2464 2251 2118 2816 1389 2816 
C 710 2816 173 2175 173 1394 
C 173 554 781 -64 1459 -64 
C 2176 -64 2458 619 2458 755 
C 2458 800 2419 800 2406 800 
C 2362 800 2355 787 2330 709 
C 2189 270 1837 51 1504 51 
C 1229 51 954 206 781 490 
C 582 819 582 1200 582 1503 
L 2438 1503 
z
M 589 1600 
C 634 2511 1126 2713 1382 2713 
C 1818 2713 2112 2308 2118 1600 
L 589 1600 
z
" transform="scale(0.015625)"/>
       <path id="CMR17-72" d="M 960 1517 
C 960 2134 1222 2713 1702 2713 
C 1747 2713 1792 2707 1837 2687 
C 1837 2687 1696 2642 1696 2475 
C 1696 2321 1818 2257 1914 2257 
C 1990 2257 2131 2302 2131 2482 
C 2131 2687 1926 2816 1709 2816 
C 1222 2816 1011 2340 947 2115 
L 941 2115 
L 941 2816 
L 198 2745 
L 198 2578 
C 576 2578 634 2540 634 2231 
L 634 443 
C 634 198 608 166 198 166 
L 198 0 
C 352 12 646 12 813 12 
C 998 12 1325 12 1498 0 
L 1498 166 
C 1037 166 960 166 960 455 
L 960 1517 
z
" transform="scale(0.015625)"/>
       <path id="CMR17-73" d="M 1978 2688 
C 1978 2803 1971 2809 1933 2809 
C 1907 2809 1901 2803 1824 2707 
C 1805 2681 1747 2617 1728 2592 
C 1523 2809 1235 2816 1126 2816 
C 416 2816 160 2444 160 2073 
C 160 1497 813 1363 998 1324 
C 1402 1241 1542 1216 1677 1100 
C 1760 1024 1901 883 1901 652 
C 1901 384 1747 38 1158 38 
C 602 38 403 460 288 1024 
C 269 1113 269 1120 218 1120 
C 166 1120 160 1113 160 985 
L 160 64 
C 160 -52 166 -58 205 -58 
C 237 -58 243 -52 275 0 
C 314 57 410 211 448 275 
C 576 102 800 -64 1158 -64 
C 1792 -64 2131 281 2131 780 
C 2131 1107 1958 1280 1875 1356 
C 1683 1555 1459 1600 1190 1651 
C 838 1728 390 1817 390 2208 
C 390 2374 480 2726 1126 2726 
C 1811 2726 1850 2086 1862 1881 
C 1869 1849 1901 1843 1920 1843 
C 1978 1843 1978 1862 1978 1971 
L 1978 2688 
z
" transform="scale(0.015625)"/>
       <path id="CMR17-75" d="M 1882 2745 
L 1882 2579 
C 2259 2579 2317 2540 2317 2229 
L 2317 1053 
C 2317 510 2029 38 1555 38 
C 1030 38 986 355 986 691 
L 986 2816 
L 211 2745 
L 211 2579 
C 467 2579 640 2579 646 2320 
L 646 1079 
C 646 646 646 368 813 187 
C 896 103 1056 -64 1517 -64 
C 2061 -64 2272 400 2323 536 
L 2330 536 
L 2330 -64 
L 3091 -13 
L 3091 154 
C 2714 154 2656 193 2656 503 
L 2656 2816 
L 1882 2745 
z
" transform="scale(0.015625)"/>
       <path id="CMR17-63" d="M 2234 2240 
C 2112 2240 1933 2240 1933 2015 
C 1933 1836 2080 1785 2163 1785 
C 2208 1785 2394 1804 2394 2028 
C 2394 2476 1958 2816 1466 2816 
C 787 2816 211 2201 211 1379 
C 211 521 813 -64 1466 -64 
C 2259 -64 2458 676 2458 747 
C 2458 773 2451 792 2406 792 
C 2362 792 2355 786 2330 702 
C 2163 180 1798 51 1523 51 
C 1114 51 621 431 621 1385 
C 621 2358 1094 2700 1472 2700 
C 1722 2700 2093 2582 2234 2240 
z
" transform="scale(0.015625)"/>
       <path id="CMR17-68" d="M 2656 1954 
C 2656 2282 2592 2816 1837 2816 
C 1312 2816 1056 2392 979 2179 
L 973 2179 
L 973 4416 
L 211 4345 
L 211 4179 
C 589 4179 646 4141 646 3843 
L 646 443 
C 646 198 621 166 211 166 
L 211 0 
C 365 12 646 12 813 12 
C 979 12 1267 12 1421 0 
L 1421 166 
C 1011 166 986 192 986 443 
L 986 1678 
C 986 2269 1344 2713 1792 2713 
C 2266 2713 2317 2289 2317 1980 
L 2317 443 
C 2317 198 2291 166 1882 166 
L 1882 0 
C 2035 12 2317 12 2483 12 
C 2650 12 2938 12 3091 0 
L 3091 166 
C 2682 166 2656 192 2656 443 
L 2656 1954 
z
" transform="scale(0.015625)"/>
       <path id="CMR17-53" d="M 2803 4351 
C 2803 4467 2797 4473 2758 4473 
C 2720 4473 2707 4447 2682 4390 
L 2490 3965 
C 2246 4320 1875 4480 1472 4480 
C 819 4480 294 3958 294 3301 
C 294 3101 339 2817 557 2546 
C 794 2250 1018 2198 1530 2063 
C 1722 2011 2042 1927 2106 1901 
C 2470 1747 2662 1360 2662 999 
C 2662 534 2336 38 1779 38 
C 1094 38 454 425 410 1328 
C 403 1431 397 1437 352 1437 
C 301 1437 294 1431 294 1302 
L 294 0 
C 294 -116 301 -122 339 -122 
C 384 -122 397 -90 486 109 
C 493 128 493 141 614 386 
C 934 -39 1472 -128 1779 -128 
C 2477 -128 2970 457 2970 1141 
C 2970 1476 2848 1734 2778 1850 
C 2509 2263 2221 2340 1914 2417 
C 1869 2437 1856 2437 1498 2527 
C 1152 2617 1005 2662 845 2836 
C 666 3036 602 3243 602 3449 
C 602 3868 934 4326 1478 4326 
C 2157 4326 2579 3842 2675 3036 
C 2694 2920 2701 2914 2746 2914 
C 2803 2914 2803 2933 2803 3043 
L 2803 4351 
z
" transform="scale(0.015625)"/>
      </defs>
      <use xlink:href="#CMR17-56" transform="scale(0.996264)"/>
      <use xlink:href="#CMR17-65" transform="translate(61.265174 0) scale(0.996264)"/>
      <use xlink:href="#CMR17-72" transform="translate(101.750835 0) scale(0.996264)"/>
      <use xlink:href="#CMR17-73" transform="translate(137.031603 0) scale(0.996264)"/>
      <use xlink:href="#CMR17-75" transform="translate(172.83294 0) scale(0.996264)"/>
      <use xlink:href="#CMR17-63" transform="translate(223.72831 0) scale(0.996264)"/>
      <use xlink:href="#CMR17-68" transform="translate(261.611517 0) scale(0.996264)"/>
      <use xlink:href="#CMR17-53" transform="translate(342.582853 0) scale(0.996264)"/>
      <use xlink:href="#CMR17-56" transform="translate(393.478223 0) scale(0.996264)"/>
      <use xlink:href="#CMR17-31" transform="translate(462.550652 0) scale(0.996264)"/>
      <use xlink:href="#CMR17-34" transform="translate(508.241129 0) scale(0.996264)"/>
     </g>
    </g>
    <g id="line2d_36">
     <path d="M 239.630761 73.814108 
L 249.630761 73.814108 
L 259.630761 73.814108 
" style="fill: none; stroke: #800080; stroke-width: 0.7; stroke-linecap: square"/>
    </g>
    <g id="text_18">
     <!-- Gesamtverformung -->
     <g transform="translate(267.630761 77.314108) scale(0.1 -0.1)">
      <defs>
       <path id="CMR17-47" d="M 3974 1258 
C 3974 1503 3994 1536 4390 1536 
L 4390 1702 
C 4237 1689 3891 1689 3718 1689 
C 3539 1689 3040 1696 2797 1702 
L 2797 1536 
L 2989 1536 
C 3539 1536 3552 1464 3552 1232 
L 3552 806 
C 3552 96 2720 38 2522 38 
C 1862 38 781 496 781 2179 
C 781 3862 1843 4313 2464 4313 
C 3187 4313 3712 3681 3834 2785 
C 3846 2708 3846 2695 3904 2695 
C 3974 2695 3974 2708 3974 2824 
L 3974 4351 
C 3974 4467 3968 4473 3930 4473 
C 3904 4473 3898 4467 3853 4390 
L 3571 3849 
C 3258 4249 2874 4480 2381 4480 
C 1286 4480 294 3507 294 2179 
C 294 858 1267 -128 2394 -128 
C 2912 -128 3418 57 3616 425 
C 3725 161 3904 -20 3936 -20 
C 3968 -20 3974 -13 3974 102 
L 3974 1258 
z
" transform="scale(0.015625)"/>
       <path id="CMR17-61" d="M 2304 1656 
C 2304 2048 2304 2275 2035 2534 
C 1798 2751 1523 2816 1306 2816 
C 800 2816 435 2408 435 1977 
C 435 1740 627 1728 666 1728 
C 749 1728 896 1779 896 1958 
C 896 2118 774 2188 666 2188 
C 640 2188 608 2182 589 2176 
C 723 2594 1069 2713 1293 2713 
C 1613 2713 1965 2421 1965 1875 
L 1965 1632 
C 1587 1619 1133 1568 774 1373 
C 371 1147 256 822 256 576 
C 256 77 832 -64 1171 -64 
C 1523 -64 1850 135 1990 505 
C 2003 219 2182 -39 2464 -39 
C 2598 -39 2938 51 2938 563 
L 2938 926 
L 2822 926 
L 2822 557 
C 2822 161 2650 109 2566 109 
C 2304 109 2304 446 2304 732 
L 2304 1656 
z
M 1965 887 
C 1965 323 1568 38 1216 38 
C 896 38 646 278 646 576 
C 646 771 730 1114 1101 1322 
C 1408 1497 1760 1523 1965 1536 
L 1965 887 
z
" transform="scale(0.015625)"/>
       <path id="CMR17-74" d="M 966 2585 
L 1862 2585 
L 1862 2752 
L 966 2752 
L 966 3968 
L 851 3968 
C 838 3292 614 2700 70 2687 
L 70 2585 
L 627 2585 
L 627 778 
C 627 655 627 -64 1370 -64 
C 1747 -64 1965 308 1965 784 
L 1965 1151 
L 1850 1151 
L 1850 790 
C 1850 347 1677 51 1408 51 
C 1222 51 966 179 966 765 
L 966 2585 
z
" transform="scale(0.015625)"/>
       <path id="CMR17-76" d="M 2502 2173 
C 2560 2315 2662 2572 3034 2585 
L 3034 2752 
C 2912 2745 2752 2739 2630 2739 
C 2496 2739 2285 2739 2157 2752 
L 2157 2585 
C 2317 2572 2406 2495 2406 2328 
C 2406 2270 2406 2257 2368 2167 
L 1664 379 
L 902 2308 
C 864 2392 864 2405 864 2431 
C 864 2585 1075 2585 1171 2585 
L 1171 2752 
C 1018 2739 736 2739 576 2739 
C 403 2739 205 2739 64 2752 
L 64 2585 
C 307 2585 442 2585 518 2386 
L 1446 44 
C 1485 -52 1491 -64 1549 -64 
C 1606 -64 1613 -52 1651 44 
L 2502 2173 
z
" transform="scale(0.015625)"/>
       <path id="CMR17-66" d="M 979 2585 
L 1709 2585 
L 1709 2752 
L 966 2752 
L 966 3539 
C 966 4076 1235 4377 1510 4377 
C 1594 4377 1690 4363 1754 4339 
C 1702 4326 1568 4281 1568 4121 
C 1568 3955 1696 3904 1786 3904 
C 1875 3904 2003 3955 2003 4121 
C 2003 4353 1773 4480 1517 4480 
C 1152 4480 653 4211 653 3526 
L 653 2752 
L 141 2752 
L 141 2585 
L 653 2585 
L 653 441 
C 653 198 627 166 218 166 
L 218 0 
C 371 12 666 12 832 12 
C 1018 12 1344 12 1517 0 
L 1517 166 
C 1056 166 979 166 979 454 
L 979 2585 
z
" transform="scale(0.015625)"/>
       <path id="CMR17-6f" d="M 2758 1356 
C 2758 2176 2163 2816 1466 2816 
C 768 2816 173 2176 173 1356 
C 173 550 768 -64 1466 -64 
C 2163 -64 2758 550 2758 1356 
z
M 1466 51 
C 1165 51 909 230 762 480 
C 602 768 582 1126 582 1408 
C 582 1676 595 2009 762 2297 
C 890 2508 1139 2713 1466 2713 
C 1754 2713 1997 2553 2150 2329 
C 2349 2028 2349 1606 2349 1408 
C 2349 1158 2336 774 2163 467 
C 1984 172 1709 51 1466 51 
z
" transform="scale(0.015625)"/>
       <path id="CMR17-6e" d="M 2656 1954 
C 2656 2282 2592 2816 1837 2816 
C 1331 2816 1069 2424 973 2166 
L 966 2166 
L 966 2816 
L 211 2745 
L 211 2578 
C 589 2578 646 2540 646 2231 
L 646 443 
C 646 198 621 166 211 166 
L 211 0 
C 365 12 646 12 813 12 
C 979 12 1267 12 1421 0 
L 1421 166 
C 1011 166 986 192 986 443 
L 986 1678 
C 986 2269 1344 2713 1792 2713 
C 2266 2713 2317 2289 2317 1980 
L 2317 443 
C 2317 198 2291 166 1882 166 
L 1882 0 
C 2035 12 2317 12 2483 12 
C 2650 12 2938 12 3091 0 
L 3091 166 
C 2682 166 2656 192 2656 443 
L 2656 1954 
z
" transform="scale(0.015625)"/>
       <path id="CMR17-67" d="M 710 1165 
C 832 1068 1043 960 1299 960 
C 1805 960 2240 1359 2240 1895 
C 2240 2063 2189 2321 1997 2521 
C 2176 2713 2438 2777 2586 2777 
C 2611 2777 2650 2777 2682 2758 
C 2656 2751 2598 2726 2598 2623 
C 2598 2540 2656 2483 2739 2483 
C 2835 2483 2886 2547 2886 2630 
C 2886 2751 2790 2880 2586 2880 
C 2330 2880 2106 2758 1926 2591 
C 1734 2764 1504 2828 1299 2828 
C 794 2828 358 2431 358 1895 
C 358 1527 570 1294 634 1230 
C 442 1004 442 742 442 710 
C 442 544 506 300 723 166 
C 390 82 128 -184 128 -517 
C 128 -996 736 -1344 1466 -1344 
C 2170 -1344 2803 -1009 2803 -510 
C 2803 384 1856 384 1363 384 
C 1216 384 954 384 922 390 
C 723 422 589 601 589 825 
C 589 883 589 1024 710 1165 
z
M 1299 1068 
C 736 1068 736 1766 736 1895 
C 736 2024 736 2719 1299 2719 
C 1862 2719 1862 2024 1862 1895 
C 1862 1766 1862 1068 1299 1068 
z
M 1466 -1236 
C 826 -1236 384 -883 384 -517 
C 384 -311 493 -118 634 -11 
C 794 102 858 102 1293 102 
C 1818 102 2547 102 2547 -517 
C 2547 -883 2106 -1236 1466 -1236 
z
" transform="scale(0.015625)"/>
      </defs>
      <use xlink:href="#CMR17-47" transform="scale(0.996264)"/>
      <use xlink:href="#CMR17-65" transform="translate(72.355346 0) scale(0.996264)"/>
      <use xlink:href="#CMR17-73" transform="translate(112.841006 0) scale(0.996264)"/>
      <use xlink:href="#CMR17-61" transform="translate(148.642344 0) scale(0.996264)"/>
      <use xlink:href="#CMR17-6d" transform="translate(194.332821 0) scale(0.996264)"/>
      <use xlink:href="#CMR17-74" transform="translate(268.649957 0) scale(0.996264)"/>
      <use xlink:href="#CMR17-76" transform="translate(303.930725 0) scale(0.996264)"/>
      <use xlink:href="#CMR17-65" transform="translate(349.621187 0) scale(0.996264)"/>
      <use xlink:href="#CMR17-72" transform="translate(390.106847 0) scale(0.996264)"/>
      <use xlink:href="#CMR17-66" transform="translate(425.387615 0) scale(0.996264)"/>
      <use xlink:href="#CMR17-6f" transform="translate(452.861127 0) scale(0.996264)"/>
      <use xlink:href="#CMR17-72" transform="translate(498.551605 0) scale(0.996264)"/>
      <use xlink:href="#CMR17-6d" transform="translate(533.832372 0) scale(0.996264)"/>
      <use xlink:href="#CMR17-75" transform="translate(608.149508 0) scale(0.996264)"/>
      <use xlink:href="#CMR17-6e" transform="translate(659.044878 0) scale(0.996264)"/>
      <use xlink:href="#CMR17-67" transform="translate(709.940248 0) scale(0.996264)"/>
     </g>
    </g>
    <g id="line2d_37">
     <path d="M 239.630761 87.751287 
L 249.630761 87.751287 
L 259.630761 87.751287 
" style="fill: none; stroke-dasharray: 2.59,1.12; stroke-dashoffset: 0; stroke: #800080; stroke-width: 0.7"/>
    </g>
    <g id="text_19">
     <!-- Verformung des Zuggurts -->
     <g transform="translate(267.630761 91.251287) scale(0.1 -0.1)">
      <defs>
       <path id="CMR17-64" d="M 1869 4345 
L 1869 4179 
C 2246 4179 2304 4141 2304 3843 
L 2304 2371 
C 2278 2403 2016 2816 1498 2816 
C 845 2816 211 2228 211 1376 
C 211 529 806 -64 1434 -64 
C 1978 -64 2259 361 2291 406 
L 2291 -64 
L 3066 -13 
L 3066 154 
C 2688 154 2630 193 2630 503 
L 2630 4416 
L 1869 4345 
z
M 2291 762 
C 2291 568 2176 393 2029 264 
C 1811 70 1594 38 1472 38 
C 1286 38 621 135 621 1369 
C 621 2636 1363 2713 1530 2713 
C 1824 2713 2061 2545 2208 2313 
C 2291 2177 2291 2157 2291 2041 
L 2291 762 
z
" transform="scale(0.015625)"/>
       <path id="CMR17-5a" d="M 3302 4223 
C 3302 4345 3296 4352 3162 4352 
L 442 4352 
L 378 2943 
L 493 2943 
C 531 3669 723 4185 1760 4185 
L 2816 4185 
L 339 204 
C 294 134 294 128 294 83 
C 294 0 307 0 435 0 
L 3245 0 
L 3334 1663 
L 3219 1663 
C 3162 828 3117 179 1894 179 
L 781 179 
L 3302 4223 
z
" transform="scale(0.015625)"/>
      </defs>
      <use xlink:href="#CMR17-56" transform="scale(0.996264)"/>
      <use xlink:href="#CMR17-65" transform="translate(61.265174 0) scale(0.996264)"/>
      <use xlink:href="#CMR17-72" transform="translate(101.750835 0) scale(0.996264)"/>
      <use xlink:href="#CMR17-66" transform="translate(137.031603 0) scale(0.996264)"/>
      <use xlink:href="#CMR17-6f" transform="translate(164.505115 0) scale(0.996264)"/>
      <use xlink:href="#CMR17-72" transform="translate(210.195592 0) scale(0.996264)"/>
      <use xlink:href="#CMR17-6d" transform="translate(245.47636 0) scale(0.996264)"/>
      <use xlink:href="#CMR17-75" transform="translate(319.793496 0) scale(0.996264)"/>
      <use xlink:href="#CMR17-6e" transform="translate(370.688866 0) scale(0.996264)"/>
      <use xlink:href="#CMR17-67" transform="translate(421.584236 0) scale(0.996264)"/>
      <use xlink:href="#CMR17-64" transform="translate(497.350679 0) scale(0.996264)"/>
      <use xlink:href="#CMR17-65" transform="translate(548.246049 0) scale(0.996264)"/>
      <use xlink:href="#CMR17-73" transform="translate(588.731709 0) scale(0.996264)"/>
      <use xlink:href="#CMR17-5a" transform="translate(654.609013 0) scale(0.996264)"/>
      <use xlink:href="#CMR17-75" transform="translate(710.709184 0) scale(0.996264)"/>
      <use xlink:href="#CMR17-67" transform="translate(761.604554 0) scale(0.996264)"/>
      <use xlink:href="#CMR17-67" transform="translate(807.295031 0) scale(0.996264)"/>
      <use xlink:href="#CMR17-75" transform="translate(852.985508 0) scale(0.996264)"/>
      <use xlink:href="#CMR17-72" transform="translate(903.880878 0) scale(0.996264)"/>
      <use xlink:href="#CMR17-74" transform="translate(939.161646 0) scale(0.996264)"/>
      <use xlink:href="#CMR17-73" transform="translate(974.442414 0) scale(0.996264)"/>
     </g>
    </g>
    <g id="line2d_38">
     <path d="M 239.630761 101.688465 
L 249.630761 101.688465 
L 259.630761 101.688465 
" style="fill: none; stroke-dasharray: 0.7,1.155; stroke-dashoffset: 0; stroke: #800080; stroke-width: 0.7"/>
    </g>
    <g id="text_20">
     <!-- Verformung der Schubbewehrung -->
     <g transform="translate(267.630761 105.188465) scale(0.1 -0.1)">
      <defs>
       <path id="CMR17-62" d="M 960 4416 
L 198 4345 
L 198 4179 
C 576 4179 634 4141 634 3843 
L 634 -13 
L 749 -13 
L 934 445 
C 1120 141 1395 -64 1766 -64 
C 2406 -64 3053 503 3053 1382 
C 3053 2209 2477 2816 1830 2816 
C 1434 2816 1152 2603 960 2351 
L 960 4416 
z
M 973 2022 
C 973 2138 973 2157 1062 2293 
C 1312 2681 1670 2713 1792 2713 
C 1984 2713 2643 2610 2643 1388 
C 2643 109 1888 38 1734 38 
C 1536 38 1248 115 1043 490 
C 973 613 973 626 973 742 
L 973 2022 
z
" transform="scale(0.015625)"/>
       <path id="CMR17-77" d="M 3725 2186 
C 3853 2566 4109 2579 4205 2585 
L 4205 2752 
C 4077 2745 3949 2739 3821 2739 
C 3699 2739 3424 2739 3315 2752 
L 3315 2585 
C 3514 2572 3622 2456 3622 2296 
C 3622 2251 3610 2193 3597 2148 
L 2995 398 
L 2342 2296 
C 2330 2341 2310 2392 2310 2418 
C 2310 2585 2528 2585 2630 2585 
L 2630 2752 
C 2483 2739 2214 2739 2061 2739 
C 1901 2739 1734 2739 1587 2752 
L 1587 2585 
C 1939 2585 1939 2572 2074 2167 
L 1485 443 
L 851 2302 
C 819 2386 819 2399 819 2418 
C 819 2585 1037 2585 1139 2585 
L 1139 2752 
C 986 2739 717 2739 557 2739 
C 416 2739 198 2739 64 2752 
L 64 2585 
C 346 2585 416 2566 486 2353 
L 1274 38 
C 1299 -45 1318 -64 1370 -64 
C 1414 -64 1440 -52 1472 44 
L 2131 1987 
L 2797 44 
C 2829 -52 2854 -64 2899 -64 
C 2950 -64 2970 -45 2995 38 
L 3725 2186 
z
" transform="scale(0.015625)"/>
      </defs>
      <use xlink:href="#CMR17-56" transform="scale(0.996264)"/>
      <use xlink:href="#CMR17-65" transform="translate(61.265174 0) scale(0.996264)"/>
      <use xlink:href="#CMR17-72" transform="translate(101.750835 0) scale(0.996264)"/>
      <use xlink:href="#CMR17-66" transform="translate(137.031603 0) scale(0.996264)"/>
      <use xlink:href="#CMR17-6f" transform="translate(164.505115 0) scale(0.996264)"/>
      <use xlink:href="#CMR17-72" transform="translate(210.195592 0) scale(0.996264)"/>
      <use xlink:href="#CMR17-6d" transform="translate(245.47636 0) scale(0.996264)"/>
      <use xlink:href="#CMR17-75" transform="translate(319.793496 0) scale(0.996264)"/>
      <use xlink:href="#CMR17-6e" transform="translate(370.688866 0) scale(0.996264)"/>
      <use xlink:href="#CMR17-67" transform="translate(421.584236 0) scale(0.996264)"/>
      <use xlink:href="#CMR17-64" transform="translate(497.350679 0) scale(0.996264)"/>
      <use xlink:href="#CMR17-65" transform="translate(548.246049 0) scale(0.996264)"/>
      <use xlink:href="#CMR17-72" transform="translate(588.731709 0) scale(0.996264)"/>
      <use xlink:href="#CMR17-53" transform="translate(654.088443 0) scale(0.996264)"/>
      <use xlink:href="#CMR17-63" transform="translate(704.983813 0) scale(0.996264)"/>
      <use xlink:href="#CMR17-68" transform="translate(742.86702 0) scale(0.996264)"/>
      <use xlink:href="#CMR17-75" transform="translate(791.159936 0) scale(0.996264)"/>
      <use xlink:href="#CMR17-62" transform="translate(842.055305 0) scale(0.996264)"/>
      <use xlink:href="#CMR17-62" transform="translate(892.950675 0) scale(0.996264)"/>
      <use xlink:href="#CMR17-65" transform="translate(946.448484 0) scale(0.996264)"/>
      <use xlink:href="#CMR17-77" transform="translate(986.934144 0) scale(0.996264)"/>
      <use xlink:href="#CMR17-65" transform="translate(1050.841571 0) scale(0.996264)"/>
      <use xlink:href="#CMR17-68" transform="translate(1091.327231 0) scale(0.996264)"/>
      <use xlink:href="#CMR17-72" transform="translate(1142.222601 0) scale(0.996264)"/>
      <use xlink:href="#CMR17-75" transform="translate(1177.503369 0) scale(0.996264)"/>
      <use xlink:href="#CMR17-6e" transform="translate(1228.398738 0) scale(0.996264)"/>
      <use xlink:href="#CMR17-67" transform="translate(1279.294108 0) scale(0.996264)"/>
     </g>
    </g>
    <g id="line2d_39">
     <path d="M 239.630761 115.625643 
L 249.630761 115.625643 
L 259.630761 115.625643 
" style="fill: none; stroke: #dda0dd; stroke-width: 0.7; stroke-linecap: square"/>
    </g>
    <g id="text_21">
     <!-- Verformung der Druckstrebe -->
     <g transform="translate(267.630761 119.125643) scale(0.1 -0.1)">
      <defs>
       <path id="CMR17-44" d="M 333 4352 
L 333 4185 
C 774 4185 845 4185 845 3898 
L 845 453 
C 845 166 774 166 333 166 
L 333 0 
L 2368 0 
C 3398 0 4224 943 4224 2140 
C 4224 3344 3411 4352 2368 4352 
L 333 4352 
z
M 1523 166 
C 1267 166 1254 198 1254 414 
L 1254 3936 
C 1254 4153 1267 4185 1523 4185 
L 2240 4185 
C 2771 4185 3750 3873 3750 2140 
C 3750 1242 3488 879 3366 707 
C 3213 510 2848 166 2240 166 
L 1523 166 
z
" transform="scale(0.015625)"/>
      </defs>
      <use xlink:href="#CMR17-56" transform="scale(0.996264)"/>
      <use xlink:href="#CMR17-65" transform="translate(61.265174 0) scale(0.996264)"/>
      <use xlink:href="#CMR17-72" transform="translate(101.750835 0) scale(0.996264)"/>
      <use xlink:href="#CMR17-66" transform="translate(137.031603 0) scale(0.996264)"/>
      <use xlink:href="#CMR17-6f" transform="translate(164.505115 0) scale(0.996264)"/>
      <use xlink:href="#CMR17-72" transform="translate(210.195592 0) scale(0.996264)"/>
      <use xlink:href="#CMR17-6d" transform="translate(245.47636 0) scale(0.996264)"/>
      <use xlink:href="#CMR17-75" transform="translate(319.793496 0) scale(0.996264)"/>
      <use xlink:href="#CMR17-6e" transform="translate(370.688866 0) scale(0.996264)"/>
      <use xlink:href="#CMR17-67" transform="translate(421.584236 0) scale(0.996264)"/>
      <use xlink:href="#CMR17-64" transform="translate(497.350679 0) scale(0.996264)"/>
      <use xlink:href="#CMR17-65" transform="translate(548.246049 0) scale(0.996264)"/>
      <use xlink:href="#CMR17-72" transform="translate(588.731709 0) scale(0.996264)"/>
      <use xlink:href="#CMR17-44" transform="translate(654.088443 0) scale(0.996264)"/>
      <use xlink:href="#CMR17-72" transform="translate(724.481999 0) scale(0.996264)"/>
      <use xlink:href="#CMR17-75" transform="translate(759.762767 0) scale(0.996264)"/>
      <use xlink:href="#CMR17-63" transform="translate(810.658137 0) scale(0.996264)"/>
      <use xlink:href="#CMR17-6b" transform="translate(848.541343 0) scale(0.996264)"/>
      <use xlink:href="#CMR17-73" transform="translate(896.834259 0) scale(0.996264)"/>
      <use xlink:href="#CMR17-74" transform="translate(932.635597 0) scale(0.996264)"/>
      <use xlink:href="#CMR17-72" transform="translate(967.916365 0) scale(0.996264)"/>
      <use xlink:href="#CMR17-65" transform="translate(1003.197132 0) scale(0.996264)"/>
      <use xlink:href="#CMR17-62" transform="translate(1043.682793 0) scale(0.996264)"/>
      <use xlink:href="#CMR17-65" transform="translate(1097.180601 0) scale(0.996264)"/>
     </g>
    </g>
    <g id="line2d_40">
     <path d="M 239.630761 129.562822 
L 249.630761 129.562822 
L 259.630761 129.562822 
" style="fill: none; stroke-dasharray: 2.59,1.12; stroke-dashoffset: 0; stroke: #dda0dd; stroke-width: 0.7"/>
    </g>
    <g id="text_22">
     <!-- Verformung des Druckgurts -->
     <g transform="translate(267.630761 133.062822) scale(0.1 -0.1)">
      <use xlink:href="#CMR17-56" transform="scale(0.996264)"/>
      <use xlink:href="#CMR17-65" transform="translate(61.265174 0) scale(0.996264)"/>
      <use xlink:href="#CMR17-72" transform="translate(101.750835 0) scale(0.996264)"/>
      <use xlink:href="#CMR17-66" transform="translate(137.031603 0) scale(0.996264)"/>
      <use xlink:href="#CMR17-6f" transform="translate(164.505115 0) scale(0.996264)"/>
      <use xlink:href="#CMR17-72" transform="translate(210.195592 0) scale(0.996264)"/>
      <use xlink:href="#CMR17-6d" transform="translate(245.47636 0) scale(0.996264)"/>
      <use xlink:href="#CMR17-75" transform="translate(319.793496 0) scale(0.996264)"/>
      <use xlink:href="#CMR17-6e" transform="translate(370.688866 0) scale(0.996264)"/>
      <use xlink:href="#CMR17-67" transform="translate(421.584236 0) scale(0.996264)"/>
      <use xlink:href="#CMR17-64" transform="translate(497.350679 0) scale(0.996264)"/>
      <use xlink:href="#CMR17-65" transform="translate(548.246049 0) scale(0.996264)"/>
      <use xlink:href="#CMR17-73" transform="translate(588.731709 0) scale(0.996264)"/>
      <use xlink:href="#CMR17-44" transform="translate(654.609013 0) scale(0.996264)"/>
      <use xlink:href="#CMR17-72" transform="translate(725.002569 0) scale(0.996264)"/>
      <use xlink:href="#CMR17-75" transform="translate(760.283337 0) scale(0.996264)"/>
      <use xlink:href="#CMR17-63" transform="translate(811.178707 0) scale(0.996264)"/>
      <use xlink:href="#CMR17-6b" transform="translate(849.061913 0) scale(0.996264)"/>
      <use xlink:href="#CMR17-67" transform="translate(897.354829 0) scale(0.996264)"/>
      <use xlink:href="#CMR17-75" transform="translate(943.045306 0) scale(0.996264)"/>
      <use xlink:href="#CMR17-72" transform="translate(993.940676 0) scale(0.996264)"/>
      <use xlink:href="#CMR17-74" transform="translate(1029.221444 0) scale(0.996264)"/>
      <use xlink:href="#CMR17-73" transform="translate(1064.502212 0) scale(0.996264)"/>
     </g>
    </g>
   </g>
  </g>
 </g>
 <defs>
  <clipPath id="p869ed87de5">
   <rect x="58.5" y="21.6" width="362.7" height="122.4"/>
  </clipPath>
 </defs>
</svg>
