<?xml version="1.0" encoding="utf-8" standalone="no"?>
<!DOCTYPE svg PUBLIC "-//W3C//DTD SVG 1.1//EN"
  "http://www.w3.org/Graphics/SVG/1.1/DTD/svg11.dtd">
<svg xmlns:xlink="http://www.w3.org/1999/xlink" width="468pt" height="180pt" viewBox="0 0 468 180" xmlns="http://www.w3.org/2000/svg" version="1.1">
 <metadata>
  <rdf:RDF xmlns:dc="http://purl.org/dc/elements/1.1/" xmlns:cc="http://creativecommons.org/ns#" xmlns:rdf="http://www.w3.org/1999/02/22-rdf-syntax-ns#">
   <cc:Work>
    <dc:type rdf:resource="http://purl.org/dc/dcmitype/StillImage"/>
    <dc:date>2024-01-15T17:20:24.408646</dc:date>
    <dc:format>image/svg+xml</dc:format>
    <dc:creator>
     <cc:Agent>
      <dc:title>Matplotlib v3.8.2, https://matplotlib.org/</dc:title>
     </cc:Agent>
    </dc:creator>
   </cc:Work>
  </rdf:RDF>
 </metadata>
 <defs>
  <style type="text/css">*{stroke-linejoin: round; stroke-linecap: butt}</style>
 </defs>
 <g id="figure_1">
  <g id="patch_1">
   <path d="M 0 180 
L 468 180 
L 468 0 
L 0 0 
z
" style="fill: #ffffff"/>
  </g>
  <g id="axes_1">
   <g id="patch_2">
    <path d="M 58.5 144 
L 421.2 144 
L 421.2 21.6 
L 58.5 21.6 
z
" style="fill: #ffffff"/>
   </g>
   <g id="matplotlib.axis_1">
    <g id="xtick_1">
     <g id="line2d_1">
      <path d="M 74.986364 144 
L 74.986364 21.6 
" clip-path="url(#pd051b0eba9)" style="fill: none; stroke: #d3d3d3; stroke-width: 0.2; stroke-linecap: square"/>
     </g>
     <g id="line2d_2">
      <defs>
       <path id="mcc12d8afbb" d="M 0 0 
L 0 -3.5 
" style="stroke: #000000; stroke-width: 0.8"/>
      </defs>
      <g>
       <use xlink:href="#mcc12d8afbb" x="74.986364" y="144" style="stroke: #000000; stroke-width: 0.8"/>
      </g>
     </g>
     <g id="text_1">
      <!-- $\mathdefault{0}$ -->
      <g transform="translate(72.495696 154.418498) scale(0.1 -0.1)">
       <defs>
        <path id="CMR17-30" d="M 2688 2038 
C 2688 2430 2682 3099 2413 3613 
C 2176 4063 1798 4224 1466 4224 
C 1158 4224 768 4082 525 3620 
C 269 3137 243 2539 243 2038 
C 243 1671 250 1112 448 623 
C 723 -39 1216 -128 1466 -128 
C 1760 -128 2208 -7 2470 604 
C 2662 1048 2688 1568 2688 2038 
z
M 1466 -26 
C 1056 -26 813 328 723 816 
C 653 1196 653 1749 653 2109 
C 653 2604 653 3015 736 3407 
C 858 3954 1216 4121 1466 4121 
C 1728 4121 2067 3947 2189 3420 
C 2272 3054 2278 2623 2278 2109 
C 2278 1691 2278 1176 2202 797 
C 2067 96 1690 -26 1466 -26 
z
" transform="scale(0.015625)"/>
       </defs>
       <use xlink:href="#CMR17-30" transform="scale(0.996264)"/>
      </g>
     </g>
    </g>
    <g id="xtick_2">
     <g id="line2d_3">
      <path d="M 119.054925 144 
L 119.054925 21.6 
" clip-path="url(#pd051b0eba9)" style="fill: none; stroke: #d3d3d3; stroke-width: 0.2; stroke-linecap: square"/>
     </g>
     <g id="line2d_4">
      <g>
       <use xlink:href="#mcc12d8afbb" x="119.054925" y="144" style="stroke: #000000; stroke-width: 0.8"/>
      </g>
     </g>
     <g id="text_2">
      <!-- $\mathdefault{5}$ -->
      <g transform="translate(116.564258 154.418498) scale(0.1 -0.1)">
       <defs>
        <path id="CMR17-35" d="M 730 3750 
C 794 3724 1056 3641 1325 3641 
C 1920 3641 2246 3961 2432 4140 
C 2432 4191 2432 4224 2394 4224 
C 2387 4224 2374 4224 2323 4198 
C 2099 4102 1837 4032 1517 4032 
C 1325 4032 1037 4055 723 4191 
C 653 4224 640 4224 634 4224 
C 602 4224 595 4217 595 4090 
L 595 2231 
C 595 2113 595 2080 659 2080 
C 691 2080 704 2093 736 2139 
C 941 2435 1222 2560 1542 2560 
C 1766 2560 2246 2415 2246 1293 
C 2246 1087 2246 716 2054 422 
C 1894 159 1645 25 1370 25 
C 947 25 518 319 403 812 
C 429 806 480 793 506 793 
C 589 793 749 838 749 1036 
C 749 1209 627 1280 506 1280 
C 358 1280 262 1190 262 1011 
C 262 454 704 -128 1382 -128 
C 2042 -128 2669 441 2669 1267 
C 2669 2054 2170 2662 1549 2662 
C 1222 2662 947 2540 730 2304 
L 730 3750 
z
" transform="scale(0.015625)"/>
       </defs>
       <use xlink:href="#CMR17-35" transform="scale(0.996264)"/>
      </g>
     </g>
    </g>
    <g id="xtick_3">
     <g id="line2d_5">
      <path d="M 163.123487 144 
L 163.123487 21.6 
" clip-path="url(#pd051b0eba9)" style="fill: none; stroke: #d3d3d3; stroke-width: 0.2; stroke-linecap: square"/>
     </g>
     <g id="line2d_6">
      <g>
       <use xlink:href="#mcc12d8afbb" x="163.123487" y="144" style="stroke: #000000; stroke-width: 0.8"/>
      </g>
     </g>
     <g id="text_3">
      <!-- $\mathdefault{10}$ -->
      <g transform="translate(158.142151 154.418498) scale(0.1 -0.1)">
       <defs>
        <path id="CMR17-31" d="M 1702 4083 
C 1702 4217 1696 4224 1606 4224 
C 1357 3927 979 3833 621 3820 
C 602 3820 570 3820 563 3808 
C 557 3795 557 3782 557 3648 
C 755 3648 1088 3686 1344 3839 
L 1344 467 
C 1344 243 1331 166 781 166 
L 589 166 
L 589 0 
C 896 6 1216 12 1523 12 
C 1830 12 2150 6 2458 0 
L 2458 166 
L 2266 166 
C 1715 166 1702 236 1702 467 
L 1702 4083 
z
" transform="scale(0.015625)"/>
       </defs>
       <use xlink:href="#CMR17-31" transform="scale(0.996264)"/>
       <use xlink:href="#CMR17-30" transform="translate(45.690477 0) scale(0.996264)"/>
      </g>
     </g>
    </g>
    <g id="xtick_4">
     <g id="line2d_7">
      <path d="M 207.192048 144 
L 207.192048 21.6 
" clip-path="url(#pd051b0eba9)" style="fill: none; stroke: #d3d3d3; stroke-width: 0.2; stroke-linecap: square"/>
     </g>
     <g id="line2d_8">
      <g>
       <use xlink:href="#mcc12d8afbb" x="207.192048" y="144" style="stroke: #000000; stroke-width: 0.8"/>
      </g>
     </g>
     <g id="text_4">
      <!-- $\mathdefault{15}$ -->
      <g transform="translate(202.210713 154.418498) scale(0.1 -0.1)">
       <use xlink:href="#CMR17-31" transform="scale(0.996264)"/>
       <use xlink:href="#CMR17-35" transform="translate(45.690477 0) scale(0.996264)"/>
      </g>
     </g>
    </g>
    <g id="xtick_5">
     <g id="line2d_9">
      <path d="M 251.26061 144 
L 251.26061 21.6 
" clip-path="url(#pd051b0eba9)" style="fill: none; stroke: #d3d3d3; stroke-width: 0.2; stroke-linecap: square"/>
     </g>
     <g id="line2d_10">
      <g>
       <use xlink:href="#mcc12d8afbb" x="251.26061" y="144" style="stroke: #000000; stroke-width: 0.8"/>
      </g>
     </g>
     <g id="text_5">
      <!-- $\mathdefault{20}$ -->
      <g transform="translate(246.279274 154.418498) scale(0.1 -0.1)">
       <defs>
        <path id="CMR17-32" d="M 2669 990 
L 2554 990 
C 2490 537 2438 460 2413 422 
C 2381 371 1920 371 1830 371 
L 602 371 
C 832 620 1280 1073 1824 1596 
C 2214 1966 2669 2400 2669 3033 
C 2669 3788 2067 4224 1395 4224 
C 691 4224 262 3603 262 3027 
C 262 2777 448 2745 525 2745 
C 589 2745 781 2783 781 3007 
C 781 3206 614 3264 525 3264 
C 486 3264 448 3257 422 3244 
C 544 3788 915 4057 1306 4057 
C 1862 4057 2227 3616 2227 3033 
C 2227 2477 1901 1998 1536 1583 
L 262 147 
L 262 0 
L 2515 0 
L 2669 990 
z
" transform="scale(0.015625)"/>
       </defs>
       <use xlink:href="#CMR17-32" transform="scale(0.996264)"/>
       <use xlink:href="#CMR17-30" transform="translate(45.690477 0) scale(0.996264)"/>
      </g>
     </g>
    </g>
    <g id="xtick_6">
     <g id="line2d_11">
      <path d="M 295.329171 144 
L 295.329171 21.6 
" clip-path="url(#pd051b0eba9)" style="fill: none; stroke: #d3d3d3; stroke-width: 0.2; stroke-linecap: square"/>
     </g>
     <g id="line2d_12">
      <g>
       <use xlink:href="#mcc12d8afbb" x="295.329171" y="144" style="stroke: #000000; stroke-width: 0.8"/>
      </g>
     </g>
     <g id="text_6">
      <!-- $\mathdefault{25}$ -->
      <g transform="translate(290.347836 154.418498) scale(0.1 -0.1)">
       <use xlink:href="#CMR17-32" transform="scale(0.996264)"/>
       <use xlink:href="#CMR17-35" transform="translate(45.690477 0) scale(0.996264)"/>
      </g>
     </g>
    </g>
    <g id="xtick_7">
     <g id="line2d_13">
      <path d="M 339.397733 144 
L 339.397733 21.6 
" clip-path="url(#pd051b0eba9)" style="fill: none; stroke: #d3d3d3; stroke-width: 0.2; stroke-linecap: square"/>
     </g>
     <g id="line2d_14">
      <g>
       <use xlink:href="#mcc12d8afbb" x="339.397733" y="144" style="stroke: #000000; stroke-width: 0.8"/>
      </g>
     </g>
     <g id="text_7">
      <!-- $\mathdefault{30}$ -->
      <g transform="translate(334.416397 154.418498) scale(0.1 -0.1)">
       <defs>
        <path id="CMR17-33" d="M 1414 2176 
C 1984 2176 2234 1673 2234 1094 
C 2234 322 1824 25 1453 25 
C 1114 25 563 193 390 691 
C 422 678 454 678 486 678 
C 640 678 755 780 755 947 
C 755 1132 614 1216 486 1216 
C 378 1216 211 1164 211 927 
C 211 335 787 -128 1466 -128 
C 2176 -128 2720 432 2720 1087 
C 2720 1718 2208 2176 1600 2246 
C 2086 2347 2554 2776 2554 3353 
C 2554 3856 2048 4224 1472 4224 
C 890 4224 378 3862 378 3347 
C 378 3123 544 3084 627 3084 
C 762 3084 877 3167 877 3334 
C 877 3500 762 3584 627 3584 
C 602 3584 570 3584 544 3571 
C 730 3999 1235 4076 1459 4076 
C 1683 4076 2106 3966 2106 3347 
C 2106 3167 2080 2851 1862 2574 
C 1670 2329 1453 2316 1242 2297 
C 1210 2297 1062 2284 1037 2284 
C 992 2278 966 2272 966 2227 
C 966 2182 973 2176 1101 2176 
L 1414 2176 
z
" transform="scale(0.015625)"/>
       </defs>
       <use xlink:href="#CMR17-33" transform="scale(0.996264)"/>
       <use xlink:href="#CMR17-30" transform="translate(45.690477 0) scale(0.996264)"/>
      </g>
     </g>
    </g>
    <g id="xtick_8">
     <g id="line2d_15">
      <path d="M 383.466294 144 
L 383.466294 21.6 
" clip-path="url(#pd051b0eba9)" style="fill: none; stroke: #d3d3d3; stroke-width: 0.2; stroke-linecap: square"/>
     </g>
     <g id="line2d_16">
      <g>
       <use xlink:href="#mcc12d8afbb" x="383.466294" y="144" style="stroke: #000000; stroke-width: 0.8"/>
      </g>
     </g>
     <g id="text_8">
      <!-- $\mathdefault{35}$ -->
      <g transform="translate(378.484959 154.418498) scale(0.1 -0.1)">
       <use xlink:href="#CMR17-33" transform="scale(0.996264)"/>
       <use xlink:href="#CMR17-35" transform="translate(45.690477 0) scale(0.996264)"/>
      </g>
     </g>
    </g>
    <g id="text_9">
     <!-- $w_{1}$ [mm] -->
     <g transform="translate(218.342283 169.322053) scale(0.12 -0.12)">
      <defs>
       <path id="CMMI12-77" d="M 2202 389 
C 2342 6 2739 -64 2982 -64 
C 3469 -64 3757 357 3936 798 
C 4083 1168 4320 2011 4320 2388 
C 4320 2777 4122 2816 4064 2816 
C 3910 2816 3770 2662 3770 2534 
C 3770 2458 3814 2413 3846 2388 
C 3904 2330 4070 2158 4070 1826 
C 4070 1609 3891 1008 3757 708 
C 3578 319 3341 64 3008 64 
C 2650 64 2534 332 2534 625 
C 2534 810 2592 1034 2618 1142 
L 2886 2215 
C 2918 2343 2976 2566 2976 2591 
C 2976 2687 2899 2752 2803 2752 
C 2618 2752 2573 2591 2534 2438 
C 2470 2189 2202 1110 2176 970 
C 2150 861 2150 791 2150 651 
C 2150 498 1946 255 1939 242 
C 1869 172 1766 64 1568 64 
C 1062 64 1062 542 1062 651 
C 1062 855 1107 1136 1395 1896 
C 1472 2094 1504 2177 1504 2305 
C 1504 2573 1312 2816 998 2816 
C 410 2816 173 1890 173 1838 
C 173 1813 198 1781 243 1781 
C 301 1781 307 1807 333 1896 
C 493 2458 742 2687 979 2687 
C 1043 2687 1146 2681 1146 2477 
C 1146 2445 1146 2311 1037 2030 
C 736 1232 672 970 672 728 
C 672 57 1222 -64 1549 -64 
C 1658 -64 1946 -64 2202 389 
z
" transform="scale(0.015625)"/>
       <path id="CMR17-5b" d="M 1504 -1600 
L 1504 -1376 
L 902 -1376 
L 902 4575 
L 1504 4575 
L 1504 4800 
L 678 4800 
L 678 -1600 
L 1504 -1600 
z
" transform="scale(0.015625)"/>
       <path id="CMR17-6d" d="M 4326 1954 
C 4326 2276 4269 2816 3507 2816 
C 3072 2816 2771 2520 2656 2173 
L 2650 2173 
C 2573 2700 2195 2816 1837 2816 
C 1331 2816 1069 2424 973 2166 
L 966 2166 
L 966 2816 
L 211 2745 
L 211 2578 
C 589 2578 646 2540 646 2231 
L 646 443 
C 646 198 621 166 211 166 
L 211 0 
C 365 12 646 12 813 12 
C 979 12 1267 12 1421 0 
L 1421 166 
C 1011 166 986 192 986 443 
L 986 1678 
C 986 2269 1344 2713 1792 2713 
C 2266 2713 2317 2289 2317 1980 
L 2317 443 
C 2317 198 2291 166 1882 166 
L 1882 0 
C 2035 12 2317 12 2483 12 
C 2650 12 2938 12 3091 0 
L 3091 166 
C 2682 166 2656 192 2656 443 
L 2656 1678 
C 2656 2269 3014 2713 3462 2713 
C 3936 2713 3987 2289 3987 1980 
L 3987 443 
C 3987 198 3962 166 3552 166 
L 3552 0 
C 3706 12 3987 12 4154 12 
C 4320 12 4608 12 4762 0 
L 4762 166 
C 4352 166 4326 192 4326 443 
L 4326 1954 
z
" transform="scale(0.015625)"/>
       <path id="CMR17-5d" d="M 915 4800 
L 90 4800 
L 90 4575 
L 691 4575 
L 691 -1376 
L 90 -1376 
L 90 -1600 
L 915 -1600 
L 915 4800 
z
" transform="scale(0.015625)"/>
      </defs>
      <use xlink:href="#CMMI12-77" transform="scale(0.996264)"/>
      <use xlink:href="#CMR17-31" transform="translate(69.73199 -14.943915) scale(0.697382)"/>
      <use xlink:href="#CMR17-5b" transform="translate(132.28927 0) scale(0.996264)"/>
      <use xlink:href="#CMR17-6d" transform="translate(157.160328 0) scale(0.996264)"/>
      <use xlink:href="#CMR17-6d" transform="translate(234.079918 0) scale(0.996264)"/>
      <use xlink:href="#CMR17-5d" transform="translate(310.999508 0) scale(0.996264)"/>
     </g>
    </g>
   </g>
   <g id="matplotlib.axis_2">
    <g id="ytick_1">
     <g id="line2d_17">
      <path d="M 58.5 138.436364 
L 421.2 138.436364 
" clip-path="url(#pd051b0eba9)" style="fill: none; stroke: #d3d3d3; stroke-width: 0.2; stroke-linecap: square"/>
     </g>
     <g id="line2d_18">
      <defs>
       <path id="m6d74e3d82e" d="M 0 0 
L 3.5 0 
" style="stroke: #000000; stroke-width: 0.8"/>
      </defs>
      <g>
       <use xlink:href="#m6d74e3d82e" x="58.5" y="138.436364" style="stroke: #000000; stroke-width: 0.8"/>
      </g>
     </g>
     <g id="text_10">
      <!-- $\mathdefault{0}$ -->
      <g transform="translate(50.018665 141.895613) scale(0.1 -0.1)">
       <use xlink:href="#CMR17-30" transform="scale(0.996264)"/>
      </g>
     </g>
    </g>
    <g id="ytick_2">
     <g id="line2d_19">
      <path d="M 58.5 117.241558 
L 421.2 117.241558 
" clip-path="url(#pd051b0eba9)" style="fill: none; stroke: #d3d3d3; stroke-width: 0.2; stroke-linecap: square"/>
     </g>
     <g id="line2d_20">
      <g>
       <use xlink:href="#m6d74e3d82e" x="58.5" y="117.241558" style="stroke: #000000; stroke-width: 0.8"/>
      </g>
     </g>
     <g id="text_11">
      <!-- $\mathdefault{20}$ -->
      <g transform="translate(45.037329 120.700808) scale(0.1 -0.1)">
       <use xlink:href="#CMR17-32" transform="scale(0.996264)"/>
       <use xlink:href="#CMR17-30" transform="translate(45.690477 0) scale(0.996264)"/>
      </g>
     </g>
    </g>
    <g id="ytick_3">
     <g id="line2d_21">
      <path d="M 58.5 96.046753 
L 421.2 96.046753 
" clip-path="url(#pd051b0eba9)" style="fill: none; stroke: #d3d3d3; stroke-width: 0.2; stroke-linecap: square"/>
     </g>
     <g id="line2d_22">
      <g>
       <use xlink:href="#m6d74e3d82e" x="58.5" y="96.046753" style="stroke: #000000; stroke-width: 0.8"/>
      </g>
     </g>
     <g id="text_12">
      <!-- $\mathdefault{40}$ -->
      <g transform="translate(45.037329 99.506002) scale(0.1 -0.1)">
       <defs>
        <path id="CMR17-34" d="M 2150 4147 
C 2150 4281 2144 4288 2029 4288 
L 128 1254 
L 128 1088 
L 1779 1088 
L 1779 460 
C 1779 230 1766 166 1318 166 
L 1197 166 
L 1197 0 
C 1402 12 1747 12 1965 12 
C 2182 12 2528 12 2733 0 
L 2733 166 
L 2611 166 
C 2163 166 2150 230 2150 460 
L 2150 1088 
L 2803 1088 
L 2803 1254 
L 2150 1254 
L 2150 4147 
z
M 1798 3723 
L 1798 1254 
L 256 1254 
L 1798 3723 
z
" transform="scale(0.015625)"/>
       </defs>
       <use xlink:href="#CMR17-34" transform="scale(0.996264)"/>
       <use xlink:href="#CMR17-30" transform="translate(45.690477 0) scale(0.996264)"/>
      </g>
     </g>
    </g>
    <g id="ytick_4">
     <g id="line2d_23">
      <path d="M 58.5 74.851948 
L 421.2 74.851948 
" clip-path="url(#pd051b0eba9)" style="fill: none; stroke: #d3d3d3; stroke-width: 0.2; stroke-linecap: square"/>
     </g>
     <g id="line2d_24">
      <g>
       <use xlink:href="#m6d74e3d82e" x="58.5" y="74.851948" style="stroke: #000000; stroke-width: 0.8"/>
      </g>
     </g>
     <g id="text_13">
      <!-- $\mathdefault{60}$ -->
      <g transform="translate(45.037329 78.311197) scale(0.1 -0.1)">
       <defs>
        <path id="CMR17-36" d="M 678 2198 
C 678 3712 1395 4076 1811 4076 
C 1946 4076 2272 4049 2400 3782 
C 2298 3782 2106 3782 2106 3558 
C 2106 3385 2246 3328 2336 3328 
C 2394 3328 2566 3353 2566 3571 
C 2566 3987 2246 4224 1805 4224 
C 1043 4224 243 3411 243 2011 
C 243 257 966 -128 1478 -128 
C 2099 -128 2688 431 2688 1295 
C 2688 2101 2170 2688 1517 2688 
C 1126 2688 838 2430 678 1979 
L 678 2198 
z
M 1478 25 
C 691 25 691 1212 691 1450 
C 691 1914 909 2585 1504 2585 
C 1613 2585 1926 2585 2138 2140 
C 2253 1889 2253 1624 2253 1302 
C 2253 954 2253 696 2118 438 
C 1978 173 1773 25 1478 25 
z
" transform="scale(0.015625)"/>
       </defs>
       <use xlink:href="#CMR17-36" transform="scale(0.996264)"/>
       <use xlink:href="#CMR17-30" transform="translate(45.690477 0) scale(0.996264)"/>
      </g>
     </g>
    </g>
    <g id="ytick_5">
     <g id="line2d_25">
      <path d="M 58.5 53.657143 
L 421.2 53.657143 
" clip-path="url(#pd051b0eba9)" style="fill: none; stroke: #d3d3d3; stroke-width: 0.2; stroke-linecap: square"/>
     </g>
     <g id="line2d_26">
      <g>
       <use xlink:href="#m6d74e3d82e" x="58.5" y="53.657143" style="stroke: #000000; stroke-width: 0.8"/>
      </g>
     </g>
     <g id="text_14">
      <!-- $\mathdefault{80}$ -->
      <g transform="translate(45.037329 57.116392) scale(0.1 -0.1)">
       <defs>
        <path id="CMR17-38" d="M 1741 2289 
C 2144 2494 2554 2803 2554 3298 
C 2554 3884 1990 4224 1472 4224 
C 890 4224 378 3800 378 3215 
C 378 3054 416 2777 666 2533 
C 730 2469 998 2276 1171 2154 
C 883 2006 211 1652 211 945 
C 211 282 838 -128 1459 -128 
C 2144 -128 2720 366 2720 1022 
C 2720 1607 2330 1877 2074 2051 
L 1741 2289 
z
M 902 2855 
C 851 2887 595 3086 595 3388 
C 595 3781 998 4076 1459 4076 
C 1965 4076 2336 3716 2336 3298 
C 2336 2700 1670 2359 1638 2359 
C 1632 2359 1626 2359 1574 2398 
L 902 2855 
z
M 2080 1536 
C 2176 1466 2483 1253 2483 861 
C 2483 385 2010 25 1472 25 
C 890 25 448 443 448 951 
C 448 1459 838 1884 1280 2083 
L 2080 1536 
z
" transform="scale(0.015625)"/>
       </defs>
       <use xlink:href="#CMR17-38" transform="scale(0.996264)"/>
       <use xlink:href="#CMR17-30" transform="translate(45.690477 0) scale(0.996264)"/>
      </g>
     </g>
    </g>
    <g id="ytick_6">
     <g id="line2d_27">
      <path d="M 58.5 32.462338 
L 421.2 32.462338 
" clip-path="url(#pd051b0eba9)" style="fill: none; stroke: #d3d3d3; stroke-width: 0.2; stroke-linecap: square"/>
     </g>
     <g id="line2d_28">
      <g>
       <use xlink:href="#m6d74e3d82e" x="58.5" y="32.462338" style="stroke: #000000; stroke-width: 0.8"/>
      </g>
     </g>
     <g id="text_15">
      <!-- $\mathdefault{100}$ -->
      <g transform="translate(40.055994 35.921587) scale(0.1 -0.1)">
       <use xlink:href="#CMR17-31" transform="scale(0.996264)"/>
       <use xlink:href="#CMR17-30" transform="translate(45.690477 0) scale(0.996264)"/>
       <use xlink:href="#CMR17-30" transform="translate(91.380954 0) scale(0.996264)"/>
      </g>
     </g>
    </g>
    <g id="text_16">
     <!-- $F_{A}$ [kN] -->
     <g transform="translate(33.067202 102.688849) rotate(-90) scale(0.12 -0.12)">
      <defs>
       <path id="CMMI12-46" d="M 1901 2054 
L 2515 2054 
C 3002 2054 3040 1947 3040 1764 
C 3040 1683 3027 1595 2995 1456 
C 2982 1431 2976 1399 2976 1387 
C 2976 1343 3002 1318 3046 1318 
C 3098 1318 3104 1343 3130 1444 
L 3501 2929 
C 3501 2955 3482 2993 3437 2993 
C 3379 2993 3373 2968 3347 2858 
C 3213 2375 3085 2240 2528 2240 
L 1946 2240 
L 2362 3908 
C 2419 4134 2432 4153 2694 4153 
L 3552 4153 
C 4352 4153 4467 3915 4467 3457 
C 4467 3419 4467 3277 4448 3109 
C 4442 3084 4429 3000 4429 2974 
C 4429 2922 4461 2903 4499 2903 
C 4544 2903 4570 2929 4582 3045 
L 4717 4172 
C 4717 4191 4730 4255 4730 4268 
C 4730 4339 4672 4339 4557 4339 
L 1523 4339 
C 1402 4339 1338 4339 1338 4223 
C 1338 4153 1382 4153 1491 4153 
C 1888 4153 1888 4108 1888 4037 
C 1888 4005 1882 3979 1862 3908 
L 998 468 
C 941 248 928 185 480 185 
C 358 185 294 185 294 70 
C 294 0 352 0 390 0 
C 512 0 640 12 762 12 
L 1594 12 
C 1734 12 1888 0 2029 0 
C 2086 0 2163 0 2163 115 
C 2163 185 2125 185 1984 185 
C 1478 185 1466 229 1466 324 
C 1466 355 1478 405 1491 449 
L 1901 2054 
z
" transform="scale(0.015625)"/>
       <path id="CMMI12-41" d="M 1088 720 
C 864 335 646 205 339 185 
C 269 179 218 179 218 64 
C 218 25 250 0 294 0 
C 410 0 698 12 813 12 
C 998 12 1203 0 1382 0 
C 1421 0 1498 0 1498 121 
C 1498 179 1446 185 1408 185 
C 1261 198 1139 250 1139 407 
C 1139 498 1178 570 1261 714 
L 1747 1536 
L 3379 1536 
C 3386 1477 3386 1425 3392 1366 
C 3411 1196 3488 518 3488 394 
C 3488 198 3162 185 3059 185 
C 2989 185 2918 185 2918 70 
C 2918 0 2976 0 3014 0 
C 3123 0 3251 12 3360 12 
L 3725 12 
C 4115 12 4397 0 4403 0 
C 4448 0 4518 0 4518 121 
C 4518 185 4461 185 4365 185 
C 4013 185 4006 244 3987 440 
L 3597 4403 
C 3584 4531 3558 4544 3488 4544 
C 3424 4544 3386 4531 3328 4435 
L 1088 720 
z
M 1856 1721 
L 3142 3831 
L 3360 1721 
L 1856 1721 
z
" transform="scale(0.015625)"/>
       <path id="CMR17-6b" d="M 1670 1679 
C 1664 1692 1632 1730 1632 1749 
C 1632 1762 2086 2175 2144 2226 
C 2509 2532 2739 2563 2906 2570 
L 2906 2735 
C 2867 2735 2854 2735 2848 2729 
L 2534 2722 
C 2355 2722 2080 2722 1907 2735 
L 1907 2570 
C 1997 2563 2061 2513 2061 2423 
C 2061 2296 1933 2175 1926 2175 
L 960 1298 
L 960 4416 
L 198 4345 
L 198 4179 
C 576 4179 634 4141 634 3835 
L 634 439 
C 634 198 608 166 198 166 
L 198 0 
C 352 12 634 12 794 12 
C 954 12 1235 12 1389 0 
L 1389 166 
C 979 166 954 191 954 439 
L 954 1139 
L 1395 1540 
L 2042 586 
C 2118 471 2182 382 2182 299 
C 2182 185 2067 166 1990 166 
L 1990 0 
C 2144 12 2419 12 2579 12 
C 2694 12 2931 6 3040 0 
L 3040 166 
C 2739 166 2669 223 2477 503 
L 1670 1679 
z
" transform="scale(0.015625)"/>
       <path id="CMR17-4e" d="M 1312 4275 
C 1267 4345 1261 4352 1139 4352 
L 326 4352 
L 326 4185 
L 448 4185 
C 704 4185 819 4153 838 4147 
L 838 624 
C 838 465 838 166 326 166 
L 326 0 
C 474 12 742 12 902 12 
C 1062 12 1331 12 1478 0 
L 1478 166 
C 966 166 966 465 966 624 
L 966 4057 
C 1011 4019 1011 4007 1056 3943 
L 3430 76 
C 3475 0 3494 0 3526 0 
C 3590 0 3590 19 3590 140 
L 3590 3726 
C 3590 3885 3590 4185 4102 4185 
L 4102 4352 
C 3955 4339 3686 4339 3526 4339 
C 3366 4339 3098 4339 2950 4352 
L 2950 4185 
C 3462 4185 3462 3885 3462 3726 
L 3462 777 
L 1312 4275 
z
" transform="scale(0.015625)"/>
      </defs>
      <use xlink:href="#CMMI12-46" transform="scale(0.996264)"/>
      <use xlink:href="#CMMI12-41" transform="translate(63.148204 -14.943915) scale(0.697382)"/>
      <use xlink:href="#CMR17-5b" transform="translate(144.911599 0) scale(0.996264)"/>
      <use xlink:href="#CMR17-6b" transform="translate(169.782657 0) scale(0.996264)"/>
      <use xlink:href="#CMR17-4e" transform="translate(218.075573 0) scale(0.996264)"/>
      <use xlink:href="#CMR17-5d" transform="translate(287.148003 0) scale(0.996264)"/>
     </g>
    </g>
   </g>
   <g id="line2d_29">
    <path d="M 74.98684 138.435304 
L 75.491919 137.311348 
L 75.996998 136.187391 
L 76.502077 135.063435 
L 77.007155 133.939479 
L 77.512234 132.815523 
L 78.017313 131.691566 
L 78.522392 130.56761 
L 79.027471 129.443654 
L 79.53255 128.319698 
L 80.037629 127.195742 
L 80.542708 126.071785 
L 81.047787 124.947829 
L 81.552866 123.823873 
L 82.057944 122.699917 
L 82.563023 121.57596 
L 83.068102 120.452004 
L 83.573181 119.328048 
L 84.07826 118.204092 
L 84.583339 117.080135 
L 85.088418 115.956179 
L 85.593497 114.832223 
L 86.098576 113.708267 
L 86.603655 112.58431 
L 87.108733 111.460354 
L 87.613812 110.336398 
L 88.118891 109.212442 
L 88.62397 108.088485 
L 89.129049 106.964529 
L 89.634128 105.840573 
L 90.139207 104.716617 
L 90.644286 103.592661 
L 91.149365 102.468704 
L 91.654444 101.344748 
L 92.159522 100.220792 
L 92.664601 99.096836 
L 93.16968 97.972879 
L 93.674759 96.848923 
L 94.179838 95.724967 
L 94.684917 94.601011 
L 95.189996 93.477054 
L 95.695075 92.353098 
L 96.200154 91.229142 
L 96.705233 90.105186 
L 97.210311 88.981229 
L 97.71539 87.857273 
L 98.220469 86.733317 
L 98.725548 85.609361 
L 99.230627 84.485404 
L 99.735706 83.361448 
L 100.240785 82.237492 
L 100.745864 81.113536 
L 101.250943 79.98958 
L 101.756022 78.865623 
L 102.2611 77.741667 
L 102.766179 76.617711 
L 103.271258 75.493755 
L 103.776337 74.369798 
L 104.281416 73.245842 
L 104.786495 72.121886 
L 105.291574 70.99793 
L 105.796653 69.873973 
L 106.301732 68.750017 
L 106.806811 67.626061 
L 107.31189 66.502105 
L 107.816968 65.378148 
L 108.322047 64.254192 
L 108.827126 63.130236 
L 109.332205 62.00628 
L 109.837284 60.882323 
L 110.342363 59.758367 
L 110.847442 58.634411 
L 111.352521 57.510455 
L 111.8576 56.386499 
L 112.362679 55.262542 
L 112.867757 54.138586 
L 113.372836 53.01463 
L 113.877915 51.890674 
L 114.382994 50.766717 
L 114.888073 49.642761 
L 115.393152 48.518805 
L 115.898231 47.394849 
L 116.40331 46.270892 
L 116.908389 45.146936 
L 117.413468 44.02298 
L 117.918546 42.899024 
L 118.423625 41.775067 
L 118.928704 40.651111 
L 119.433783 39.527155 
L 119.938862 38.403199 
L 120.443941 37.279243 
L 120.94902 36.155286 
L 121.454099 35.03133 
L 121.959178 33.907374 
L 122.464257 32.783418 
L 122.969335 31.659461 
L 123.474414 30.535505 
L 123.979493 29.411549 
L 124.484572 28.287593 
L 124.989651 27.163636 
" clip-path="url(#pd051b0eba9)" style="fill: none; stroke: #000000; stroke-width: 0.7; stroke-linecap: square"/>
   </g>
   <g id="line2d_30">
    <path d="M 74.987871 138.435304 
L 76.586353 137.311348 
L 78.184835 136.187391 
L 79.783316 135.063435 
L 81.381798 133.939479 
L 82.98028 132.815523 
L 84.578762 131.691566 
L 86.177244 130.56761 
L 87.775726 129.443654 
L 89.374208 128.319698 
L 90.97269 127.195742 
L 92.571171 126.071785 
L 94.169653 124.947829 
L 95.768135 123.823873 
L 97.366617 122.699917 
L 98.965099 121.57596 
L 100.563581 120.452004 
L 102.162063 119.328048 
L 103.760544 118.204092 
L 105.359026 117.080135 
L 106.957508 115.956179 
L 108.55599 114.832223 
L 110.154472 113.708267 
L 111.752954 112.58431 
L 113.351436 111.460354 
L 114.949918 110.336398 
L 116.548399 109.212442 
L 118.146881 108.088485 
L 119.745363 106.964529 
L 121.343845 105.840573 
L 122.942327 104.716617 
L 124.540809 103.592661 
L 126.139291 102.468704 
L 127.737773 101.344748 
L 129.336254 100.220792 
L 130.934736 99.096836 
L 132.533218 97.972879 
L 134.1317 96.848923 
L 135.730182 95.724967 
L 137.328664 94.601011 
L 138.927146 93.477054 
L 140.525628 92.353098 
L 142.124109 91.229142 
L 143.722591 90.105186 
L 145.321073 88.981229 
L 146.919555 87.857273 
L 148.518037 86.733317 
L 150.116519 85.609361 
L 151.715001 84.485404 
L 153.313483 83.361448 
L 154.911964 82.237492 
L 156.510446 81.113536 
L 158.108928 79.98958 
L 159.70741 78.865623 
L 161.305892 77.741667 
L 162.904374 76.617711 
L 164.502856 75.493755 
L 166.101338 74.369798 
L 167.699819 73.245842 
L 169.298301 72.121886 
L 170.896783 70.99793 
L 172.495265 69.873973 
L 174.093747 68.750017 
L 175.692229 67.626061 
L 177.290711 66.502105 
L 178.889192 65.378148 
L 180.487674 64.254192 
L 182.086156 63.130236 
L 183.684638 62.00628 
L 185.28312 60.882323 
L 186.881602 59.758367 
L 188.480084 58.634411 
L 190.078566 57.510455 
L 191.677047 56.386499 
L 193.275529 55.262542 
L 194.874011 54.138586 
L 196.472493 53.01463 
L 198.070975 51.890674 
L 199.669457 50.766717 
L 201.267939 49.642761 
L 202.866421 48.518805 
L 204.464902 47.394849 
L 206.063384 46.270892 
L 207.661866 45.146936 
L 209.260348 44.02298 
L 210.85883 42.899024 
L 212.457312 41.775067 
L 214.055794 40.651111 
L 215.654276 39.527155 
L 217.252757 38.403199 
L 218.851239 37.279243 
L 220.449721 36.155286 
L 222.048203 35.03133 
L 223.646685 33.907374 
L 225.245167 32.783418 
L 226.843649 31.659461 
L 228.442131 30.535505 
L 230.040612 29.411549 
L 231.639094 28.287593 
L 233.237576 27.163636 
" clip-path="url(#pd051b0eba9)" style="fill: none; stroke-dasharray: 0.7,1.155; stroke-dashoffset: 0; stroke: #000000; stroke-width: 0.7"/>
   </g>
   <g id="line2d_31">
    <path d="M 74.988696 138.435304 
L 77.462164 137.311348 
L 79.935633 136.187391 
L 82.409101 135.063435 
L 84.88257 133.939479 
L 87.356038 132.815523 
L 89.829507 131.691566 
L 92.302975 130.56761 
L 94.776444 129.443654 
L 97.249912 128.319698 
L 99.723381 127.195742 
L 102.19685 126.071785 
L 104.670318 124.947829 
L 107.143787 123.823873 
L 109.617255 122.699917 
L 112.090724 121.57596 
L 114.564192 120.452004 
L 117.037661 119.328048 
L 119.511129 118.204092 
L 121.984598 117.080135 
L 124.458066 115.956179 
L 126.931535 114.832223 
L 129.405003 113.708267 
L 131.878472 112.58431 
L 134.35194 111.460354 
L 136.825409 110.336398 
L 139.298877 109.212442 
L 141.772346 108.088485 
L 144.245814 106.964529 
L 146.719283 105.840573 
L 149.192751 104.716617 
L 151.66622 103.592661 
L 154.139689 102.468704 
L 156.613157 101.344748 
L 159.086626 100.220792 
L 161.560094 99.096836 
L 164.033563 97.972879 
L 166.507031 96.848923 
L 168.9805 95.724967 
L 171.453968 94.601011 
L 173.927437 93.477054 
L 176.400905 92.353098 
L 178.874374 91.229142 
L 181.347842 90.105186 
L 183.821311 88.981229 
L 186.294779 87.857273 
L 188.768248 86.733317 
L 191.241716 85.609361 
L 193.715185 84.485404 
L 196.188653 83.361448 
L 198.662122 82.237492 
L 201.13559 81.113536 
L 203.609059 79.98958 
L 206.082527 78.865623 
L 208.555996 77.741667 
L 211.029465 76.617711 
L 213.502933 75.493755 
L 215.976402 74.369798 
L 218.44987 73.245842 
L 220.923339 72.121886 
L 223.396807 70.99793 
L 225.870276 69.873973 
L 228.343744 68.750017 
L 230.817213 67.626061 
L 233.290681 66.502105 
L 235.76415 65.378148 
L 238.237618 64.254192 
L 240.711087 63.130236 
L 243.184555 62.00628 
L 245.658024 60.882323 
L 248.131492 59.758367 
L 250.604961 58.634411 
L 253.078429 57.510455 
L 255.551898 56.386499 
L 258.025366 55.262542 
L 260.498835 54.138586 
L 262.972304 53.01463 
L 265.445772 51.890674 
L 267.919241 50.766717 
L 270.392709 49.642761 
L 272.866178 48.518805 
L 275.339646 47.394849 
L 277.813115 46.270892 
L 280.286583 45.146936 
L 282.760052 44.02298 
L 285.23352 42.899024 
L 287.706989 41.775067 
L 290.180457 40.651111 
L 292.653926 39.527155 
L 295.127394 38.403199 
L 297.600863 37.279243 
L 300.074331 36.155286 
L 302.5478 35.03133 
L 305.021268 33.907374 
L 307.494737 32.783418 
L 309.968205 31.659461 
L 312.441674 30.535505 
L 314.915142 29.411549 
L 317.388611 28.287593 
L 319.86208 27.163636 
" clip-path="url(#pd051b0eba9)" style="fill: none; stroke-dasharray: 2.59,1.12; stroke-dashoffset: 0; stroke: #000000; stroke-width: 0.7"/>
   </g>
   <g id="line2d_32">
    <path d="M 74.98684 138.435304 
L 75.491919 137.311348 
L 75.996997 136.187391 
L 76.502076 135.063435 
L 77.007155 133.939479 
L 77.512233 132.815523 
L 78.017312 131.691566 
L 78.522391 130.56761 
L 79.02747 129.443654 
L 79.532548 128.319698 
L 80.037627 127.195742 
L 80.542706 126.071785 
L 81.047784 124.947829 
L 81.552863 123.823873 
L 82.057942 122.699917 
L 82.56302 121.57596 
L 83.068099 120.452004 
L 83.573178 119.328048 
L 84.078257 118.204092 
L 84.583335 117.080135 
L 101.444805 115.956179 
L 103.674857 114.832223 
L 105.811329 113.708267 
L 107.873679 112.58431 
L 109.878716 111.460354 
L 111.819342 110.336398 
L 113.731768 109.212442 
L 115.606905 108.088485 
L 117.43803 106.964529 
L 119.255207 105.840573 
L 121.041642 104.716617 
L 122.807725 103.592661 
L 124.562248 102.468704 
L 126.298238 101.344748 
L 128.017014 100.220792 
L 129.73294 99.096836 
L 131.426752 97.972879 
L 133.118461 96.848923 
L 134.80195 95.724967 
L 136.477654 94.601011 
L 138.146017 93.477054 
L 139.807484 92.353098 
L 141.462489 91.229142 
L 143.116023 90.105186 
L 144.763547 88.981229 
L 146.405492 87.857273 
L 148.046265 86.733317 
L 149.681923 85.609361 
L 151.312859 84.485404 
L 152.946476 83.361448 
L 154.572154 82.237492 
L 156.200347 81.113536 
L 157.824414 79.98958 
L 159.444715 78.865623 
L 161.064396 77.741667 
L 162.683406 76.617711 
L 164.3017 75.493755 
L 165.916797 74.369798 
L 167.531342 73.245842 
L 169.1453 72.121886 
L 170.756526 70.99793 
L 172.36732 69.873973 
L 173.977659 68.750017 
L 175.587521 67.626061 
L 177.196884 66.502105 
L 178.804095 65.378148 
L 180.410956 64.254192 
L 182.017453 63.130236 
L 183.623572 62.00628 
L 185.2293 60.882323 
L 186.833399 59.758367 
L 188.43724 58.634411 
L 190.040815 57.510455 
L 191.644114 56.386499 
L 193.247131 55.262542 
L 194.849857 54.138586 
L 196.452285 53.01463 
L 198.053662 51.890674 
L 199.655549 50.766717 
L 201.255863 49.642761 
L 202.854836 48.518805 
L 204.453804 47.394849 
L 206.052764 46.270892 
L 207.651717 45.146936 
L 209.250663 44.02298 
L 210.849601 42.899024 
L 212.44853 41.775067 
L 214.047451 40.651111 
L 215.646363 39.527155 
L 217.245265 38.403199 
L 218.843663 37.279243 
L 220.442561 36.155286 
L 222.041449 35.03133 
L 223.814157 33.907374 
L 225.937203 32.783418 
L 228.067889 31.659461 
L 230.20542 30.535505 
L 232.349503 29.411549 
L 234.499432 28.287593 
L 236.65578 27.163636 
" clip-path="url(#pd051b0eba9)" style="fill: none; stroke: #006400; stroke-width: 0.7; stroke-linecap: square"/>
   </g>
   <g id="line2d_33">
    <path d="M 74.98684 138.435304 
L 75.491919 137.311348 
L 75.996997 136.187391 
L 76.502076 135.063435 
L 77.007155 133.939479 
L 77.512233 132.815523 
L 78.017312 131.691566 
L 78.522391 130.56761 
L 79.02747 129.443654 
L 79.532548 128.319698 
L 80.037627 127.195742 
L 80.542706 126.071785 
L 81.047784 124.947829 
L 81.552863 123.823873 
L 82.057942 122.699917 
L 82.56302 121.57596 
L 83.068099 120.452004 
L 83.573178 119.328048 
L 84.078257 118.204092 
L 84.583335 117.080135 
L 92.116506 115.956179 
L 93.824659 114.832223 
L 95.517349 113.708267 
L 97.198385 112.58431 
L 98.871379 111.460354 
L 100.530802 110.336398 
L 102.18941 109.212442 
L 103.841768 108.088485 
L 105.483735 106.964529 
L 107.126499 105.840573 
L 108.762227 104.716617 
L 110.394396 103.592661 
L 112.025956 102.468704 
L 113.65349 101.344748 
L 115.277074 100.220792 
L 116.902201 99.096836 
L 118.520629 97.972879 
L 120.140278 96.848923 
L 121.758386 95.724967 
L 123.374918 94.601011 
L 124.989868 93.477054 
L 126.603256 92.353098 
L 128.215119 91.229142 
L 129.82738 90.105186 
L 131.438068 88.981229 
L 133.047266 87.857273 
L 134.656697 86.733317 
L 136.264669 85.609361 
L 137.871278 84.485404 
L 139.479503 83.361448 
L 141.084934 82.237492 
L 142.691815 81.113536 
L 144.29738 79.98958 
L 145.901739 78.865623 
L 147.50615 77.741667 
L 149.110565 76.617711 
L 150.714936 75.493755 
L 152.318222 74.369798 
L 153.921487 73.245842 
L 155.524697 72.121886 
L 157.126954 70.99793 
L 158.729188 69.873973 
L 160.331372 68.750017 
L 161.933487 67.626061 
L 163.53551 66.502105 
L 165.136753 65.378148 
L 166.737946 64.254192 
L 168.339074 63.130236 
L 169.940122 62.00628 
L 171.541079 60.882323 
L 173.14143 59.758367 
L 174.741732 58.634411 
L 176.341974 57.510455 
L 177.942149 56.386499 
L 179.542248 55.262542 
L 181.142265 54.138586 
L 182.742192 53.01463 
L 184.341717 51.890674 
L 185.941476 50.766717 
L 187.540613 49.642761 
L 189.139211 48.518805 
L 190.737811 47.394849 
L 192.336412 46.270892 
L 193.935015 45.146936 
L 195.533618 44.02298 
L 197.132221 42.899024 
L 198.730825 41.775067 
L 200.329428 40.651111 
L 201.928031 39.527155 
L 203.526632 38.403199 
L 205.12503 37.279243 
L 206.723635 36.155286 
L 208.322239 35.03133 
L 210.094671 33.907374 
L 212.217717 32.783418 
L 214.348135 31.659461 
L 216.485407 30.535505 
L 218.629238 29.411549 
L 220.779167 28.287593 
L 222.935273 27.163636 
" clip-path="url(#pd051b0eba9)" style="fill: none; stroke-dasharray: 0.7,1.155; stroke-dashoffset: 0; stroke: #006400; stroke-width: 0.7"/>
   </g>
   <g id="line2d_34">
    <path d="M 74.98684 138.435304 
L 75.491919 137.311348 
L 75.996997 136.187391 
L 76.502076 135.063435 
L 77.007155 133.939479 
L 77.512233 132.815523 
L 78.017312 131.691566 
L 78.522391 130.56761 
L 79.02747 129.443654 
L 79.532548 128.319698 
L 80.037627 127.195742 
L 80.542706 126.071785 
L 81.047784 124.947829 
L 81.552863 123.823873 
L 82.057942 122.699917 
L 82.56302 121.57596 
L 83.068099 120.452004 
L 83.573178 119.328048 
L 84.078257 118.204092 
L 84.583335 117.080135 
L 96.780656 115.956179 
L 98.749758 114.832223 
L 100.664339 113.708267 
L 102.536032 112.58431 
L 104.375047 111.460354 
L 106.175072 110.336398 
L 107.960589 109.212442 
L 109.724336 108.088485 
L 111.460882 106.964529 
L 113.190853 105.840573 
L 114.901935 104.716617 
L 116.60106 103.592661 
L 118.294102 102.468704 
L 119.975864 101.344748 
L 121.647044 100.220792 
L 123.31757 99.096836 
L 124.97369 97.972879 
L 126.629369 96.848923 
L 128.280168 95.724967 
L 129.926286 94.601011 
L 131.567943 93.477054 
L 133.20537 92.353098 
L 134.838804 91.229142 
L 136.471701 90.105186 
L 138.100808 88.981229 
L 139.726379 87.857273 
L 141.351481 86.733317 
L 142.973296 85.609361 
L 144.592068 84.485404 
L 146.21299 83.361448 
L 147.828544 82.237492 
L 149.446081 81.113536 
L 151.060897 79.98958 
L 152.673227 78.865623 
L 154.285273 77.741667 
L 155.896985 76.617711 
L 157.508318 75.493755 
L 159.11751 74.369798 
L 160.726414 73.245842 
L 162.334998 72.121886 
L 163.94174 70.99793 
L 165.548254 69.873973 
L 167.154516 68.750017 
L 168.760504 67.626061 
L 170.366197 66.502105 
L 171.970424 65.378148 
L 173.574451 64.254192 
L 175.178263 63.130236 
L 176.781847 62.00628 
L 178.38519 60.882323 
L 179.987415 59.758367 
L 181.589486 58.634411 
L 183.191394 57.510455 
L 184.793131 56.386499 
L 186.394689 55.262542 
L 187.996061 54.138586 
L 189.597239 53.01463 
L 191.197689 51.890674 
L 192.798513 50.766717 
L 194.398238 49.642761 
L 195.997024 48.518805 
L 197.595807 47.394849 
L 199.194588 46.270892 
L 200.793366 45.146936 
L 202.39214 44.02298 
L 203.990911 42.899024 
L 205.589678 41.775067 
L 207.18844 40.651111 
L 208.787197 39.527155 
L 210.385949 38.403199 
L 211.984346 37.279243 
L 213.583098 36.155286 
L 215.181844 35.03133 
L 216.954414 33.907374 
L 219.07746 32.783418 
L 221.208012 31.659461 
L 223.345414 30.535505 
L 225.489371 29.411549 
L 227.6393 28.287593 
L 229.795527 27.163636 
" clip-path="url(#pd051b0eba9)" style="fill: none; stroke-dasharray: 2.59,1.12; stroke-dashoffset: 0; stroke: #006400; stroke-width: 0.7"/>
   </g>
   <g id="line2d_35">
    <path d="M 74.986364 138.436364 
L 77.504567 132.803382 
L 78.921057 130.925721 
L 79.39322 129.048061 
L 81.754036 126.23157 
L 86.003504 123.258607 
L 104.417867 116.843267 
L 125.665209 107.924379 
L 135.580636 103.230227 
L 155.883652 94.31134 
L 191.768052 77.412394 
L 222.93082 64.738185 
L 258.81522 55.349882 
L 289.033662 48.77807 
L 322.085084 40.328598 
L 353.247852 32.974427 
L 369.301399 30.314408 
L 384.882784 28.593219 
L 404.713636 27.654389 
" clip-path="url(#pd051b0eba9)" style="fill: none; stroke: #0000ff; stroke-width: 0.7; stroke-linecap: square"/>
   </g>
   <g id="patch_3">
    <path d="M 58.5 144 
L 58.5 21.6 
" style="fill: none; stroke: #000000; stroke-width: 0.5; stroke-linejoin: miter; stroke-linecap: square"/>
   </g>
   <g id="patch_4">
    <path d="M 58.5 144 
L 421.2 144 
" style="fill: none; stroke: #000000; stroke-width: 0.5; stroke-linejoin: miter; stroke-linecap: square"/>
   </g>
   <g id="legend_1">
    <g id="patch_5">
     <path d="M 283.043973 139 
L 414.2 139 
Q 416.2 139 416.2 137 
L 416.2 39.41429 
Q 416.2 37.41429 414.2 37.41429 
L 283.043973 37.41429 
Q 281.043973 37.41429 281.043973 39.41429 
L 281.043973 137 
Q 281.043973 139 283.043973 139 
z
" style="fill: #ffffff; opacity: 0.8; stroke: #cccccc; stroke-width: 0.5; stroke-linejoin: miter"/>
    </g>
    <g id="line2d_36">
     <path d="M 285.043973 44.91429 
L 295.043973 44.91429 
L 305.043973 44.91429 
" style="fill: none; stroke: #000000; stroke-width: 0.7; stroke-linecap: square"/>
    </g>
    <g id="text_17">
     <!-- $EI^{I}$ konstant -->
     <g transform="translate(313.043973 48.41429) scale(0.1 -0.1)">
      <defs>
       <path id="CMMI12-45" d="M 4448 1489 
C 4454 1508 4474 1553 4474 1578 
C 4474 1611 4448 1643 4410 1643 
C 4384 1643 4371 1636 4352 1617 
C 4339 1611 4339 1598 4282 1469 
C 3904 570 3629 185 2605 185 
L 1670 185 
C 1581 185 1568 185 1530 192 
C 1459 198 1453 211 1453 262 
C 1453 307 1466 346 1478 403 
L 1920 2176 
L 2554 2176 
C 3053 2176 3091 2066 3091 1874 
C 3091 1810 3091 1752 3046 1559 
C 3034 1534 3027 1508 3027 1489 
C 3027 1444 3059 1424 3098 1424 
C 3155 1424 3162 1469 3187 1559 
L 3552 3036 
C 3552 3068 3526 3099 3488 3099 
C 3430 3099 3424 3074 3398 2986 
C 3270 2500 3142 2361 2573 2361 
L 1965 2361 
L 2362 3913 
C 2419 4134 2432 4153 2694 4153 
L 3610 4153 
C 4397 4153 4557 3945 4557 3465 
C 4557 3459 4557 3282 4531 3074 
C 4525 3049 4518 3011 4518 2998 
C 4518 2948 4550 2929 4589 2929 
C 4634 2929 4659 2954 4672 3068 
L 4806 4172 
C 4806 4191 4819 4255 4819 4268 
C 4819 4339 4762 4339 4646 4339 
L 1523 4339 
C 1402 4339 1338 4339 1338 4223 
C 1338 4153 1382 4153 1491 4153 
C 1888 4153 1888 4109 1888 4039 
C 1888 4008 1882 3983 1862 3913 
L 998 474 
C 941 249 928 185 480 185 
C 358 185 294 185 294 70 
C 294 0 333 0 461 0 
L 3674 0 
C 3814 0 3821 6 3866 108 
L 4448 1489 
z
" transform="scale(0.015625)"/>
       <path id="CMMI12-49" d="M 2355 3879 
C 2413 4102 2426 4166 2893 4166 
C 3034 4166 3085 4166 3085 4287 
C 3085 4352 3014 4352 2995 4352 
C 2880 4352 2739 4339 2624 4339 
L 1837 4339 
C 1709 4339 1562 4352 1434 4352 
C 1382 4352 1312 4352 1312 4230 
C 1312 4166 1363 4166 1491 4166 
C 1888 4166 1888 4115 1888 4045 
C 1888 4000 1875 3962 1862 3905 
L 998 472 
C 941 249 928 185 461 185 
C 320 185 262 185 262 64 
C 262 0 326 0 358 0 
C 474 0 614 12 730 12 
L 1517 12 
C 1645 12 1786 0 1914 0 
C 1965 0 2042 0 2042 115 
C 2042 185 2003 185 1862 185 
C 1466 185 1466 236 1466 312 
C 1466 325 1466 357 1491 459 
L 2355 3879 
z
" transform="scale(0.015625)"/>
       <path id="CMR17-6f" d="M 2758 1356 
C 2758 2176 2163 2816 1466 2816 
C 768 2816 173 2176 173 1356 
C 173 550 768 -64 1466 -64 
C 2163 -64 2758 550 2758 1356 
z
M 1466 51 
C 1165 51 909 230 762 480 
C 602 768 582 1126 582 1408 
C 582 1676 595 2009 762 2297 
C 890 2508 1139 2713 1466 2713 
C 1754 2713 1997 2553 2150 2329 
C 2349 2028 2349 1606 2349 1408 
C 2349 1158 2336 774 2163 467 
C 1984 172 1709 51 1466 51 
z
" transform="scale(0.015625)"/>
       <path id="CMR17-6e" d="M 2656 1954 
C 2656 2282 2592 2816 1837 2816 
C 1331 2816 1069 2424 973 2166 
L 966 2166 
L 966 2816 
L 211 2745 
L 211 2578 
C 589 2578 646 2540 646 2231 
L 646 443 
C 646 198 621 166 211 166 
L 211 0 
C 365 12 646 12 813 12 
C 979 12 1267 12 1421 0 
L 1421 166 
C 1011 166 986 192 986 443 
L 986 1678 
C 986 2269 1344 2713 1792 2713 
C 2266 2713 2317 2289 2317 1980 
L 2317 443 
C 2317 198 2291 166 1882 166 
L 1882 0 
C 2035 12 2317 12 2483 12 
C 2650 12 2938 12 3091 0 
L 3091 166 
C 2682 166 2656 192 2656 443 
L 2656 1954 
z
" transform="scale(0.015625)"/>
       <path id="CMR17-73" d="M 1978 2688 
C 1978 2803 1971 2809 1933 2809 
C 1907 2809 1901 2803 1824 2707 
C 1805 2681 1747 2617 1728 2592 
C 1523 2809 1235 2816 1126 2816 
C 416 2816 160 2444 160 2073 
C 160 1497 813 1363 998 1324 
C 1402 1241 1542 1216 1677 1100 
C 1760 1024 1901 883 1901 652 
C 1901 384 1747 38 1158 38 
C 602 38 403 460 288 1024 
C 269 1113 269 1120 218 1120 
C 166 1120 160 1113 160 985 
L 160 64 
C 160 -52 166 -58 205 -58 
C 237 -58 243 -52 275 0 
C 314 57 410 211 448 275 
C 576 102 800 -64 1158 -64 
C 1792 -64 2131 281 2131 780 
C 2131 1107 1958 1280 1875 1356 
C 1683 1555 1459 1600 1190 1651 
C 838 1728 390 1817 390 2208 
C 390 2374 480 2726 1126 2726 
C 1811 2726 1850 2086 1862 1881 
C 1869 1849 1901 1843 1920 1843 
C 1978 1843 1978 1862 1978 1971 
L 1978 2688 
z
" transform="scale(0.015625)"/>
       <path id="CMR17-74" d="M 966 2585 
L 1862 2585 
L 1862 2752 
L 966 2752 
L 966 3968 
L 851 3968 
C 838 3292 614 2700 70 2687 
L 70 2585 
L 627 2585 
L 627 778 
C 627 655 627 -64 1370 -64 
C 1747 -64 1965 308 1965 784 
L 1965 1151 
L 1850 1151 
L 1850 790 
C 1850 347 1677 51 1408 51 
C 1222 51 966 179 966 765 
L 966 2585 
z
" transform="scale(0.015625)"/>
       <path id="CMR17-61" d="M 2304 1656 
C 2304 2048 2304 2275 2035 2534 
C 1798 2751 1523 2816 1306 2816 
C 800 2816 435 2408 435 1977 
C 435 1740 627 1728 666 1728 
C 749 1728 896 1779 896 1958 
C 896 2118 774 2188 666 2188 
C 640 2188 608 2182 589 2176 
C 723 2594 1069 2713 1293 2713 
C 1613 2713 1965 2421 1965 1875 
L 1965 1632 
C 1587 1619 1133 1568 774 1373 
C 371 1147 256 822 256 576 
C 256 77 832 -64 1171 -64 
C 1523 -64 1850 135 1990 505 
C 2003 219 2182 -39 2464 -39 
C 2598 -39 2938 51 2938 563 
L 2938 926 
L 2822 926 
L 2822 557 
C 2822 161 2650 109 2566 109 
C 2304 109 2304 446 2304 732 
L 2304 1656 
z
M 1965 887 
C 1965 323 1568 38 1216 38 
C 896 38 646 278 646 576 
C 646 771 730 1114 1101 1322 
C 1408 1497 1760 1523 1965 1536 
L 1965 887 
z
" transform="scale(0.015625)"/>
      </defs>
      <use xlink:href="#CMMI12-45" transform="scale(0.996264)"/>
      <use xlink:href="#CMMI12-49" transform="translate(78.051636 0) scale(0.996264)"/>
      <use xlink:href="#CMMI12-49" transform="translate(128.90815 36.153639) scale(0.697382)"/>
      <use xlink:href="#CMR17-6b" transform="translate(195.081631 0) scale(0.996264)"/>
      <use xlink:href="#CMR17-6f" transform="translate(240.772092 0) scale(0.996264)"/>
      <use xlink:href="#CMR17-6e" transform="translate(286.46257 0) scale(0.996264)"/>
      <use xlink:href="#CMR17-73" transform="translate(337.357939 0) scale(0.996264)"/>
      <use xlink:href="#CMR17-74" transform="translate(373.159277 0) scale(0.996264)"/>
      <use xlink:href="#CMR17-61" transform="translate(408.440045 0) scale(0.996264)"/>
      <use xlink:href="#CMR17-6e" transform="translate(454.130522 0) scale(0.996264)"/>
      <use xlink:href="#CMR17-74" transform="translate(502.423438 0) scale(0.996264)"/>
     </g>
    </g>
    <g id="line2d_37">
     <path d="M 285.043973 58.851468 
L 295.043973 58.851468 
L 305.043973 58.851468 
" style="fill: none; stroke-dasharray: 0.7,1.155; stroke-dashoffset: 0; stroke: #000000; stroke-width: 0.7"/>
    </g>
    <g id="text_18">
     <!-- $EI^{II}$ konstant -->
     <g transform="translate(313.043973 62.351468) scale(0.1 -0.1)">
      <use xlink:href="#CMMI12-45" transform="scale(0.996264)"/>
      <use xlink:href="#CMMI12-49" transform="translate(78.051636 0) scale(0.996264)"/>
      <use xlink:href="#CMMI12-49" transform="translate(128.90815 36.153639) scale(0.697382)"/>
      <use xlink:href="#CMMI12-49" transform="translate(164.507532 36.153639) scale(0.697382)"/>
      <use xlink:href="#CMR17-6b" transform="translate(230.681012 0) scale(0.996264)"/>
      <use xlink:href="#CMR17-6f" transform="translate(276.371474 0) scale(0.996264)"/>
      <use xlink:href="#CMR17-6e" transform="translate(322.061952 0) scale(0.996264)"/>
      <use xlink:href="#CMR17-73" transform="translate(372.957321 0) scale(0.996264)"/>
      <use xlink:href="#CMR17-74" transform="translate(408.758659 0) scale(0.996264)"/>
      <use xlink:href="#CMR17-61" transform="translate(444.039427 0) scale(0.996264)"/>
      <use xlink:href="#CMR17-6e" transform="translate(489.729904 0) scale(0.996264)"/>
      <use xlink:href="#CMR17-74" transform="translate(538.02282 0) scale(0.996264)"/>
     </g>
    </g>
    <g id="line2d_38">
     <path d="M 285.043973 72.788647 
L 295.043973 72.788647 
L 305.043973 72.788647 
" style="fill: none; stroke-dasharray: 2.59,1.12; stroke-dashoffset: 0; stroke: #000000; stroke-width: 0.7"/>
    </g>
    <g id="text_19">
     <!-- Abschätzung Norm -->
     <g transform="translate(313.043973 76.288647) scale(0.1 -0.1)">
      <defs>
       <path id="CMR17-41" d="M 2323 4441 
C 2291 4524 2278 4544 2214 4544 
C 2150 4544 2138 4524 2106 4441 
L 749 580 
C 627 236 371 166 147 166 
L 147 0 
C 262 12 518 12 640 12 
C 800 12 1056 12 1210 0 
L 1210 166 
C 909 179 864 382 864 459 
C 864 516 877 548 890 586 
L 1229 1536 
L 2906 1536 
L 3290 453 
C 3322 376 3322 363 3322 338 
C 3322 166 3046 166 2925 166 
L 2925 0 
C 3110 12 3443 12 3642 12 
C 3808 12 4128 12 4282 0 
L 4282 166 
C 3942 166 3827 166 3744 402 
L 2323 4441 
z
M 2067 3924 
L 2848 1702 
L 1286 1702 
L 2067 3924 
z
" transform="scale(0.015625)"/>
       <path id="CMR17-62" d="M 960 4416 
L 198 4345 
L 198 4179 
C 576 4179 634 4141 634 3843 
L 634 -13 
L 749 -13 
L 934 445 
C 1120 141 1395 -64 1766 -64 
C 2406 -64 3053 503 3053 1382 
C 3053 2209 2477 2816 1830 2816 
C 1434 2816 1152 2603 960 2351 
L 960 4416 
z
M 973 2022 
C 973 2138 973 2157 1062 2293 
C 1312 2681 1670 2713 1792 2713 
C 1984 2713 2643 2610 2643 1388 
C 2643 109 1888 38 1734 38 
C 1536 38 1248 115 1043 490 
C 973 613 973 626 973 742 
L 973 2022 
z
" transform="scale(0.015625)"/>
       <path id="CMR17-63" d="M 2234 2240 
C 2112 2240 1933 2240 1933 2015 
C 1933 1836 2080 1785 2163 1785 
C 2208 1785 2394 1804 2394 2028 
C 2394 2476 1958 2816 1466 2816 
C 787 2816 211 2201 211 1379 
C 211 521 813 -64 1466 -64 
C 2259 -64 2458 676 2458 747 
C 2458 773 2451 792 2406 792 
C 2362 792 2355 786 2330 702 
C 2163 180 1798 51 1523 51 
C 1114 51 621 431 621 1385 
C 621 2358 1094 2700 1472 2700 
C 1722 2700 2093 2582 2234 2240 
z
" transform="scale(0.015625)"/>
       <path id="CMR17-68" d="M 2656 1954 
C 2656 2282 2592 2816 1837 2816 
C 1312 2816 1056 2392 979 2179 
L 973 2179 
L 973 4416 
L 211 4345 
L 211 4179 
C 589 4179 646 4141 646 3843 
L 646 443 
C 646 198 621 166 211 166 
L 211 0 
C 365 12 646 12 813 12 
C 979 12 1267 12 1421 0 
L 1421 166 
C 1011 166 986 192 986 443 
L 986 1678 
C 986 2269 1344 2713 1792 2713 
C 2266 2713 2317 2289 2317 1980 
L 2317 443 
C 2317 198 2291 166 1882 166 
L 1882 0 
C 2035 12 2317 12 2483 12 
C 2650 12 2938 12 3091 0 
L 3091 166 
C 2682 166 2656 192 2656 443 
L 2656 1954 
z
" transform="scale(0.015625)"/>
       <path id="CMR17-7f" d="M 1133 3961 
C 1133 4121 1005 4217 883 4217 
C 717 4217 627 4076 627 3968 
C 627 3840 730 3712 883 3712 
C 1018 3712 1133 3820 1133 3961 
z
M 2304 3961 
C 2304 4089 2202 4217 2048 4217 
C 1914 4217 1798 4108 1798 3968 
C 1798 3808 1926 3712 2048 3712 
C 2214 3712 2304 3852 2304 3961 
z
" transform="scale(0.015625)"/>
       <path id="CMR17-7a" d="M 2310 2604 
C 2362 2668 2362 2681 2362 2694 
C 2362 2752 2336 2752 2221 2752 
L 275 2752 
L 211 1760 
L 326 1760 
C 371 2380 442 2649 1178 2649 
L 1958 2649 
L 128 96 
C 128 6 134 0 269 0 
L 2291 0 
L 2381 1152 
L 2266 1152 
C 2214 441 2131 115 1350 115 
L 531 115 
L 2310 2604 
z
" transform="scale(0.015625)"/>
       <path id="CMR17-75" d="M 1882 2745 
L 1882 2579 
C 2259 2579 2317 2540 2317 2229 
L 2317 1053 
C 2317 510 2029 38 1555 38 
C 1030 38 986 355 986 691 
L 986 2816 
L 211 2745 
L 211 2579 
C 467 2579 640 2579 646 2320 
L 646 1079 
C 646 646 646 368 813 187 
C 896 103 1056 -64 1517 -64 
C 2061 -64 2272 400 2323 536 
L 2330 536 
L 2330 -64 
L 3091 -13 
L 3091 154 
C 2714 154 2656 193 2656 503 
L 2656 2816 
L 1882 2745 
z
" transform="scale(0.015625)"/>
       <path id="CMR17-67" d="M 710 1165 
C 832 1068 1043 960 1299 960 
C 1805 960 2240 1359 2240 1895 
C 2240 2063 2189 2321 1997 2521 
C 2176 2713 2438 2777 2586 2777 
C 2611 2777 2650 2777 2682 2758 
C 2656 2751 2598 2726 2598 2623 
C 2598 2540 2656 2483 2739 2483 
C 2835 2483 2886 2547 2886 2630 
C 2886 2751 2790 2880 2586 2880 
C 2330 2880 2106 2758 1926 2591 
C 1734 2764 1504 2828 1299 2828 
C 794 2828 358 2431 358 1895 
C 358 1527 570 1294 634 1230 
C 442 1004 442 742 442 710 
C 442 544 506 300 723 166 
C 390 82 128 -184 128 -517 
C 128 -996 736 -1344 1466 -1344 
C 2170 -1344 2803 -1009 2803 -510 
C 2803 384 1856 384 1363 384 
C 1216 384 954 384 922 390 
C 723 422 589 601 589 825 
C 589 883 589 1024 710 1165 
z
M 1299 1068 
C 736 1068 736 1766 736 1895 
C 736 2024 736 2719 1299 2719 
C 1862 2719 1862 2024 1862 1895 
C 1862 1766 1862 1068 1299 1068 
z
M 1466 -1236 
C 826 -1236 384 -883 384 -517 
C 384 -311 493 -118 634 -11 
C 794 102 858 102 1293 102 
C 1818 102 2547 102 2547 -517 
C 2547 -883 2106 -1236 1466 -1236 
z
" transform="scale(0.015625)"/>
       <path id="CMR17-72" d="M 960 1517 
C 960 2134 1222 2713 1702 2713 
C 1747 2713 1792 2707 1837 2687 
C 1837 2687 1696 2642 1696 2475 
C 1696 2321 1818 2257 1914 2257 
C 1990 2257 2131 2302 2131 2482 
C 2131 2687 1926 2816 1709 2816 
C 1222 2816 1011 2340 947 2115 
L 941 2115 
L 941 2816 
L 198 2745 
L 198 2578 
C 576 2578 634 2540 634 2231 
L 634 443 
C 634 198 608 166 198 166 
L 198 0 
C 352 12 646 12 813 12 
C 998 12 1325 12 1498 0 
L 1498 166 
C 1037 166 960 166 960 455 
L 960 1517 
z
" transform="scale(0.015625)"/>
      </defs>
      <use xlink:href="#CMR17-41" transform="scale(0.996264)"/>
      <use xlink:href="#CMR17-62" transform="translate(69.07243 0) scale(0.996264)"/>
      <use xlink:href="#CMR17-73" transform="translate(119.9678 0) scale(0.996264)"/>
      <use xlink:href="#CMR17-63" transform="translate(155.769137 0) scale(0.996264)"/>
      <use xlink:href="#CMR17-68" transform="translate(193.652344 0) scale(0.996264)"/>
      <use xlink:href="#CMR17-7f" transform="translate(244.547714 0) scale(0.996264)"/>
      <use xlink:href="#CMR17-61" transform="translate(244.547714 0) scale(0.996264)"/>
      <use xlink:href="#CMR17-74" transform="translate(290.238191 0) scale(0.996264)"/>
      <use xlink:href="#CMR17-7a" transform="translate(325.518958 0) scale(0.996264)"/>
      <use xlink:href="#CMR17-75" transform="translate(366.004619 0) scale(0.996264)"/>
      <use xlink:href="#CMR17-6e" transform="translate(416.899989 0) scale(0.996264)"/>
      <use xlink:href="#CMR17-67" transform="translate(467.795358 0) scale(0.996264)"/>
      <use xlink:href="#CMR17-4e" transform="translate(543.561802 0) scale(0.996264)"/>
      <use xlink:href="#CMR17-6f" transform="translate(612.634232 0) scale(0.996264)"/>
      <use xlink:href="#CMR17-72" transform="translate(658.324709 0) scale(0.996264)"/>
      <use xlink:href="#CMR17-6d" transform="translate(693.605477 0) scale(0.996264)"/>
     </g>
    </g>
    <g id="line2d_39">
     <path d="M 285.043973 87.197805 
L 295.043973 87.197805 
L 305.043973 87.197805 
" style="fill: none; stroke: #006400; stroke-width: 0.7; stroke-linecap: square"/>
    </g>
    <g id="text_20">
     <!-- nicht-linear $M(\chi)$ -->
     <g transform="translate(313.043973 90.697805) scale(0.1 -0.1)">
      <defs>
       <path id="CMR17-69" d="M 992 3961 
C 992 4102 877 4224 730 4224 
C 589 4224 467 4108 467 3961 
C 467 3820 582 3699 730 3699 
C 870 3699 992 3814 992 3961 
z
M 243 2745 
L 243 2579 
C 602 2579 653 2540 653 2231 
L 653 443 
C 653 198 627 166 218 166 
L 218 0 
C 371 12 646 12 806 12 
C 960 12 1222 12 1370 0 
L 1370 166 
C 992 166 979 205 979 436 
L 979 2816 
L 243 2745 
z
" transform="scale(0.015625)"/>
       <path id="CMR17-2d" d="M 1632 1254 
L 1632 1536 
L 26 1536 
L 26 1254 
L 1632 1254 
z
" transform="scale(0.015625)"/>
       <path id="CMR17-6c" d="M 979 4416 
L 218 4345 
L 218 4179 
C 595 4179 653 4141 653 3835 
L 653 439 
C 653 198 627 166 218 166 
L 218 0 
C 371 12 653 12 813 12 
C 979 12 1261 12 1414 0 
L 1414 166 
C 1005 166 979 191 979 439 
L 979 4416 
z
" transform="scale(0.015625)"/>
       <path id="CMR17-65" d="M 2438 1503 
C 2464 1529 2464 1542 2464 1606 
C 2464 2251 2118 2816 1389 2816 
C 710 2816 173 2175 173 1394 
C 173 554 781 -64 1459 -64 
C 2176 -64 2458 619 2458 755 
C 2458 800 2419 800 2406 800 
C 2362 800 2355 787 2330 709 
C 2189 270 1837 51 1504 51 
C 1229 51 954 206 781 490 
C 582 819 582 1200 582 1503 
L 2438 1503 
z
M 589 1600 
C 634 2511 1126 2713 1382 2713 
C 1818 2713 2112 2308 2118 1600 
L 589 1600 
z
" transform="scale(0.015625)"/>
       <path id="CMMI12-4d" d="M 5811 3886 
C 5869 4102 5882 4166 6336 4166 
C 6458 4166 6515 4166 6515 4287 
C 6515 4352 6470 4352 6349 4352 
L 5581 4352 
C 5421 4352 5414 4345 5344 4243 
L 3008 567 
L 2528 4211 
C 2509 4352 2502 4352 2336 4352 
L 1542 4352 
C 1421 4352 1363 4352 1363 4230 
C 1363 4166 1421 4166 1517 4166 
C 1907 4166 1907 4115 1907 4045 
C 1907 4032 1907 3994 1882 3898 
L 1062 650 
C 986 344 838 204 410 185 
C 390 185 314 179 314 70 
C 314 0 371 0 397 0 
C 525 0 851 12 979 12 
L 1286 12 
C 1376 12 1485 0 1574 0 
C 1619 0 1690 0 1690 121 
C 1690 179 1626 185 1600 185 
C 1389 191 1184 230 1184 459 
C 1184 523 1184 529 1210 618 
L 2093 4128 
L 2099 4128 
L 2630 172 
C 2650 19 2656 0 2714 0 
C 2784 0 2816 51 2848 108 
L 5421 4159 
L 5427 4159 
L 4499 472 
C 4442 249 4429 185 3981 185 
C 3859 185 3795 185 3795 70 
C 3795 0 3853 0 3891 0 
C 4000 0 4128 12 4237 12 
L 4992 12 
C 5101 12 5235 0 5344 0 
C 5395 0 5466 0 5466 121 
C 5466 185 5408 185 5312 185 
C 4922 185 4922 236 4922 300 
C 4922 306 4922 351 4934 402 
L 5811 3886 
z
" transform="scale(0.015625)"/>
       <path id="CMR17-28" d="M 1958 -1562 
C 1958 -1556 1958 -1543 1939 -1524 
C 1645 -1223 858 -403 858 1596 
C 858 3595 1632 4408 1946 4729 
C 1946 4735 1958 4748 1958 4767 
C 1958 4787 1939 4800 1914 4800 
C 1843 4800 1299 4325 986 3620 
C 666 2909 576 2218 576 1603 
C 576 1141 621 360 1005 -467 
C 1312 -1133 1837 -1600 1914 -1600 
C 1946 -1600 1958 -1588 1958 -1562 
z
" transform="scale(0.015625)"/>
       <path id="CMMI12-1f" d="M 2112 1035 
C 1939 1562 1978 1511 1818 1956 
C 1619 2503 1568 2547 1478 2636 
C 1363 2739 1146 2816 922 2816 
C 563 2816 390 2484 390 2401 
C 390 2363 422 2344 461 2344 
C 512 2344 525 2376 531 2401 
C 627 2649 826 2687 883 2687 
C 1069 2687 1248 2230 1363 1925 
C 1517 1537 1594 1270 1766 653 
L 256 -1050 
C 198 -1120 198 -1146 198 -1152 
C 198 -1204 230 -1216 256 -1216 
C 282 -1216 301 -1204 320 -1184 
C 499 -1006 896 -535 1062 -345 
L 1805 494 
C 2118 -479 2118 -491 2214 -727 
C 2317 -968 2451 -1280 2995 -1280 
C 3360 -1280 3526 -955 3526 -866 
C 3526 -822 3488 -809 3456 -809 
C 3405 -809 3398 -835 3379 -886 
C 3309 -1064 3142 -1152 3040 -1152 
C 2957 -1152 2854 -1152 2573 -447 
C 2406 -21 2259 487 2150 882 
L 3667 2598 
C 3718 2655 3725 2662 3725 2687 
C 3725 2732 3693 2752 3661 2752 
C 3642 2752 3622 2752 3558 2681 
L 2112 1035 
z
" transform="scale(0.015625)"/>
       <path id="CMR17-29" d="M 1683 1596 
C 1683 2057 1638 2839 1254 3665 
C 947 4332 422 4800 346 4800 
C 326 4800 301 4793 301 4761 
C 301 4748 307 4742 314 4729 
C 621 4408 1402 3595 1402 1603 
C 1402 -396 627 -1210 314 -1530 
C 307 -1543 301 -1549 301 -1562 
C 301 -1594 326 -1600 346 -1600 
C 416 -1600 960 -1127 1274 -422 
C 1594 289 1683 981 1683 1596 
z
" transform="scale(0.015625)"/>
      </defs>
      <use xlink:href="#CMR17-6e" transform="scale(0.996264)"/>
      <use xlink:href="#CMR17-69" transform="translate(50.89537 0) scale(0.996264)"/>
      <use xlink:href="#CMR17-63" transform="translate(75.766428 0) scale(0.996264)"/>
      <use xlink:href="#CMR17-68" transform="translate(113.649635 0) scale(0.996264)"/>
      <use xlink:href="#CMR17-74" transform="translate(161.942551 0) scale(0.996264)"/>
      <use xlink:href="#CMR17-2d" transform="translate(197.223318 0) scale(0.996264)"/>
      <use xlink:href="#CMR17-6c" transform="translate(227.299285 0) scale(0.996264)"/>
      <use xlink:href="#CMR17-69" transform="translate(252.170343 0) scale(0.996264)"/>
      <use xlink:href="#CMR17-6e" transform="translate(277.041402 0) scale(0.996264)"/>
      <use xlink:href="#CMR17-65" transform="translate(327.936772 0) scale(0.996264)"/>
      <use xlink:href="#CMR17-61" transform="translate(368.422432 0) scale(0.996264)"/>
      <use xlink:href="#CMR17-72" transform="translate(414.112909 0) scale(0.996264)"/>
      <use xlink:href="#CMMI12-4d" transform="translate(479.469643 0) scale(0.996264)"/>
      <use xlink:href="#CMR17-28" transform="translate(584.249722 0) scale(0.996264)"/>
      <use xlink:href="#CMMI12-1f" transform="translate(619.53049 0) scale(0.996264)"/>
      <use xlink:href="#CMR17-29" transform="translate(680.643449 0) scale(0.996264)"/>
     </g>
    </g>
    <g id="line2d_40">
     <path d="M 285.043973 101.688465 
L 295.043973 101.688465 
L 305.043973 101.688465 
" style="fill: none; stroke-dasharray: 0.7,1.155; stroke-dashoffset: 0; stroke: #006400; stroke-width: 0.7"/>
    </g>
    <g id="text_21">
     <!-- Zugversteifung $\lambda = 1$ -->
     <g transform="translate(313.043973 105.188465) scale(0.1 -0.1)">
      <defs>
       <path id="CMR17-5a" d="M 3302 4223 
C 3302 4345 3296 4352 3162 4352 
L 442 4352 
L 378 2943 
L 493 2943 
C 531 3669 723 4185 1760 4185 
L 2816 4185 
L 339 204 
C 294 134 294 128 294 83 
C 294 0 307 0 435 0 
L 3245 0 
L 3334 1663 
L 3219 1663 
C 3162 828 3117 179 1894 179 
L 781 179 
L 3302 4223 
z
" transform="scale(0.015625)"/>
       <path id="CMR17-76" d="M 2502 2173 
C 2560 2315 2662 2572 3034 2585 
L 3034 2752 
C 2912 2745 2752 2739 2630 2739 
C 2496 2739 2285 2739 2157 2752 
L 2157 2585 
C 2317 2572 2406 2495 2406 2328 
C 2406 2270 2406 2257 2368 2167 
L 1664 379 
L 902 2308 
C 864 2392 864 2405 864 2431 
C 864 2585 1075 2585 1171 2585 
L 1171 2752 
C 1018 2739 736 2739 576 2739 
C 403 2739 205 2739 64 2752 
L 64 2585 
C 307 2585 442 2585 518 2386 
L 1446 44 
C 1485 -52 1491 -64 1549 -64 
C 1606 -64 1613 -52 1651 44 
L 2502 2173 
z
" transform="scale(0.015625)"/>
       <path id="CMR17-66" d="M 979 2585 
L 1709 2585 
L 1709 2752 
L 966 2752 
L 966 3539 
C 966 4076 1235 4377 1510 4377 
C 1594 4377 1690 4363 1754 4339 
C 1702 4326 1568 4281 1568 4121 
C 1568 3955 1696 3904 1786 3904 
C 1875 3904 2003 3955 2003 4121 
C 2003 4353 1773 4480 1517 4480 
C 1152 4480 653 4211 653 3526 
L 653 2752 
L 141 2752 
L 141 2585 
L 653 2585 
L 653 441 
C 653 198 627 166 218 166 
L 218 0 
C 371 12 666 12 832 12 
C 1018 12 1344 12 1517 0 
L 1517 166 
C 1056 166 979 166 979 454 
L 979 2585 
z
" transform="scale(0.015625)"/>
       <path id="CMMI12-15" d="M 1978 3963 
C 1818 4416 1312 4416 1229 4416 
C 1190 4416 1120 4416 1120 4351 
C 1120 4300 1158 4294 1190 4287 
C 1286 4275 1363 4262 1466 4078 
C 1530 3957 2189 2055 2189 2042 
C 2189 2036 2182 2029 2131 1978 
L 467 305 
C 390 229 339 178 339 95 
C 339 6 416 -71 518 -71 
C 544 -71 614 -58 653 -20 
C 755 76 1670 1190 2253 1877 
C 2419 1380 2624 795 2822 261 
C 2854 165 2886 76 2976 -7 
C 3040 -64 3053 -64 3232 -64 
L 3354 -64 
C 3379 -64 3424 -64 3424 -13 
C 3424 12 3418 19 3392 44 
C 3334 114 3290 229 3264 305 
L 1978 3963 
z
" transform="scale(0.015625)"/>
       <path id="CMR17-3d" d="M 4115 2048 
C 4211 2048 4307 2048 4307 2156 
C 4307 2272 4198 2272 4090 2272 
L 512 2272 
C 403 2272 294 2272 294 2156 
C 294 2048 390 2048 486 2048 
L 4115 2048 
z
M 4090 927 
C 4198 927 4307 927 4307 1043 
C 4307 1152 4211 1152 4115 1152 
L 486 1152 
C 390 1152 294 1152 294 1043 
C 294 927 403 927 512 927 
L 4090 927 
z
" transform="scale(0.015625)"/>
      </defs>
      <use xlink:href="#CMR17-5a" transform="scale(0.996264)"/>
      <use xlink:href="#CMR17-75" transform="translate(56.100171 0) scale(0.996264)"/>
      <use xlink:href="#CMR17-67" transform="translate(106.995541 0) scale(0.996264)"/>
      <use xlink:href="#CMR17-76" transform="translate(152.686018 0) scale(0.996264)"/>
      <use xlink:href="#CMR17-65" transform="translate(198.37648 0) scale(0.996264)"/>
      <use xlink:href="#CMR17-72" transform="translate(238.862141 0) scale(0.996264)"/>
      <use xlink:href="#CMR17-73" transform="translate(274.142908 0) scale(0.996264)"/>
      <use xlink:href="#CMR17-74" transform="translate(309.944246 0) scale(0.996264)"/>
      <use xlink:href="#CMR17-65" transform="translate(345.225014 0) scale(0.996264)"/>
      <use xlink:href="#CMR17-69" transform="translate(385.710674 0) scale(0.996264)"/>
      <use xlink:href="#CMR17-66" transform="translate(410.581733 0) scale(0.996264)"/>
      <use xlink:href="#CMR17-75" transform="translate(438.055245 0) scale(0.996264)"/>
      <use xlink:href="#CMR17-6e" transform="translate(488.950615 0) scale(0.996264)"/>
      <use xlink:href="#CMR17-67" transform="translate(539.845985 0) scale(0.996264)"/>
      <use xlink:href="#CMMI12-15" transform="translate(615.612428 0) scale(0.996264)"/>
      <use xlink:href="#CMR17-3d" transform="translate(700.190509 0) scale(0.996264)"/>
      <use xlink:href="#CMR17-31" transform="translate(799.579306 0) scale(0.996264)"/>
     </g>
    </g>
    <g id="line2d_41">
     <path d="M 285.043973 115.625643 
L 295.043973 115.625643 
L 305.043973 115.625643 
" style="fill: none; stroke-dasharray: 2.59,1.12; stroke-dashoffset: 0; stroke: #006400; stroke-width: 0.7"/>
    </g>
    <g id="text_22">
     <!-- Zugversteifung $\lambda = 0.5$ -->
     <g transform="translate(313.043973 119.125643) scale(0.1 -0.1)">
      <defs>
       <path id="CMMI12-3a" d="M 1178 307 
C 1178 492 1024 620 870 620 
C 685 620 557 467 557 313 
C 557 128 710 0 864 0 
C 1050 0 1178 153 1178 307 
z
" transform="scale(0.015625)"/>
      </defs>
      <use xlink:href="#CMR17-5a" transform="scale(0.996264)"/>
      <use xlink:href="#CMR17-75" transform="translate(56.100171 0) scale(0.996264)"/>
      <use xlink:href="#CMR17-67" transform="translate(106.995541 0) scale(0.996264)"/>
      <use xlink:href="#CMR17-76" transform="translate(152.686018 0) scale(0.996264)"/>
      <use xlink:href="#CMR17-65" transform="translate(198.37648 0) scale(0.996264)"/>
      <use xlink:href="#CMR17-72" transform="translate(238.862141 0) scale(0.996264)"/>
      <use xlink:href="#CMR17-73" transform="translate(274.142908 0) scale(0.996264)"/>
      <use xlink:href="#CMR17-74" transform="translate(309.944246 0) scale(0.996264)"/>
      <use xlink:href="#CMR17-65" transform="translate(345.225014 0) scale(0.996264)"/>
      <use xlink:href="#CMR17-69" transform="translate(385.710674 0) scale(0.996264)"/>
      <use xlink:href="#CMR17-66" transform="translate(410.581733 0) scale(0.996264)"/>
      <use xlink:href="#CMR17-75" transform="translate(438.055245 0) scale(0.996264)"/>
      <use xlink:href="#CMR17-6e" transform="translate(488.950615 0) scale(0.996264)"/>
      <use xlink:href="#CMR17-67" transform="translate(539.845985 0) scale(0.996264)"/>
      <use xlink:href="#CMMI12-15" transform="translate(615.612428 0) scale(0.996264)"/>
      <use xlink:href="#CMR17-3d" transform="translate(700.190509 0) scale(0.996264)"/>
      <use xlink:href="#CMR17-30" transform="translate(799.579306 0) scale(0.996264)"/>
      <use xlink:href="#CMMI12-3a" transform="translate(845.269783 0) scale(0.996264)"/>
      <use xlink:href="#CMR17-35" transform="translate(872.36696 0) scale(0.996264)"/>
     </g>
    </g>
    <g id="line2d_42">
     <path d="M 285.043973 129.562822 
L 295.043973 129.562822 
L 305.043973 129.562822 
" style="fill: none; stroke: #0000ff; stroke-width: 0.7; stroke-linecap: square"/>
    </g>
    <g id="text_23">
     <!-- Versuch SV14 -->
     <g transform="translate(313.043973 133.062822) scale(0.1 -0.1)">
      <defs>
       <path id="CMR17-56" d="M 3776 3762 
C 3834 3903 3936 4179 4365 4185 
L 4365 4352 
C 4218 4339 4051 4339 3891 4339 
C 3738 4339 3475 4339 3328 4352 
L 3328 4185 
C 3648 4166 3661 3942 3661 3903 
C 3661 3833 3642 3788 3622 3737 
L 2362 448 
L 1043 3903 
C 1024 3948 1011 3980 1011 4012 
C 1011 4185 1267 4185 1402 4185 
L 1402 4352 
C 1197 4339 896 4339 685 4339 
C 518 4339 218 4339 64 4352 
L 64 4185 
C 435 4185 506 4160 582 3955 
L 2106 -26 
C 2138 -116 2144 -128 2214 -128 
C 2285 -128 2291 -116 2323 -26 
L 3776 3762 
z
" transform="scale(0.015625)"/>
       <path id="CMR17-53" d="M 2803 4351 
C 2803 4467 2797 4473 2758 4473 
C 2720 4473 2707 4447 2682 4390 
L 2490 3965 
C 2246 4320 1875 4480 1472 4480 
C 819 4480 294 3958 294 3301 
C 294 3101 339 2817 557 2546 
C 794 2250 1018 2198 1530 2063 
C 1722 2011 2042 1927 2106 1901 
C 2470 1747 2662 1360 2662 999 
C 2662 534 2336 38 1779 38 
C 1094 38 454 425 410 1328 
C 403 1431 397 1437 352 1437 
C 301 1437 294 1431 294 1302 
L 294 0 
C 294 -116 301 -122 339 -122 
C 384 -122 397 -90 486 109 
C 493 128 493 141 614 386 
C 934 -39 1472 -128 1779 -128 
C 2477 -128 2970 457 2970 1141 
C 2970 1476 2848 1734 2778 1850 
C 2509 2263 2221 2340 1914 2417 
C 1869 2437 1856 2437 1498 2527 
C 1152 2617 1005 2662 845 2836 
C 666 3036 602 3243 602 3449 
C 602 3868 934 4326 1478 4326 
C 2157 4326 2579 3842 2675 3036 
C 2694 2920 2701 2914 2746 2914 
C 2803 2914 2803 2933 2803 3043 
L 2803 4351 
z
" transform="scale(0.015625)"/>
      </defs>
      <use xlink:href="#CMR17-56" transform="scale(0.996264)"/>
      <use xlink:href="#CMR17-65" transform="translate(61.265174 0) scale(0.996264)"/>
      <use xlink:href="#CMR17-72" transform="translate(101.750835 0) scale(0.996264)"/>
      <use xlink:href="#CMR17-73" transform="translate(137.031603 0) scale(0.996264)"/>
      <use xlink:href="#CMR17-75" transform="translate(172.83294 0) scale(0.996264)"/>
      <use xlink:href="#CMR17-63" transform="translate(223.72831 0) scale(0.996264)"/>
      <use xlink:href="#CMR17-68" transform="translate(261.611517 0) scale(0.996264)"/>
      <use xlink:href="#CMR17-53" transform="translate(342.582853 0) scale(0.996264)"/>
      <use xlink:href="#CMR17-56" transform="translate(393.478223 0) scale(0.996264)"/>
      <use xlink:href="#CMR17-31" transform="translate(462.550652 0) scale(0.996264)"/>
      <use xlink:href="#CMR17-34" transform="translate(508.241129 0) scale(0.996264)"/>
     </g>
    </g>
   </g>
  </g>
 </g>
 <defs>
  <clipPath id="pd051b0eba9">
   <rect x="58.5" y="21.6" width="362.7" height="122.4"/>
  </clipPath>
 </defs>
</svg>
