<?xml version="1.0" encoding="UTF-8" standalone="no"?>
<svg
   width="425.197pt"
   height="226.772pt"
   viewBox="0 0 425.197 226.772"
   version="1.1"
   id="svg20"
   xmlns="http://www.w3.org/2000/svg"
   xmlns:svg="http://www.w3.org/2000/svg">
  <defs
     id="defs20" />
  <path
     fill="none"
     stroke-width="0.3685"
     stroke-linecap="round"
     stroke-linejoin="round"
     stroke="rgb(0%, 0%, 0%)"
     stroke-opacity="1"
     stroke-miterlimit="10"
     d="M 19.0625 87.729031 L 26.148438 87.729031 L 19.0625 94.814969 M 19.0625 87.729031 L 11.976563 87.729031 L 19.0625 94.814969 M 11.976563 85.9595 L 26.148438 85.9595 "
     transform="matrix(1, 0, 0, -1, 0, 226.772)"
     id="path1" />
  <path
     fill="none"
     stroke-width="0.70866"
     stroke-linecap="round"
     stroke-linejoin="round"
     stroke="rgb(0%, 0%, 0%)"
     stroke-opacity="1"
     stroke-miterlimit="10"
     d="M 19.0625 94.814969 L 252.777344 219.436062 "
     transform="matrix(1, 0, 0, -1, 0, 226.772)"
     id="path2" />
  <path
     fill="none"
     stroke-width="0.3685"
     stroke-linecap="round"
     stroke-linejoin="round"
     stroke="rgb(0%, 0%, 0%)"
     stroke-opacity="1"
     stroke-miterlimit="10"
     d="M 252.777344 212.350125 L 259.863281 212.350125 L 252.777344 219.436062 M 252.777344 212.350125 L 245.691406 212.350125 L 252.777344 219.436062 M 249.941406 212.350125 L 248.441406 210.846219 M 252.777344 212.350125 L 251.273438 210.846219 M 255.613281 212.350125 L 254.109375 210.846219 M 258.445313 212.350125 L 256.945313 210.846219 M 247.109375 212.350125 L 245.605469 210.846219 M 56.742188 68.029812 L 63.828125 68.029812 L 56.742188 75.11575 M 56.742188 68.029812 L 49.65625 68.029812 L 56.742188 75.11575 M 49.65625 66.256375 L 63.828125 66.256375 "
     transform="matrix(1, 0, 0, -1, 0, 226.772)"
     id="path3" />
  <path
     fill="none"
     stroke-width="0.70866"
     stroke-linecap="round"
     stroke-linejoin="round"
     stroke="rgb(0%, 0%, 0%)"
     stroke-opacity="1"
     stroke-miterlimit="10"
     d="M 56.742188 75.11575 L 290.457031 199.732937 "
     transform="matrix(1, 0, 0, -1, 0, 226.772)"
     id="path4" />
  <path
     fill="none"
     stroke-width="0.3685"
     stroke-linecap="round"
     stroke-linejoin="round"
     stroke="rgb(0%, 0%, 0%)"
     stroke-opacity="1"
     stroke-miterlimit="10"
     d="M 290.457031 192.647 L 297.542969 192.647 L 290.457031 199.732937 M 290.457031 192.647 L 283.371094 192.647 L 290.457031 199.732937 M 287.625 192.647 L 286.121094 191.143094 M 290.457031 192.647 L 288.953125 191.143094 M 293.292969 192.647 L 291.789063 191.143094 M 296.128906 192.647 L 294.625 191.143094 M 284.789063 192.647 L 283.285156 191.143094 M 94.421875 48.330594 L 101.507813 48.330594 L 94.421875 55.416531 M 94.421875 48.330594 L 87.335938 48.330594 L 94.421875 55.416531 M 87.335938 46.557156 L 101.507813 46.557156 "
     transform="matrix(1, 0, 0, -1, 0, 226.772)"
     id="path5" />
  <path
     fill="none"
     stroke-width="0.70866"
     stroke-linecap="round"
     stroke-linejoin="round"
     stroke="rgb(0%, 0%, 0%)"
     stroke-opacity="1"
     stroke-miterlimit="10"
     d="M 94.421875 55.416531 L 328.136719 180.033719 "
     transform="matrix(1, 0, 0, -1, 0, 226.772)"
     id="path6" />
  <path
     fill="none"
     stroke-width="0.3685"
     stroke-linecap="round"
     stroke-linejoin="round"
     stroke="rgb(0%, 0%, 0%)"
     stroke-opacity="1"
     stroke-miterlimit="10"
     d="M 328.136719 172.947781 L 335.226563 172.947781 L 328.136719 180.033719 M 328.136719 172.947781 L 321.050781 172.947781 L 328.136719 180.033719 M 325.304688 172.947781 L 323.800781 171.443875 M 328.136719 172.947781 L 326.636719 171.443875 M 330.972656 172.947781 L 329.46875 171.443875 M 333.808594 172.947781 L 332.304688 171.443875 M 322.46875 172.947781 L 320.964844 171.443875 M 132.101563 28.627469 L 139.191406 28.627469 L 132.101563 35.713406 M 132.101563 28.627469 L 125.015625 28.627469 L 132.101563 35.713406 M 125.015625 26.857937 L 139.191406 26.857937 "
     transform="matrix(1, 0, 0, -1, 0, 226.772)"
     id="path7" />
  <path
     fill="none"
     stroke-width="0.70866"
     stroke-linecap="round"
     stroke-linejoin="round"
     stroke="rgb(0%, 0%, 0%)"
     stroke-opacity="1"
     stroke-miterlimit="10"
     d="M 132.101563 35.713406 L 365.820313 160.3345 "
     transform="matrix(1, 0, 0, -1, 0, 226.772)"
     id="path8" />
  <path
     fill="none"
     stroke-width="0.3685"
     stroke-linecap="round"
     stroke-linejoin="round"
     stroke="rgb(0%, 0%, 0%)"
     stroke-opacity="1"
     stroke-miterlimit="10"
     d="M 365.820313 153.248562 L 372.90625 153.248562 L 365.820313 160.3345 M 365.820313 153.248562 L 358.730469 153.248562 L 365.820313 160.3345 M 362.984375 153.248562 L 361.480469 151.744656 M 365.820313 153.248562 L 364.316406 151.744656 M 368.652344 153.248562 L 367.148438 151.744656 M 371.488281 153.248562 L 369.984375 151.744656 M 360.148438 153.248562 L 358.644531 151.744656 M 169.785156 8.92825 L 176.871094 8.92825 L 169.785156 16.014187 M 169.785156 8.92825 L 162.695313 8.92825 L 169.785156 16.014187 M 162.695313 7.154812 L 176.871094 7.154812 "
     transform="matrix(1, 0, 0, -1, 0, 226.772)"
     id="path9" />
  <path
     fill="none"
     stroke-width="0.70866"
     stroke-linecap="round"
     stroke-linejoin="round"
     stroke="rgb(0%, 0%, 0%)"
     stroke-opacity="1"
     stroke-miterlimit="10"
     d="M 169.785156 16.014187 L 403.5 140.631375 "
     transform="matrix(1, 0, 0, -1, 0, 226.772)"
     id="path10" />
  <path
     fill="none"
     stroke-width="0.3685"
     stroke-linecap="round"
     stroke-linejoin="round"
     stroke="rgb(0%, 0%, 0%)"
     stroke-opacity="1"
     stroke-miterlimit="10"
     d="M 403.5 133.545437 L 410.585938 133.545437 L 403.5 140.631375 M 403.5 133.545437 L 396.414063 133.545437 L 403.5 140.631375 M 400.664063 133.545437 L 399.160156 132.041531 M 403.5 133.545437 L 401.996094 132.041531 M 406.335938 133.545437 L 404.832031 132.041531 M 409.167969 133.545437 L 407.664063 132.041531 M 397.832031 133.545437 L 396.328125 132.041531 M 28.902344 127.971219 L 35.988281 127.971219 L 28.902344 135.057156 M 28.902344 127.971219 L 21.816406 127.971219 L 28.902344 135.057156 M 26.066406 127.971219 L 24.5625 126.467312 M 28.902344 127.971219 L 27.398438 126.467312 M 31.738281 127.971219 L 30.234375 126.467312 M 34.570313 127.971219 L 33.066406 126.467312 M 23.234375 127.971219 L 21.730469 126.467312 M 245.898438 14.518094 L 252.984375 14.518094 L 245.898438 21.604031 M 245.898438 14.518094 L 238.8125 14.518094 L 245.898438 21.604031 M 238.8125 12.748562 L 252.984375 12.748562 "
     transform="matrix(1, 0, 0, -1, 0, 226.772)"
     id="path11" />
  <path
     fill="none"
     stroke-width="0.70866"
     stroke-linecap="round"
     stroke-linejoin="round"
     stroke="rgb(0%, 0%, 0%)"
     stroke-opacity="1"
     stroke-miterlimit="10"
     d="M 28.902344 135.057156 L 245.898438 21.604031 "
     transform="matrix(1, 0, 0, -1, 0, 226.772)"
     id="path12" />
  <path
     fill="none"
     stroke-width="0.3685"
     stroke-linecap="round"
     stroke-linejoin="round"
     stroke="rgb(0%, 0%, 0%)"
     stroke-opacity="1"
     stroke-miterlimit="10"
     d="M 66.421875 147.975125 L 73.507813 147.975125 L 66.421875 155.064969 M 66.421875 147.975125 L 59.335938 147.975125 L 66.421875 155.064969 M 63.585938 147.975125 L 62.082031 146.475125 M 66.421875 147.975125 L 64.917969 146.475125 M 69.253906 147.975125 L 67.753906 146.475125 M 72.089844 147.975125 L 70.585938 146.475125 M 60.75 147.975125 L 59.25 146.475125 M 283.417969 34.522 L 290.503906 34.522 L 283.417969 41.611844 M 283.417969 34.522 L 276.332031 34.522 L 283.417969 41.611844 M 276.332031 32.752469 L 290.503906 32.752469 "
     transform="matrix(1, 0, 0, -1, 0, 226.772)"
     id="path13" />
  <path
     fill="none"
     stroke-width="0.70866"
     stroke-linecap="round"
     stroke-linejoin="round"
     stroke="rgb(0%, 0%, 0%)"
     stroke-opacity="1"
     stroke-miterlimit="10"
     d="M 66.421875 155.064969 L 283.417969 41.611844 "
     transform="matrix(1, 0, 0, -1, 0, 226.772)"
     id="path14" />
  <path
     fill="none"
     stroke-width="0.3685"
     stroke-linecap="round"
     stroke-linejoin="round"
     stroke="rgb(0%, 0%, 0%)"
     stroke-opacity="1"
     stroke-miterlimit="10"
     d="M 103.941406 167.982937 L 111.027344 167.982937 L 103.941406 175.068875 M 103.941406 167.982937 L 96.855469 167.982937 L 103.941406 175.068875 M 101.105469 167.982937 L 99.601563 166.479031 M 103.941406 167.982937 L 102.4375 166.479031 M 106.773438 167.982937 L 105.273438 166.479031 M 109.609375 167.982937 L 108.105469 166.479031 M 98.269531 167.982937 L 96.769531 166.479031 M 320.9375 54.529812 L 328.023438 54.529812 L 320.9375 61.61575 M 320.9375 54.529812 L 313.851563 54.529812 L 320.9375 61.61575 M 313.851563 52.756375 L 328.023438 52.756375 "
     transform="matrix(1, 0, 0, -1, 0, 226.772)"
     id="path15" />
  <path
     fill="none"
     stroke-width="0.70866"
     stroke-linecap="round"
     stroke-linejoin="round"
     stroke="rgb(0%, 0%, 0%)"
     stroke-opacity="1"
     stroke-miterlimit="10"
     d="M 103.941406 175.068875 L 320.9375 61.61575 "
     transform="matrix(1, 0, 0, -1, 0, 226.772)"
     id="path16" />
  <path
     fill="none"
     stroke-width="0.3685"
     stroke-linecap="round"
     stroke-linejoin="round"
     stroke="rgb(0%, 0%, 0%)"
     stroke-opacity="1"
     stroke-miterlimit="10"
     d="M 141.460938 187.986844 L 148.546875 187.986844 L 141.460938 195.072781 M 141.460938 187.986844 L 134.375 187.986844 L 141.460938 195.072781 M 138.625 187.986844 L 137.121094 186.482937 M 141.460938 187.986844 L 139.957031 186.482937 M 144.292969 187.986844 L 142.792969 186.482937 M 147.128906 187.986844 L 145.625 186.482937 M 135.789063 187.986844 L 134.289063 186.482937 M 358.457031 74.533719 L 365.542969 74.533719 L 358.457031 81.623562 M 358.457031 74.533719 L 351.371094 74.533719 L 358.457031 81.623562 M 351.371094 72.764187 L 365.542969 72.764187 "
     transform="matrix(1, 0, 0, -1, 0, 226.772)"
     id="path17" />
  <path
     fill="none"
     stroke-width="0.70866"
     stroke-linecap="round"
     stroke-linejoin="round"
     stroke="rgb(0%, 0%, 0%)"
     stroke-opacity="1"
     stroke-miterlimit="10"
     d="M 141.460938 195.072781 L 358.457031 81.623562 "
     transform="matrix(1, 0, 0, -1, 0, 226.772)"
     id="path18" />
  <path
     fill="none"
     stroke-width="0.3685"
     stroke-linecap="round"
     stroke-linejoin="round"
     stroke="rgb(0%, 0%, 0%)"
     stroke-opacity="1"
     stroke-miterlimit="10"
     d="M 178.980469 207.994656 L 186.066406 207.994656 L 178.980469 215.080594 M 178.980469 207.994656 L 171.890625 207.994656 L 178.980469 215.080594 M 176.144531 207.994656 L 174.640625 206.49075 M 178.980469 207.994656 L 177.476563 206.49075 M 181.8125 207.994656 L 180.308594 206.49075 M 184.648438 207.994656 L 183.144531 206.49075 M 173.308594 207.994656 L 171.804688 206.49075 M 395.976563 94.541531 L 403.0625 94.541531 L 395.976563 101.627469 M 395.976563 94.541531 L 388.890625 94.541531 L 395.976563 101.627469 M 388.890625 92.768094 L 403.0625 92.768094 "
     transform="matrix(1, 0, 0, -1, 0, 226.772)"
     id="path19" />
  <path
     fill="none"
     stroke-width="0.70866"
     stroke-linecap="round"
     stroke-linejoin="round"
     stroke="rgb(0%, 0%, 0%)"
     stroke-opacity="1"
     stroke-miterlimit="10"
     d="M 178.980469 215.080594 L 395.976563 101.627469 "
     transform="matrix(1, 0, 0, -1, 0, 226.772)"
     id="path20" />
</svg>
