<?xml version="1.0" encoding="utf-8" standalone="no"?>
<!DOCTYPE svg PUBLIC "-//W3C//DTD SVG 1.1//EN"
  "http://www.w3.org/Graphics/SVG/1.1/DTD/svg11.dtd">
<svg xmlns:xlink="http://www.w3.org/1999/xlink" width="411.499174pt" height="165.110845pt" viewBox="0 0 411.499174 165.110845" xmlns="http://www.w3.org/2000/svg" version="1.1">
 <metadata>
  <rdf:RDF xmlns:dc="http://purl.org/dc/elements/1.1/" xmlns:cc="http://creativecommons.org/ns#" xmlns:rdf="http://www.w3.org/1999/02/22-rdf-syntax-ns#">
   <cc:Work>
    <dc:type rdf:resource="http://purl.org/dc/dcmitype/StillImage"/>
    <dc:date>2024-01-15T17:20:24.651661</dc:date>
    <dc:format>image/svg+xml</dc:format>
    <dc:creator>
     <cc:Agent>
      <dc:title>Matplotlib v3.8.2, https://matplotlib.org/</dc:title>
     </cc:Agent>
    </dc:creator>
   </cc:Work>
  </rdf:RDF>
 </metadata>
 <defs>
  <style type="text/css">*{stroke-linejoin: round; stroke-linecap: butt}</style>
 </defs>
 <g id="figure_1">
  <g id="patch_1">
   <path d="M 0 165.110845 
L 411.499174 165.110845 
L 411.499174 0 
L 0 0 
z
" style="fill: #ffffff"/>
  </g>
  <g id="axes_1">
   <g id="patch_2">
    <path d="M 41.599174 129.6 
L 404.299174 129.6 
L 404.299174 7.2 
L 41.599174 7.2 
z
" style="fill: #ffffff"/>
   </g>
   <g id="matplotlib.axis_1">
    <g id="xtick_1">
     <g id="line2d_1">
      <path d="M 58.085538 129.6 
L 58.085538 7.2 
" clip-path="url(#pbf6e735a0a)" style="fill: none; stroke: #d3d3d3; stroke-width: 0.2; stroke-linecap: square"/>
     </g>
     <g id="line2d_2">
      <defs>
       <path id="m9be48a757b" d="M 0 0 
L 0 -3.5 
" style="stroke: #000000; stroke-width: 0.8"/>
      </defs>
      <g>
       <use xlink:href="#m9be48a757b" x="58.085538" y="129.6" style="stroke: #000000; stroke-width: 0.8"/>
      </g>
     </g>
     <g id="text_1">
      <!-- $\mathdefault{0}$ -->
      <g transform="translate(55.59487 140.018498) scale(0.1 -0.1)">
       <defs>
        <path id="CMR17-30" d="M 2688 2038 
C 2688 2430 2682 3099 2413 3613 
C 2176 4063 1798 4224 1466 4224 
C 1158 4224 768 4082 525 3620 
C 269 3137 243 2539 243 2038 
C 243 1671 250 1112 448 623 
C 723 -39 1216 -128 1466 -128 
C 1760 -128 2208 -7 2470 604 
C 2662 1048 2688 1568 2688 2038 
z
M 1466 -26 
C 1056 -26 813 328 723 816 
C 653 1196 653 1749 653 2109 
C 653 2604 653 3015 736 3407 
C 858 3954 1216 4121 1466 4121 
C 1728 4121 2067 3947 2189 3420 
C 2272 3054 2278 2623 2278 2109 
C 2278 1691 2278 1176 2202 797 
C 2067 96 1690 -26 1466 -26 
z
" transform="scale(0.015625)"/>
       </defs>
       <use xlink:href="#CMR17-30" transform="scale(0.996264)"/>
      </g>
     </g>
    </g>
    <g id="xtick_2">
     <g id="line2d_3">
      <path d="M 102.154099 129.6 
L 102.154099 7.2 
" clip-path="url(#pbf6e735a0a)" style="fill: none; stroke: #d3d3d3; stroke-width: 0.2; stroke-linecap: square"/>
     </g>
     <g id="line2d_4">
      <g>
       <use xlink:href="#m9be48a757b" x="102.154099" y="129.6" style="stroke: #000000; stroke-width: 0.8"/>
      </g>
     </g>
     <g id="text_2">
      <!-- $\mathdefault{5}$ -->
      <g transform="translate(99.663431 140.018498) scale(0.1 -0.1)">
       <defs>
        <path id="CMR17-35" d="M 730 3750 
C 794 3724 1056 3641 1325 3641 
C 1920 3641 2246 3961 2432 4140 
C 2432 4191 2432 4224 2394 4224 
C 2387 4224 2374 4224 2323 4198 
C 2099 4102 1837 4032 1517 4032 
C 1325 4032 1037 4055 723 4191 
C 653 4224 640 4224 634 4224 
C 602 4224 595 4217 595 4090 
L 595 2231 
C 595 2113 595 2080 659 2080 
C 691 2080 704 2093 736 2139 
C 941 2435 1222 2560 1542 2560 
C 1766 2560 2246 2415 2246 1293 
C 2246 1087 2246 716 2054 422 
C 1894 159 1645 25 1370 25 
C 947 25 518 319 403 812 
C 429 806 480 793 506 793 
C 589 793 749 838 749 1036 
C 749 1209 627 1280 506 1280 
C 358 1280 262 1190 262 1011 
C 262 454 704 -128 1382 -128 
C 2042 -128 2669 441 2669 1267 
C 2669 2054 2170 2662 1549 2662 
C 1222 2662 947 2540 730 2304 
L 730 3750 
z
" transform="scale(0.015625)"/>
       </defs>
       <use xlink:href="#CMR17-35" transform="scale(0.996264)"/>
      </g>
     </g>
    </g>
    <g id="xtick_3">
     <g id="line2d_5">
      <path d="M 146.222661 129.6 
L 146.222661 7.2 
" clip-path="url(#pbf6e735a0a)" style="fill: none; stroke: #d3d3d3; stroke-width: 0.2; stroke-linecap: square"/>
     </g>
     <g id="line2d_6">
      <g>
       <use xlink:href="#m9be48a757b" x="146.222661" y="129.6" style="stroke: #000000; stroke-width: 0.8"/>
      </g>
     </g>
     <g id="text_3">
      <!-- $\mathdefault{10}$ -->
      <g transform="translate(141.241325 140.018498) scale(0.1 -0.1)">
       <defs>
        <path id="CMR17-31" d="M 1702 4083 
C 1702 4217 1696 4224 1606 4224 
C 1357 3927 979 3833 621 3820 
C 602 3820 570 3820 563 3808 
C 557 3795 557 3782 557 3648 
C 755 3648 1088 3686 1344 3839 
L 1344 467 
C 1344 243 1331 166 781 166 
L 589 166 
L 589 0 
C 896 6 1216 12 1523 12 
C 1830 12 2150 6 2458 0 
L 2458 166 
L 2266 166 
C 1715 166 1702 236 1702 467 
L 1702 4083 
z
" transform="scale(0.015625)"/>
       </defs>
       <use xlink:href="#CMR17-31" transform="scale(0.996264)"/>
       <use xlink:href="#CMR17-30" transform="translate(45.690477 0) scale(0.996264)"/>
      </g>
     </g>
    </g>
    <g id="xtick_4">
     <g id="line2d_7">
      <path d="M 190.291222 129.6 
L 190.291222 7.2 
" clip-path="url(#pbf6e735a0a)" style="fill: none; stroke: #d3d3d3; stroke-width: 0.2; stroke-linecap: square"/>
     </g>
     <g id="line2d_8">
      <g>
       <use xlink:href="#m9be48a757b" x="190.291222" y="129.6" style="stroke: #000000; stroke-width: 0.8"/>
      </g>
     </g>
     <g id="text_4">
      <!-- $\mathdefault{15}$ -->
      <g transform="translate(185.309887 140.018498) scale(0.1 -0.1)">
       <use xlink:href="#CMR17-31" transform="scale(0.996264)"/>
       <use xlink:href="#CMR17-35" transform="translate(45.690477 0) scale(0.996264)"/>
      </g>
     </g>
    </g>
    <g id="xtick_5">
     <g id="line2d_9">
      <path d="M 234.359784 129.6 
L 234.359784 7.2 
" clip-path="url(#pbf6e735a0a)" style="fill: none; stroke: #d3d3d3; stroke-width: 0.2; stroke-linecap: square"/>
     </g>
     <g id="line2d_10">
      <g>
       <use xlink:href="#m9be48a757b" x="234.359784" y="129.6" style="stroke: #000000; stroke-width: 0.8"/>
      </g>
     </g>
     <g id="text_5">
      <!-- $\mathdefault{20}$ -->
      <g transform="translate(229.378448 140.018498) scale(0.1 -0.1)">
       <defs>
        <path id="CMR17-32" d="M 2669 990 
L 2554 990 
C 2490 537 2438 460 2413 422 
C 2381 371 1920 371 1830 371 
L 602 371 
C 832 620 1280 1073 1824 1596 
C 2214 1966 2669 2400 2669 3033 
C 2669 3788 2067 4224 1395 4224 
C 691 4224 262 3603 262 3027 
C 262 2777 448 2745 525 2745 
C 589 2745 781 2783 781 3007 
C 781 3206 614 3264 525 3264 
C 486 3264 448 3257 422 3244 
C 544 3788 915 4057 1306 4057 
C 1862 4057 2227 3616 2227 3033 
C 2227 2477 1901 1998 1536 1583 
L 262 147 
L 262 0 
L 2515 0 
L 2669 990 
z
" transform="scale(0.015625)"/>
       </defs>
       <use xlink:href="#CMR17-32" transform="scale(0.996264)"/>
       <use xlink:href="#CMR17-30" transform="translate(45.690477 0) scale(0.996264)"/>
      </g>
     </g>
    </g>
    <g id="xtick_6">
     <g id="line2d_11">
      <path d="M 278.428345 129.6 
L 278.428345 7.2 
" clip-path="url(#pbf6e735a0a)" style="fill: none; stroke: #d3d3d3; stroke-width: 0.2; stroke-linecap: square"/>
     </g>
     <g id="line2d_12">
      <g>
       <use xlink:href="#m9be48a757b" x="278.428345" y="129.6" style="stroke: #000000; stroke-width: 0.8"/>
      </g>
     </g>
     <g id="text_6">
      <!-- $\mathdefault{25}$ -->
      <g transform="translate(273.44701 140.018498) scale(0.1 -0.1)">
       <use xlink:href="#CMR17-32" transform="scale(0.996264)"/>
       <use xlink:href="#CMR17-35" transform="translate(45.690477 0) scale(0.996264)"/>
      </g>
     </g>
    </g>
    <g id="xtick_7">
     <g id="line2d_13">
      <path d="M 322.496907 129.6 
L 322.496907 7.2 
" clip-path="url(#pbf6e735a0a)" style="fill: none; stroke: #d3d3d3; stroke-width: 0.2; stroke-linecap: square"/>
     </g>
     <g id="line2d_14">
      <g>
       <use xlink:href="#m9be48a757b" x="322.496907" y="129.6" style="stroke: #000000; stroke-width: 0.8"/>
      </g>
     </g>
     <g id="text_7">
      <!-- $\mathdefault{30}$ -->
      <g transform="translate(317.515571 140.018498) scale(0.1 -0.1)">
       <defs>
        <path id="CMR17-33" d="M 1414 2176 
C 1984 2176 2234 1673 2234 1094 
C 2234 322 1824 25 1453 25 
C 1114 25 563 193 390 691 
C 422 678 454 678 486 678 
C 640 678 755 780 755 947 
C 755 1132 614 1216 486 1216 
C 378 1216 211 1164 211 927 
C 211 335 787 -128 1466 -128 
C 2176 -128 2720 432 2720 1087 
C 2720 1718 2208 2176 1600 2246 
C 2086 2347 2554 2776 2554 3353 
C 2554 3856 2048 4224 1472 4224 
C 890 4224 378 3862 378 3347 
C 378 3123 544 3084 627 3084 
C 762 3084 877 3167 877 3334 
C 877 3500 762 3584 627 3584 
C 602 3584 570 3584 544 3571 
C 730 3999 1235 4076 1459 4076 
C 1683 4076 2106 3966 2106 3347 
C 2106 3167 2080 2851 1862 2574 
C 1670 2329 1453 2316 1242 2297 
C 1210 2297 1062 2284 1037 2284 
C 992 2278 966 2272 966 2227 
C 966 2182 973 2176 1101 2176 
L 1414 2176 
z
" transform="scale(0.015625)"/>
       </defs>
       <use xlink:href="#CMR17-33" transform="scale(0.996264)"/>
       <use xlink:href="#CMR17-30" transform="translate(45.690477 0) scale(0.996264)"/>
      </g>
     </g>
    </g>
    <g id="xtick_8">
     <g id="line2d_15">
      <path d="M 366.565468 129.6 
L 366.565468 7.2 
" clip-path="url(#pbf6e735a0a)" style="fill: none; stroke: #d3d3d3; stroke-width: 0.2; stroke-linecap: square"/>
     </g>
     <g id="line2d_16">
      <g>
       <use xlink:href="#m9be48a757b" x="366.565468" y="129.6" style="stroke: #000000; stroke-width: 0.8"/>
      </g>
     </g>
     <g id="text_8">
      <!-- $\mathdefault{35}$ -->
      <g transform="translate(361.584133 140.018498) scale(0.1 -0.1)">
       <use xlink:href="#CMR17-33" transform="scale(0.996264)"/>
       <use xlink:href="#CMR17-35" transform="translate(45.690477 0) scale(0.996264)"/>
      </g>
     </g>
    </g>
    <g id="text_9">
     <!-- $w_{1}$ [mm] -->
     <g transform="translate(201.441457 154.922053) scale(0.12 -0.12)">
      <defs>
       <path id="CMMI12-77" d="M 2202 389 
C 2342 6 2739 -64 2982 -64 
C 3469 -64 3757 357 3936 798 
C 4083 1168 4320 2011 4320 2388 
C 4320 2777 4122 2816 4064 2816 
C 3910 2816 3770 2662 3770 2534 
C 3770 2458 3814 2413 3846 2388 
C 3904 2330 4070 2158 4070 1826 
C 4070 1609 3891 1008 3757 708 
C 3578 319 3341 64 3008 64 
C 2650 64 2534 332 2534 625 
C 2534 810 2592 1034 2618 1142 
L 2886 2215 
C 2918 2343 2976 2566 2976 2591 
C 2976 2687 2899 2752 2803 2752 
C 2618 2752 2573 2591 2534 2438 
C 2470 2189 2202 1110 2176 970 
C 2150 861 2150 791 2150 651 
C 2150 498 1946 255 1939 242 
C 1869 172 1766 64 1568 64 
C 1062 64 1062 542 1062 651 
C 1062 855 1107 1136 1395 1896 
C 1472 2094 1504 2177 1504 2305 
C 1504 2573 1312 2816 998 2816 
C 410 2816 173 1890 173 1838 
C 173 1813 198 1781 243 1781 
C 301 1781 307 1807 333 1896 
C 493 2458 742 2687 979 2687 
C 1043 2687 1146 2681 1146 2477 
C 1146 2445 1146 2311 1037 2030 
C 736 1232 672 970 672 728 
C 672 57 1222 -64 1549 -64 
C 1658 -64 1946 -64 2202 389 
z
" transform="scale(0.015625)"/>
       <path id="CMR17-5b" d="M 1504 -1600 
L 1504 -1376 
L 902 -1376 
L 902 4575 
L 1504 4575 
L 1504 4800 
L 678 4800 
L 678 -1600 
L 1504 -1600 
z
" transform="scale(0.015625)"/>
       <path id="CMR17-6d" d="M 4326 1954 
C 4326 2276 4269 2816 3507 2816 
C 3072 2816 2771 2520 2656 2173 
L 2650 2173 
C 2573 2700 2195 2816 1837 2816 
C 1331 2816 1069 2424 973 2166 
L 966 2166 
L 966 2816 
L 211 2745 
L 211 2578 
C 589 2578 646 2540 646 2231 
L 646 443 
C 646 198 621 166 211 166 
L 211 0 
C 365 12 646 12 813 12 
C 979 12 1267 12 1421 0 
L 1421 166 
C 1011 166 986 192 986 443 
L 986 1678 
C 986 2269 1344 2713 1792 2713 
C 2266 2713 2317 2289 2317 1980 
L 2317 443 
C 2317 198 2291 166 1882 166 
L 1882 0 
C 2035 12 2317 12 2483 12 
C 2650 12 2938 12 3091 0 
L 3091 166 
C 2682 166 2656 192 2656 443 
L 2656 1678 
C 2656 2269 3014 2713 3462 2713 
C 3936 2713 3987 2289 3987 1980 
L 3987 443 
C 3987 198 3962 166 3552 166 
L 3552 0 
C 3706 12 3987 12 4154 12 
C 4320 12 4608 12 4762 0 
L 4762 166 
C 4352 166 4326 192 4326 443 
L 4326 1954 
z
" transform="scale(0.015625)"/>
       <path id="CMR17-5d" d="M 915 4800 
L 90 4800 
L 90 4575 
L 691 4575 
L 691 -1376 
L 90 -1376 
L 90 -1600 
L 915 -1600 
L 915 4800 
z
" transform="scale(0.015625)"/>
      </defs>
      <use xlink:href="#CMMI12-77" transform="scale(0.996264)"/>
      <use xlink:href="#CMR17-31" transform="translate(69.73199 -14.943915) scale(0.697382)"/>
      <use xlink:href="#CMR17-5b" transform="translate(132.28927 0) scale(0.996264)"/>
      <use xlink:href="#CMR17-6d" transform="translate(157.160328 0) scale(0.996264)"/>
      <use xlink:href="#CMR17-6d" transform="translate(234.079918 0) scale(0.996264)"/>
      <use xlink:href="#CMR17-5d" transform="translate(310.999508 0) scale(0.996264)"/>
     </g>
    </g>
   </g>
   <g id="matplotlib.axis_2">
    <g id="ytick_1">
     <g id="line2d_17">
      <path d="M 41.599174 124.036364 
L 404.299174 124.036364 
" clip-path="url(#pbf6e735a0a)" style="fill: none; stroke: #d3d3d3; stroke-width: 0.2; stroke-linecap: square"/>
     </g>
     <g id="line2d_18">
      <defs>
       <path id="m020048b176" d="M 0 0 
L 3.5 0 
" style="stroke: #000000; stroke-width: 0.8"/>
      </defs>
      <g>
       <use xlink:href="#m020048b176" x="41.599174" y="124.036364" style="stroke: #000000; stroke-width: 0.8"/>
      </g>
     </g>
     <g id="text_10">
      <!-- $\mathdefault{0}$ -->
      <g transform="translate(33.117839 127.495613) scale(0.1 -0.1)">
       <use xlink:href="#CMR17-30" transform="scale(0.996264)"/>
      </g>
     </g>
    </g>
    <g id="ytick_2">
     <g id="line2d_19">
      <path d="M 41.599174 102.841558 
L 404.299174 102.841558 
" clip-path="url(#pbf6e735a0a)" style="fill: none; stroke: #d3d3d3; stroke-width: 0.2; stroke-linecap: square"/>
     </g>
     <g id="line2d_20">
      <g>
       <use xlink:href="#m020048b176" x="41.599174" y="102.841558" style="stroke: #000000; stroke-width: 0.8"/>
      </g>
     </g>
     <g id="text_11">
      <!-- $\mathdefault{20}$ -->
      <g transform="translate(28.136503 106.300808) scale(0.1 -0.1)">
       <use xlink:href="#CMR17-32" transform="scale(0.996264)"/>
       <use xlink:href="#CMR17-30" transform="translate(45.690477 0) scale(0.996264)"/>
      </g>
     </g>
    </g>
    <g id="ytick_3">
     <g id="line2d_21">
      <path d="M 41.599174 81.646753 
L 404.299174 81.646753 
" clip-path="url(#pbf6e735a0a)" style="fill: none; stroke: #d3d3d3; stroke-width: 0.2; stroke-linecap: square"/>
     </g>
     <g id="line2d_22">
      <g>
       <use xlink:href="#m020048b176" x="41.599174" y="81.646753" style="stroke: #000000; stroke-width: 0.8"/>
      </g>
     </g>
     <g id="text_12">
      <!-- $\mathdefault{40}$ -->
      <g transform="translate(28.136503 85.106002) scale(0.1 -0.1)">
       <defs>
        <path id="CMR17-34" d="M 2150 4147 
C 2150 4281 2144 4288 2029 4288 
L 128 1254 
L 128 1088 
L 1779 1088 
L 1779 460 
C 1779 230 1766 166 1318 166 
L 1197 166 
L 1197 0 
C 1402 12 1747 12 1965 12 
C 2182 12 2528 12 2733 0 
L 2733 166 
L 2611 166 
C 2163 166 2150 230 2150 460 
L 2150 1088 
L 2803 1088 
L 2803 1254 
L 2150 1254 
L 2150 4147 
z
M 1798 3723 
L 1798 1254 
L 256 1254 
L 1798 3723 
z
" transform="scale(0.015625)"/>
       </defs>
       <use xlink:href="#CMR17-34" transform="scale(0.996264)"/>
       <use xlink:href="#CMR17-30" transform="translate(45.690477 0) scale(0.996264)"/>
      </g>
     </g>
    </g>
    <g id="ytick_4">
     <g id="line2d_23">
      <path d="M 41.599174 60.451948 
L 404.299174 60.451948 
" clip-path="url(#pbf6e735a0a)" style="fill: none; stroke: #d3d3d3; stroke-width: 0.2; stroke-linecap: square"/>
     </g>
     <g id="line2d_24">
      <g>
       <use xlink:href="#m020048b176" x="41.599174" y="60.451948" style="stroke: #000000; stroke-width: 0.8"/>
      </g>
     </g>
     <g id="text_13">
      <!-- $\mathdefault{60}$ -->
      <g transform="translate(28.136503 63.911197) scale(0.1 -0.1)">
       <defs>
        <path id="CMR17-36" d="M 678 2198 
C 678 3712 1395 4076 1811 4076 
C 1946 4076 2272 4049 2400 3782 
C 2298 3782 2106 3782 2106 3558 
C 2106 3385 2246 3328 2336 3328 
C 2394 3328 2566 3353 2566 3571 
C 2566 3987 2246 4224 1805 4224 
C 1043 4224 243 3411 243 2011 
C 243 257 966 -128 1478 -128 
C 2099 -128 2688 431 2688 1295 
C 2688 2101 2170 2688 1517 2688 
C 1126 2688 838 2430 678 1979 
L 678 2198 
z
M 1478 25 
C 691 25 691 1212 691 1450 
C 691 1914 909 2585 1504 2585 
C 1613 2585 1926 2585 2138 2140 
C 2253 1889 2253 1624 2253 1302 
C 2253 954 2253 696 2118 438 
C 1978 173 1773 25 1478 25 
z
" transform="scale(0.015625)"/>
       </defs>
       <use xlink:href="#CMR17-36" transform="scale(0.996264)"/>
       <use xlink:href="#CMR17-30" transform="translate(45.690477 0) scale(0.996264)"/>
      </g>
     </g>
    </g>
    <g id="ytick_5">
     <g id="line2d_25">
      <path d="M 41.599174 39.257143 
L 404.299174 39.257143 
" clip-path="url(#pbf6e735a0a)" style="fill: none; stroke: #d3d3d3; stroke-width: 0.2; stroke-linecap: square"/>
     </g>
     <g id="line2d_26">
      <g>
       <use xlink:href="#m020048b176" x="41.599174" y="39.257143" style="stroke: #000000; stroke-width: 0.8"/>
      </g>
     </g>
     <g id="text_14">
      <!-- $\mathdefault{80}$ -->
      <g transform="translate(28.136503 42.716392) scale(0.1 -0.1)">
       <defs>
        <path id="CMR17-38" d="M 1741 2289 
C 2144 2494 2554 2803 2554 3298 
C 2554 3884 1990 4224 1472 4224 
C 890 4224 378 3800 378 3215 
C 378 3054 416 2777 666 2533 
C 730 2469 998 2276 1171 2154 
C 883 2006 211 1652 211 945 
C 211 282 838 -128 1459 -128 
C 2144 -128 2720 366 2720 1022 
C 2720 1607 2330 1877 2074 2051 
L 1741 2289 
z
M 902 2855 
C 851 2887 595 3086 595 3388 
C 595 3781 998 4076 1459 4076 
C 1965 4076 2336 3716 2336 3298 
C 2336 2700 1670 2359 1638 2359 
C 1632 2359 1626 2359 1574 2398 
L 902 2855 
z
M 2080 1536 
C 2176 1466 2483 1253 2483 861 
C 2483 385 2010 25 1472 25 
C 890 25 448 443 448 951 
C 448 1459 838 1884 1280 2083 
L 2080 1536 
z
" transform="scale(0.015625)"/>
       </defs>
       <use xlink:href="#CMR17-38" transform="scale(0.996264)"/>
       <use xlink:href="#CMR17-30" transform="translate(45.690477 0) scale(0.996264)"/>
      </g>
     </g>
    </g>
    <g id="ytick_6">
     <g id="line2d_27">
      <path d="M 41.599174 18.062338 
L 404.299174 18.062338 
" clip-path="url(#pbf6e735a0a)" style="fill: none; stroke: #d3d3d3; stroke-width: 0.2; stroke-linecap: square"/>
     </g>
     <g id="line2d_28">
      <g>
       <use xlink:href="#m020048b176" x="41.599174" y="18.062338" style="stroke: #000000; stroke-width: 0.8"/>
      </g>
     </g>
     <g id="text_15">
      <!-- $\mathdefault{100}$ -->
      <g transform="translate(23.155168 21.521587) scale(0.1 -0.1)">
       <use xlink:href="#CMR17-31" transform="scale(0.996264)"/>
       <use xlink:href="#CMR17-30" transform="translate(45.690477 0) scale(0.996264)"/>
       <use xlink:href="#CMR17-30" transform="translate(91.380954 0) scale(0.996264)"/>
      </g>
     </g>
    </g>
    <g id="text_16">
     <!-- $F_{A}$ [kN] -->
     <g transform="translate(16.166376 88.288849) rotate(-90) scale(0.12 -0.12)">
      <defs>
       <path id="CMMI12-46" d="M 1901 2054 
L 2515 2054 
C 3002 2054 3040 1947 3040 1764 
C 3040 1683 3027 1595 2995 1456 
C 2982 1431 2976 1399 2976 1387 
C 2976 1343 3002 1318 3046 1318 
C 3098 1318 3104 1343 3130 1444 
L 3501 2929 
C 3501 2955 3482 2993 3437 2993 
C 3379 2993 3373 2968 3347 2858 
C 3213 2375 3085 2240 2528 2240 
L 1946 2240 
L 2362 3908 
C 2419 4134 2432 4153 2694 4153 
L 3552 4153 
C 4352 4153 4467 3915 4467 3457 
C 4467 3419 4467 3277 4448 3109 
C 4442 3084 4429 3000 4429 2974 
C 4429 2922 4461 2903 4499 2903 
C 4544 2903 4570 2929 4582 3045 
L 4717 4172 
C 4717 4191 4730 4255 4730 4268 
C 4730 4339 4672 4339 4557 4339 
L 1523 4339 
C 1402 4339 1338 4339 1338 4223 
C 1338 4153 1382 4153 1491 4153 
C 1888 4153 1888 4108 1888 4037 
C 1888 4005 1882 3979 1862 3908 
L 998 468 
C 941 248 928 185 480 185 
C 358 185 294 185 294 70 
C 294 0 352 0 390 0 
C 512 0 640 12 762 12 
L 1594 12 
C 1734 12 1888 0 2029 0 
C 2086 0 2163 0 2163 115 
C 2163 185 2125 185 1984 185 
C 1478 185 1466 229 1466 324 
C 1466 355 1478 405 1491 449 
L 1901 2054 
z
" transform="scale(0.015625)"/>
       <path id="CMMI12-41" d="M 1088 720 
C 864 335 646 205 339 185 
C 269 179 218 179 218 64 
C 218 25 250 0 294 0 
C 410 0 698 12 813 12 
C 998 12 1203 0 1382 0 
C 1421 0 1498 0 1498 121 
C 1498 179 1446 185 1408 185 
C 1261 198 1139 250 1139 407 
C 1139 498 1178 570 1261 714 
L 1747 1536 
L 3379 1536 
C 3386 1477 3386 1425 3392 1366 
C 3411 1196 3488 518 3488 394 
C 3488 198 3162 185 3059 185 
C 2989 185 2918 185 2918 70 
C 2918 0 2976 0 3014 0 
C 3123 0 3251 12 3360 12 
L 3725 12 
C 4115 12 4397 0 4403 0 
C 4448 0 4518 0 4518 121 
C 4518 185 4461 185 4365 185 
C 4013 185 4006 244 3987 440 
L 3597 4403 
C 3584 4531 3558 4544 3488 4544 
C 3424 4544 3386 4531 3328 4435 
L 1088 720 
z
M 1856 1721 
L 3142 3831 
L 3360 1721 
L 1856 1721 
z
" transform="scale(0.015625)"/>
       <path id="CMR17-6b" d="M 1670 1679 
C 1664 1692 1632 1730 1632 1749 
C 1632 1762 2086 2175 2144 2226 
C 2509 2532 2739 2563 2906 2570 
L 2906 2735 
C 2867 2735 2854 2735 2848 2729 
L 2534 2722 
C 2355 2722 2080 2722 1907 2735 
L 1907 2570 
C 1997 2563 2061 2513 2061 2423 
C 2061 2296 1933 2175 1926 2175 
L 960 1298 
L 960 4416 
L 198 4345 
L 198 4179 
C 576 4179 634 4141 634 3835 
L 634 439 
C 634 198 608 166 198 166 
L 198 0 
C 352 12 634 12 794 12 
C 954 12 1235 12 1389 0 
L 1389 166 
C 979 166 954 191 954 439 
L 954 1139 
L 1395 1540 
L 2042 586 
C 2118 471 2182 382 2182 299 
C 2182 185 2067 166 1990 166 
L 1990 0 
C 2144 12 2419 12 2579 12 
C 2694 12 2931 6 3040 0 
L 3040 166 
C 2739 166 2669 223 2477 503 
L 1670 1679 
z
" transform="scale(0.015625)"/>
       <path id="CMR17-4e" d="M 1312 4275 
C 1267 4345 1261 4352 1139 4352 
L 326 4352 
L 326 4185 
L 448 4185 
C 704 4185 819 4153 838 4147 
L 838 624 
C 838 465 838 166 326 166 
L 326 0 
C 474 12 742 12 902 12 
C 1062 12 1331 12 1478 0 
L 1478 166 
C 966 166 966 465 966 624 
L 966 4057 
C 1011 4019 1011 4007 1056 3943 
L 3430 76 
C 3475 0 3494 0 3526 0 
C 3590 0 3590 19 3590 140 
L 3590 3726 
C 3590 3885 3590 4185 4102 4185 
L 4102 4352 
C 3955 4339 3686 4339 3526 4339 
C 3366 4339 3098 4339 2950 4352 
L 2950 4185 
C 3462 4185 3462 3885 3462 3726 
L 3462 777 
L 1312 4275 
z
" transform="scale(0.015625)"/>
      </defs>
      <use xlink:href="#CMMI12-46" transform="scale(0.996264)"/>
      <use xlink:href="#CMMI12-41" transform="translate(63.148204 -14.943915) scale(0.697382)"/>
      <use xlink:href="#CMR17-5b" transform="translate(144.911599 0) scale(0.996264)"/>
      <use xlink:href="#CMR17-6b" transform="translate(169.782657 0) scale(0.996264)"/>
      <use xlink:href="#CMR17-4e" transform="translate(218.075573 0) scale(0.996264)"/>
      <use xlink:href="#CMR17-5d" transform="translate(287.148003 0) scale(0.996264)"/>
     </g>
    </g>
   </g>
   <g id="line2d_29">
    <path d="M 58.086014 124.035304 
L 58.591093 122.911348 
L 59.096172 121.787391 
L 59.60125 120.663435 
L 60.106329 119.539479 
L 60.611408 118.415523 
L 61.116487 117.291566 
L 61.621566 116.16761 
L 62.126645 115.043654 
L 62.631724 113.919698 
L 63.136803 112.795742 
L 63.641882 111.671785 
L 64.146961 110.547829 
L 64.652039 109.423873 
L 65.157118 108.299917 
L 65.662197 107.17596 
L 66.167276 106.052004 
L 66.672355 104.928048 
L 67.177434 103.804092 
L 67.682513 102.680135 
L 68.187592 101.556179 
L 68.692671 100.432223 
L 69.19775 99.308267 
L 69.702828 98.18431 
L 70.207907 97.060354 
L 70.712986 95.936398 
L 71.218065 94.812442 
L 71.723144 93.688485 
L 72.228223 92.564529 
L 72.733302 91.440573 
L 73.238381 90.316617 
L 73.74346 89.192661 
L 74.248539 88.068704 
L 74.753617 86.944748 
L 75.258696 85.820792 
L 75.763775 84.696836 
L 76.268854 83.572879 
L 76.773933 82.448923 
L 77.279012 81.324967 
L 77.784091 80.201011 
L 78.28917 79.077054 
L 78.794249 77.953098 
L 79.299328 76.829142 
L 79.804406 75.705186 
L 80.309485 74.581229 
L 80.814564 73.457273 
L 81.319643 72.333317 
L 81.824722 71.209361 
L 82.329801 70.085404 
L 82.83488 68.961448 
L 83.339959 67.837492 
L 83.845038 66.713536 
L 84.350117 65.58958 
L 84.855195 64.465623 
L 85.360274 63.341667 
L 85.865353 62.217711 
L 86.370432 61.093755 
L 86.875511 59.969798 
L 87.38059 58.845842 
L 87.885669 57.721886 
L 88.390748 56.59793 
L 88.895827 55.473973 
L 89.400906 54.350017 
L 89.905984 53.226061 
L 90.411063 52.102105 
L 90.916142 50.978148 
L 91.421221 49.854192 
L 91.9263 48.730236 
L 92.431379 47.60628 
L 92.936458 46.482323 
L 93.441537 45.358367 
L 93.946616 44.234411 
L 94.451695 43.110455 
L 94.956773 41.986499 
L 95.461852 40.862542 
L 95.966931 39.738586 
L 96.47201 38.61463 
L 96.977089 37.490674 
L 97.482168 36.366717 
L 97.987247 35.242761 
L 98.492326 34.118805 
L 98.997405 32.994849 
L 99.502484 31.870892 
L 100.007562 30.746936 
L 100.512641 29.62298 
L 101.01772 28.499024 
L 101.522799 27.375067 
L 102.027878 26.251111 
L 102.532957 25.127155 
L 103.038036 24.003199 
L 103.543115 22.879243 
L 104.048194 21.755286 
L 104.553273 20.63133 
L 105.058351 19.507374 
L 105.56343 18.383418 
L 106.068509 17.259461 
L 106.573588 16.135505 
L 107.078667 15.011549 
L 107.583746 13.887593 
L 108.088825 12.763636 
" clip-path="url(#pbf6e735a0a)" style="fill: none; stroke: #000000; stroke-width: 0.7; stroke-linecap: square"/>
   </g>
   <g id="line2d_30">
    <path d="M 58.087045 124.035304 
L 59.685527 122.911348 
L 61.284008 121.787391 
L 62.88249 120.663435 
L 64.480972 119.539479 
L 66.079454 118.415523 
L 67.677936 117.291566 
L 69.276418 116.16761 
L 70.8749 115.043654 
L 72.473382 113.919698 
L 74.071863 112.795742 
L 75.670345 111.671785 
L 77.268827 110.547829 
L 78.867309 109.423873 
L 80.465791 108.299917 
L 82.064273 107.17596 
L 83.662755 106.052004 
L 85.261236 104.928048 
L 86.859718 103.804092 
L 88.4582 102.680135 
L 90.056682 101.556179 
L 91.655164 100.432223 
L 93.253646 99.308267 
L 94.852128 98.18431 
L 96.45061 97.060354 
L 98.049091 95.936398 
L 99.647573 94.812442 
L 101.246055 93.688485 
L 102.844537 92.564529 
L 104.443019 91.440573 
L 106.041501 90.316617 
L 107.639983 89.192661 
L 109.238465 88.068704 
L 110.836946 86.944748 
L 112.435428 85.820792 
L 114.03391 84.696836 
L 115.632392 83.572879 
L 117.230874 82.448923 
L 118.829356 81.324967 
L 120.427838 80.201011 
L 122.02632 79.077054 
L 123.624801 77.953098 
L 125.223283 76.829142 
L 126.821765 75.705186 
L 128.420247 74.581229 
L 130.018729 73.457273 
L 131.617211 72.333317 
L 133.215693 71.209361 
L 134.814175 70.085404 
L 136.412656 68.961448 
L 138.011138 67.837492 
L 139.60962 66.713536 
L 141.208102 65.58958 
L 142.806584 64.465623 
L 144.405066 63.341667 
L 146.003548 62.217711 
L 147.60203 61.093755 
L 149.200511 59.969798 
L 150.798993 58.845842 
L 152.397475 57.721886 
L 153.995957 56.59793 
L 155.594439 55.473973 
L 157.192921 54.350017 
L 158.791403 53.226061 
L 160.389884 52.102105 
L 161.988366 50.978148 
L 163.586848 49.854192 
L 165.18533 48.730236 
L 166.783812 47.60628 
L 168.382294 46.482323 
L 169.980776 45.358367 
L 171.579258 44.234411 
L 173.177739 43.110455 
L 174.776221 41.986499 
L 176.374703 40.862542 
L 177.973185 39.738586 
L 179.571667 38.61463 
L 181.170149 37.490674 
L 182.768631 36.366717 
L 184.367113 35.242761 
L 185.965594 34.118805 
L 187.564076 32.994849 
L 189.162558 31.870892 
L 190.76104 30.746936 
L 192.359522 29.62298 
L 193.958004 28.499024 
L 195.556486 27.375067 
L 197.154968 26.251111 
L 198.753449 25.127155 
L 200.351931 24.003199 
L 201.950413 22.879243 
L 203.548895 21.755286 
L 205.147377 20.63133 
L 206.745859 19.507374 
L 208.344341 18.383418 
L 209.942823 17.259461 
L 211.541304 16.135505 
L 213.139786 15.011549 
L 214.738268 13.887593 
L 216.33675 12.763636 
" clip-path="url(#pbf6e735a0a)" style="fill: none; stroke-dasharray: 0.7,1.155; stroke-dashoffset: 0; stroke: #000000; stroke-width: 0.7"/>
   </g>
   <g id="line2d_31">
    <path d="M 58.08787 124.035304 
L 60.561338 122.911348 
L 63.034807 121.787391 
L 65.508275 120.663435 
L 67.981744 119.539479 
L 70.455212 118.415523 
L 72.928681 117.291566 
L 75.402149 116.16761 
L 77.875618 115.043654 
L 80.349086 113.919698 
L 82.822555 112.795742 
L 85.296023 111.671785 
L 87.769492 110.547829 
L 90.24296 109.423873 
L 92.716429 108.299917 
L 95.189898 107.17596 
L 97.663366 106.052004 
L 100.136835 104.928048 
L 102.610303 103.804092 
L 105.083772 102.680135 
L 107.55724 101.556179 
L 110.030709 100.432223 
L 112.504177 99.308267 
L 114.977646 98.18431 
L 117.451114 97.060354 
L 119.924583 95.936398 
L 122.398051 94.812442 
L 124.87152 93.688485 
L 127.344988 92.564529 
L 129.818457 91.440573 
L 132.291925 90.316617 
L 134.765394 89.192661 
L 137.238862 88.068704 
L 139.712331 86.944748 
L 142.185799 85.820792 
L 144.659268 84.696836 
L 147.132736 83.572879 
L 149.606205 82.448923 
L 152.079674 81.324967 
L 154.553142 80.201011 
L 157.026611 79.077054 
L 159.500079 77.953098 
L 161.973548 76.829142 
L 164.447016 75.705186 
L 166.920485 74.581229 
L 169.393953 73.457273 
L 171.867422 72.333317 
L 174.34089 71.209361 
L 176.814359 70.085404 
L 179.287827 68.961448 
L 181.761296 67.837492 
L 184.234764 66.713536 
L 186.708233 65.58958 
L 189.181701 64.465623 
L 191.65517 63.341667 
L 194.128638 62.217711 
L 196.602107 61.093755 
L 199.075575 59.969798 
L 201.549044 58.845842 
L 204.022513 57.721886 
L 206.495981 56.59793 
L 208.96945 55.473973 
L 211.442918 54.350017 
L 213.916387 53.226061 
L 216.389855 52.102105 
L 218.863324 50.978148 
L 221.336792 49.854192 
L 223.810261 48.730236 
L 226.283729 47.60628 
L 228.757198 46.482323 
L 231.230666 45.358367 
L 233.704135 44.234411 
L 236.177603 43.110455 
L 238.651072 41.986499 
L 241.12454 40.862542 
L 243.598009 39.738586 
L 246.071477 38.61463 
L 248.544946 37.490674 
L 251.018414 36.366717 
L 253.491883 35.242761 
L 255.965351 34.118805 
L 258.43882 32.994849 
L 260.912289 31.870892 
L 263.385757 30.746936 
L 265.859226 29.62298 
L 268.332694 28.499024 
L 270.806163 27.375067 
L 273.279631 26.251111 
L 275.7531 25.127155 
L 278.226568 24.003199 
L 280.700037 22.879243 
L 283.173505 21.755286 
L 285.646974 20.63133 
L 288.120442 19.507374 
L 290.593911 18.383418 
L 293.067379 17.259461 
L 295.540848 16.135505 
L 298.014316 15.011549 
L 300.487785 13.887593 
L 302.961253 12.763636 
" clip-path="url(#pbf6e735a0a)" style="fill: none; stroke-dasharray: 2.59,1.12; stroke-dashoffset: 0; stroke: #000000; stroke-width: 0.7"/>
   </g>
   <g id="line2d_32">
    <path d="M 58.086014 124.035304 
L 58.591092 122.911348 
L 59.096171 121.787391 
L 59.60125 120.663435 
L 60.106329 119.539479 
L 60.611407 118.415523 
L 61.116486 117.291566 
L 61.621565 116.16761 
L 62.126643 115.043654 
L 62.631722 113.919698 
L 63.136801 112.795742 
L 63.64188 111.671785 
L 64.146958 110.547829 
L 64.652037 109.423873 
L 65.157116 108.299917 
L 65.662194 107.17596 
L 66.167273 106.052004 
L 66.672352 104.928048 
L 67.177431 103.804092 
L 67.682509 102.680135 
L 84.543979 101.556179 
L 86.774031 100.432223 
L 88.910503 99.308267 
L 90.972852 98.18431 
L 92.97789 97.060354 
L 94.918516 95.936398 
L 96.830942 94.812442 
L 98.706078 93.688485 
L 100.537204 92.564529 
L 102.354381 91.440573 
L 104.140816 90.316617 
L 105.906898 89.192661 
L 107.661421 88.068704 
L 109.397412 86.944748 
L 111.116188 85.820792 
L 112.832114 84.696836 
L 114.525925 83.572879 
L 116.217635 82.448923 
L 117.901123 81.324967 
L 119.576827 80.201011 
L 121.245191 79.077054 
L 122.906658 77.953098 
L 124.561663 76.829142 
L 126.215197 75.705186 
L 127.862721 74.581229 
L 129.504666 73.457273 
L 131.145439 72.333317 
L 132.781097 71.209361 
L 134.412033 70.085404 
L 136.04565 68.961448 
L 137.671328 67.837492 
L 139.299521 66.713536 
L 140.923588 65.58958 
L 142.543889 64.465623 
L 144.163569 63.341667 
L 145.782579 62.217711 
L 147.400874 61.093755 
L 149.015971 59.969798 
L 150.630515 58.845842 
L 152.244473 57.721886 
L 153.8557 56.59793 
L 155.466494 55.473973 
L 157.076833 54.350017 
L 158.686695 53.226061 
L 160.296058 52.102105 
L 161.903269 50.978148 
L 163.51013 49.854192 
L 165.116627 48.730236 
L 166.722746 47.60628 
L 168.328474 46.482323 
L 169.932573 45.358367 
L 171.536414 44.234411 
L 173.139989 43.110455 
L 174.743288 41.986499 
L 176.346304 40.862542 
L 177.94903 39.738586 
L 179.551459 38.61463 
L 181.152836 37.490674 
L 182.754723 36.366717 
L 184.355037 35.242761 
L 185.95401 34.118805 
L 187.552977 32.994849 
L 189.151938 31.870892 
L 190.750891 30.746936 
L 192.349837 29.62298 
L 193.948775 28.499024 
L 195.547704 27.375067 
L 197.146625 26.251111 
L 198.745537 25.127155 
L 200.344439 24.003199 
L 201.942837 22.879243 
L 203.541735 21.755286 
L 205.140623 20.63133 
L 206.913331 19.507374 
L 209.036377 18.383418 
L 211.167063 17.259461 
L 213.304594 16.135505 
L 215.448677 15.011549 
L 217.598606 13.887593 
L 219.754954 12.763636 
" clip-path="url(#pbf6e735a0a)" style="fill: none; stroke: #006400; stroke-width: 0.7; stroke-linecap: square"/>
   </g>
   <g id="line2d_33">
    <path d="M 58.086014 124.035304 
L 58.591092 122.911348 
L 59.096171 121.787391 
L 59.60125 120.663435 
L 60.106329 119.539479 
L 60.611407 118.415523 
L 61.116486 117.291566 
L 61.621565 116.16761 
L 62.126643 115.043654 
L 62.631722 113.919698 
L 63.136801 112.795742 
L 63.64188 111.671785 
L 64.146958 110.547829 
L 64.652037 109.423873 
L 65.157116 108.299917 
L 65.662194 107.17596 
L 66.167273 106.052004 
L 66.672352 104.928048 
L 67.177431 103.804092 
L 67.682509 102.680135 
L 75.21568 101.556179 
L 76.923833 100.432223 
L 78.616523 99.308267 
L 80.297559 98.18431 
L 81.970553 97.060354 
L 83.629976 95.936398 
L 85.288583 94.812442 
L 86.940942 93.688485 
L 88.582908 92.564529 
L 90.225673 91.440573 
L 91.861401 90.316617 
L 93.49357 89.192661 
L 95.125129 88.068704 
L 96.752664 86.944748 
L 98.376247 85.820792 
L 100.001374 84.696836 
L 101.619802 83.572879 
L 103.239451 82.448923 
L 104.85756 81.324967 
L 106.474092 80.201011 
L 108.089042 79.077054 
L 109.70243 77.953098 
L 111.314293 76.829142 
L 112.926553 75.705186 
L 114.537242 74.581229 
L 116.14644 73.457273 
L 117.755871 72.333317 
L 119.363843 71.209361 
L 120.970452 70.085404 
L 122.578677 68.961448 
L 124.184108 67.837492 
L 125.790989 66.713536 
L 127.396553 65.58958 
L 129.000913 64.465623 
L 130.605324 63.341667 
L 132.209738 62.217711 
L 133.814109 61.093755 
L 135.417396 59.969798 
L 137.02066 58.845842 
L 138.623871 57.721886 
L 140.226128 56.59793 
L 141.828361 55.473973 
L 143.430546 54.350017 
L 145.032661 53.226061 
L 146.634684 52.102105 
L 148.235927 50.978148 
L 149.83712 49.854192 
L 151.438247 48.730236 
L 153.039296 47.60628 
L 154.640253 46.482323 
L 156.240604 45.358367 
L 157.840905 44.234411 
L 159.441148 43.110455 
L 161.041322 41.986499 
L 162.641422 40.862542 
L 164.241439 39.738586 
L 165.841366 38.61463 
L 167.44089 37.490674 
L 169.04065 36.366717 
L 170.639787 35.242761 
L 172.238385 34.118805 
L 173.836984 32.994849 
L 175.435586 31.870892 
L 177.034188 30.746936 
L 178.632792 29.62298 
L 180.231395 28.499024 
L 181.829999 27.375067 
L 183.428602 26.251111 
L 185.027204 25.127155 
L 186.625806 24.003199 
L 188.224204 22.879243 
L 189.822809 21.755286 
L 191.421413 20.63133 
L 193.193844 19.507374 
L 195.316891 18.383418 
L 197.447309 17.259461 
L 199.584581 16.135505 
L 201.728412 15.011549 
L 203.878341 13.887593 
L 206.034447 12.763636 
" clip-path="url(#pbf6e735a0a)" style="fill: none; stroke-dasharray: 0.7,1.155; stroke-dashoffset: 0; stroke: #006400; stroke-width: 0.7"/>
   </g>
   <g id="line2d_34">
    <path d="M 58.086014 124.035304 
L 58.591092 122.911348 
L 59.096171 121.787391 
L 59.60125 120.663435 
L 60.106329 119.539479 
L 60.611407 118.415523 
L 61.116486 117.291566 
L 61.621565 116.16761 
L 62.126643 115.043654 
L 62.631722 113.919698 
L 63.136801 112.795742 
L 63.64188 111.671785 
L 64.146958 110.547829 
L 64.652037 109.423873 
L 65.157116 108.299917 
L 65.662194 107.17596 
L 66.167273 106.052004 
L 66.672352 104.928048 
L 67.177431 103.804092 
L 67.682509 102.680135 
L 79.87983 101.556179 
L 81.848932 100.432223 
L 83.763513 99.308267 
L 85.635206 98.18431 
L 87.474221 97.060354 
L 89.274246 95.936398 
L 91.059763 94.812442 
L 92.82351 93.688485 
L 94.560056 92.564529 
L 96.290027 91.440573 
L 98.001108 90.316617 
L 99.700234 89.192661 
L 101.393275 88.068704 
L 103.075038 86.944748 
L 104.746218 85.820792 
L 106.416744 84.696836 
L 108.072864 83.572879 
L 109.728543 82.448923 
L 111.379342 81.324967 
L 113.02546 80.201011 
L 114.667116 79.077054 
L 116.304544 77.953098 
L 117.937978 76.829142 
L 119.570875 75.705186 
L 121.199982 74.581229 
L 122.825553 73.457273 
L 124.450655 72.333317 
L 126.07247 71.209361 
L 127.691242 70.085404 
L 129.312163 68.961448 
L 130.927718 67.837492 
L 132.545255 66.713536 
L 134.160071 65.58958 
L 135.772401 64.465623 
L 137.384447 63.341667 
L 138.996159 62.217711 
L 140.607491 61.093755 
L 142.216683 59.969798 
L 143.825588 58.845842 
L 145.434172 57.721886 
L 147.040914 56.59793 
L 148.647428 55.473973 
L 150.25369 54.350017 
L 151.859678 53.226061 
L 153.465371 52.102105 
L 155.069598 50.978148 
L 156.673625 49.854192 
L 158.277437 48.730236 
L 159.881021 47.60628 
L 161.484364 46.482323 
L 163.086589 45.358367 
L 164.68866 44.234411 
L 166.290568 43.110455 
L 167.892305 41.986499 
L 169.493863 40.862542 
L 171.095235 39.738586 
L 172.696413 38.61463 
L 174.296863 37.490674 
L 175.897687 36.366717 
L 177.497412 35.242761 
L 179.096197 34.118805 
L 180.694981 32.994849 
L 182.293762 31.870892 
L 183.89254 30.746936 
L 185.491314 29.62298 
L 187.090085 28.499024 
L 188.688852 27.375067 
L 190.287613 26.251111 
L 191.886371 25.127155 
L 193.485122 24.003199 
L 195.08352 22.879243 
L 196.682272 21.755286 
L 198.281018 20.63133 
L 200.053588 19.507374 
L 202.176634 18.383418 
L 204.307186 17.259461 
L 206.444587 16.135505 
L 208.588544 15.011549 
L 210.738474 13.887593 
L 212.894701 12.763636 
" clip-path="url(#pbf6e735a0a)" style="fill: none; stroke-dasharray: 2.59,1.12; stroke-dashoffset: 0; stroke: #006400; stroke-width: 0.7"/>
   </g>
   <g id="line2d_35">
    <path d="M 58.085538 124.036364 
L 60.603741 118.403382 
L 62.020231 116.525721 
L 62.492394 114.648061 
L 64.853209 111.83157 
L 69.102678 108.858607 
L 87.517041 102.443267 
L 108.764383 93.524379 
L 118.67981 88.830227 
L 138.982825 79.91134 
L 174.867226 63.012394 
L 206.029994 50.338185 
L 241.914394 40.949882 
L 272.132836 34.37807 
L 305.184257 25.928598 
L 336.347026 18.574427 
L 352.400573 15.914408 
L 367.981958 14.193219 
L 387.81281 13.254389 
" clip-path="url(#pbf6e735a0a)" style="fill: none; stroke: #0000ff; stroke-width: 0.7; stroke-linecap: square"/>
   </g>
   <g id="patch_3">
    <path d="M 41.599174 129.6 
L 41.599174 7.2 
" style="fill: none; stroke: #000000; stroke-width: 0.5; stroke-linejoin: miter; stroke-linecap: square"/>
   </g>
   <g id="patch_4">
    <path d="M 41.599174 129.6 
L 404.299174 129.6 
" style="fill: none; stroke: #000000; stroke-width: 0.5; stroke-linejoin: miter; stroke-linecap: square"/>
   </g>
   <g id="legend_1">
    <g id="patch_5">
     <path d="M 266.143146 124.6 
L 397.299174 124.6 
Q 399.299174 124.6 399.299174 122.6 
L 399.299174 25.01429 
Q 399.299174 23.01429 397.299174 23.01429 
L 266.143146 23.01429 
Q 264.143146 23.01429 264.143146 25.01429 
L 264.143146 122.6 
Q 264.143146 124.6 266.143146 124.6 
z
" style="fill: #ffffff; opacity: 0.8; stroke: #cccccc; stroke-width: 0.5; stroke-linejoin: miter"/>
    </g>
    <g id="line2d_36">
     <path d="M 268.143146 30.51429 
L 278.143146 30.51429 
L 288.143146 30.51429 
" style="fill: none; stroke: #000000; stroke-width: 0.7; stroke-linecap: square"/>
    </g>
    <g id="text_17">
     <!-- $EI^{I}$ konstant -->
     <g transform="translate(296.143146 34.01429) scale(0.1 -0.1)">
      <defs>
       <path id="CMMI12-45" d="M 4448 1489 
C 4454 1508 4474 1553 4474 1578 
C 4474 1611 4448 1643 4410 1643 
C 4384 1643 4371 1636 4352 1617 
C 4339 1611 4339 1598 4282 1469 
C 3904 570 3629 185 2605 185 
L 1670 185 
C 1581 185 1568 185 1530 192 
C 1459 198 1453 211 1453 262 
C 1453 307 1466 346 1478 403 
L 1920 2176 
L 2554 2176 
C 3053 2176 3091 2066 3091 1874 
C 3091 1810 3091 1752 3046 1559 
C 3034 1534 3027 1508 3027 1489 
C 3027 1444 3059 1424 3098 1424 
C 3155 1424 3162 1469 3187 1559 
L 3552 3036 
C 3552 3068 3526 3099 3488 3099 
C 3430 3099 3424 3074 3398 2986 
C 3270 2500 3142 2361 2573 2361 
L 1965 2361 
L 2362 3913 
C 2419 4134 2432 4153 2694 4153 
L 3610 4153 
C 4397 4153 4557 3945 4557 3465 
C 4557 3459 4557 3282 4531 3074 
C 4525 3049 4518 3011 4518 2998 
C 4518 2948 4550 2929 4589 2929 
C 4634 2929 4659 2954 4672 3068 
L 4806 4172 
C 4806 4191 4819 4255 4819 4268 
C 4819 4339 4762 4339 4646 4339 
L 1523 4339 
C 1402 4339 1338 4339 1338 4223 
C 1338 4153 1382 4153 1491 4153 
C 1888 4153 1888 4109 1888 4039 
C 1888 4008 1882 3983 1862 3913 
L 998 474 
C 941 249 928 185 480 185 
C 358 185 294 185 294 70 
C 294 0 333 0 461 0 
L 3674 0 
C 3814 0 3821 6 3866 108 
L 4448 1489 
z
" transform="scale(0.015625)"/>
       <path id="CMMI12-49" d="M 2355 3879 
C 2413 4102 2426 4166 2893 4166 
C 3034 4166 3085 4166 3085 4287 
C 3085 4352 3014 4352 2995 4352 
C 2880 4352 2739 4339 2624 4339 
L 1837 4339 
C 1709 4339 1562 4352 1434 4352 
C 1382 4352 1312 4352 1312 4230 
C 1312 4166 1363 4166 1491 4166 
C 1888 4166 1888 4115 1888 4045 
C 1888 4000 1875 3962 1862 3905 
L 998 472 
C 941 249 928 185 461 185 
C 320 185 262 185 262 64 
C 262 0 326 0 358 0 
C 474 0 614 12 730 12 
L 1517 12 
C 1645 12 1786 0 1914 0 
C 1965 0 2042 0 2042 115 
C 2042 185 2003 185 1862 185 
C 1466 185 1466 236 1466 312 
C 1466 325 1466 357 1491 459 
L 2355 3879 
z
" transform="scale(0.015625)"/>
       <path id="CMR17-6f" d="M 2758 1356 
C 2758 2176 2163 2816 1466 2816 
C 768 2816 173 2176 173 1356 
C 173 550 768 -64 1466 -64 
C 2163 -64 2758 550 2758 1356 
z
M 1466 51 
C 1165 51 909 230 762 480 
C 602 768 582 1126 582 1408 
C 582 1676 595 2009 762 2297 
C 890 2508 1139 2713 1466 2713 
C 1754 2713 1997 2553 2150 2329 
C 2349 2028 2349 1606 2349 1408 
C 2349 1158 2336 774 2163 467 
C 1984 172 1709 51 1466 51 
z
" transform="scale(0.015625)"/>
       <path id="CMR17-6e" d="M 2656 1954 
C 2656 2282 2592 2816 1837 2816 
C 1331 2816 1069 2424 973 2166 
L 966 2166 
L 966 2816 
L 211 2745 
L 211 2578 
C 589 2578 646 2540 646 2231 
L 646 443 
C 646 198 621 166 211 166 
L 211 0 
C 365 12 646 12 813 12 
C 979 12 1267 12 1421 0 
L 1421 166 
C 1011 166 986 192 986 443 
L 986 1678 
C 986 2269 1344 2713 1792 2713 
C 2266 2713 2317 2289 2317 1980 
L 2317 443 
C 2317 198 2291 166 1882 166 
L 1882 0 
C 2035 12 2317 12 2483 12 
C 2650 12 2938 12 3091 0 
L 3091 166 
C 2682 166 2656 192 2656 443 
L 2656 1954 
z
" transform="scale(0.015625)"/>
       <path id="CMR17-73" d="M 1978 2688 
C 1978 2803 1971 2809 1933 2809 
C 1907 2809 1901 2803 1824 2707 
C 1805 2681 1747 2617 1728 2592 
C 1523 2809 1235 2816 1126 2816 
C 416 2816 160 2444 160 2073 
C 160 1497 813 1363 998 1324 
C 1402 1241 1542 1216 1677 1100 
C 1760 1024 1901 883 1901 652 
C 1901 384 1747 38 1158 38 
C 602 38 403 460 288 1024 
C 269 1113 269 1120 218 1120 
C 166 1120 160 1113 160 985 
L 160 64 
C 160 -52 166 -58 205 -58 
C 237 -58 243 -52 275 0 
C 314 57 410 211 448 275 
C 576 102 800 -64 1158 -64 
C 1792 -64 2131 281 2131 780 
C 2131 1107 1958 1280 1875 1356 
C 1683 1555 1459 1600 1190 1651 
C 838 1728 390 1817 390 2208 
C 390 2374 480 2726 1126 2726 
C 1811 2726 1850 2086 1862 1881 
C 1869 1849 1901 1843 1920 1843 
C 1978 1843 1978 1862 1978 1971 
L 1978 2688 
z
" transform="scale(0.015625)"/>
       <path id="CMR17-74" d="M 966 2585 
L 1862 2585 
L 1862 2752 
L 966 2752 
L 966 3968 
L 851 3968 
C 838 3292 614 2700 70 2687 
L 70 2585 
L 627 2585 
L 627 778 
C 627 655 627 -64 1370 -64 
C 1747 -64 1965 308 1965 784 
L 1965 1151 
L 1850 1151 
L 1850 790 
C 1850 347 1677 51 1408 51 
C 1222 51 966 179 966 765 
L 966 2585 
z
" transform="scale(0.015625)"/>
       <path id="CMR17-61" d="M 2304 1656 
C 2304 2048 2304 2275 2035 2534 
C 1798 2751 1523 2816 1306 2816 
C 800 2816 435 2408 435 1977 
C 435 1740 627 1728 666 1728 
C 749 1728 896 1779 896 1958 
C 896 2118 774 2188 666 2188 
C 640 2188 608 2182 589 2176 
C 723 2594 1069 2713 1293 2713 
C 1613 2713 1965 2421 1965 1875 
L 1965 1632 
C 1587 1619 1133 1568 774 1373 
C 371 1147 256 822 256 576 
C 256 77 832 -64 1171 -64 
C 1523 -64 1850 135 1990 505 
C 2003 219 2182 -39 2464 -39 
C 2598 -39 2938 51 2938 563 
L 2938 926 
L 2822 926 
L 2822 557 
C 2822 161 2650 109 2566 109 
C 2304 109 2304 446 2304 732 
L 2304 1656 
z
M 1965 887 
C 1965 323 1568 38 1216 38 
C 896 38 646 278 646 576 
C 646 771 730 1114 1101 1322 
C 1408 1497 1760 1523 1965 1536 
L 1965 887 
z
" transform="scale(0.015625)"/>
      </defs>
      <use xlink:href="#CMMI12-45" transform="scale(0.996264)"/>
      <use xlink:href="#CMMI12-49" transform="translate(78.051636 0) scale(0.996264)"/>
      <use xlink:href="#CMMI12-49" transform="translate(128.90815 36.153639) scale(0.697382)"/>
      <use xlink:href="#CMR17-6b" transform="translate(195.081631 0) scale(0.996264)"/>
      <use xlink:href="#CMR17-6f" transform="translate(240.772092 0) scale(0.996264)"/>
      <use xlink:href="#CMR17-6e" transform="translate(286.46257 0) scale(0.996264)"/>
      <use xlink:href="#CMR17-73" transform="translate(337.357939 0) scale(0.996264)"/>
      <use xlink:href="#CMR17-74" transform="translate(373.159277 0) scale(0.996264)"/>
      <use xlink:href="#CMR17-61" transform="translate(408.440045 0) scale(0.996264)"/>
      <use xlink:href="#CMR17-6e" transform="translate(454.130522 0) scale(0.996264)"/>
      <use xlink:href="#CMR17-74" transform="translate(502.423438 0) scale(0.996264)"/>
     </g>
    </g>
    <g id="line2d_37">
     <path d="M 268.143146 44.451468 
L 278.143146 44.451468 
L 288.143146 44.451468 
" style="fill: none; stroke-dasharray: 0.7,1.155; stroke-dashoffset: 0; stroke: #000000; stroke-width: 0.7"/>
    </g>
    <g id="text_18">
     <!-- $EI^{II}$ konstant -->
     <g transform="translate(296.143146 47.951468) scale(0.1 -0.1)">
      <use xlink:href="#CMMI12-45" transform="scale(0.996264)"/>
      <use xlink:href="#CMMI12-49" transform="translate(78.051636 0) scale(0.996264)"/>
      <use xlink:href="#CMMI12-49" transform="translate(128.90815 36.153639) scale(0.697382)"/>
      <use xlink:href="#CMMI12-49" transform="translate(164.507532 36.153639) scale(0.697382)"/>
      <use xlink:href="#CMR17-6b" transform="translate(230.681012 0) scale(0.996264)"/>
      <use xlink:href="#CMR17-6f" transform="translate(276.371474 0) scale(0.996264)"/>
      <use xlink:href="#CMR17-6e" transform="translate(322.061952 0) scale(0.996264)"/>
      <use xlink:href="#CMR17-73" transform="translate(372.957321 0) scale(0.996264)"/>
      <use xlink:href="#CMR17-74" transform="translate(408.758659 0) scale(0.996264)"/>
      <use xlink:href="#CMR17-61" transform="translate(444.039427 0) scale(0.996264)"/>
      <use xlink:href="#CMR17-6e" transform="translate(489.729904 0) scale(0.996264)"/>
      <use xlink:href="#CMR17-74" transform="translate(538.02282 0) scale(0.996264)"/>
     </g>
    </g>
    <g id="line2d_38">
     <path d="M 268.143146 58.388647 
L 278.143146 58.388647 
L 288.143146 58.388647 
" style="fill: none; stroke-dasharray: 2.59,1.12; stroke-dashoffset: 0; stroke: #000000; stroke-width: 0.7"/>
    </g>
    <g id="text_19">
     <!-- Abschätzung Norm -->
     <g transform="translate(296.143146 61.888647) scale(0.1 -0.1)">
      <defs>
       <path id="CMR17-41" d="M 2323 4441 
C 2291 4524 2278 4544 2214 4544 
C 2150 4544 2138 4524 2106 4441 
L 749 580 
C 627 236 371 166 147 166 
L 147 0 
C 262 12 518 12 640 12 
C 800 12 1056 12 1210 0 
L 1210 166 
C 909 179 864 382 864 459 
C 864 516 877 548 890 586 
L 1229 1536 
L 2906 1536 
L 3290 453 
C 3322 376 3322 363 3322 338 
C 3322 166 3046 166 2925 166 
L 2925 0 
C 3110 12 3443 12 3642 12 
C 3808 12 4128 12 4282 0 
L 4282 166 
C 3942 166 3827 166 3744 402 
L 2323 4441 
z
M 2067 3924 
L 2848 1702 
L 1286 1702 
L 2067 3924 
z
" transform="scale(0.015625)"/>
       <path id="CMR17-62" d="M 960 4416 
L 198 4345 
L 198 4179 
C 576 4179 634 4141 634 3843 
L 634 -13 
L 749 -13 
L 934 445 
C 1120 141 1395 -64 1766 -64 
C 2406 -64 3053 503 3053 1382 
C 3053 2209 2477 2816 1830 2816 
C 1434 2816 1152 2603 960 2351 
L 960 4416 
z
M 973 2022 
C 973 2138 973 2157 1062 2293 
C 1312 2681 1670 2713 1792 2713 
C 1984 2713 2643 2610 2643 1388 
C 2643 109 1888 38 1734 38 
C 1536 38 1248 115 1043 490 
C 973 613 973 626 973 742 
L 973 2022 
z
" transform="scale(0.015625)"/>
       <path id="CMR17-63" d="M 2234 2240 
C 2112 2240 1933 2240 1933 2015 
C 1933 1836 2080 1785 2163 1785 
C 2208 1785 2394 1804 2394 2028 
C 2394 2476 1958 2816 1466 2816 
C 787 2816 211 2201 211 1379 
C 211 521 813 -64 1466 -64 
C 2259 -64 2458 676 2458 747 
C 2458 773 2451 792 2406 792 
C 2362 792 2355 786 2330 702 
C 2163 180 1798 51 1523 51 
C 1114 51 621 431 621 1385 
C 621 2358 1094 2700 1472 2700 
C 1722 2700 2093 2582 2234 2240 
z
" transform="scale(0.015625)"/>
       <path id="CMR17-68" d="M 2656 1954 
C 2656 2282 2592 2816 1837 2816 
C 1312 2816 1056 2392 979 2179 
L 973 2179 
L 973 4416 
L 211 4345 
L 211 4179 
C 589 4179 646 4141 646 3843 
L 646 443 
C 646 198 621 166 211 166 
L 211 0 
C 365 12 646 12 813 12 
C 979 12 1267 12 1421 0 
L 1421 166 
C 1011 166 986 192 986 443 
L 986 1678 
C 986 2269 1344 2713 1792 2713 
C 2266 2713 2317 2289 2317 1980 
L 2317 443 
C 2317 198 2291 166 1882 166 
L 1882 0 
C 2035 12 2317 12 2483 12 
C 2650 12 2938 12 3091 0 
L 3091 166 
C 2682 166 2656 192 2656 443 
L 2656 1954 
z
" transform="scale(0.015625)"/>
       <path id="CMR17-7f" d="M 1133 3961 
C 1133 4121 1005 4217 883 4217 
C 717 4217 627 4076 627 3968 
C 627 3840 730 3712 883 3712 
C 1018 3712 1133 3820 1133 3961 
z
M 2304 3961 
C 2304 4089 2202 4217 2048 4217 
C 1914 4217 1798 4108 1798 3968 
C 1798 3808 1926 3712 2048 3712 
C 2214 3712 2304 3852 2304 3961 
z
" transform="scale(0.015625)"/>
       <path id="CMR17-7a" d="M 2310 2604 
C 2362 2668 2362 2681 2362 2694 
C 2362 2752 2336 2752 2221 2752 
L 275 2752 
L 211 1760 
L 326 1760 
C 371 2380 442 2649 1178 2649 
L 1958 2649 
L 128 96 
C 128 6 134 0 269 0 
L 2291 0 
L 2381 1152 
L 2266 1152 
C 2214 441 2131 115 1350 115 
L 531 115 
L 2310 2604 
z
" transform="scale(0.015625)"/>
       <path id="CMR17-75" d="M 1882 2745 
L 1882 2579 
C 2259 2579 2317 2540 2317 2229 
L 2317 1053 
C 2317 510 2029 38 1555 38 
C 1030 38 986 355 986 691 
L 986 2816 
L 211 2745 
L 211 2579 
C 467 2579 640 2579 646 2320 
L 646 1079 
C 646 646 646 368 813 187 
C 896 103 1056 -64 1517 -64 
C 2061 -64 2272 400 2323 536 
L 2330 536 
L 2330 -64 
L 3091 -13 
L 3091 154 
C 2714 154 2656 193 2656 503 
L 2656 2816 
L 1882 2745 
z
" transform="scale(0.015625)"/>
       <path id="CMR17-67" d="M 710 1165 
C 832 1068 1043 960 1299 960 
C 1805 960 2240 1359 2240 1895 
C 2240 2063 2189 2321 1997 2521 
C 2176 2713 2438 2777 2586 2777 
C 2611 2777 2650 2777 2682 2758 
C 2656 2751 2598 2726 2598 2623 
C 2598 2540 2656 2483 2739 2483 
C 2835 2483 2886 2547 2886 2630 
C 2886 2751 2790 2880 2586 2880 
C 2330 2880 2106 2758 1926 2591 
C 1734 2764 1504 2828 1299 2828 
C 794 2828 358 2431 358 1895 
C 358 1527 570 1294 634 1230 
C 442 1004 442 742 442 710 
C 442 544 506 300 723 166 
C 390 82 128 -184 128 -517 
C 128 -996 736 -1344 1466 -1344 
C 2170 -1344 2803 -1009 2803 -510 
C 2803 384 1856 384 1363 384 
C 1216 384 954 384 922 390 
C 723 422 589 601 589 825 
C 589 883 589 1024 710 1165 
z
M 1299 1068 
C 736 1068 736 1766 736 1895 
C 736 2024 736 2719 1299 2719 
C 1862 2719 1862 2024 1862 1895 
C 1862 1766 1862 1068 1299 1068 
z
M 1466 -1236 
C 826 -1236 384 -883 384 -517 
C 384 -311 493 -118 634 -11 
C 794 102 858 102 1293 102 
C 1818 102 2547 102 2547 -517 
C 2547 -883 2106 -1236 1466 -1236 
z
" transform="scale(0.015625)"/>
       <path id="CMR17-72" d="M 960 1517 
C 960 2134 1222 2713 1702 2713 
C 1747 2713 1792 2707 1837 2687 
C 1837 2687 1696 2642 1696 2475 
C 1696 2321 1818 2257 1914 2257 
C 1990 2257 2131 2302 2131 2482 
C 2131 2687 1926 2816 1709 2816 
C 1222 2816 1011 2340 947 2115 
L 941 2115 
L 941 2816 
L 198 2745 
L 198 2578 
C 576 2578 634 2540 634 2231 
L 634 443 
C 634 198 608 166 198 166 
L 198 0 
C 352 12 646 12 813 12 
C 998 12 1325 12 1498 0 
L 1498 166 
C 1037 166 960 166 960 455 
L 960 1517 
z
" transform="scale(0.015625)"/>
      </defs>
      <use xlink:href="#CMR17-41" transform="scale(0.996264)"/>
      <use xlink:href="#CMR17-62" transform="translate(69.07243 0) scale(0.996264)"/>
      <use xlink:href="#CMR17-73" transform="translate(119.9678 0) scale(0.996264)"/>
      <use xlink:href="#CMR17-63" transform="translate(155.769137 0) scale(0.996264)"/>
      <use xlink:href="#CMR17-68" transform="translate(193.652344 0) scale(0.996264)"/>
      <use xlink:href="#CMR17-7f" transform="translate(244.547714 0) scale(0.996264)"/>
      <use xlink:href="#CMR17-61" transform="translate(244.547714 0) scale(0.996264)"/>
      <use xlink:href="#CMR17-74" transform="translate(290.238191 0) scale(0.996264)"/>
      <use xlink:href="#CMR17-7a" transform="translate(325.518958 0) scale(0.996264)"/>
      <use xlink:href="#CMR17-75" transform="translate(366.004619 0) scale(0.996264)"/>
      <use xlink:href="#CMR17-6e" transform="translate(416.899989 0) scale(0.996264)"/>
      <use xlink:href="#CMR17-67" transform="translate(467.795358 0) scale(0.996264)"/>
      <use xlink:href="#CMR17-4e" transform="translate(543.561802 0) scale(0.996264)"/>
      <use xlink:href="#CMR17-6f" transform="translate(612.634232 0) scale(0.996264)"/>
      <use xlink:href="#CMR17-72" transform="translate(658.324709 0) scale(0.996264)"/>
      <use xlink:href="#CMR17-6d" transform="translate(693.605477 0) scale(0.996264)"/>
     </g>
    </g>
    <g id="line2d_39">
     <path d="M 268.143146 72.797805 
L 278.143146 72.797805 
L 288.143146 72.797805 
" style="fill: none; stroke: #006400; stroke-width: 0.7; stroke-linecap: square"/>
    </g>
    <g id="text_20">
     <!-- nicht-linear $M(\chi)$ -->
     <g transform="translate(296.143146 76.297805) scale(0.1 -0.1)">
      <defs>
       <path id="CMR17-69" d="M 992 3961 
C 992 4102 877 4224 730 4224 
C 589 4224 467 4108 467 3961 
C 467 3820 582 3699 730 3699 
C 870 3699 992 3814 992 3961 
z
M 243 2745 
L 243 2579 
C 602 2579 653 2540 653 2231 
L 653 443 
C 653 198 627 166 218 166 
L 218 0 
C 371 12 646 12 806 12 
C 960 12 1222 12 1370 0 
L 1370 166 
C 992 166 979 205 979 436 
L 979 2816 
L 243 2745 
z
" transform="scale(0.015625)"/>
       <path id="CMR17-2d" d="M 1632 1254 
L 1632 1536 
L 26 1536 
L 26 1254 
L 1632 1254 
z
" transform="scale(0.015625)"/>
       <path id="CMR17-6c" d="M 979 4416 
L 218 4345 
L 218 4179 
C 595 4179 653 4141 653 3835 
L 653 439 
C 653 198 627 166 218 166 
L 218 0 
C 371 12 653 12 813 12 
C 979 12 1261 12 1414 0 
L 1414 166 
C 1005 166 979 191 979 439 
L 979 4416 
z
" transform="scale(0.015625)"/>
       <path id="CMR17-65" d="M 2438 1503 
C 2464 1529 2464 1542 2464 1606 
C 2464 2251 2118 2816 1389 2816 
C 710 2816 173 2175 173 1394 
C 173 554 781 -64 1459 -64 
C 2176 -64 2458 619 2458 755 
C 2458 800 2419 800 2406 800 
C 2362 800 2355 787 2330 709 
C 2189 270 1837 51 1504 51 
C 1229 51 954 206 781 490 
C 582 819 582 1200 582 1503 
L 2438 1503 
z
M 589 1600 
C 634 2511 1126 2713 1382 2713 
C 1818 2713 2112 2308 2118 1600 
L 589 1600 
z
" transform="scale(0.015625)"/>
       <path id="CMMI12-4d" d="M 5811 3886 
C 5869 4102 5882 4166 6336 4166 
C 6458 4166 6515 4166 6515 4287 
C 6515 4352 6470 4352 6349 4352 
L 5581 4352 
C 5421 4352 5414 4345 5344 4243 
L 3008 567 
L 2528 4211 
C 2509 4352 2502 4352 2336 4352 
L 1542 4352 
C 1421 4352 1363 4352 1363 4230 
C 1363 4166 1421 4166 1517 4166 
C 1907 4166 1907 4115 1907 4045 
C 1907 4032 1907 3994 1882 3898 
L 1062 650 
C 986 344 838 204 410 185 
C 390 185 314 179 314 70 
C 314 0 371 0 397 0 
C 525 0 851 12 979 12 
L 1286 12 
C 1376 12 1485 0 1574 0 
C 1619 0 1690 0 1690 121 
C 1690 179 1626 185 1600 185 
C 1389 191 1184 230 1184 459 
C 1184 523 1184 529 1210 618 
L 2093 4128 
L 2099 4128 
L 2630 172 
C 2650 19 2656 0 2714 0 
C 2784 0 2816 51 2848 108 
L 5421 4159 
L 5427 4159 
L 4499 472 
C 4442 249 4429 185 3981 185 
C 3859 185 3795 185 3795 70 
C 3795 0 3853 0 3891 0 
C 4000 0 4128 12 4237 12 
L 4992 12 
C 5101 12 5235 0 5344 0 
C 5395 0 5466 0 5466 121 
C 5466 185 5408 185 5312 185 
C 4922 185 4922 236 4922 300 
C 4922 306 4922 351 4934 402 
L 5811 3886 
z
" transform="scale(0.015625)"/>
       <path id="CMR17-28" d="M 1958 -1562 
C 1958 -1556 1958 -1543 1939 -1524 
C 1645 -1223 858 -403 858 1596 
C 858 3595 1632 4408 1946 4729 
C 1946 4735 1958 4748 1958 4767 
C 1958 4787 1939 4800 1914 4800 
C 1843 4800 1299 4325 986 3620 
C 666 2909 576 2218 576 1603 
C 576 1141 621 360 1005 -467 
C 1312 -1133 1837 -1600 1914 -1600 
C 1946 -1600 1958 -1588 1958 -1562 
z
" transform="scale(0.015625)"/>
       <path id="CMMI12-1f" d="M 2112 1035 
C 1939 1562 1978 1511 1818 1956 
C 1619 2503 1568 2547 1478 2636 
C 1363 2739 1146 2816 922 2816 
C 563 2816 390 2484 390 2401 
C 390 2363 422 2344 461 2344 
C 512 2344 525 2376 531 2401 
C 627 2649 826 2687 883 2687 
C 1069 2687 1248 2230 1363 1925 
C 1517 1537 1594 1270 1766 653 
L 256 -1050 
C 198 -1120 198 -1146 198 -1152 
C 198 -1204 230 -1216 256 -1216 
C 282 -1216 301 -1204 320 -1184 
C 499 -1006 896 -535 1062 -345 
L 1805 494 
C 2118 -479 2118 -491 2214 -727 
C 2317 -968 2451 -1280 2995 -1280 
C 3360 -1280 3526 -955 3526 -866 
C 3526 -822 3488 -809 3456 -809 
C 3405 -809 3398 -835 3379 -886 
C 3309 -1064 3142 -1152 3040 -1152 
C 2957 -1152 2854 -1152 2573 -447 
C 2406 -21 2259 487 2150 882 
L 3667 2598 
C 3718 2655 3725 2662 3725 2687 
C 3725 2732 3693 2752 3661 2752 
C 3642 2752 3622 2752 3558 2681 
L 2112 1035 
z
" transform="scale(0.015625)"/>
       <path id="CMR17-29" d="M 1683 1596 
C 1683 2057 1638 2839 1254 3665 
C 947 4332 422 4800 346 4800 
C 326 4800 301 4793 301 4761 
C 301 4748 307 4742 314 4729 
C 621 4408 1402 3595 1402 1603 
C 1402 -396 627 -1210 314 -1530 
C 307 -1543 301 -1549 301 -1562 
C 301 -1594 326 -1600 346 -1600 
C 416 -1600 960 -1127 1274 -422 
C 1594 289 1683 981 1683 1596 
z
" transform="scale(0.015625)"/>
      </defs>
      <use xlink:href="#CMR17-6e" transform="scale(0.996264)"/>
      <use xlink:href="#CMR17-69" transform="translate(50.89537 0) scale(0.996264)"/>
      <use xlink:href="#CMR17-63" transform="translate(75.766428 0) scale(0.996264)"/>
      <use xlink:href="#CMR17-68" transform="translate(113.649635 0) scale(0.996264)"/>
      <use xlink:href="#CMR17-74" transform="translate(161.942551 0) scale(0.996264)"/>
      <use xlink:href="#CMR17-2d" transform="translate(197.223318 0) scale(0.996264)"/>
      <use xlink:href="#CMR17-6c" transform="translate(227.299285 0) scale(0.996264)"/>
      <use xlink:href="#CMR17-69" transform="translate(252.170343 0) scale(0.996264)"/>
      <use xlink:href="#CMR17-6e" transform="translate(277.041402 0) scale(0.996264)"/>
      <use xlink:href="#CMR17-65" transform="translate(327.936772 0) scale(0.996264)"/>
      <use xlink:href="#CMR17-61" transform="translate(368.422432 0) scale(0.996264)"/>
      <use xlink:href="#CMR17-72" transform="translate(414.112909 0) scale(0.996264)"/>
      <use xlink:href="#CMMI12-4d" transform="translate(479.469643 0) scale(0.996264)"/>
      <use xlink:href="#CMR17-28" transform="translate(584.249722 0) scale(0.996264)"/>
      <use xlink:href="#CMMI12-1f" transform="translate(619.53049 0) scale(0.996264)"/>
      <use xlink:href="#CMR17-29" transform="translate(680.643449 0) scale(0.996264)"/>
     </g>
    </g>
    <g id="line2d_40">
     <path d="M 268.143146 87.288465 
L 278.143146 87.288465 
L 288.143146 87.288465 
" style="fill: none; stroke-dasharray: 0.7,1.155; stroke-dashoffset: 0; stroke: #006400; stroke-width: 0.7"/>
    </g>
    <g id="text_21">
     <!-- Zugversteifung $\lambda = 1$ -->
     <g transform="translate(296.143146 90.788465) scale(0.1 -0.1)">
      <defs>
       <path id="CMR17-5a" d="M 3302 4223 
C 3302 4345 3296 4352 3162 4352 
L 442 4352 
L 378 2943 
L 493 2943 
C 531 3669 723 4185 1760 4185 
L 2816 4185 
L 339 204 
C 294 134 294 128 294 83 
C 294 0 307 0 435 0 
L 3245 0 
L 3334 1663 
L 3219 1663 
C 3162 828 3117 179 1894 179 
L 781 179 
L 3302 4223 
z
" transform="scale(0.015625)"/>
       <path id="CMR17-76" d="M 2502 2173 
C 2560 2315 2662 2572 3034 2585 
L 3034 2752 
C 2912 2745 2752 2739 2630 2739 
C 2496 2739 2285 2739 2157 2752 
L 2157 2585 
C 2317 2572 2406 2495 2406 2328 
C 2406 2270 2406 2257 2368 2167 
L 1664 379 
L 902 2308 
C 864 2392 864 2405 864 2431 
C 864 2585 1075 2585 1171 2585 
L 1171 2752 
C 1018 2739 736 2739 576 2739 
C 403 2739 205 2739 64 2752 
L 64 2585 
C 307 2585 442 2585 518 2386 
L 1446 44 
C 1485 -52 1491 -64 1549 -64 
C 1606 -64 1613 -52 1651 44 
L 2502 2173 
z
" transform="scale(0.015625)"/>
       <path id="CMR17-66" d="M 979 2585 
L 1709 2585 
L 1709 2752 
L 966 2752 
L 966 3539 
C 966 4076 1235 4377 1510 4377 
C 1594 4377 1690 4363 1754 4339 
C 1702 4326 1568 4281 1568 4121 
C 1568 3955 1696 3904 1786 3904 
C 1875 3904 2003 3955 2003 4121 
C 2003 4353 1773 4480 1517 4480 
C 1152 4480 653 4211 653 3526 
L 653 2752 
L 141 2752 
L 141 2585 
L 653 2585 
L 653 441 
C 653 198 627 166 218 166 
L 218 0 
C 371 12 666 12 832 12 
C 1018 12 1344 12 1517 0 
L 1517 166 
C 1056 166 979 166 979 454 
L 979 2585 
z
" transform="scale(0.015625)"/>
       <path id="CMMI12-15" d="M 1978 3963 
C 1818 4416 1312 4416 1229 4416 
C 1190 4416 1120 4416 1120 4351 
C 1120 4300 1158 4294 1190 4287 
C 1286 4275 1363 4262 1466 4078 
C 1530 3957 2189 2055 2189 2042 
C 2189 2036 2182 2029 2131 1978 
L 467 305 
C 390 229 339 178 339 95 
C 339 6 416 -71 518 -71 
C 544 -71 614 -58 653 -20 
C 755 76 1670 1190 2253 1877 
C 2419 1380 2624 795 2822 261 
C 2854 165 2886 76 2976 -7 
C 3040 -64 3053 -64 3232 -64 
L 3354 -64 
C 3379 -64 3424 -64 3424 -13 
C 3424 12 3418 19 3392 44 
C 3334 114 3290 229 3264 305 
L 1978 3963 
z
" transform="scale(0.015625)"/>
       <path id="CMR17-3d" d="M 4115 2048 
C 4211 2048 4307 2048 4307 2156 
C 4307 2272 4198 2272 4090 2272 
L 512 2272 
C 403 2272 294 2272 294 2156 
C 294 2048 390 2048 486 2048 
L 4115 2048 
z
M 4090 927 
C 4198 927 4307 927 4307 1043 
C 4307 1152 4211 1152 4115 1152 
L 486 1152 
C 390 1152 294 1152 294 1043 
C 294 927 403 927 512 927 
L 4090 927 
z
" transform="scale(0.015625)"/>
      </defs>
      <use xlink:href="#CMR17-5a" transform="scale(0.996264)"/>
      <use xlink:href="#CMR17-75" transform="translate(56.100171 0) scale(0.996264)"/>
      <use xlink:href="#CMR17-67" transform="translate(106.995541 0) scale(0.996264)"/>
      <use xlink:href="#CMR17-76" transform="translate(152.686018 0) scale(0.996264)"/>
      <use xlink:href="#CMR17-65" transform="translate(198.37648 0) scale(0.996264)"/>
      <use xlink:href="#CMR17-72" transform="translate(238.862141 0) scale(0.996264)"/>
      <use xlink:href="#CMR17-73" transform="translate(274.142908 0) scale(0.996264)"/>
      <use xlink:href="#CMR17-74" transform="translate(309.944246 0) scale(0.996264)"/>
      <use xlink:href="#CMR17-65" transform="translate(345.225014 0) scale(0.996264)"/>
      <use xlink:href="#CMR17-69" transform="translate(385.710674 0) scale(0.996264)"/>
      <use xlink:href="#CMR17-66" transform="translate(410.581733 0) scale(0.996264)"/>
      <use xlink:href="#CMR17-75" transform="translate(438.055245 0) scale(0.996264)"/>
      <use xlink:href="#CMR17-6e" transform="translate(488.950615 0) scale(0.996264)"/>
      <use xlink:href="#CMR17-67" transform="translate(539.845985 0) scale(0.996264)"/>
      <use xlink:href="#CMMI12-15" transform="translate(615.612428 0) scale(0.996264)"/>
      <use xlink:href="#CMR17-3d" transform="translate(700.190509 0) scale(0.996264)"/>
      <use xlink:href="#CMR17-31" transform="translate(799.579306 0) scale(0.996264)"/>
     </g>
    </g>
    <g id="line2d_41">
     <path d="M 268.143146 101.225643 
L 278.143146 101.225643 
L 288.143146 101.225643 
" style="fill: none; stroke-dasharray: 2.59,1.12; stroke-dashoffset: 0; stroke: #006400; stroke-width: 0.7"/>
    </g>
    <g id="text_22">
     <!-- Zugversteifung $\lambda = 0.5$ -->
     <g transform="translate(296.143146 104.725643) scale(0.1 -0.1)">
      <defs>
       <path id="CMMI12-3a" d="M 1178 307 
C 1178 492 1024 620 870 620 
C 685 620 557 467 557 313 
C 557 128 710 0 864 0 
C 1050 0 1178 153 1178 307 
z
" transform="scale(0.015625)"/>
      </defs>
      <use xlink:href="#CMR17-5a" transform="scale(0.996264)"/>
      <use xlink:href="#CMR17-75" transform="translate(56.100171 0) scale(0.996264)"/>
      <use xlink:href="#CMR17-67" transform="translate(106.995541 0) scale(0.996264)"/>
      <use xlink:href="#CMR17-76" transform="translate(152.686018 0) scale(0.996264)"/>
      <use xlink:href="#CMR17-65" transform="translate(198.37648 0) scale(0.996264)"/>
      <use xlink:href="#CMR17-72" transform="translate(238.862141 0) scale(0.996264)"/>
      <use xlink:href="#CMR17-73" transform="translate(274.142908 0) scale(0.996264)"/>
      <use xlink:href="#CMR17-74" transform="translate(309.944246 0) scale(0.996264)"/>
      <use xlink:href="#CMR17-65" transform="translate(345.225014 0) scale(0.996264)"/>
      <use xlink:href="#CMR17-69" transform="translate(385.710674 0) scale(0.996264)"/>
      <use xlink:href="#CMR17-66" transform="translate(410.581733 0) scale(0.996264)"/>
      <use xlink:href="#CMR17-75" transform="translate(438.055245 0) scale(0.996264)"/>
      <use xlink:href="#CMR17-6e" transform="translate(488.950615 0) scale(0.996264)"/>
      <use xlink:href="#CMR17-67" transform="translate(539.845985 0) scale(0.996264)"/>
      <use xlink:href="#CMMI12-15" transform="translate(615.612428 0) scale(0.996264)"/>
      <use xlink:href="#CMR17-3d" transform="translate(700.190509 0) scale(0.996264)"/>
      <use xlink:href="#CMR17-30" transform="translate(799.579306 0) scale(0.996264)"/>
      <use xlink:href="#CMMI12-3a" transform="translate(845.269783 0) scale(0.996264)"/>
      <use xlink:href="#CMR17-35" transform="translate(872.36696 0) scale(0.996264)"/>
     </g>
    </g>
    <g id="line2d_42">
     <path d="M 268.143146 115.162822 
L 278.143146 115.162822 
L 288.143146 115.162822 
" style="fill: none; stroke: #0000ff; stroke-width: 0.7; stroke-linecap: square"/>
    </g>
    <g id="text_23">
     <!-- Versuch SV14 -->
     <g transform="translate(296.143146 118.662822) scale(0.1 -0.1)">
      <defs>
       <path id="CMR17-56" d="M 3776 3762 
C 3834 3903 3936 4179 4365 4185 
L 4365 4352 
C 4218 4339 4051 4339 3891 4339 
C 3738 4339 3475 4339 3328 4352 
L 3328 4185 
C 3648 4166 3661 3942 3661 3903 
C 3661 3833 3642 3788 3622 3737 
L 2362 448 
L 1043 3903 
C 1024 3948 1011 3980 1011 4012 
C 1011 4185 1267 4185 1402 4185 
L 1402 4352 
C 1197 4339 896 4339 685 4339 
C 518 4339 218 4339 64 4352 
L 64 4185 
C 435 4185 506 4160 582 3955 
L 2106 -26 
C 2138 -116 2144 -128 2214 -128 
C 2285 -128 2291 -116 2323 -26 
L 3776 3762 
z
" transform="scale(0.015625)"/>
       <path id="CMR17-53" d="M 2803 4351 
C 2803 4467 2797 4473 2758 4473 
C 2720 4473 2707 4447 2682 4390 
L 2490 3965 
C 2246 4320 1875 4480 1472 4480 
C 819 4480 294 3958 294 3301 
C 294 3101 339 2817 557 2546 
C 794 2250 1018 2198 1530 2063 
C 1722 2011 2042 1927 2106 1901 
C 2470 1747 2662 1360 2662 999 
C 2662 534 2336 38 1779 38 
C 1094 38 454 425 410 1328 
C 403 1431 397 1437 352 1437 
C 301 1437 294 1431 294 1302 
L 294 0 
C 294 -116 301 -122 339 -122 
C 384 -122 397 -90 486 109 
C 493 128 493 141 614 386 
C 934 -39 1472 -128 1779 -128 
C 2477 -128 2970 457 2970 1141 
C 2970 1476 2848 1734 2778 1850 
C 2509 2263 2221 2340 1914 2417 
C 1869 2437 1856 2437 1498 2527 
C 1152 2617 1005 2662 845 2836 
C 666 3036 602 3243 602 3449 
C 602 3868 934 4326 1478 4326 
C 2157 4326 2579 3842 2675 3036 
C 2694 2920 2701 2914 2746 2914 
C 2803 2914 2803 2933 2803 3043 
L 2803 4351 
z
" transform="scale(0.015625)"/>
      </defs>
      <use xlink:href="#CMR17-56" transform="scale(0.996264)"/>
      <use xlink:href="#CMR17-65" transform="translate(61.265174 0) scale(0.996264)"/>
      <use xlink:href="#CMR17-72" transform="translate(101.750835 0) scale(0.996264)"/>
      <use xlink:href="#CMR17-73" transform="translate(137.031603 0) scale(0.996264)"/>
      <use xlink:href="#CMR17-75" transform="translate(172.83294 0) scale(0.996264)"/>
      <use xlink:href="#CMR17-63" transform="translate(223.72831 0) scale(0.996264)"/>
      <use xlink:href="#CMR17-68" transform="translate(261.611517 0) scale(0.996264)"/>
      <use xlink:href="#CMR17-53" transform="translate(342.582853 0) scale(0.996264)"/>
      <use xlink:href="#CMR17-56" transform="translate(393.478223 0) scale(0.996264)"/>
      <use xlink:href="#CMR17-31" transform="translate(462.550652 0) scale(0.996264)"/>
      <use xlink:href="#CMR17-34" transform="translate(508.241129 0) scale(0.996264)"/>
     </g>
    </g>
   </g>
  </g>
 </g>
 <defs>
  <clipPath id="pbf6e735a0a">
   <rect x="41.599174" y="7.2" width="362.7" height="122.4"/>
  </clipPath>
 </defs>
</svg>
