<?xml version="1.0" encoding="utf-8" standalone="no"?>
<!DOCTYPE svg PUBLIC "-//W3C//DTD SVG 1.1//EN"
  "http://www.w3.org/Graphics/SVG/1.1/DTD/svg11.dtd">
<svg xmlns:xlink="http://www.w3.org/1999/xlink" width="411.499174pt" height="165.110845pt" viewBox="0 0 411.499174 165.110845" xmlns="http://www.w3.org/2000/svg" version="1.1">
 <metadata>
  <rdf:RDF xmlns:dc="http://purl.org/dc/elements/1.1/" xmlns:cc="http://creativecommons.org/ns#" xmlns:rdf="http://www.w3.org/1999/02/22-rdf-syntax-ns#">
   <cc:Work>
    <dc:type rdf:resource="http://purl.org/dc/dcmitype/StillImage"/>
    <dc:date>2024-04-02T15:10:25.859263</dc:date>
    <dc:format>image/svg+xml</dc:format>
    <dc:creator>
     <cc:Agent>
      <dc:title>Matplotlib v3.8.3, https://matplotlib.org/</dc:title>
     </cc:Agent>
    </dc:creator>
   </cc:Work>
  </rdf:RDF>
 </metadata>
 <defs>
  <style type="text/css">*{stroke-linejoin: round; stroke-linecap: butt}</style>
 </defs>
 <g id="figure_1">
  <g id="patch_1">
   <path d="M 0 165.110845 
L 411.499174 165.110845 
L 411.499174 0 
L 0 0 
z
" style="fill: #ffffff"/>
  </g>
  <g id="axes_1">
   <g id="patch_2">
    <path d="M 41.599174 129.6 
L 404.299174 129.6 
L 404.299174 7.2 
L 41.599174 7.2 
z
" style="fill: #ffffff"/>
   </g>
   <g id="matplotlib.axis_1">
    <g id="xtick_1">
     <g id="line2d_1">
      <path d="M 58.085538 129.6 
L 58.085538 7.2 
" clip-path="url(#p70e5ecfa4f)" style="fill: none; stroke: #d3d3d3; stroke-width: 0.2; stroke-linecap: square"/>
     </g>
     <g id="line2d_2">
      <defs>
       <path id="ma77cb1d6ae" d="M 0 0 
L 0 -3.5 
" style="stroke: #000000; stroke-width: 0.8"/>
      </defs>
      <g>
       <use xlink:href="#ma77cb1d6ae" x="58.085538" y="129.6" style="stroke: #000000; stroke-width: 0.8"/>
      </g>
     </g>
     <g id="text_1">
      <!-- $\mathdefault{0}$ -->
      <g transform="translate(55.59487 140.018498) scale(0.1 -0.1)">
       <defs>
        <path id="CMR17-30" d="M 2688 2025 
C 2688 2416 2682 3080 2413 3591 
C 2176 4039 1798 4198 1466 4198 
C 1158 4198 768 4058 525 3597 
C 269 3118 243 2524 243 2025 
C 243 1661 250 1106 448 619 
C 723 -39 1216 -128 1466 -128 
C 1760 -128 2208 -7 2470 600 
C 2662 1042 2688 1559 2688 2025 
z
M 1466 -26 
C 1056 -26 813 325 723 812 
C 653 1188 653 1738 653 2096 
C 653 2588 653 2997 736 3387 
C 858 3929 1216 4096 1466 4096 
C 1728 4096 2067 3923 2189 3400 
C 2272 3036 2278 2607 2278 2096 
C 2278 1680 2278 1169 2202 792 
C 2067 95 1690 -26 1466 -26 
z
" transform="scale(0.015625)"/>
       </defs>
       <use xlink:href="#CMR17-30" transform="scale(0.996264)"/>
      </g>
     </g>
    </g>
    <g id="xtick_2">
     <g id="line2d_3">
      <path d="M 102.154099 129.6 
L 102.154099 7.2 
" clip-path="url(#p70e5ecfa4f)" style="fill: none; stroke: #d3d3d3; stroke-width: 0.2; stroke-linecap: square"/>
     </g>
     <g id="line2d_4">
      <g>
       <use xlink:href="#ma77cb1d6ae" x="102.154099" y="129.6" style="stroke: #000000; stroke-width: 0.8"/>
      </g>
     </g>
     <g id="text_2">
      <!-- $\mathdefault{5}$ -->
      <g transform="translate(99.663431 140.018498) scale(0.1 -0.1)">
       <defs>
        <path id="CMR17-35" d="M 730 3692 
C 794 3666 1056 3584 1325 3584 
C 1920 3584 2246 3911 2432 4100 
C 2432 4157 2432 4192 2394 4192 
C 2387 4192 2374 4192 2323 4163 
C 2099 4058 1837 3973 1517 3973 
C 1325 3973 1037 3999 723 4139 
C 653 4171 640 4171 634 4171 
C 602 4171 595 4164 595 4037 
L 595 2203 
C 595 2089 595 2057 659 2057 
C 691 2057 704 2070 736 2114 
C 941 2401 1222 2522 1542 2522 
C 1766 2522 2246 2382 2246 1289 
C 2246 1085 2246 715 2054 421 
C 1894 159 1645 25 1370 25 
C 947 25 518 320 403 814 
C 429 807 480 795 506 795 
C 589 795 749 840 749 1038 
C 749 1210 627 1280 506 1280 
C 358 1280 262 1190 262 1011 
C 262 454 704 -128 1382 -128 
C 2042 -128 2669 440 2669 1264 
C 2669 2030 2170 2624 1549 2624 
C 1222 2624 947 2503 730 2274 
L 730 3692 
z
" transform="scale(0.015625)"/>
       </defs>
       <use xlink:href="#CMR17-35" transform="scale(0.996264)"/>
      </g>
     </g>
    </g>
    <g id="xtick_3">
     <g id="line2d_5">
      <path d="M 146.222661 129.6 
L 146.222661 7.2 
" clip-path="url(#p70e5ecfa4f)" style="fill: none; stroke: #d3d3d3; stroke-width: 0.2; stroke-linecap: square"/>
     </g>
     <g id="line2d_6">
      <g>
       <use xlink:href="#ma77cb1d6ae" x="146.222661" y="129.6" style="stroke: #000000; stroke-width: 0.8"/>
      </g>
     </g>
     <g id="text_3">
      <!-- $\mathdefault{10}$ -->
      <g transform="translate(141.241325 140.018498) scale(0.1 -0.1)">
       <defs>
        <path id="CMR17-31" d="M 1702 4058 
C 1702 4192 1696 4192 1606 4192 
C 1357 3916 979 3827 621 3827 
C 602 3827 570 3827 563 3808 
C 557 3795 557 3782 557 3648 
C 755 3648 1088 3686 1344 3839 
L 1344 461 
C 1344 236 1331 160 781 160 
L 589 160 
L 589 0 
C 896 0 1216 0 1523 0 
C 1830 0 2150 0 2458 0 
L 2458 160 
L 2266 160 
C 1715 160 1702 230 1702 458 
L 1702 4058 
z
" transform="scale(0.015625)"/>
       </defs>
       <use xlink:href="#CMR17-31" transform="scale(0.996264)"/>
       <use xlink:href="#CMR17-30" transform="translate(45.690477 0) scale(0.996264)"/>
      </g>
     </g>
    </g>
    <g id="xtick_4">
     <g id="line2d_7">
      <path d="M 190.291222 129.6 
L 190.291222 7.2 
" clip-path="url(#p70e5ecfa4f)" style="fill: none; stroke: #d3d3d3; stroke-width: 0.2; stroke-linecap: square"/>
     </g>
     <g id="line2d_8">
      <g>
       <use xlink:href="#ma77cb1d6ae" x="190.291222" y="129.6" style="stroke: #000000; stroke-width: 0.8"/>
      </g>
     </g>
     <g id="text_4">
      <!-- $\mathdefault{15}$ -->
      <g transform="translate(185.309887 140.018498) scale(0.1 -0.1)">
       <use xlink:href="#CMR17-31" transform="scale(0.996264)"/>
       <use xlink:href="#CMR17-35" transform="translate(45.690477 0) scale(0.996264)"/>
      </g>
     </g>
    </g>
    <g id="xtick_5">
     <g id="line2d_9">
      <path d="M 234.359784 129.6 
L 234.359784 7.2 
" clip-path="url(#p70e5ecfa4f)" style="fill: none; stroke: #d3d3d3; stroke-width: 0.2; stroke-linecap: square"/>
     </g>
     <g id="line2d_10">
      <g>
       <use xlink:href="#ma77cb1d6ae" x="234.359784" y="129.6" style="stroke: #000000; stroke-width: 0.8"/>
      </g>
     </g>
     <g id="text_5">
      <!-- $\mathdefault{20}$ -->
      <g transform="translate(229.378448 140.018498) scale(0.1 -0.1)">
       <defs>
        <path id="CMR17-32" d="M 2669 989 
L 2554 989 
C 2490 536 2438 459 2413 420 
C 2381 369 1920 369 1830 369 
L 602 369 
C 832 619 1280 1072 1824 1597 
C 2214 1967 2669 2402 2669 3035 
C 2669 3790 2067 4224 1395 4224 
C 691 4224 262 3604 262 3030 
C 262 2780 448 2748 525 2748 
C 589 2748 781 2787 781 3010 
C 781 3207 614 3264 525 3264 
C 486 3264 448 3258 422 3245 
C 544 3790 915 4058 1306 4058 
C 1862 4058 2227 3617 2227 3035 
C 2227 2479 1901 2000 1536 1584 
L 262 146 
L 262 0 
L 2515 0 
L 2669 989 
z
" transform="scale(0.015625)"/>
       </defs>
       <use xlink:href="#CMR17-32" transform="scale(0.996264)"/>
       <use xlink:href="#CMR17-30" transform="translate(45.690477 0) scale(0.996264)"/>
      </g>
     </g>
    </g>
    <g id="xtick_6">
     <g id="line2d_11">
      <path d="M 278.428345 129.6 
L 278.428345 7.2 
" clip-path="url(#p70e5ecfa4f)" style="fill: none; stroke: #d3d3d3; stroke-width: 0.2; stroke-linecap: square"/>
     </g>
     <g id="line2d_12">
      <g>
       <use xlink:href="#ma77cb1d6ae" x="278.428345" y="129.6" style="stroke: #000000; stroke-width: 0.8"/>
      </g>
     </g>
     <g id="text_6">
      <!-- $\mathdefault{25}$ -->
      <g transform="translate(273.44701 140.018498) scale(0.1 -0.1)">
       <use xlink:href="#CMR17-32" transform="scale(0.996264)"/>
       <use xlink:href="#CMR17-35" transform="translate(45.690477 0) scale(0.996264)"/>
      </g>
     </g>
    </g>
    <g id="xtick_7">
     <g id="line2d_13">
      <path d="M 322.496907 129.6 
L 322.496907 7.2 
" clip-path="url(#p70e5ecfa4f)" style="fill: none; stroke: #d3d3d3; stroke-width: 0.2; stroke-linecap: square"/>
     </g>
     <g id="line2d_14">
      <g>
       <use xlink:href="#ma77cb1d6ae" x="322.496907" y="129.6" style="stroke: #000000; stroke-width: 0.8"/>
      </g>
     </g>
     <g id="text_7">
      <!-- $\mathdefault{30}$ -->
      <g transform="translate(317.515571 140.018498) scale(0.1 -0.1)">
       <defs>
        <path id="CMR17-33" d="M 1414 2157 
C 1984 2157 2234 1662 2234 1090 
C 2234 320 1824 25 1453 25 
C 1114 25 563 194 390 693 
C 422 680 454 680 486 680 
C 640 680 755 782 755 948 
C 755 1133 614 1216 486 1216 
C 378 1216 211 1165 211 926 
C 211 335 787 -128 1466 -128 
C 2176 -128 2720 430 2720 1085 
C 2720 1707 2208 2157 1600 2227 
C 2086 2328 2554 2756 2554 3329 
C 2554 3820 2048 4179 1472 4179 
C 890 4179 378 3829 378 3329 
C 378 3110 544 3072 627 3072 
C 762 3072 877 3155 877 3321 
C 877 3486 762 3569 627 3569 
C 602 3569 570 3569 544 3557 
C 730 3959 1235 4032 1459 4032 
C 1683 4032 2106 3925 2106 3320 
C 2106 3143 2080 2828 1862 2550 
C 1670 2304 1453 2304 1242 2284 
C 1210 2284 1062 2269 1037 2269 
C 992 2263 966 2257 966 2208 
C 966 2163 973 2157 1101 2157 
L 1414 2157 
z
" transform="scale(0.015625)"/>
       </defs>
       <use xlink:href="#CMR17-33" transform="scale(0.996264)"/>
       <use xlink:href="#CMR17-30" transform="translate(45.690477 0) scale(0.996264)"/>
      </g>
     </g>
    </g>
    <g id="xtick_8">
     <g id="line2d_15">
      <path d="M 366.565468 129.6 
L 366.565468 7.2 
" clip-path="url(#p70e5ecfa4f)" style="fill: none; stroke: #d3d3d3; stroke-width: 0.2; stroke-linecap: square"/>
     </g>
     <g id="line2d_16">
      <g>
       <use xlink:href="#ma77cb1d6ae" x="366.565468" y="129.6" style="stroke: #000000; stroke-width: 0.8"/>
      </g>
     </g>
     <g id="text_8">
      <!-- $\mathdefault{35}$ -->
      <g transform="translate(361.584133 140.018498) scale(0.1 -0.1)">
       <use xlink:href="#CMR17-33" transform="scale(0.996264)"/>
       <use xlink:href="#CMR17-35" transform="translate(45.690477 0) scale(0.996264)"/>
      </g>
     </g>
    </g>
    <g id="text_9">
     <!-- $w_{1}$ [mm] -->
     <g transform="translate(201.441457 154.922053) scale(0.12 -0.12)">
      <defs>
       <path id="CMMI12-77" d="M 2202 390 
C 2342 6 2739 -64 2982 -64 
C 3469 -64 3757 358 3936 798 
C 4083 1169 4320 2012 4320 2389 
C 4320 2778 4122 2816 4064 2816 
C 3910 2816 3770 2663 3770 2535 
C 3770 2459 3814 2414 3846 2389 
C 3904 2331 4070 2159 4070 1827 
C 4070 1609 3891 1009 3757 709 
C 3578 319 3341 64 3008 64 
C 2650 64 2534 332 2534 626 
C 2534 811 2592 1035 2618 1143 
L 2886 2216 
C 2918 2344 2976 2567 2976 2593 
C 2976 2689 2899 2753 2803 2753 
C 2618 2753 2573 2593 2534 2440 
C 2470 2191 2202 1111 2176 971 
C 2150 862 2150 792 2150 651 
C 2150 498 1946 255 1939 243 
C 1869 172 1766 64 1568 64 
C 1062 64 1062 543 1062 651 
C 1062 856 1107 1137 1395 1897 
C 1472 2095 1504 2178 1504 2305 
C 1504 2574 1312 2816 998 2816 
C 410 2816 173 1890 173 1839 
C 173 1814 198 1782 243 1782 
C 301 1782 307 1807 333 1896 
C 493 2454 742 2682 979 2682 
C 1043 2682 1146 2682 1146 2478 
C 1146 2446 1146 2312 1037 2031 
C 736 1233 672 971 672 728 
C 672 57 1222 -64 1549 -64 
C 1658 -64 1946 -64 2202 390 
z
" transform="scale(0.015625)"/>
       <path id="CMR17-5b" d="M 1504 -1600 
L 1504 -1377 
L 902 -1377 
L 902 4544 
L 1504 4544 
L 1504 4767 
L 678 4767 
L 678 -1600 
L 1504 -1600 
z
" transform="scale(0.015625)"/>
       <path id="CMR17-6d" d="M 4326 1933 
C 4326 2252 4269 2790 3507 2790 
C 3072 2790 2771 2496 2656 2151 
L 2650 2151 
C 2573 2676 2195 2790 1837 2790 
C 1331 2790 1069 2400 973 2144 
L 966 2144 
L 966 2790 
L 211 2720 
L 211 2554 
C 589 2554 646 2515 646 2208 
L 646 428 
C 646 184 621 153 211 153 
L 211 -13 
C 365 0 646 0 813 0 
C 979 0 1267 0 1421 -13 
L 1421 153 
C 1011 153 986 178 986 428 
L 986 1658 
C 986 2247 1344 2688 1792 2688 
C 2266 2688 2317 2266 2317 1958 
L 2317 428 
C 2317 184 2291 153 1882 153 
L 1882 -13 
C 2035 0 2317 0 2483 0 
C 2650 0 2938 0 3091 -13 
L 3091 153 
C 2682 153 2656 178 2656 428 
L 2656 1658 
C 2656 2247 3014 2688 3462 2688 
C 3936 2688 3987 2266 3987 1958 
L 3987 428 
C 3987 184 3962 153 3552 153 
L 3552 -13 
C 3706 0 3987 0 4154 0 
C 4320 0 4608 0 4762 -13 
L 4762 153 
C 4352 153 4326 178 4326 428 
L 4326 1933 
z
" transform="scale(0.015625)"/>
       <path id="CMR17-5d" d="M 915 4767 
L 90 4767 
L 90 4544 
L 691 4544 
L 691 -1377 
L 90 -1377 
L 90 -1600 
L 915 -1600 
L 915 4767 
z
" transform="scale(0.015625)"/>
      </defs>
      <use xlink:href="#CMMI12-77" transform="scale(0.996264)"/>
      <use xlink:href="#CMR17-31" transform="translate(69.73199 -14.943915) scale(0.697382)"/>
      <use xlink:href="#CMR17-5b" transform="translate(132.28927 0) scale(0.996264)"/>
      <use xlink:href="#CMR17-6d" transform="translate(157.160328 0) scale(0.996264)"/>
      <use xlink:href="#CMR17-6d" transform="translate(234.079918 0) scale(0.996264)"/>
      <use xlink:href="#CMR17-5d" transform="translate(310.999508 0) scale(0.996264)"/>
     </g>
    </g>
   </g>
   <g id="matplotlib.axis_2">
    <g id="ytick_1">
     <g id="line2d_17">
      <path d="M 41.599174 124.036364 
L 404.299174 124.036364 
" clip-path="url(#p70e5ecfa4f)" style="fill: none; stroke: #d3d3d3; stroke-width: 0.2; stroke-linecap: square"/>
     </g>
     <g id="line2d_18">
      <defs>
       <path id="m862b41ce70" d="M 0 0 
L 3.5 0 
" style="stroke: #000000; stroke-width: 0.8"/>
      </defs>
      <g>
       <use xlink:href="#m862b41ce70" x="41.599174" y="124.036364" style="stroke: #000000; stroke-width: 0.8"/>
      </g>
     </g>
     <g id="text_10">
      <!-- $\mathdefault{0}$ -->
      <g transform="translate(33.117839 127.495613) scale(0.1 -0.1)">
       <use xlink:href="#CMR17-30" transform="scale(0.996264)"/>
      </g>
     </g>
    </g>
    <g id="ytick_2">
     <g id="line2d_19">
      <path d="M 41.599174 102.841558 
L 404.299174 102.841558 
" clip-path="url(#p70e5ecfa4f)" style="fill: none; stroke: #d3d3d3; stroke-width: 0.2; stroke-linecap: square"/>
     </g>
     <g id="line2d_20">
      <g>
       <use xlink:href="#m862b41ce70" x="41.599174" y="102.841558" style="stroke: #000000; stroke-width: 0.8"/>
      </g>
     </g>
     <g id="text_11">
      <!-- $\mathdefault{20}$ -->
      <g transform="translate(28.136503 106.300808) scale(0.1 -0.1)">
       <use xlink:href="#CMR17-32" transform="scale(0.996264)"/>
       <use xlink:href="#CMR17-30" transform="translate(45.690477 0) scale(0.996264)"/>
      </g>
     </g>
    </g>
    <g id="ytick_3">
     <g id="line2d_21">
      <path d="M 41.599174 81.646753 
L 404.299174 81.646753 
" clip-path="url(#p70e5ecfa4f)" style="fill: none; stroke: #d3d3d3; stroke-width: 0.2; stroke-linecap: square"/>
     </g>
     <g id="line2d_22">
      <g>
       <use xlink:href="#m862b41ce70" x="41.599174" y="81.646753" style="stroke: #000000; stroke-width: 0.8"/>
      </g>
     </g>
     <g id="text_12">
      <!-- $\mathdefault{40}$ -->
      <g transform="translate(28.136503 85.106002) scale(0.1 -0.1)">
       <defs>
        <path id="CMR17-34" d="M 2150 4122 
C 2150 4256 2144 4256 2029 4256 
L 128 1254 
L 128 1088 
L 1779 1088 
L 1779 457 
C 1779 224 1766 160 1318 160 
L 1197 160 
L 1197 0 
C 1402 0 1747 0 1965 0 
C 2182 0 2528 0 2733 0 
L 2733 160 
L 2611 160 
C 2163 160 2150 224 2150 457 
L 2150 1088 
L 2803 1088 
L 2803 1254 
L 2150 1254 
L 2150 4122 
z
M 1798 3703 
L 1798 1254 
L 256 1254 
L 1798 3703 
z
" transform="scale(0.015625)"/>
       </defs>
       <use xlink:href="#CMR17-34" transform="scale(0.996264)"/>
       <use xlink:href="#CMR17-30" transform="translate(45.690477 0) scale(0.996264)"/>
      </g>
     </g>
    </g>
    <g id="ytick_4">
     <g id="line2d_23">
      <path d="M 41.599174 60.451948 
L 404.299174 60.451948 
" clip-path="url(#p70e5ecfa4f)" style="fill: none; stroke: #d3d3d3; stroke-width: 0.2; stroke-linecap: square"/>
     </g>
     <g id="line2d_24">
      <g>
       <use xlink:href="#m862b41ce70" x="41.599174" y="60.451948" style="stroke: #000000; stroke-width: 0.8"/>
      </g>
     </g>
     <g id="text_13">
      <!-- $\mathdefault{60}$ -->
      <g transform="translate(28.136503 63.911197) scale(0.1 -0.1)">
       <defs>
        <path id="CMR17-36" d="M 678 2176 
C 678 3690 1395 4032 1811 4032 
C 1946 4032 2272 4009 2400 3776 
C 2298 3776 2106 3776 2106 3553 
C 2106 3381 2246 3323 2336 3323 
C 2394 3323 2566 3348 2566 3560 
C 2566 3954 2246 4179 1805 4179 
C 1043 4179 243 3390 243 1984 
C 243 253 966 -128 1478 -128 
C 2099 -128 2688 427 2688 1283 
C 2688 2081 2170 2662 1517 2662 
C 1126 2662 838 2407 678 1960 
L 678 2176 
z
M 1478 25 
C 691 25 691 1200 691 1436 
C 691 1896 909 2560 1504 2560 
C 1613 2560 1926 2560 2138 2120 
C 2253 1870 2253 1609 2253 1289 
C 2253 944 2253 690 2118 434 
C 1978 171 1773 25 1478 25 
z
" transform="scale(0.015625)"/>
       </defs>
       <use xlink:href="#CMR17-36" transform="scale(0.996264)"/>
       <use xlink:href="#CMR17-30" transform="translate(45.690477 0) scale(0.996264)"/>
      </g>
     </g>
    </g>
    <g id="ytick_5">
     <g id="line2d_25">
      <path d="M 41.599174 39.257143 
L 404.299174 39.257143 
" clip-path="url(#p70e5ecfa4f)" style="fill: none; stroke: #d3d3d3; stroke-width: 0.2; stroke-linecap: square"/>
     </g>
     <g id="line2d_26">
      <g>
       <use xlink:href="#m862b41ce70" x="41.599174" y="39.257143" style="stroke: #000000; stroke-width: 0.8"/>
      </g>
     </g>
     <g id="text_14">
      <!-- $\mathdefault{80}$ -->
      <g transform="translate(28.136503 42.716392) scale(0.1 -0.1)">
       <defs>
        <path id="CMR17-38" d="M 1741 2264 
C 2144 2467 2554 2773 2554 3263 
C 2554 3841 1990 4179 1472 4179 
C 890 4179 378 3759 378 3180 
C 378 3021 416 2747 666 2505 
C 730 2442 998 2251 1171 2130 
C 883 1983 211 1634 211 934 
C 211 279 838 -128 1459 -128 
C 2144 -128 2720 362 2720 1010 
C 2720 1590 2330 1857 2074 2029 
L 1741 2264 
z
M 902 2822 
C 851 2854 595 3051 595 3351 
C 595 3739 998 4032 1459 4032 
C 1965 4032 2336 3676 2336 3262 
C 2336 2669 1670 2331 1638 2331 
C 1632 2331 1626 2331 1574 2370 
L 902 2822 
z
M 2080 1519 
C 2176 1449 2483 1240 2483 851 
C 2483 381 2010 25 1472 25 
C 890 25 448 438 448 940 
C 448 1443 838 1862 1280 2060 
L 2080 1519 
z
" transform="scale(0.015625)"/>
       </defs>
       <use xlink:href="#CMR17-38" transform="scale(0.996264)"/>
       <use xlink:href="#CMR17-30" transform="translate(45.690477 0) scale(0.996264)"/>
      </g>
     </g>
    </g>
    <g id="ytick_6">
     <g id="line2d_27">
      <path d="M 41.599174 18.062338 
L 404.299174 18.062338 
" clip-path="url(#p70e5ecfa4f)" style="fill: none; stroke: #d3d3d3; stroke-width: 0.2; stroke-linecap: square"/>
     </g>
     <g id="line2d_28">
      <g>
       <use xlink:href="#m862b41ce70" x="41.599174" y="18.062338" style="stroke: #000000; stroke-width: 0.8"/>
      </g>
     </g>
     <g id="text_15">
      <!-- $\mathdefault{100}$ -->
      <g transform="translate(23.155168 21.521587) scale(0.1 -0.1)">
       <use xlink:href="#CMR17-31" transform="scale(0.996264)"/>
       <use xlink:href="#CMR17-30" transform="translate(45.690477 0) scale(0.996264)"/>
       <use xlink:href="#CMR17-30" transform="translate(91.380954 0) scale(0.996264)"/>
      </g>
     </g>
    </g>
    <g id="text_16">
     <!-- $F_{A}$ [kN] -->
     <g transform="translate(16.166376 88.288849) rotate(-90) scale(0.12 -0.12)">
      <defs>
       <path id="CMMI12-46" d="M 1901 2055 
L 2515 2055 
C 3002 2055 3040 1946 3040 1761 
C 3040 1678 3027 1589 2995 1448 
C 2982 1423 2976 1391 2976 1378 
C 2976 1333 3002 1308 3046 1308 
C 3098 1308 3104 1333 3130 1435 
L 3501 2935 
C 3501 2961 3482 2999 3437 2999 
C 3379 2999 3373 2974 3347 2863 
C 3213 2376 3085 2240 2528 2240 
L 1946 2240 
L 2362 3926 
C 2419 4154 2432 4154 2694 4154 
L 3552 4154 
C 4352 4154 4467 3918 4467 3464 
C 4467 3426 4467 3285 4448 3119 
C 4442 3094 4429 3011 4429 2985 
C 4429 2934 4461 2915 4499 2915 
C 4544 2915 4570 2941 4582 3055 
L 4717 4174 
C 4717 4195 4730 4263 4730 4277 
C 4730 4352 4672 4352 4557 4352 
L 1523 4352 
C 1402 4352 1338 4352 1338 4229 
C 1338 4154 1382 4154 1491 4154 
C 1888 4154 1888 4113 1888 4050 
C 1888 4018 1882 3992 1862 3922 
L 998 473 
C 941 249 928 185 480 185 
C 358 185 294 185 294 70 
C 294 0 352 0 390 0 
C 512 0 640 0 762 0 
L 1594 0 
C 1734 0 1888 0 2029 0 
C 2086 0 2163 0 2163 115 
C 2163 185 2125 185 1984 185 
C 1478 185 1466 229 1466 324 
C 1466 356 1478 406 1491 449 
L 1901 2055 
z
" transform="scale(0.015625)"/>
       <path id="CMMI12-41" d="M 1088 691 
C 864 314 646 186 339 186 
C 269 180 218 180 218 58 
C 218 24 250 0 294 0 
C 410 0 698 0 813 0 
C 998 0 1203 0 1382 0 
C 1421 0 1498 0 1498 122 
C 1498 180 1446 186 1408 186 
C 1261 186 1139 236 1139 388 
C 1139 476 1178 546 1261 685 
L 1747 1479 
L 3379 1479 
C 3386 1423 3386 1373 3392 1316 
C 3411 1152 3488 495 3488 376 
C 3488 186 3162 186 3059 186 
C 2989 186 2918 186 2918 70 
C 2918 0 2976 0 3014 0 
C 3123 0 3251 0 3360 0 
L 3725 0 
C 4115 0 4397 0 4403 0 
C 4448 0 4518 0 4518 122 
C 4518 186 4461 186 4365 186 
C 4013 186 4006 244 3987 434 
L 3597 4404 
C 3584 4531 3558 4544 3488 4544 
C 3424 4544 3386 4531 3328 4435 
L 1088 691 
z
M 1856 1664 
L 3142 3819 
L 3360 1664 
L 1856 1664 
z
" transform="scale(0.015625)"/>
       <path id="CMR17-6b" d="M 1670 1673 
C 1664 1686 1632 1724 1632 1743 
C 1632 1756 2086 2171 2144 2222 
C 2509 2528 2739 2560 2906 2560 
L 2906 2733 
C 2867 2733 2854 2733 2848 2720 
L 2534 2720 
C 2355 2720 2080 2720 1907 2733 
L 1907 2566 
C 1997 2559 2061 2508 2061 2419 
C 2061 2291 1933 2170 1926 2170 
L 960 1289 
L 960 4396 
L 198 4326 
L 198 4160 
C 576 4160 634 4122 634 3817 
L 634 426 
C 634 184 608 153 198 153 
L 198 -13 
C 352 0 634 0 794 0 
C 954 0 1235 0 1389 -13 
L 1389 153 
C 979 153 954 178 954 428 
L 954 1130 
L 1395 1532 
L 2042 574 
C 2118 459 2182 369 2182 286 
C 2182 172 2067 153 1990 153 
L 1990 -13 
C 2144 0 2419 0 2579 0 
C 2694 0 2931 0 3040 0 
L 3040 153 
C 2739 153 2669 210 2477 491 
L 1670 1673 
z
" transform="scale(0.015625)"/>
       <path id="CMR17-4e" d="M 1312 4250 
C 1267 4320 1261 4320 1139 4320 
L 326 4320 
L 326 4160 
L 448 4160 
C 704 4160 819 4129 838 4122 
L 838 610 
C 838 451 838 153 326 153 
L 326 -13 
C 474 0 742 0 902 0 
C 1062 0 1331 0 1478 -13 
L 1478 153 
C 966 153 966 451 966 610 
L 966 4033 
C 1011 3995 1011 3982 1056 3919 
L 3430 76 
C 3475 0 3494 0 3526 0 
C 3590 0 3590 19 3590 139 
L 3590 3705 
C 3590 3863 3590 4160 4102 4160 
L 4102 4326 
C 3955 4320 3686 4320 3526 4320 
C 3366 4320 3098 4320 2950 4326 
L 2950 4160 
C 3462 4160 3462 3862 3462 3703 
L 3462 763 
L 1312 4250 
z
" transform="scale(0.015625)"/>
      </defs>
      <use xlink:href="#CMMI12-46" transform="scale(0.996264)"/>
      <use xlink:href="#CMMI12-41" transform="translate(63.148204 -14.943915) scale(0.697382)"/>
      <use xlink:href="#CMR17-5b" transform="translate(144.911599 0) scale(0.996264)"/>
      <use xlink:href="#CMR17-6b" transform="translate(169.782657 0) scale(0.996264)"/>
      <use xlink:href="#CMR17-4e" transform="translate(218.075573 0) scale(0.996264)"/>
      <use xlink:href="#CMR17-5d" transform="translate(287.148003 0) scale(0.996264)"/>
     </g>
    </g>
   </g>
   <g id="line2d_29">
    <path d="M 58.086019 124.035304 
L 58.59715 122.911348 
L 59.108281 121.787391 
L 59.619411 120.663435 
L 60.130542 119.539479 
L 60.641672 118.415523 
L 61.152803 117.291566 
L 61.663933 116.16761 
L 62.175064 115.043654 
L 62.686195 113.919698 
L 63.197325 112.795742 
L 63.708456 111.671785 
L 64.219586 110.547829 
L 64.730717 109.423873 
L 65.241847 108.299917 
L 65.752978 107.17596 
L 66.264109 106.052004 
L 66.775239 104.928048 
L 67.28637 103.804092 
L 67.7975 102.680135 
L 68.308631 101.556179 
L 68.819761 100.432223 
L 69.330892 99.308267 
L 69.842022 98.18431 
L 70.353153 97.060354 
L 70.864284 95.936398 
L 71.375414 94.812442 
L 71.886545 93.688485 
L 72.397675 92.564529 
L 72.908806 91.440573 
L 73.419936 90.316617 
L 73.931067 89.192661 
L 74.442198 88.068704 
L 74.953328 86.944748 
L 75.464459 85.820792 
L 75.975589 84.696836 
L 76.48672 83.572879 
L 76.99785 82.448923 
L 77.508981 81.324967 
L 78.020112 80.201011 
L 78.531242 79.077054 
L 79.042373 77.953098 
L 79.553503 76.829142 
L 80.064634 75.705186 
L 80.575764 74.581229 
L 81.086895 73.457273 
L 81.598026 72.333317 
L 82.109156 71.209361 
L 82.620287 70.085404 
L 83.131417 68.961448 
L 83.642548 67.837492 
L 84.153678 66.713536 
L 84.664809 65.58958 
L 85.175939 64.465623 
L 85.68707 63.341667 
L 86.198201 62.217711 
L 86.709331 61.093755 
L 87.220462 59.969798 
L 87.731592 58.845842 
L 88.242723 57.721886 
L 88.753853 56.59793 
L 89.264984 55.473973 
L 89.776115 54.350017 
L 90.287245 53.226061 
L 90.798376 52.102105 
L 91.309506 50.978148 
L 91.820637 49.854192 
L 92.331767 48.730236 
L 92.842898 47.60628 
L 93.354029 46.482323 
L 93.865159 45.358367 
L 94.37629 44.234411 
L 94.88742 43.110455 
L 95.398551 41.986499 
L 95.909681 40.862542 
L 96.420812 39.738586 
L 96.931943 38.61463 
L 97.443073 37.490674 
L 97.954204 36.366717 
L 98.465334 35.242761 
L 98.976465 34.118805 
L 99.487595 32.994849 
L 99.998726 31.870892 
L 100.509856 30.746936 
L 101.020987 29.62298 
L 101.532118 28.499024 
L 102.043248 27.375067 
L 102.554379 26.251111 
L 103.065509 25.127155 
L 103.57664 24.003199 
L 104.08777 22.879243 
L 104.598901 21.755286 
L 105.110032 20.63133 
L 105.621162 19.507374 
L 106.132293 18.383418 
L 106.643423 17.259461 
L 107.154554 16.135505 
L 107.665684 15.011549 
L 108.176815 13.887593 
L 108.687946 12.763636 
" clip-path="url(#p70e5ecfa4f)" style="fill: none; stroke: #000000; stroke-width: 0.7; stroke-linecap: square"/>
   </g>
   <g id="line2d_30">
    <path d="M 58.087261 124.035304 
L 59.915599 122.911348 
L 61.743937 121.787391 
L 63.572275 120.663435 
L 65.400613 119.539479 
L 67.228951 118.415523 
L 69.057289 117.291566 
L 70.885626 116.16761 
L 72.713964 115.043654 
L 74.542302 113.919698 
L 76.37064 112.795742 
L 78.198978 111.671785 
L 80.027316 110.547829 
L 81.855654 109.423873 
L 83.683991 108.299917 
L 85.512329 107.17596 
L 87.340667 106.052004 
L 89.169005 104.928048 
L 90.997343 103.804092 
L 92.825681 102.680135 
L 94.654019 101.556179 
L 96.482356 100.432223 
L 98.310694 99.308267 
L 100.139032 98.18431 
L 101.96737 97.060354 
L 103.795708 95.936398 
L 105.624046 94.812442 
L 107.452384 93.688485 
L 109.280721 92.564529 
L 111.109059 91.440573 
L 112.937397 90.316617 
L 114.765735 89.192661 
L 116.594073 88.068704 
L 118.422411 86.944748 
L 120.250749 85.820792 
L 122.079086 84.696836 
L 123.907424 83.572879 
L 125.735762 82.448923 
L 127.5641 81.324967 
L 129.392438 80.201011 
L 131.220776 79.077054 
L 133.049114 77.953098 
L 134.877451 76.829142 
L 136.705789 75.705186 
L 138.534127 74.581229 
L 140.362465 73.457273 
L 142.190803 72.333317 
L 144.019141 71.209361 
L 145.847479 70.085404 
L 147.675816 68.961448 
L 149.504154 67.837492 
L 151.332492 66.713536 
L 153.16083 65.58958 
L 154.989168 64.465623 
L 156.817506 63.341667 
L 158.645844 62.217711 
L 160.474181 61.093755 
L 162.302519 59.969798 
L 164.130857 58.845842 
L 165.959195 57.721886 
L 167.787533 56.59793 
L 169.615871 55.473973 
L 171.444209 54.350017 
L 173.272546 53.226061 
L 175.100884 52.102105 
L 176.929222 50.978148 
L 178.75756 49.854192 
L 180.585898 48.730236 
L 182.414236 47.60628 
L 184.242574 46.482323 
L 186.070911 45.358367 
L 187.899249 44.234411 
L 189.727587 43.110455 
L 191.555925 41.986499 
L 193.384263 40.862542 
L 195.212601 39.738586 
L 197.040939 38.61463 
L 198.869276 37.490674 
L 200.697614 36.366717 
L 202.525952 35.242761 
L 204.35429 34.118805 
L 206.182628 32.994849 
L 208.010966 31.870892 
L 209.839304 30.746936 
L 211.667641 29.62298 
L 213.495979 28.499024 
L 215.324317 27.375067 
L 217.152655 26.251111 
L 218.980993 25.127155 
L 220.809331 24.003199 
L 222.637669 22.879243 
L 224.466006 21.755286 
L 226.294344 20.63133 
L 228.122682 19.507374 
L 229.95102 18.383418 
L 231.779358 17.259461 
L 233.607696 16.135505 
L 235.436034 15.011549 
L 237.264371 13.887593 
L 239.092709 12.763636 
" clip-path="url(#p70e5ecfa4f)" style="fill: none; stroke-dasharray: 0.7,1.155; stroke-dashoffset: 0; stroke: #000000; stroke-width: 0.7"/>
   </g>
   <g id="line2d_31">
    <path d="M 58.08819 124.035304 
L 60.901804 122.911348 
L 63.715418 121.787391 
L 66.529032 120.663435 
L 69.342645 119.539479 
L 72.156259 118.415523 
L 74.969873 117.291566 
L 77.783487 116.16761 
L 80.597101 115.043654 
L 83.410714 113.919698 
L 86.224328 112.795742 
L 89.037942 111.671785 
L 91.851556 110.547829 
L 94.665169 109.423873 
L 97.478783 108.299917 
L 100.292397 107.17596 
L 103.106011 106.052004 
L 105.919625 104.928048 
L 108.733238 103.804092 
L 111.546852 102.680135 
L 114.360466 101.556179 
L 117.17408 100.432223 
L 119.987693 99.308267 
L 122.801307 98.18431 
L 125.614921 97.060354 
L 128.428535 95.936398 
L 131.242149 94.812442 
L 134.055762 93.688485 
L 136.869376 92.564529 
L 139.68299 91.440573 
L 142.496604 90.316617 
L 145.310217 89.192661 
L 148.123831 88.068704 
L 150.937445 86.944748 
L 153.751059 85.820792 
L 156.564673 84.696836 
L 159.378286 83.572879 
L 162.1919 82.448923 
L 165.005514 81.324967 
L 167.819128 80.201011 
L 170.632741 79.077054 
L 173.446355 77.953098 
L 176.259969 76.829142 
L 179.073583 75.705186 
L 181.887197 74.581229 
L 184.70081 73.457273 
L 187.514424 72.333317 
L 190.328038 71.209361 
L 193.141652 70.085404 
L 195.955265 68.961448 
L 198.768879 67.837492 
L 201.582493 66.713536 
L 204.396107 65.58958 
L 207.209721 64.465623 
L 210.023334 63.341667 
L 212.836948 62.217711 
L 215.650562 61.093755 
L 218.464176 59.969798 
L 221.277789 58.845842 
L 224.091403 57.721886 
L 226.905017 56.59793 
L 229.718631 55.473973 
L 232.532245 54.350017 
L 235.345858 53.226061 
L 238.159472 52.102105 
L 240.973086 50.978148 
L 243.7867 49.854192 
L 246.600313 48.730236 
L 249.413927 47.60628 
L 252.227541 46.482323 
L 255.041155 45.358367 
L 257.854769 44.234411 
L 260.668382 43.110455 
L 263.481996 41.986499 
L 266.29561 40.862542 
L 269.109224 39.738586 
L 271.922837 38.61463 
L 274.736451 37.490674 
L 277.550065 36.366717 
L 280.363679 35.242761 
L 283.177293 34.118805 
L 285.990906 32.994849 
L 288.80452 31.870892 
L 291.618134 30.746936 
L 294.431748 29.62298 
L 297.245361 28.499024 
L 300.058975 27.375067 
L 302.872589 26.251111 
L 305.686203 25.127155 
L 308.499817 24.003199 
L 311.31343 22.879243 
L 314.127044 21.755286 
L 316.940658 20.63133 
L 319.754272 19.507374 
L 322.567885 18.383418 
L 325.381499 17.259461 
L 328.195113 16.135505 
L 331.008727 15.011549 
L 333.822341 13.887593 
L 336.635954 12.763636 
" clip-path="url(#p70e5ecfa4f)" style="fill: none; stroke-dasharray: 2.59,1.12; stroke-dashoffset: 0; stroke: #000000; stroke-width: 0.7"/>
   </g>
   <g id="line2d_32">
    <path d="M 58.086019 124.035304 
L 58.59715 122.911348 
L 59.10828 121.787391 
L 59.619411 120.663435 
L 60.130541 119.539479 
L 60.641671 118.415523 
L 61.152802 117.291566 
L 61.663932 116.16761 
L 62.175062 115.043654 
L 62.686193 113.919698 
L 63.197323 112.795742 
L 63.708454 111.671785 
L 64.219584 110.547829 
L 64.730714 109.423873 
L 65.241845 108.299917 
L 65.752975 107.17596 
L 66.264105 106.052004 
L 66.775236 104.928048 
L 67.286366 103.804092 
L 67.797497 102.680135 
L 88.339185 101.556179 
L 90.892192 100.432223 
L 93.336369 99.308267 
L 95.694514 98.18431 
L 97.9863 97.060354 
L 100.228606 95.936398 
L 102.412101 94.812442 
L 104.552757 93.688485 
L 106.653437 92.564529 
L 108.727192 91.440573 
L 110.775395 90.316617 
L 112.799525 89.192661 
L 114.801114 88.068704 
L 116.781691 86.944748 
L 118.758669 85.820792 
L 120.708583 84.696836 
L 122.655722 83.572879 
L 124.592624 82.448923 
L 126.513216 81.324967 
L 128.431517 80.201011 
L 130.335134 79.077054 
L 132.236919 77.953098 
L 134.131092 76.829142 
L 136.018163 75.705186 
L 137.903682 74.581229 
L 139.782641 73.457273 
L 141.660151 72.333317 
L 143.531664 71.209361 
L 145.397654 70.085404 
L 147.262614 68.961448 
L 149.126442 67.837492 
L 150.985365 66.713536 
L 152.843338 65.58958 
L 154.696925 64.465623 
L 156.549745 63.341667 
L 158.401742 62.217711 
L 160.252863 61.093755 
L 162.100283 59.969798 
L 163.947024 58.845842 
L 165.790521 57.721886 
L 167.63593 56.59793 
L 169.478281 55.473973 
L 171.320074 54.350017 
L 173.159225 53.226061 
L 174.999949 52.102105 
L 176.838205 50.978148 
L 178.676033 49.854192 
L 180.513418 48.730236 
L 182.348784 47.60628 
L 184.185338 46.482323 
L 186.020029 45.358367 
L 187.855699 44.234411 
L 189.689669 43.110455 
L 191.523305 41.986499 
L 193.355556 40.862542 
L 195.188582 39.738586 
L 197.021248 38.61463 
L 198.852742 37.490674 
L 200.684012 36.366717 
L 202.566907 35.242761 
L 204.695598 34.118805 
L 206.829094 32.994849 
L 208.966454 31.870892 
L 211.108841 30.746936 
L 213.25533 29.62298 
L 215.405712 28.499024 
L 217.559797 27.375067 
L 219.717398 26.251111 
L 221.878347 25.127155 
L 224.042481 24.003199 
L 226.209075 22.879243 
L 228.379149 21.755286 
L 230.551976 20.63133 
L 232.72743 19.507374 
L 239.294798 18.383418 
L 253.704745 17.259461 
L 268.282368 16.135505 
L 283.020323 15.011549 
L 297.911222 13.887593 
L 312.949376 12.763636 
" clip-path="url(#p70e5ecfa4f)" style="fill: none; stroke: #006400; stroke-width: 0.7; stroke-linecap: square"/>
   </g>
   <g id="line2d_33">
    <path d="M 58.086019 124.035304 
L 58.59715 122.911348 
L 59.10828 121.787391 
L 59.619411 120.663435 
L 60.130541 119.539479 
L 60.641671 118.415523 
L 61.152802 117.291566 
L 61.663932 116.16761 
L 62.175062 115.043654 
L 62.686193 113.919698 
L 63.197323 112.795742 
L 63.708454 111.671785 
L 64.219584 110.547829 
L 64.730714 109.423873 
L 65.241845 108.299917 
L 65.752975 107.17596 
L 66.264105 106.052004 
L 66.775236 104.928048 
L 67.286366 103.804092 
L 67.797497 102.680135 
L 77.299726 101.556179 
L 79.266291 100.432223 
L 81.212712 99.308267 
L 83.143911 98.18431 
L 85.064493 97.060354 
L 86.978639 95.936398 
L 88.880041 94.812442 
L 90.773528 93.688485 
L 92.658745 92.564529 
L 94.539917 91.440573 
L 96.41656 90.316617 
L 98.288417 89.192661 
L 100.155392 88.068704 
L 102.017509 86.944748 
L 103.881594 85.820792 
L 105.737293 84.696836 
L 107.594479 83.572879 
L 109.449673 82.448923 
L 111.300034 81.324967 
L 113.151235 80.201011 
L 114.997836 79.077054 
L 116.845079 77.953098 
L 118.690365 76.829142 
L 120.533772 75.705186 
L 122.37752 74.581229 
L 124.219388 73.457273 
L 126.06144 72.333317 
L 127.901672 71.209361 
L 129.740211 70.085404 
L 131.578888 68.961448 
L 133.417604 67.837492 
L 135.254712 66.713536 
L 137.091837 65.58958 
L 138.927486 64.465623 
L 140.763152 63.341667 
L 142.598777 62.217711 
L 144.434309 61.093755 
L 146.268529 59.969798 
L 148.102689 58.845842 
L 149.935684 57.721886 
L 151.769672 56.59793 
L 153.602536 55.473973 
L 155.435317 54.350017 
L 157.26712 53.226061 
L 159.09971 52.102105 
L 160.931371 50.978148 
L 162.762953 49.854192 
L 164.594439 48.730236 
L 166.425156 47.60628 
L 168.256448 46.482323 
L 170.087021 45.358367 
L 171.918068 44.234411 
L 173.748451 43.110455 
L 175.578742 41.986499 
L 177.408491 40.862542 
L 179.238606 39.738586 
L 181.068603 38.61463 
L 182.898136 37.490674 
L 184.727601 36.366717 
L 186.610068 35.242761 
L 188.738342 34.118805 
L 190.871429 32.994849 
L 193.00879 31.870892 
L 195.150778 30.746936 
L 197.296878 29.62298 
L 199.446881 28.499024 
L 201.600596 27.375067 
L 203.757838 26.251111 
L 205.918436 25.127155 
L 208.082231 24.003199 
L 210.248824 22.879243 
L 212.418567 21.755286 
L 214.591073 20.63133 
L 216.766216 19.507374 
L 223.553879 18.383418 
L 238.577228 17.259461 
L 253.776563 16.135505 
L 269.144177 15.011549 
L 284.67261 13.887593 
L 300.355291 12.763636 
" clip-path="url(#p70e5ecfa4f)" style="fill: none; stroke-dasharray: 0.7,1.155; stroke-dashoffset: 0; stroke: #006400; stroke-width: 0.7"/>
   </g>
   <g id="line2d_34">
    <path d="M 58.086019 124.035304 
L 58.59715 122.911348 
L 59.10828 121.787391 
L 59.619411 120.663435 
L 60.130541 119.539479 
L 60.641671 118.415523 
L 61.152802 117.291566 
L 61.663932 116.16761 
L 62.175062 115.043654 
L 62.686193 113.919698 
L 63.197323 112.795742 
L 63.708454 111.671785 
L 64.219584 110.547829 
L 64.730714 109.423873 
L 65.241845 108.299917 
L 65.752975 107.17596 
L 66.264105 106.052004 
L 66.775236 104.928048 
L 67.286366 103.804092 
L 67.797497 102.680135 
L 82.819456 101.556179 
L 85.079242 100.432223 
L 87.27454 99.308267 
L 89.419213 98.18431 
L 91.525397 97.060354 
L 93.603623 95.936398 
L 95.646071 94.812442 
L 97.663142 93.688485 
L 99.656091 92.564529 
L 101.633555 91.440573 
L 103.595978 90.316617 
L 105.543971 89.192661 
L 107.478253 88.068704 
L 109.3996 86.944748 
L 111.320132 85.820792 
L 113.222938 84.696836 
L 115.1251 83.572879 
L 117.021148 82.448923 
L 118.906625 81.324967 
L 120.791376 80.201011 
L 122.666485 79.077054 
L 124.540999 77.953098 
L 126.410729 76.829142 
L 128.275967 75.705186 
L 130.140601 74.581229 
L 132.001015 73.457273 
L 133.860795 72.333317 
L 135.716668 71.209361 
L 137.568932 70.085404 
L 139.420751 68.961448 
L 141.272023 67.837492 
L 143.120038 66.713536 
L 144.967588 65.58958 
L 146.812206 64.465623 
L 148.656448 63.341667 
L 150.50026 62.217711 
L 152.343586 61.093755 
L 154.184406 59.969798 
L 156.024857 58.845842 
L 157.863102 57.721886 
L 159.702801 56.59793 
L 161.540408 55.473973 
L 163.377695 54.350017 
L 165.213173 53.226061 
L 167.04983 52.102105 
L 168.884788 50.978148 
L 170.719493 49.854192 
L 172.553929 48.730236 
L 174.38697 47.60628 
L 176.220893 46.482323 
L 178.053525 45.358367 
L 179.886884 44.234411 
L 181.71906 43.110455 
L 183.551023 41.986499 
L 185.382024 40.862542 
L 187.213594 39.738586 
L 189.044925 38.61463 
L 190.875439 37.490674 
L 192.705807 36.366717 
L 194.588487 35.242761 
L 196.71697 34.118805 
L 198.850261 32.994849 
L 200.987622 31.870892 
L 203.12981 30.746936 
L 205.276104 29.62298 
L 207.426297 28.499024 
L 209.580196 27.375067 
L 211.737618 26.251111 
L 213.898391 25.127155 
L 216.062356 24.003199 
L 218.228949 22.879243 
L 220.398858 21.755286 
L 222.571525 20.63133 
L 224.746823 19.507374 
L 231.424338 18.383418 
L 246.140986 17.259461 
L 261.029466 16.135505 
L 276.08225 15.011549 
L 291.291916 13.887593 
L 306.652334 12.763636 
" clip-path="url(#p70e5ecfa4f)" style="fill: none; stroke-dasharray: 2.59,1.12; stroke-dashoffset: 0; stroke: #006400; stroke-width: 0.7"/>
   </g>
   <g id="line2d_35">
    <path d="M 58.085538 124.036364 
L 60.603741 118.403382 
L 62.020231 116.525721 
L 62.492394 114.648061 
L 64.853209 111.83157 
L 69.102678 108.858607 
L 87.517041 102.443267 
L 108.764383 93.524379 
L 118.67981 88.830227 
L 138.982825 79.91134 
L 174.867226 63.012394 
L 206.029994 50.338185 
L 241.914394 40.949882 
L 272.132836 34.37807 
L 305.184257 25.928598 
L 336.347026 18.574427 
L 352.400573 15.914408 
L 367.981958 14.193219 
L 387.81281 13.254389 
" clip-path="url(#p70e5ecfa4f)" style="fill: none; stroke: #0000ff; stroke-width: 0.7; stroke-linecap: square"/>
   </g>
   <g id="patch_3">
    <path d="M 41.599174 129.6 
L 41.599174 7.2 
" style="fill: none; stroke: #000000; stroke-width: 0.5; stroke-linejoin: miter; stroke-linecap: square"/>
   </g>
   <g id="patch_4">
    <path d="M 41.599174 129.6 
L 404.299174 129.6 
" style="fill: none; stroke: #000000; stroke-width: 0.5; stroke-linejoin: miter; stroke-linecap: square"/>
   </g>
   <g id="legend_1">
    <g id="patch_5">
     <path d="M 266.143146 124.6 
L 397.299174 124.6 
Q 399.299174 124.6 399.299174 122.6 
L 399.299174 25.01429 
Q 399.299174 23.01429 397.299174 23.01429 
L 266.143146 23.01429 
Q 264.143146 23.01429 264.143146 25.01429 
L 264.143146 122.6 
Q 264.143146 124.6 266.143146 124.6 
z
" style="fill: #ffffff; opacity: 0.8; stroke: #cccccc; stroke-width: 0.5; stroke-linejoin: miter"/>
    </g>
    <g id="line2d_36">
     <path d="M 268.143146 30.51429 
L 278.143146 30.51429 
L 288.143146 30.51429 
" style="fill: none; stroke: #000000; stroke-width: 0.7; stroke-linecap: square"/>
    </g>
    <g id="text_17">
     <!-- $EI^{I}$ konstant -->
     <g transform="translate(296.143146 34.01429) scale(0.1 -0.1)">
      <defs>
       <path id="CMMI12-45" d="M 4448 1489 
C 4454 1508 4474 1554 4474 1579 
C 4474 1611 4448 1643 4410 1643 
C 4384 1643 4371 1637 4352 1617 
C 4339 1611 4339 1598 4282 1469 
C 3904 570 3629 185 2605 185 
L 1670 185 
C 1581 185 1568 185 1530 192 
C 1459 198 1453 211 1453 262 
C 1453 307 1466 345 1478 403 
L 1920 2176 
L 2554 2176 
C 3053 2176 3091 2066 3091 1874 
C 3091 1810 3091 1752 3046 1560 
C 3034 1534 3027 1508 3027 1489 
C 3027 1444 3059 1425 3098 1425 
C 3155 1425 3162 1469 3187 1559 
L 3552 3042 
C 3552 3073 3526 3105 3488 3105 
C 3430 3105 3424 3080 3398 2990 
C 3270 2501 3142 2361 2573 2361 
L 1965 2361 
L 2362 3930 
C 2419 4154 2432 4154 2694 4154 
L 3610 4154 
C 4397 4154 4557 3943 4557 3458 
C 4557 3451 4557 3273 4531 3062 
C 4525 3036 4518 2998 4518 2985 
C 4518 2934 4550 2915 4589 2915 
C 4634 2915 4659 2941 4672 3055 
L 4806 4174 
C 4806 4195 4819 4263 4819 4277 
C 4819 4352 4762 4352 4646 4352 
L 1523 4352 
C 1402 4352 1338 4352 1338 4229 
C 1338 4154 1382 4154 1491 4154 
C 1888 4154 1888 4114 1888 4052 
C 1888 4020 1882 3994 1862 3924 
L 998 473 
C 941 249 928 185 480 185 
C 358 185 294 185 294 70 
C 294 0 333 0 461 0 
L 3674 0 
C 3814 0 3821 6 3866 110 
L 4448 1489 
z
" transform="scale(0.015625)"/>
       <path id="CMMI12-49" d="M 2355 3880 
C 2413 4103 2426 4167 2893 4167 
C 3034 4167 3085 4167 3085 4288 
C 3085 4352 3014 4352 2995 4352 
C 2880 4352 2739 4352 2624 4352 
L 1837 4352 
C 1709 4352 1562 4352 1434 4352 
C 1382 4352 1312 4352 1312 4231 
C 1312 4167 1363 4167 1491 4167 
C 1888 4167 1888 4116 1888 4046 
C 1888 4002 1875 3963 1862 3906 
L 998 472 
C 941 249 928 185 461 185 
C 320 185 262 185 262 64 
C 262 0 326 0 358 0 
C 474 0 614 0 730 0 
L 1517 0 
C 1645 0 1786 0 1914 0 
C 1965 0 2042 0 2042 115 
C 2042 185 2003 185 1862 185 
C 1466 185 1466 236 1466 312 
C 1466 325 1466 357 1491 459 
L 2355 3880 
z
" transform="scale(0.015625)"/>
       <path id="CMR17-6f" d="M 2758 1356 
C 2758 2176 2163 2816 1466 2816 
C 768 2816 173 2176 173 1356 
C 173 551 768 -64 1466 -64 
C 2163 -64 2758 551 2758 1356 
z
M 1466 51 
C 1165 51 909 230 762 480 
C 602 767 582 1126 582 1408 
C 582 1677 595 2010 762 2298 
C 890 2509 1139 2714 1466 2714 
C 1754 2714 1997 2554 2150 2330 
C 2349 2029 2349 1607 2349 1408 
C 2349 1158 2336 775 2163 467 
C 1984 173 1709 51 1466 51 
z
" transform="scale(0.015625)"/>
       <path id="CMR17-6e" d="M 2656 1933 
C 2656 2259 2592 2790 1837 2790 
C 1331 2790 1069 2400 973 2144 
L 966 2144 
L 966 2790 
L 211 2720 
L 211 2554 
C 589 2554 646 2515 646 2208 
L 646 428 
C 646 184 621 153 211 153 
L 211 -13 
C 365 0 646 0 813 0 
C 979 0 1267 0 1421 -13 
L 1421 153 
C 1011 153 986 178 986 428 
L 986 1658 
C 986 2247 1344 2688 1792 2688 
C 2266 2688 2317 2266 2317 1958 
L 2317 428 
C 2317 184 2291 153 1882 153 
L 1882 -13 
C 2035 0 2317 0 2483 0 
C 2650 0 2938 0 3091 -13 
L 3091 153 
C 2682 153 2656 178 2656 428 
L 2656 1933 
z
" transform="scale(0.015625)"/>
       <path id="CMR17-73" d="M 1978 2697 
C 1978 2813 1971 2819 1933 2819 
C 1907 2819 1901 2813 1824 2717 
C 1805 2691 1747 2626 1728 2601 
C 1523 2819 1235 2819 1126 2819 
C 416 2819 160 2447 160 2076 
C 160 1498 813 1365 998 1325 
C 1402 1243 1542 1217 1677 1101 
C 1760 1025 1901 884 1901 654 
C 1901 384 1747 38 1158 38 
C 602 38 403 460 288 1021 
C 269 1110 269 1117 218 1117 
C 166 1117 160 1110 160 983 
L 160 63 
C 160 -51 166 -58 205 -58 
C 237 -58 243 -51 275 0 
C 314 57 410 211 448 276 
C 576 103 800 -64 1158 -64 
C 1792 -64 2131 283 2131 784 
C 2131 1112 1958 1285 1875 1362 
C 1683 1561 1459 1606 1190 1657 
C 838 1735 390 1825 390 2217 
C 390 2383 480 2737 1126 2737 
C 1811 2737 1850 2094 1862 1888 
C 1869 1856 1901 1849 1920 1849 
C 1978 1849 1978 1869 1978 1978 
L 1978 2697 
z
" transform="scale(0.015625)"/>
       <path id="CMR17-74" d="M 966 2560 
L 1862 2560 
L 1862 2725 
L 966 2725 
L 966 3904 
L 851 3904 
C 838 3245 614 2668 70 2668 
L 70 2560 
L 627 2560 
L 627 771 
C 627 650 627 -64 1370 -64 
C 1747 -64 1965 306 1965 777 
L 1965 1140 
L 1850 1140 
L 1850 783 
C 1850 344 1677 51 1408 51 
C 1222 51 966 178 966 758 
L 966 2560 
z
" transform="scale(0.015625)"/>
       <path id="CMR17-61" d="M 2304 1653 
C 2304 2072 2304 2294 2035 2543 
C 1798 2752 1523 2816 1306 2816 
C 800 2816 435 2407 435 1971 
C 435 1728 627 1728 666 1728 
C 749 1728 896 1778 896 1954 
C 896 2112 774 2181 666 2181 
C 640 2181 608 2174 589 2168 
C 723 2592 1069 2714 1293 2714 
C 1613 2714 1965 2429 1965 1885 
L 1965 1600 
C 1587 1600 1133 1549 774 1357 
C 371 1133 256 813 256 570 
C 256 77 832 -64 1171 -64 
C 1523 -64 1850 139 1990 511 
C 2003 233 2182 -18 2464 -18 
C 2598 -18 2938 70 2938 567 
L 2938 920 
L 2822 920 
L 2822 562 
C 2822 178 2650 128 2566 128 
C 2304 128 2304 458 2304 738 
L 2304 1653 
z
M 1965 870 
C 1965 317 1568 38 1216 38 
C 896 38 646 275 646 570 
C 646 761 730 1100 1101 1305 
C 1408 1478 1760 1504 1965 1504 
L 1965 870 
z
" transform="scale(0.015625)"/>
      </defs>
      <use xlink:href="#CMMI12-45" transform="scale(0.996264)"/>
      <use xlink:href="#CMMI12-49" transform="translate(78.051636 0) scale(0.996264)"/>
      <use xlink:href="#CMMI12-49" transform="translate(128.90815 36.153639) scale(0.697382)"/>
      <use xlink:href="#CMR17-6b" transform="translate(195.081631 0) scale(0.996264)"/>
      <use xlink:href="#CMR17-6f" transform="translate(240.772092 0) scale(0.996264)"/>
      <use xlink:href="#CMR17-6e" transform="translate(286.46257 0) scale(0.996264)"/>
      <use xlink:href="#CMR17-73" transform="translate(337.357939 0) scale(0.996264)"/>
      <use xlink:href="#CMR17-74" transform="translate(373.159277 0) scale(0.996264)"/>
      <use xlink:href="#CMR17-61" transform="translate(408.440045 0) scale(0.996264)"/>
      <use xlink:href="#CMR17-6e" transform="translate(454.130522 0) scale(0.996264)"/>
      <use xlink:href="#CMR17-74" transform="translate(502.423438 0) scale(0.996264)"/>
     </g>
    </g>
    <g id="line2d_37">
     <path d="M 268.143146 44.451468 
L 278.143146 44.451468 
L 288.143146 44.451468 
" style="fill: none; stroke-dasharray: 0.7,1.155; stroke-dashoffset: 0; stroke: #000000; stroke-width: 0.7"/>
    </g>
    <g id="text_18">
     <!-- $EI^{II}$ konstant -->
     <g transform="translate(296.143146 47.951468) scale(0.1 -0.1)">
      <use xlink:href="#CMMI12-45" transform="scale(0.996264)"/>
      <use xlink:href="#CMMI12-49" transform="translate(78.051636 0) scale(0.996264)"/>
      <use xlink:href="#CMMI12-49" transform="translate(128.90815 36.153639) scale(0.697382)"/>
      <use xlink:href="#CMMI12-49" transform="translate(164.507532 36.153639) scale(0.697382)"/>
      <use xlink:href="#CMR17-6b" transform="translate(230.681012 0) scale(0.996264)"/>
      <use xlink:href="#CMR17-6f" transform="translate(276.371474 0) scale(0.996264)"/>
      <use xlink:href="#CMR17-6e" transform="translate(322.061952 0) scale(0.996264)"/>
      <use xlink:href="#CMR17-73" transform="translate(372.957321 0) scale(0.996264)"/>
      <use xlink:href="#CMR17-74" transform="translate(408.758659 0) scale(0.996264)"/>
      <use xlink:href="#CMR17-61" transform="translate(444.039427 0) scale(0.996264)"/>
      <use xlink:href="#CMR17-6e" transform="translate(489.729904 0) scale(0.996264)"/>
      <use xlink:href="#CMR17-74" transform="translate(538.02282 0) scale(0.996264)"/>
     </g>
    </g>
    <g id="line2d_38">
     <path d="M 268.143146 58.388647 
L 278.143146 58.388647 
L 288.143146 58.388647 
" style="fill: none; stroke-dasharray: 2.59,1.12; stroke-dashoffset: 0; stroke: #000000; stroke-width: 0.7"/>
    </g>
    <g id="text_19">
     <!-- Abschätzung Norm -->
     <g transform="translate(296.143146 61.888647) scale(0.1 -0.1)">
      <defs>
       <path id="CMR17-41" d="M 2323 4378 
C 2291 4461 2278 4480 2214 4480 
C 2150 4480 2138 4461 2106 4378 
L 749 566 
C 627 223 371 153 147 153 
L 147 -13 
C 262 0 518 0 640 0 
C 800 0 1056 0 1210 -13 
L 1210 153 
C 909 153 864 361 864 439 
C 864 497 877 530 890 569 
L 1229 1536 
L 2906 1536 
L 3290 442 
C 3322 365 3322 352 3322 327 
C 3322 153 3046 153 2925 153 
L 2925 0 
C 3110 0 3443 0 3642 0 
C 3808 0 4128 0 4282 -13 
L 4282 153 
C 3942 153 3827 153 3744 387 
L 2323 4378 
z
M 2067 3893 
L 2848 1702 
L 1286 1702 
L 2067 3893 
z
" transform="scale(0.015625)"/>
       <path id="CMR17-62" d="M 960 4396 
L 198 4326 
L 198 4160 
C 576 4160 634 4122 634 3817 
L 634 -13 
L 749 -13 
L 934 441 
C 1120 141 1395 -64 1766 -64 
C 2406 -64 3053 500 3053 1370 
C 3053 2188 2477 2790 1830 2790 
C 1434 2790 1152 2579 960 2330 
L 960 4396 
z
M 973 2004 
C 973 2118 973 2138 1062 2272 
C 1312 2657 1670 2688 1792 2688 
C 1984 2688 2643 2585 2643 1376 
C 2643 108 1888 38 1734 38 
C 1536 38 1248 114 1043 486 
C 973 608 973 621 973 735 
L 973 2004 
z
" transform="scale(0.015625)"/>
       <path id="CMR17-63" d="M 2234 2240 
C 2112 2240 1933 2240 1933 2017 
C 1933 1838 2080 1787 2163 1787 
C 2208 1787 2394 1807 2394 2024 
C 2394 2467 1958 2803 1466 2803 
C 787 2803 211 2178 211 1363 
C 211 516 813 -64 1466 -64 
C 2259 -64 2458 677 2458 748 
C 2458 774 2451 793 2406 793 
C 2362 793 2355 787 2330 703 
C 2163 180 1798 51 1523 51 
C 1114 51 621 427 621 1369 
C 621 2338 1094 2688 1472 2688 
C 1722 2688 2093 2573 2234 2240 
z
" transform="scale(0.015625)"/>
       <path id="CMR17-68" d="M 2656 1933 
C 2656 2259 2592 2790 1837 2790 
C 1312 2790 1056 2368 979 2157 
L 973 2157 
L 973 4396 
L 211 4326 
L 211 4160 
C 589 4160 646 4122 646 3817 
L 646 426 
C 646 184 621 153 211 153 
L 211 -13 
C 365 0 646 0 813 0 
C 979 0 1267 0 1421 -13 
L 1421 153 
C 1011 153 986 178 986 428 
L 986 1658 
C 986 2247 1344 2688 1792 2688 
C 2266 2688 2317 2266 2317 1958 
L 2317 428 
C 2317 184 2291 153 1882 153 
L 1882 -13 
C 2035 0 2317 0 2483 0 
C 2650 0 2938 0 3091 -13 
L 3091 153 
C 2682 153 2656 178 2656 428 
L 2656 1933 
z
" transform="scale(0.015625)"/>
       <path id="CMR17-7f" d="M 1133 3961 
C 1133 4120 1005 4215 883 4215 
C 717 4215 627 4075 627 3967 
C 627 3840 730 3712 883 3712 
C 1018 3712 1133 3821 1133 3961 
z
M 2304 3961 
C 2304 4088 2202 4215 2048 4215 
C 1914 4215 1798 4107 1798 3967 
C 1798 3808 1926 3712 2048 3712 
C 2214 3712 2304 3852 2304 3961 
z
" transform="scale(0.015625)"/>
       <path id="CMR17-7a" d="M 2310 2605 
C 2362 2670 2362 2682 2362 2695 
C 2362 2752 2336 2752 2221 2752 
L 275 2752 
L 211 1760 
L 326 1760 
C 371 2381 442 2650 1178 2650 
L 1958 2650 
L 128 96 
C 128 0 134 0 269 0 
L 2291 0 
L 2381 1152 
L 2266 1152 
C 2214 442 2131 115 1350 115 
L 531 115 
L 2310 2605 
z
" transform="scale(0.015625)"/>
       <path id="CMR17-75" d="M 1882 2693 
L 1882 2528 
C 2259 2528 2317 2489 2317 2186 
L 2317 1032 
C 2317 500 2029 38 1555 38 
C 1030 38 986 348 986 678 
L 986 2763 
L 211 2693 
L 211 2528 
C 467 2528 640 2528 646 2274 
L 646 1058 
C 646 633 646 361 813 183 
C 896 101 1056 -64 1517 -64 
C 2061 -64 2272 377 2323 506 
L 2330 506 
L 2330 -63 
L 3091 -63 
L 3091 128 
C 2714 128 2656 166 2656 473 
L 2656 2763 
L 1882 2693 
z
" transform="scale(0.015625)"/>
       <path id="CMR17-67" d="M 710 1164 
C 832 1068 1043 960 1299 960 
C 1805 960 2240 1357 2240 1888 
C 2240 2054 2189 2310 1997 2509 
C 2176 2692 2438 2752 2586 2752 
C 2611 2752 2650 2752 2682 2734 
C 2656 2728 2598 2703 2598 2605 
C 2598 2527 2656 2471 2739 2471 
C 2835 2471 2886 2533 2886 2614 
C 2886 2731 2790 2854 2586 2854 
C 2330 2854 2106 2738 1926 2580 
C 1734 2753 1504 2816 1299 2816 
C 794 2816 358 2419 358 1888 
C 358 1522 570 1292 634 1228 
C 442 1004 442 743 442 711 
C 442 545 506 302 723 168 
C 390 85 128 -169 128 -486 
C 128 -943 736 -1280 1466 -1280 
C 2170 -1280 2803 -956 2803 -479 
C 2803 384 1856 384 1363 384 
C 1216 384 954 384 922 391 
C 723 423 589 602 589 826 
C 589 883 589 1024 710 1164 
z
M 1299 1068 
C 736 1068 736 1760 736 1889 
C 736 2016 736 2708 1299 2708 
C 1862 2708 1862 2016 1862 1889 
C 1862 1760 1862 1068 1299 1068 
z
M 1466 -1171 
C 826 -1171 384 -835 384 -486 
C 384 -289 493 -105 634 -4 
C 794 104 858 104 1293 104 
C 1818 104 2547 104 2547 -486 
C 2547 -835 2106 -1171 1466 -1171 
z
" transform="scale(0.015625)"/>
       <path id="CMR17-72" d="M 960 1497 
C 960 2112 1222 2688 1702 2688 
C 1747 2688 1792 2682 1837 2662 
C 1837 2662 1696 2617 1696 2452 
C 1696 2298 1818 2234 1914 2234 
C 1990 2234 2131 2279 2131 2458 
C 2131 2663 1926 2790 1709 2790 
C 1222 2790 1011 2317 947 2093 
L 941 2093 
L 941 2790 
L 198 2720 
L 198 2554 
C 576 2554 634 2515 634 2208 
L 634 428 
C 634 184 608 153 198 153 
L 198 -13 
C 352 0 646 0 813 0 
C 998 0 1325 0 1498 -13 
L 1498 153 
C 1037 153 960 153 960 440 
L 960 1497 
z
" transform="scale(0.015625)"/>
      </defs>
      <use xlink:href="#CMR17-41" transform="scale(0.996264)"/>
      <use xlink:href="#CMR17-62" transform="translate(69.07243 0) scale(0.996264)"/>
      <use xlink:href="#CMR17-73" transform="translate(119.9678 0) scale(0.996264)"/>
      <use xlink:href="#CMR17-63" transform="translate(155.769137 0) scale(0.996264)"/>
      <use xlink:href="#CMR17-68" transform="translate(193.652344 0) scale(0.996264)"/>
      <use xlink:href="#CMR17-7f" transform="translate(244.547714 0) scale(0.996264)"/>
      <use xlink:href="#CMR17-61" transform="translate(244.547714 0) scale(0.996264)"/>
      <use xlink:href="#CMR17-74" transform="translate(290.238191 0) scale(0.996264)"/>
      <use xlink:href="#CMR17-7a" transform="translate(325.518958 0) scale(0.996264)"/>
      <use xlink:href="#CMR17-75" transform="translate(366.004619 0) scale(0.996264)"/>
      <use xlink:href="#CMR17-6e" transform="translate(416.899989 0) scale(0.996264)"/>
      <use xlink:href="#CMR17-67" transform="translate(467.795358 0) scale(0.996264)"/>
      <use xlink:href="#CMR17-4e" transform="translate(543.561802 0) scale(0.996264)"/>
      <use xlink:href="#CMR17-6f" transform="translate(612.634232 0) scale(0.996264)"/>
      <use xlink:href="#CMR17-72" transform="translate(658.324709 0) scale(0.996264)"/>
      <use xlink:href="#CMR17-6d" transform="translate(693.605477 0) scale(0.996264)"/>
     </g>
    </g>
    <g id="line2d_39">
     <path d="M 268.143146 72.797805 
L 278.143146 72.797805 
L 288.143146 72.797805 
" style="fill: none; stroke: #006400; stroke-width: 0.7; stroke-linecap: square"/>
    </g>
    <g id="text_20">
     <!-- nicht-linear $M(\chi)$ -->
     <g transform="translate(296.143146 76.297805) scale(0.1 -0.1)">
      <defs>
       <path id="CMR17-69" d="M 992 3909 
C 992 4049 877 4170 730 4170 
C 589 4170 467 4056 467 3909 
C 467 3769 582 3648 730 3648 
C 870 3648 992 3763 992 3909 
z
M 243 2706 
L 243 2541 
C 602 2541 653 2502 653 2197 
L 653 427 
C 653 184 627 153 218 153 
L 218 -13 
C 371 0 646 0 806 0 
C 960 0 1222 0 1370 -13 
L 1370 153 
C 992 153 979 191 979 420 
L 979 2776 
L 243 2706 
z
" transform="scale(0.015625)"/>
       <path id="CMR17-2d" d="M 1632 1216 
L 1632 1496 
L 26 1496 
L 26 1216 
L 1632 1216 
z
" transform="scale(0.015625)"/>
       <path id="CMR17-6c" d="M 979 4396 
L 218 4326 
L 218 4160 
C 595 4160 653 4122 653 3817 
L 653 426 
C 653 184 627 153 218 153 
L 218 -13 
C 371 0 653 0 813 0 
C 979 0 1261 0 1414 -13 
L 1414 153 
C 1005 153 979 178 979 426 
L 979 4396 
z
" transform="scale(0.015625)"/>
       <path id="CMR17-65" d="M 2438 1472 
C 2464 1498 2464 1511 2464 1576 
C 2464 2238 2118 2816 1389 2816 
C 710 2816 173 2169 173 1383 
C 173 551 781 -64 1459 -64 
C 2176 -64 2458 607 2458 740 
C 2458 784 2419 784 2406 784 
C 2362 784 2355 771 2330 696 
C 2189 265 1837 51 1504 51 
C 1229 51 954 203 781 480 
C 582 803 582 1176 582 1472 
L 2438 1472 
z
M 589 1568 
C 634 2505 1126 2714 1382 2714 
C 1818 2714 2112 2297 2118 1568 
L 589 1568 
z
" transform="scale(0.015625)"/>
       <path id="CMMI12-4d" d="M 5811 3886 
C 5869 4103 5882 4167 6336 4167 
C 6458 4167 6515 4167 6515 4288 
C 6515 4352 6470 4352 6349 4352 
L 5581 4352 
C 5421 4352 5414 4346 5344 4243 
L 3008 562 
L 2528 4211 
C 2509 4352 2502 4352 2336 4352 
L 1542 4352 
C 1421 4352 1363 4352 1363 4231 
C 1363 4167 1421 4167 1517 4167 
C 1907 4167 1907 4116 1907 4046 
C 1907 4034 1907 3995 1882 3899 
L 1062 634 
C 986 327 838 186 410 186 
C 390 186 314 186 314 73 
C 314 0 371 0 397 0 
C 525 0 851 0 979 0 
L 1286 0 
C 1376 0 1485 0 1574 0 
C 1619 0 1690 0 1690 122 
C 1690 180 1626 186 1600 186 
C 1389 186 1184 224 1184 454 
C 1184 518 1184 524 1210 613 
L 2093 4129 
L 2099 4129 
L 2630 172 
C 2650 19 2656 0 2714 0 
C 2784 0 2816 51 2848 109 
L 5421 4161 
L 5427 4161 
L 4499 473 
C 4442 250 4429 186 3981 186 
C 3859 186 3795 186 3795 70 
C 3795 0 3853 0 3891 0 
C 4000 0 4128 0 4237 0 
L 4992 0 
C 5101 0 5235 0 5344 0 
C 5395 0 5466 0 5466 122 
C 5466 186 5408 186 5312 186 
C 4922 186 4922 234 4922 294 
C 4922 301 4922 345 4934 396 
L 5811 3886 
z
" transform="scale(0.015625)"/>
       <path id="CMR17-28" d="M 1958 -1561 
C 1958 -1555 1958 -1542 1939 -1523 
C 1645 -1224 858 -407 858 1581 
C 858 3569 1632 4379 1946 4697 
C 1946 4704 1958 4717 1958 4736 
C 1958 4755 1939 4768 1914 4768 
C 1843 4768 1299 4296 986 3594 
C 666 2887 576 2199 576 1588 
C 576 1128 621 351 1005 -471 
C 1312 -1135 1837 -1600 1914 -1600 
C 1946 -1600 1958 -1587 1958 -1561 
z
" transform="scale(0.015625)"/>
       <path id="CMMI12-1f" d="M 2112 1039 
C 1939 1566 1978 1515 1818 1959 
C 1619 2505 1568 2550 1478 2639 
C 1363 2740 1146 2816 922 2816 
C 563 2816 390 2486 390 2403 
C 390 2365 422 2346 461 2346 
C 512 2346 525 2378 531 2403 
C 627 2651 826 2689 883 2689 
C 1069 2689 1248 2232 1363 1928 
C 1517 1540 1594 1273 1766 657 
L 256 -1049 
C 198 -1119 198 -1144 198 -1151 
C 198 -1202 230 -1215 256 -1215 
C 282 -1215 301 -1202 320 -1183 
C 499 -1004 896 -533 1062 -342 
L 1805 499 
C 2118 -479 2118 -492 2214 -727 
C 2317 -968 2451 -1280 2995 -1280 
C 3360 -1280 3526 -955 3526 -866 
C 3526 -822 3488 -809 3456 -809 
C 3405 -809 3398 -835 3379 -886 
C 3309 -1063 3142 -1152 3040 -1152 
C 2957 -1152 2854 -1152 2573 -447 
C 2406 -21 2259 486 2150 880 
L 3667 2594 
C 3718 2652 3725 2658 3725 2683 
C 3725 2727 3693 2746 3661 2746 
C 3642 2746 3622 2746 3558 2677 
L 2112 1039 
z
" transform="scale(0.015625)"/>
       <path id="CMR17-29" d="M 1683 1581 
C 1683 2040 1638 2817 1254 3639 
C 947 4303 422 4768 346 4768 
C 326 4768 301 4761 301 4729 
C 301 4717 307 4710 314 4697 
C 621 4378 1402 3568 1402 1584 
C 1402 -407 627 -1217 314 -1537 
C 307 -1549 301 -1556 301 -1568 
C 301 -1600 326 -1600 346 -1600 
C 416 -1600 960 -1128 1274 -426 
C 1594 281 1683 969 1683 1581 
z
" transform="scale(0.015625)"/>
      </defs>
      <use xlink:href="#CMR17-6e" transform="scale(0.996264)"/>
      <use xlink:href="#CMR17-69" transform="translate(50.89537 0) scale(0.996264)"/>
      <use xlink:href="#CMR17-63" transform="translate(75.766428 0) scale(0.996264)"/>
      <use xlink:href="#CMR17-68" transform="translate(113.649635 0) scale(0.996264)"/>
      <use xlink:href="#CMR17-74" transform="translate(161.942551 0) scale(0.996264)"/>
      <use xlink:href="#CMR17-2d" transform="translate(197.223318 0) scale(0.996264)"/>
      <use xlink:href="#CMR17-6c" transform="translate(227.299285 0) scale(0.996264)"/>
      <use xlink:href="#CMR17-69" transform="translate(252.170343 0) scale(0.996264)"/>
      <use xlink:href="#CMR17-6e" transform="translate(277.041402 0) scale(0.996264)"/>
      <use xlink:href="#CMR17-65" transform="translate(327.936772 0) scale(0.996264)"/>
      <use xlink:href="#CMR17-61" transform="translate(368.422432 0) scale(0.996264)"/>
      <use xlink:href="#CMR17-72" transform="translate(414.112909 0) scale(0.996264)"/>
      <use xlink:href="#CMMI12-4d" transform="translate(479.469643 0) scale(0.996264)"/>
      <use xlink:href="#CMR17-28" transform="translate(584.249722 0) scale(0.996264)"/>
      <use xlink:href="#CMMI12-1f" transform="translate(619.53049 0) scale(0.996264)"/>
      <use xlink:href="#CMR17-29" transform="translate(680.643449 0) scale(0.996264)"/>
     </g>
    </g>
    <g id="line2d_40">
     <path d="M 268.143146 87.288465 
L 278.143146 87.288465 
L 288.143146 87.288465 
" style="fill: none; stroke-dasharray: 0.7,1.155; stroke-dashoffset: 0; stroke: #006400; stroke-width: 0.7"/>
    </g>
    <g id="text_21">
     <!-- Zugversteifung $\lambda = 1$ -->
     <g transform="translate(296.143146 90.788465) scale(0.1 -0.1)">
      <defs>
       <path id="CMR17-5a" d="M 3302 4230 
C 3302 4352 3296 4352 3162 4352 
L 442 4352 
L 378 2948 
L 493 2948 
C 531 3675 723 4192 1760 4192 
L 2816 4192 
L 339 204 
C 294 134 294 127 294 83 
C 294 0 307 0 435 0 
L 3245 0 
L 3334 1666 
L 3219 1666 
C 3162 829 3117 178 1894 178 
L 781 178 
L 3302 4230 
z
" transform="scale(0.015625)"/>
       <path id="CMR17-76" d="M 2502 2163 
C 2560 2304 2662 2560 3034 2560 
L 3034 2726 
C 2912 2726 2752 2726 2630 2726 
C 2496 2726 2285 2726 2157 2732 
L 2157 2566 
C 2317 2553 2406 2477 2406 2311 
C 2406 2253 2406 2240 2368 2151 
L 1664 377 
L 902 2286 
C 864 2369 864 2381 864 2407 
C 864 2560 1075 2560 1171 2560 
L 1171 2732 
C 1018 2726 736 2726 576 2726 
C 403 2726 205 2726 64 2732 
L 64 2560 
C 307 2560 442 2560 518 2362 
L 1446 44 
C 1485 -51 1491 -64 1549 -64 
C 1606 -64 1613 -51 1651 44 
L 2502 2163 
z
" transform="scale(0.015625)"/>
       <path id="CMR17-66" d="M 979 2560 
L 1709 2560 
L 1709 2725 
L 966 2725 
L 966 3494 
C 966 4022 1235 4352 1510 4352 
C 1594 4352 1690 4327 1754 4282 
C 1702 4269 1568 4225 1568 4067 
C 1568 3901 1696 3850 1786 3850 
C 1875 3850 2003 3901 2003 4067 
C 2003 4308 1773 4454 1517 4454 
C 1152 4454 653 4156 653 3481 
L 653 2725 
L 141 2725 
L 141 2560 
L 653 2560 
L 653 427 
C 653 184 627 153 218 153 
L 218 -13 
C 371 0 666 0 832 0 
C 1018 0 1344 0 1517 -13 
L 1517 153 
C 1056 153 979 153 979 439 
L 979 2560 
z
" transform="scale(0.015625)"/>
       <path id="CMMI12-15" d="M 1978 3965 
C 1818 4416 1312 4416 1229 4416 
C 1190 4416 1120 4416 1120 4352 
C 1120 4302 1158 4295 1190 4289 
C 1286 4276 1363 4263 1466 4080 
C 1530 3959 2189 2059 2189 2046 
C 2189 2040 2182 2033 2131 1982 
L 467 311 
C 390 234 339 183 339 102 
C 339 12 416 -64 518 -64 
C 544 -64 614 -51 653 -13 
C 755 82 1670 1194 2253 1881 
C 2419 1383 2624 797 2822 261 
C 2854 166 2886 76 2976 -6 
C 3040 -64 3053 -64 3232 -64 
L 3354 -64 
C 3379 -64 3424 -64 3424 -13 
C 3424 13 3418 19 3392 45 
C 3334 115 3290 229 3264 306 
L 1978 3965 
z
" transform="scale(0.015625)"/>
       <path id="CMR17-3d" d="M 4115 2017 
C 4211 2017 4307 2017 4307 2125 
C 4307 2240 4198 2240 4090 2240 
L 512 2240 
C 403 2240 294 2240 294 2125 
C 294 2017 390 2017 486 2017 
L 4115 2017 
z
M 4090 896 
C 4198 896 4307 896 4307 1011 
C 4307 1119 4211 1119 4115 1119 
L 486 1119 
C 390 1119 294 1119 294 1011 
C 294 896 403 896 512 896 
L 4090 896 
z
" transform="scale(0.015625)"/>
      </defs>
      <use xlink:href="#CMR17-5a" transform="scale(0.996264)"/>
      <use xlink:href="#CMR17-75" transform="translate(56.100171 0) scale(0.996264)"/>
      <use xlink:href="#CMR17-67" transform="translate(106.995541 0) scale(0.996264)"/>
      <use xlink:href="#CMR17-76" transform="translate(152.686018 0) scale(0.996264)"/>
      <use xlink:href="#CMR17-65" transform="translate(198.37648 0) scale(0.996264)"/>
      <use xlink:href="#CMR17-72" transform="translate(238.862141 0) scale(0.996264)"/>
      <use xlink:href="#CMR17-73" transform="translate(274.142908 0) scale(0.996264)"/>
      <use xlink:href="#CMR17-74" transform="translate(309.944246 0) scale(0.996264)"/>
      <use xlink:href="#CMR17-65" transform="translate(345.225014 0) scale(0.996264)"/>
      <use xlink:href="#CMR17-69" transform="translate(385.710674 0) scale(0.996264)"/>
      <use xlink:href="#CMR17-66" transform="translate(410.581733 0) scale(0.996264)"/>
      <use xlink:href="#CMR17-75" transform="translate(438.055245 0) scale(0.996264)"/>
      <use xlink:href="#CMR17-6e" transform="translate(488.950615 0) scale(0.996264)"/>
      <use xlink:href="#CMR17-67" transform="translate(539.845985 0) scale(0.996264)"/>
      <use xlink:href="#CMMI12-15" transform="translate(615.612428 0) scale(0.996264)"/>
      <use xlink:href="#CMR17-3d" transform="translate(700.190509 0) scale(0.996264)"/>
      <use xlink:href="#CMR17-31" transform="translate(799.579306 0) scale(0.996264)"/>
     </g>
    </g>
    <g id="line2d_41">
     <path d="M 268.143146 101.225643 
L 278.143146 101.225643 
L 288.143146 101.225643 
" style="fill: none; stroke-dasharray: 2.59,1.12; stroke-dashoffset: 0; stroke: #006400; stroke-width: 0.7"/>
    </g>
    <g id="text_22">
     <!-- Zugversteifung $\lambda = 0.5$ -->
     <g transform="translate(296.143146 104.725643) scale(0.1 -0.1)">
      <defs>
       <path id="CMMI12-3a" d="M 1178 307 
C 1178 492 1024 619 870 619 
C 685 619 557 466 557 313 
C 557 128 710 0 864 0 
C 1050 0 1178 153 1178 307 
z
" transform="scale(0.015625)"/>
      </defs>
      <use xlink:href="#CMR17-5a" transform="scale(0.996264)"/>
      <use xlink:href="#CMR17-75" transform="translate(56.100171 0) scale(0.996264)"/>
      <use xlink:href="#CMR17-67" transform="translate(106.995541 0) scale(0.996264)"/>
      <use xlink:href="#CMR17-76" transform="translate(152.686018 0) scale(0.996264)"/>
      <use xlink:href="#CMR17-65" transform="translate(198.37648 0) scale(0.996264)"/>
      <use xlink:href="#CMR17-72" transform="translate(238.862141 0) scale(0.996264)"/>
      <use xlink:href="#CMR17-73" transform="translate(274.142908 0) scale(0.996264)"/>
      <use xlink:href="#CMR17-74" transform="translate(309.944246 0) scale(0.996264)"/>
      <use xlink:href="#CMR17-65" transform="translate(345.225014 0) scale(0.996264)"/>
      <use xlink:href="#CMR17-69" transform="translate(385.710674 0) scale(0.996264)"/>
      <use xlink:href="#CMR17-66" transform="translate(410.581733 0) scale(0.996264)"/>
      <use xlink:href="#CMR17-75" transform="translate(438.055245 0) scale(0.996264)"/>
      <use xlink:href="#CMR17-6e" transform="translate(488.950615 0) scale(0.996264)"/>
      <use xlink:href="#CMR17-67" transform="translate(539.845985 0) scale(0.996264)"/>
      <use xlink:href="#CMMI12-15" transform="translate(615.612428 0) scale(0.996264)"/>
      <use xlink:href="#CMR17-3d" transform="translate(700.190509 0) scale(0.996264)"/>
      <use xlink:href="#CMR17-30" transform="translate(799.579306 0) scale(0.996264)"/>
      <use xlink:href="#CMMI12-3a" transform="translate(845.269783 0) scale(0.996264)"/>
      <use xlink:href="#CMR17-35" transform="translate(872.36696 0) scale(0.996264)"/>
     </g>
    </g>
    <g id="line2d_42">
     <path d="M 268.143146 115.162822 
L 278.143146 115.162822 
L 288.143146 115.162822 
" style="fill: none; stroke: #0000ff; stroke-width: 0.7; stroke-linecap: square"/>
    </g>
    <g id="text_23">
     <!-- Versuch SV14 -->
     <g transform="translate(296.143146 118.662822) scale(0.1 -0.1)">
      <defs>
       <path id="CMR17-56" d="M 3776 3745 
C 3834 3886 3936 4160 4365 4160 
L 4365 4332 
C 4218 4319 4051 4319 3891 4319 
C 3738 4319 3475 4319 3328 4332 
L 3328 4160 
C 3648 4160 3661 3936 3661 3898 
C 3661 3827 3642 3783 3622 3732 
L 2362 446 
L 1043 3886 
C 1024 3931 1011 3963 1011 3994 
C 1011 4160 1267 4160 1402 4160 
L 1402 4319 
C 1197 4319 896 4319 685 4319 
C 518 4319 218 4319 64 4332 
L 64 4160 
C 435 4160 506 4135 582 3931 
L 2106 -26 
C 2138 -115 2144 -128 2214 -128 
C 2285 -128 2291 -115 2323 -26 
L 3776 3745 
z
" transform="scale(0.015625)"/>
       <path id="CMR17-53" d="M 2803 4290 
C 2803 4404 2797 4411 2758 4411 
C 2720 4411 2707 4385 2682 4328 
L 2490 3907 
C 2246 4257 1875 4416 1472 4416 
C 819 4416 294 3901 294 3253 
C 294 3056 339 2776 557 2510 
C 794 2218 1018 2167 1530 2033 
C 1722 1982 2042 1899 2106 1874 
C 2470 1722 2662 1341 2662 985 
C 2662 527 2336 38 1779 38 
C 1094 38 454 419 410 1311 
C 403 1413 397 1419 352 1419 
C 301 1419 294 1413 294 1285 
L 294 -1 
C 294 -115 301 -122 339 -122 
C 384 -122 397 -90 486 108 
C 493 127 493 140 614 381 
C 934 -39 1472 -128 1779 -128 
C 2477 -128 2970 451 2970 1124 
C 2970 1454 2848 1708 2778 1823 
C 2509 2230 2221 2306 1914 2382 
C 1869 2402 1856 2402 1498 2490 
C 1152 2579 1005 2624 845 2796 
C 666 2992 602 3196 602 3399 
C 602 3812 934 4263 1478 4263 
C 2157 4263 2579 3786 2675 2993 
C 2694 2878 2701 2872 2746 2872 
C 2803 2872 2803 2891 2803 2999 
L 2803 4290 
z
" transform="scale(0.015625)"/>
      </defs>
      <use xlink:href="#CMR17-56" transform="scale(0.996264)"/>
      <use xlink:href="#CMR17-65" transform="translate(61.265174 0) scale(0.996264)"/>
      <use xlink:href="#CMR17-72" transform="translate(101.750835 0) scale(0.996264)"/>
      <use xlink:href="#CMR17-73" transform="translate(137.031603 0) scale(0.996264)"/>
      <use xlink:href="#CMR17-75" transform="translate(172.83294 0) scale(0.996264)"/>
      <use xlink:href="#CMR17-63" transform="translate(223.72831 0) scale(0.996264)"/>
      <use xlink:href="#CMR17-68" transform="translate(261.611517 0) scale(0.996264)"/>
      <use xlink:href="#CMR17-53" transform="translate(342.582853 0) scale(0.996264)"/>
      <use xlink:href="#CMR17-56" transform="translate(393.478223 0) scale(0.996264)"/>
      <use xlink:href="#CMR17-31" transform="translate(462.550652 0) scale(0.996264)"/>
      <use xlink:href="#CMR17-34" transform="translate(508.241129 0) scale(0.996264)"/>
     </g>
    </g>
   </g>
  </g>
 </g>
 <defs>
  <clipPath id="p70e5ecfa4f">
   <rect x="41.599174" y="7.2" width="362.7" height="122.4"/>
  </clipPath>
 </defs>
</svg>
