<?xml version="1.0" encoding="utf-8" standalone="no"?>
<!DOCTYPE svg PUBLIC "-//W3C//DTD SVG 1.1//EN"
  "http://www.w3.org/Graphics/SVG/1.1/DTD/svg11.dtd">
<svg xmlns:xlink="http://www.w3.org/1999/xlink" width="411.499174pt" height="165.110845pt" viewBox="0 0 411.499174 165.110845" xmlns="http://www.w3.org/2000/svg" version="1.1">
 <metadata>
  <rdf:RDF xmlns:dc="http://purl.org/dc/elements/1.1/" xmlns:cc="http://creativecommons.org/ns#" xmlns:rdf="http://www.w3.org/1999/02/22-rdf-syntax-ns#">
   <cc:Work>
    <dc:type rdf:resource="http://purl.org/dc/dcmitype/StillImage"/>
    <dc:date>2024-04-02T15:10:26.181190</dc:date>
    <dc:format>image/svg+xml</dc:format>
    <dc:creator>
     <cc:Agent>
      <dc:title>Matplotlib v3.8.3, https://matplotlib.org/</dc:title>
     </cc:Agent>
    </dc:creator>
   </cc:Work>
  </rdf:RDF>
 </metadata>
 <defs>
  <style type="text/css">*{stroke-linejoin: round; stroke-linecap: butt}</style>
 </defs>
 <g id="figure_1">
  <g id="patch_1">
   <path d="M 0 165.110845 
L 411.499174 165.110845 
L 411.499174 0 
L 0 0 
z
" style="fill: #ffffff"/>
  </g>
  <g id="axes_1">
   <g id="patch_2">
    <path d="M 41.599174 129.6 
L 404.299174 129.6 
L 404.299174 7.2 
L 41.599174 7.2 
z
" style="fill: #ffffff"/>
   </g>
   <g id="matplotlib.axis_1">
    <g id="xtick_1">
     <g id="line2d_1">
      <path d="M 58.085538 129.6 
L 58.085538 7.2 
" clip-path="url(#p00a3c66aa5)" style="fill: none; stroke: #d3d3d3; stroke-width: 0.2; stroke-linecap: square"/>
     </g>
     <g id="line2d_2">
      <defs>
       <path id="m4456be6d7b" d="M 0 0 
L 0 -3.5 
" style="stroke: #000000; stroke-width: 0.8"/>
      </defs>
      <g>
       <use xlink:href="#m4456be6d7b" x="58.085538" y="129.6" style="stroke: #000000; stroke-width: 0.8"/>
      </g>
     </g>
     <g id="text_1">
      <!-- $\mathdefault{0}$ -->
      <g transform="translate(55.59487 140.018498) scale(0.1 -0.1)">
       <defs>
        <path id="CMR17-30" d="M 2688 2025 
C 2688 2416 2682 3080 2413 3591 
C 2176 4039 1798 4198 1466 4198 
C 1158 4198 768 4058 525 3597 
C 269 3118 243 2524 243 2025 
C 243 1661 250 1106 448 619 
C 723 -39 1216 -128 1466 -128 
C 1760 -128 2208 -7 2470 600 
C 2662 1042 2688 1559 2688 2025 
z
M 1466 -26 
C 1056 -26 813 325 723 812 
C 653 1188 653 1738 653 2096 
C 653 2588 653 2997 736 3387 
C 858 3929 1216 4096 1466 4096 
C 1728 4096 2067 3923 2189 3400 
C 2272 3036 2278 2607 2278 2096 
C 2278 1680 2278 1169 2202 792 
C 2067 95 1690 -26 1466 -26 
z
" transform="scale(0.015625)"/>
       </defs>
       <use xlink:href="#CMR17-30" transform="scale(0.996264)"/>
      </g>
     </g>
    </g>
    <g id="xtick_2">
     <g id="line2d_3">
      <path d="M 102.154099 129.6 
L 102.154099 7.2 
" clip-path="url(#p00a3c66aa5)" style="fill: none; stroke: #d3d3d3; stroke-width: 0.2; stroke-linecap: square"/>
     </g>
     <g id="line2d_4">
      <g>
       <use xlink:href="#m4456be6d7b" x="102.154099" y="129.6" style="stroke: #000000; stroke-width: 0.8"/>
      </g>
     </g>
     <g id="text_2">
      <!-- $\mathdefault{5}$ -->
      <g transform="translate(99.663431 140.018498) scale(0.1 -0.1)">
       <defs>
        <path id="CMR17-35" d="M 730 3692 
C 794 3666 1056 3584 1325 3584 
C 1920 3584 2246 3911 2432 4100 
C 2432 4157 2432 4192 2394 4192 
C 2387 4192 2374 4192 2323 4163 
C 2099 4058 1837 3973 1517 3973 
C 1325 3973 1037 3999 723 4139 
C 653 4171 640 4171 634 4171 
C 602 4171 595 4164 595 4037 
L 595 2203 
C 595 2089 595 2057 659 2057 
C 691 2057 704 2070 736 2114 
C 941 2401 1222 2522 1542 2522 
C 1766 2522 2246 2382 2246 1289 
C 2246 1085 2246 715 2054 421 
C 1894 159 1645 25 1370 25 
C 947 25 518 320 403 814 
C 429 807 480 795 506 795 
C 589 795 749 840 749 1038 
C 749 1210 627 1280 506 1280 
C 358 1280 262 1190 262 1011 
C 262 454 704 -128 1382 -128 
C 2042 -128 2669 440 2669 1264 
C 2669 2030 2170 2624 1549 2624 
C 1222 2624 947 2503 730 2274 
L 730 3692 
z
" transform="scale(0.015625)"/>
       </defs>
       <use xlink:href="#CMR17-35" transform="scale(0.996264)"/>
      </g>
     </g>
    </g>
    <g id="xtick_3">
     <g id="line2d_5">
      <path d="M 146.222661 129.6 
L 146.222661 7.2 
" clip-path="url(#p00a3c66aa5)" style="fill: none; stroke: #d3d3d3; stroke-width: 0.2; stroke-linecap: square"/>
     </g>
     <g id="line2d_6">
      <g>
       <use xlink:href="#m4456be6d7b" x="146.222661" y="129.6" style="stroke: #000000; stroke-width: 0.8"/>
      </g>
     </g>
     <g id="text_3">
      <!-- $\mathdefault{10}$ -->
      <g transform="translate(141.241325 140.018498) scale(0.1 -0.1)">
       <defs>
        <path id="CMR17-31" d="M 1702 4058 
C 1702 4192 1696 4192 1606 4192 
C 1357 3916 979 3827 621 3827 
C 602 3827 570 3827 563 3808 
C 557 3795 557 3782 557 3648 
C 755 3648 1088 3686 1344 3839 
L 1344 461 
C 1344 236 1331 160 781 160 
L 589 160 
L 589 0 
C 896 0 1216 0 1523 0 
C 1830 0 2150 0 2458 0 
L 2458 160 
L 2266 160 
C 1715 160 1702 230 1702 458 
L 1702 4058 
z
" transform="scale(0.015625)"/>
       </defs>
       <use xlink:href="#CMR17-31" transform="scale(0.996264)"/>
       <use xlink:href="#CMR17-30" transform="translate(45.690477 0) scale(0.996264)"/>
      </g>
     </g>
    </g>
    <g id="xtick_4">
     <g id="line2d_7">
      <path d="M 190.291222 129.6 
L 190.291222 7.2 
" clip-path="url(#p00a3c66aa5)" style="fill: none; stroke: #d3d3d3; stroke-width: 0.2; stroke-linecap: square"/>
     </g>
     <g id="line2d_8">
      <g>
       <use xlink:href="#m4456be6d7b" x="190.291222" y="129.6" style="stroke: #000000; stroke-width: 0.8"/>
      </g>
     </g>
     <g id="text_4">
      <!-- $\mathdefault{15}$ -->
      <g transform="translate(185.309887 140.018498) scale(0.1 -0.1)">
       <use xlink:href="#CMR17-31" transform="scale(0.996264)"/>
       <use xlink:href="#CMR17-35" transform="translate(45.690477 0) scale(0.996264)"/>
      </g>
     </g>
    </g>
    <g id="xtick_5">
     <g id="line2d_9">
      <path d="M 234.359784 129.6 
L 234.359784 7.2 
" clip-path="url(#p00a3c66aa5)" style="fill: none; stroke: #d3d3d3; stroke-width: 0.2; stroke-linecap: square"/>
     </g>
     <g id="line2d_10">
      <g>
       <use xlink:href="#m4456be6d7b" x="234.359784" y="129.6" style="stroke: #000000; stroke-width: 0.8"/>
      </g>
     </g>
     <g id="text_5">
      <!-- $\mathdefault{20}$ -->
      <g transform="translate(229.378448 140.018498) scale(0.1 -0.1)">
       <defs>
        <path id="CMR17-32" d="M 2669 989 
L 2554 989 
C 2490 536 2438 459 2413 420 
C 2381 369 1920 369 1830 369 
L 602 369 
C 832 619 1280 1072 1824 1597 
C 2214 1967 2669 2402 2669 3035 
C 2669 3790 2067 4224 1395 4224 
C 691 4224 262 3604 262 3030 
C 262 2780 448 2748 525 2748 
C 589 2748 781 2787 781 3010 
C 781 3207 614 3264 525 3264 
C 486 3264 448 3258 422 3245 
C 544 3790 915 4058 1306 4058 
C 1862 4058 2227 3617 2227 3035 
C 2227 2479 1901 2000 1536 1584 
L 262 146 
L 262 0 
L 2515 0 
L 2669 989 
z
" transform="scale(0.015625)"/>
       </defs>
       <use xlink:href="#CMR17-32" transform="scale(0.996264)"/>
       <use xlink:href="#CMR17-30" transform="translate(45.690477 0) scale(0.996264)"/>
      </g>
     </g>
    </g>
    <g id="xtick_6">
     <g id="line2d_11">
      <path d="M 278.428345 129.6 
L 278.428345 7.2 
" clip-path="url(#p00a3c66aa5)" style="fill: none; stroke: #d3d3d3; stroke-width: 0.2; stroke-linecap: square"/>
     </g>
     <g id="line2d_12">
      <g>
       <use xlink:href="#m4456be6d7b" x="278.428345" y="129.6" style="stroke: #000000; stroke-width: 0.8"/>
      </g>
     </g>
     <g id="text_6">
      <!-- $\mathdefault{25}$ -->
      <g transform="translate(273.44701 140.018498) scale(0.1 -0.1)">
       <use xlink:href="#CMR17-32" transform="scale(0.996264)"/>
       <use xlink:href="#CMR17-35" transform="translate(45.690477 0) scale(0.996264)"/>
      </g>
     </g>
    </g>
    <g id="xtick_7">
     <g id="line2d_13">
      <path d="M 322.496907 129.6 
L 322.496907 7.2 
" clip-path="url(#p00a3c66aa5)" style="fill: none; stroke: #d3d3d3; stroke-width: 0.2; stroke-linecap: square"/>
     </g>
     <g id="line2d_14">
      <g>
       <use xlink:href="#m4456be6d7b" x="322.496907" y="129.6" style="stroke: #000000; stroke-width: 0.8"/>
      </g>
     </g>
     <g id="text_7">
      <!-- $\mathdefault{30}$ -->
      <g transform="translate(317.515571 140.018498) scale(0.1 -0.1)">
       <defs>
        <path id="CMR17-33" d="M 1414 2157 
C 1984 2157 2234 1662 2234 1090 
C 2234 320 1824 25 1453 25 
C 1114 25 563 194 390 693 
C 422 680 454 680 486 680 
C 640 680 755 782 755 948 
C 755 1133 614 1216 486 1216 
C 378 1216 211 1165 211 926 
C 211 335 787 -128 1466 -128 
C 2176 -128 2720 430 2720 1085 
C 2720 1707 2208 2157 1600 2227 
C 2086 2328 2554 2756 2554 3329 
C 2554 3820 2048 4179 1472 4179 
C 890 4179 378 3829 378 3329 
C 378 3110 544 3072 627 3072 
C 762 3072 877 3155 877 3321 
C 877 3486 762 3569 627 3569 
C 602 3569 570 3569 544 3557 
C 730 3959 1235 4032 1459 4032 
C 1683 4032 2106 3925 2106 3320 
C 2106 3143 2080 2828 1862 2550 
C 1670 2304 1453 2304 1242 2284 
C 1210 2284 1062 2269 1037 2269 
C 992 2263 966 2257 966 2208 
C 966 2163 973 2157 1101 2157 
L 1414 2157 
z
" transform="scale(0.015625)"/>
       </defs>
       <use xlink:href="#CMR17-33" transform="scale(0.996264)"/>
       <use xlink:href="#CMR17-30" transform="translate(45.690477 0) scale(0.996264)"/>
      </g>
     </g>
    </g>
    <g id="xtick_8">
     <g id="line2d_15">
      <path d="M 366.565468 129.6 
L 366.565468 7.2 
" clip-path="url(#p00a3c66aa5)" style="fill: none; stroke: #d3d3d3; stroke-width: 0.2; stroke-linecap: square"/>
     </g>
     <g id="line2d_16">
      <g>
       <use xlink:href="#m4456be6d7b" x="366.565468" y="129.6" style="stroke: #000000; stroke-width: 0.8"/>
      </g>
     </g>
     <g id="text_8">
      <!-- $\mathdefault{35}$ -->
      <g transform="translate(361.584133 140.018498) scale(0.1 -0.1)">
       <use xlink:href="#CMR17-33" transform="scale(0.996264)"/>
       <use xlink:href="#CMR17-35" transform="translate(45.690477 0) scale(0.996264)"/>
      </g>
     </g>
    </g>
    <g id="text_9">
     <!-- $w_{1}$ [mm] -->
     <g transform="translate(201.441457 154.922053) scale(0.12 -0.12)">
      <defs>
       <path id="CMMI12-77" d="M 2202 390 
C 2342 6 2739 -64 2982 -64 
C 3469 -64 3757 358 3936 798 
C 4083 1169 4320 2012 4320 2389 
C 4320 2778 4122 2816 4064 2816 
C 3910 2816 3770 2663 3770 2535 
C 3770 2459 3814 2414 3846 2389 
C 3904 2331 4070 2159 4070 1827 
C 4070 1609 3891 1009 3757 709 
C 3578 319 3341 64 3008 64 
C 2650 64 2534 332 2534 626 
C 2534 811 2592 1035 2618 1143 
L 2886 2216 
C 2918 2344 2976 2567 2976 2593 
C 2976 2689 2899 2753 2803 2753 
C 2618 2753 2573 2593 2534 2440 
C 2470 2191 2202 1111 2176 971 
C 2150 862 2150 792 2150 651 
C 2150 498 1946 255 1939 243 
C 1869 172 1766 64 1568 64 
C 1062 64 1062 543 1062 651 
C 1062 856 1107 1137 1395 1897 
C 1472 2095 1504 2178 1504 2305 
C 1504 2574 1312 2816 998 2816 
C 410 2816 173 1890 173 1839 
C 173 1814 198 1782 243 1782 
C 301 1782 307 1807 333 1896 
C 493 2454 742 2682 979 2682 
C 1043 2682 1146 2682 1146 2478 
C 1146 2446 1146 2312 1037 2031 
C 736 1233 672 971 672 728 
C 672 57 1222 -64 1549 -64 
C 1658 -64 1946 -64 2202 390 
z
" transform="scale(0.015625)"/>
       <path id="CMR17-5b" d="M 1504 -1600 
L 1504 -1377 
L 902 -1377 
L 902 4544 
L 1504 4544 
L 1504 4767 
L 678 4767 
L 678 -1600 
L 1504 -1600 
z
" transform="scale(0.015625)"/>
       <path id="CMR17-6d" d="M 4326 1933 
C 4326 2252 4269 2790 3507 2790 
C 3072 2790 2771 2496 2656 2151 
L 2650 2151 
C 2573 2676 2195 2790 1837 2790 
C 1331 2790 1069 2400 973 2144 
L 966 2144 
L 966 2790 
L 211 2720 
L 211 2554 
C 589 2554 646 2515 646 2208 
L 646 428 
C 646 184 621 153 211 153 
L 211 -13 
C 365 0 646 0 813 0 
C 979 0 1267 0 1421 -13 
L 1421 153 
C 1011 153 986 178 986 428 
L 986 1658 
C 986 2247 1344 2688 1792 2688 
C 2266 2688 2317 2266 2317 1958 
L 2317 428 
C 2317 184 2291 153 1882 153 
L 1882 -13 
C 2035 0 2317 0 2483 0 
C 2650 0 2938 0 3091 -13 
L 3091 153 
C 2682 153 2656 178 2656 428 
L 2656 1658 
C 2656 2247 3014 2688 3462 2688 
C 3936 2688 3987 2266 3987 1958 
L 3987 428 
C 3987 184 3962 153 3552 153 
L 3552 -13 
C 3706 0 3987 0 4154 0 
C 4320 0 4608 0 4762 -13 
L 4762 153 
C 4352 153 4326 178 4326 428 
L 4326 1933 
z
" transform="scale(0.015625)"/>
       <path id="CMR17-5d" d="M 915 4767 
L 90 4767 
L 90 4544 
L 691 4544 
L 691 -1377 
L 90 -1377 
L 90 -1600 
L 915 -1600 
L 915 4767 
z
" transform="scale(0.015625)"/>
      </defs>
      <use xlink:href="#CMMI12-77" transform="scale(0.996264)"/>
      <use xlink:href="#CMR17-31" transform="translate(69.73199 -14.943915) scale(0.697382)"/>
      <use xlink:href="#CMR17-5b" transform="translate(132.28927 0) scale(0.996264)"/>
      <use xlink:href="#CMR17-6d" transform="translate(157.160328 0) scale(0.996264)"/>
      <use xlink:href="#CMR17-6d" transform="translate(234.079918 0) scale(0.996264)"/>
      <use xlink:href="#CMR17-5d" transform="translate(310.999508 0) scale(0.996264)"/>
     </g>
    </g>
   </g>
   <g id="matplotlib.axis_2">
    <g id="ytick_1">
     <g id="line2d_17">
      <path d="M 41.599174 124.036364 
L 404.299174 124.036364 
" clip-path="url(#p00a3c66aa5)" style="fill: none; stroke: #d3d3d3; stroke-width: 0.2; stroke-linecap: square"/>
     </g>
     <g id="line2d_18">
      <defs>
       <path id="m80c6ab3ee3" d="M 0 0 
L 3.5 0 
" style="stroke: #000000; stroke-width: 0.8"/>
      </defs>
      <g>
       <use xlink:href="#m80c6ab3ee3" x="41.599174" y="124.036364" style="stroke: #000000; stroke-width: 0.8"/>
      </g>
     </g>
     <g id="text_10">
      <!-- $\mathdefault{0}$ -->
      <g transform="translate(33.117839 127.495613) scale(0.1 -0.1)">
       <use xlink:href="#CMR17-30" transform="scale(0.996264)"/>
      </g>
     </g>
    </g>
    <g id="ytick_2">
     <g id="line2d_19">
      <path d="M 41.599174 102.841558 
L 404.299174 102.841558 
" clip-path="url(#p00a3c66aa5)" style="fill: none; stroke: #d3d3d3; stroke-width: 0.2; stroke-linecap: square"/>
     </g>
     <g id="line2d_20">
      <g>
       <use xlink:href="#m80c6ab3ee3" x="41.599174" y="102.841558" style="stroke: #000000; stroke-width: 0.8"/>
      </g>
     </g>
     <g id="text_11">
      <!-- $\mathdefault{20}$ -->
      <g transform="translate(28.136503 106.300808) scale(0.1 -0.1)">
       <use xlink:href="#CMR17-32" transform="scale(0.996264)"/>
       <use xlink:href="#CMR17-30" transform="translate(45.690477 0) scale(0.996264)"/>
      </g>
     </g>
    </g>
    <g id="ytick_3">
     <g id="line2d_21">
      <path d="M 41.599174 81.646753 
L 404.299174 81.646753 
" clip-path="url(#p00a3c66aa5)" style="fill: none; stroke: #d3d3d3; stroke-width: 0.2; stroke-linecap: square"/>
     </g>
     <g id="line2d_22">
      <g>
       <use xlink:href="#m80c6ab3ee3" x="41.599174" y="81.646753" style="stroke: #000000; stroke-width: 0.8"/>
      </g>
     </g>
     <g id="text_12">
      <!-- $\mathdefault{40}$ -->
      <g transform="translate(28.136503 85.106002) scale(0.1 -0.1)">
       <defs>
        <path id="CMR17-34" d="M 2150 4122 
C 2150 4256 2144 4256 2029 4256 
L 128 1254 
L 128 1088 
L 1779 1088 
L 1779 457 
C 1779 224 1766 160 1318 160 
L 1197 160 
L 1197 0 
C 1402 0 1747 0 1965 0 
C 2182 0 2528 0 2733 0 
L 2733 160 
L 2611 160 
C 2163 160 2150 224 2150 457 
L 2150 1088 
L 2803 1088 
L 2803 1254 
L 2150 1254 
L 2150 4122 
z
M 1798 3703 
L 1798 1254 
L 256 1254 
L 1798 3703 
z
" transform="scale(0.015625)"/>
       </defs>
       <use xlink:href="#CMR17-34" transform="scale(0.996264)"/>
       <use xlink:href="#CMR17-30" transform="translate(45.690477 0) scale(0.996264)"/>
      </g>
     </g>
    </g>
    <g id="ytick_4">
     <g id="line2d_23">
      <path d="M 41.599174 60.451948 
L 404.299174 60.451948 
" clip-path="url(#p00a3c66aa5)" style="fill: none; stroke: #d3d3d3; stroke-width: 0.2; stroke-linecap: square"/>
     </g>
     <g id="line2d_24">
      <g>
       <use xlink:href="#m80c6ab3ee3" x="41.599174" y="60.451948" style="stroke: #000000; stroke-width: 0.8"/>
      </g>
     </g>
     <g id="text_13">
      <!-- $\mathdefault{60}$ -->
      <g transform="translate(28.136503 63.911197) scale(0.1 -0.1)">
       <defs>
        <path id="CMR17-36" d="M 678 2176 
C 678 3690 1395 4032 1811 4032 
C 1946 4032 2272 4009 2400 3776 
C 2298 3776 2106 3776 2106 3553 
C 2106 3381 2246 3323 2336 3323 
C 2394 3323 2566 3348 2566 3560 
C 2566 3954 2246 4179 1805 4179 
C 1043 4179 243 3390 243 1984 
C 243 253 966 -128 1478 -128 
C 2099 -128 2688 427 2688 1283 
C 2688 2081 2170 2662 1517 2662 
C 1126 2662 838 2407 678 1960 
L 678 2176 
z
M 1478 25 
C 691 25 691 1200 691 1436 
C 691 1896 909 2560 1504 2560 
C 1613 2560 1926 2560 2138 2120 
C 2253 1870 2253 1609 2253 1289 
C 2253 944 2253 690 2118 434 
C 1978 171 1773 25 1478 25 
z
" transform="scale(0.015625)"/>
       </defs>
       <use xlink:href="#CMR17-36" transform="scale(0.996264)"/>
       <use xlink:href="#CMR17-30" transform="translate(45.690477 0) scale(0.996264)"/>
      </g>
     </g>
    </g>
    <g id="ytick_5">
     <g id="line2d_25">
      <path d="M 41.599174 39.257143 
L 404.299174 39.257143 
" clip-path="url(#p00a3c66aa5)" style="fill: none; stroke: #d3d3d3; stroke-width: 0.2; stroke-linecap: square"/>
     </g>
     <g id="line2d_26">
      <g>
       <use xlink:href="#m80c6ab3ee3" x="41.599174" y="39.257143" style="stroke: #000000; stroke-width: 0.8"/>
      </g>
     </g>
     <g id="text_14">
      <!-- $\mathdefault{80}$ -->
      <g transform="translate(28.136503 42.716392) scale(0.1 -0.1)">
       <defs>
        <path id="CMR17-38" d="M 1741 2264 
C 2144 2467 2554 2773 2554 3263 
C 2554 3841 1990 4179 1472 4179 
C 890 4179 378 3759 378 3180 
C 378 3021 416 2747 666 2505 
C 730 2442 998 2251 1171 2130 
C 883 1983 211 1634 211 934 
C 211 279 838 -128 1459 -128 
C 2144 -128 2720 362 2720 1010 
C 2720 1590 2330 1857 2074 2029 
L 1741 2264 
z
M 902 2822 
C 851 2854 595 3051 595 3351 
C 595 3739 998 4032 1459 4032 
C 1965 4032 2336 3676 2336 3262 
C 2336 2669 1670 2331 1638 2331 
C 1632 2331 1626 2331 1574 2370 
L 902 2822 
z
M 2080 1519 
C 2176 1449 2483 1240 2483 851 
C 2483 381 2010 25 1472 25 
C 890 25 448 438 448 940 
C 448 1443 838 1862 1280 2060 
L 2080 1519 
z
" transform="scale(0.015625)"/>
       </defs>
       <use xlink:href="#CMR17-38" transform="scale(0.996264)"/>
       <use xlink:href="#CMR17-30" transform="translate(45.690477 0) scale(0.996264)"/>
      </g>
     </g>
    </g>
    <g id="ytick_6">
     <g id="line2d_27">
      <path d="M 41.599174 18.062338 
L 404.299174 18.062338 
" clip-path="url(#p00a3c66aa5)" style="fill: none; stroke: #d3d3d3; stroke-width: 0.2; stroke-linecap: square"/>
     </g>
     <g id="line2d_28">
      <g>
       <use xlink:href="#m80c6ab3ee3" x="41.599174" y="18.062338" style="stroke: #000000; stroke-width: 0.8"/>
      </g>
     </g>
     <g id="text_15">
      <!-- $\mathdefault{100}$ -->
      <g transform="translate(23.155168 21.521587) scale(0.1 -0.1)">
       <use xlink:href="#CMR17-31" transform="scale(0.996264)"/>
       <use xlink:href="#CMR17-30" transform="translate(45.690477 0) scale(0.996264)"/>
       <use xlink:href="#CMR17-30" transform="translate(91.380954 0) scale(0.996264)"/>
      </g>
     </g>
    </g>
    <g id="text_16">
     <!-- $F_{A}$ [kN] -->
     <g transform="translate(16.166376 88.288849) rotate(-90) scale(0.12 -0.12)">
      <defs>
       <path id="CMMI12-46" d="M 1901 2055 
L 2515 2055 
C 3002 2055 3040 1946 3040 1761 
C 3040 1678 3027 1589 2995 1448 
C 2982 1423 2976 1391 2976 1378 
C 2976 1333 3002 1308 3046 1308 
C 3098 1308 3104 1333 3130 1435 
L 3501 2935 
C 3501 2961 3482 2999 3437 2999 
C 3379 2999 3373 2974 3347 2863 
C 3213 2376 3085 2240 2528 2240 
L 1946 2240 
L 2362 3926 
C 2419 4154 2432 4154 2694 4154 
L 3552 4154 
C 4352 4154 4467 3918 4467 3464 
C 4467 3426 4467 3285 4448 3119 
C 4442 3094 4429 3011 4429 2985 
C 4429 2934 4461 2915 4499 2915 
C 4544 2915 4570 2941 4582 3055 
L 4717 4174 
C 4717 4195 4730 4263 4730 4277 
C 4730 4352 4672 4352 4557 4352 
L 1523 4352 
C 1402 4352 1338 4352 1338 4229 
C 1338 4154 1382 4154 1491 4154 
C 1888 4154 1888 4113 1888 4050 
C 1888 4018 1882 3992 1862 3922 
L 998 473 
C 941 249 928 185 480 185 
C 358 185 294 185 294 70 
C 294 0 352 0 390 0 
C 512 0 640 0 762 0 
L 1594 0 
C 1734 0 1888 0 2029 0 
C 2086 0 2163 0 2163 115 
C 2163 185 2125 185 1984 185 
C 1478 185 1466 229 1466 324 
C 1466 356 1478 406 1491 449 
L 1901 2055 
z
" transform="scale(0.015625)"/>
       <path id="CMMI12-41" d="M 1088 691 
C 864 314 646 186 339 186 
C 269 180 218 180 218 58 
C 218 24 250 0 294 0 
C 410 0 698 0 813 0 
C 998 0 1203 0 1382 0 
C 1421 0 1498 0 1498 122 
C 1498 180 1446 186 1408 186 
C 1261 186 1139 236 1139 388 
C 1139 476 1178 546 1261 685 
L 1747 1479 
L 3379 1479 
C 3386 1423 3386 1373 3392 1316 
C 3411 1152 3488 495 3488 376 
C 3488 186 3162 186 3059 186 
C 2989 186 2918 186 2918 70 
C 2918 0 2976 0 3014 0 
C 3123 0 3251 0 3360 0 
L 3725 0 
C 4115 0 4397 0 4403 0 
C 4448 0 4518 0 4518 122 
C 4518 186 4461 186 4365 186 
C 4013 186 4006 244 3987 434 
L 3597 4404 
C 3584 4531 3558 4544 3488 4544 
C 3424 4544 3386 4531 3328 4435 
L 1088 691 
z
M 1856 1664 
L 3142 3819 
L 3360 1664 
L 1856 1664 
z
" transform="scale(0.015625)"/>
       <path id="CMR17-6b" d="M 1670 1673 
C 1664 1686 1632 1724 1632 1743 
C 1632 1756 2086 2171 2144 2222 
C 2509 2528 2739 2560 2906 2560 
L 2906 2733 
C 2867 2733 2854 2733 2848 2720 
L 2534 2720 
C 2355 2720 2080 2720 1907 2733 
L 1907 2566 
C 1997 2559 2061 2508 2061 2419 
C 2061 2291 1933 2170 1926 2170 
L 960 1289 
L 960 4396 
L 198 4326 
L 198 4160 
C 576 4160 634 4122 634 3817 
L 634 426 
C 634 184 608 153 198 153 
L 198 -13 
C 352 0 634 0 794 0 
C 954 0 1235 0 1389 -13 
L 1389 153 
C 979 153 954 178 954 428 
L 954 1130 
L 1395 1532 
L 2042 574 
C 2118 459 2182 369 2182 286 
C 2182 172 2067 153 1990 153 
L 1990 -13 
C 2144 0 2419 0 2579 0 
C 2694 0 2931 0 3040 0 
L 3040 153 
C 2739 153 2669 210 2477 491 
L 1670 1673 
z
" transform="scale(0.015625)"/>
       <path id="CMR17-4e" d="M 1312 4250 
C 1267 4320 1261 4320 1139 4320 
L 326 4320 
L 326 4160 
L 448 4160 
C 704 4160 819 4129 838 4122 
L 838 610 
C 838 451 838 153 326 153 
L 326 -13 
C 474 0 742 0 902 0 
C 1062 0 1331 0 1478 -13 
L 1478 153 
C 966 153 966 451 966 610 
L 966 4033 
C 1011 3995 1011 3982 1056 3919 
L 3430 76 
C 3475 0 3494 0 3526 0 
C 3590 0 3590 19 3590 139 
L 3590 3705 
C 3590 3863 3590 4160 4102 4160 
L 4102 4326 
C 3955 4320 3686 4320 3526 4320 
C 3366 4320 3098 4320 2950 4326 
L 2950 4160 
C 3462 4160 3462 3862 3462 3703 
L 3462 763 
L 1312 4250 
z
" transform="scale(0.015625)"/>
      </defs>
      <use xlink:href="#CMMI12-46" transform="scale(0.996264)"/>
      <use xlink:href="#CMMI12-41" transform="translate(63.148204 -14.943915) scale(0.697382)"/>
      <use xlink:href="#CMR17-5b" transform="translate(144.911599 0) scale(0.996264)"/>
      <use xlink:href="#CMR17-6b" transform="translate(169.782657 0) scale(0.996264)"/>
      <use xlink:href="#CMR17-4e" transform="translate(218.075573 0) scale(0.996264)"/>
      <use xlink:href="#CMR17-5d" transform="translate(287.148003 0) scale(0.996264)"/>
     </g>
    </g>
   </g>
   <g id="line2d_29">
    <path d="M 58.085538 124.036364 
L 60.603741 118.403382 
L 62.020231 116.525721 
L 62.492394 114.648061 
L 64.853209 111.83157 
L 69.102678 108.858607 
L 87.517041 102.443267 
L 108.764383 93.524379 
L 118.67981 88.830227 
L 138.982825 79.91134 
L 174.867226 63.012394 
L 206.029994 50.338185 
L 241.914394 40.949882 
L 272.132836 34.37807 
L 305.184257 25.928598 
L 336.347026 18.574427 
L 352.400573 15.914408 
L 367.981958 14.193219 
L 387.81281 13.254389 
" clip-path="url(#p00a3c66aa5)" style="fill: none; stroke: #0000ff; stroke-width: 0.7; stroke-linecap: square"/>
   </g>
   <g id="line2d_30">
    <path d="M 59.883244 122.976623 
L 63.698779 120.727379 
L 67.514324 118.478134 
L 71.329859 116.228889 
L 75.145395 113.979645 
L 78.960938 111.7304 
L 82.776474 109.481156 
L 86.592017 107.231911 
L 90.407553 104.982666 
L 94.223088 102.733422 
L 98.038631 100.484177 
L 101.854179 98.234932 
L 105.669715 95.985688 
L 109.48525 93.736443 
L 113.300785 91.487199 
L 117.116321 89.237954 
L 120.931864 86.988709 
L 124.7474 84.739465 
L 128.562939 82.49022 
L 132.378487 80.240975 
L 136.194035 77.991731 
L 140.009558 75.742486 
L 143.825105 73.493241 
L 147.640612 71.243997 
L 151.456151 68.994752 
L 155.271699 66.745508 
L 159.087247 64.496263 
L 162.902786 62.247018 
L 166.718334 59.997774 
L 170.533874 57.748529 
L 174.349421 55.499284 
L 178.164961 53.25004 
L 181.980508 51.000795 
L 185.796056 48.75155 
L 189.611596 46.502306 
L 193.427053 44.253061 
L 197.242601 42.003817 
L 201.058148 39.754572 
L 204.87368 37.505327 
L 210.327265 35.256083 
L 224.183913 33.006838 
L 240.037142 30.757593 
L 255.900139 28.508349 
L 271.742353 26.259104 
L 287.600507 24.00986 
L 303.450026 21.760615 
L 319.311808 19.51137 
L 335.173131 17.262126 
L 351.007152 15.012881 
L 366.895447 12.763636 
" clip-path="url(#p00a3c66aa5)" style="fill: none; stroke: #800080; stroke-width: 0.7; stroke-linecap: square"/>
   </g>
   <g id="line2d_31">
    <path d="M 59.578413 122.976623 
L 62.74696 120.727379 
L 65.915516 118.478134 
L 69.084063 116.228889 
L 72.25262 113.979645 
L 75.421166 111.7304 
L 78.589723 109.481156 
L 81.75827 107.231911 
L 84.926826 104.982666 
L 88.095373 102.733422 
L 91.26393 100.484177 
L 94.432476 98.234932 
L 97.601025 95.985688 
L 100.769577 93.736443 
L 103.938126 91.487199 
L 107.106675 89.237954 
L 110.27524 86.988709 
L 113.443784 84.739465 
L 116.612341 82.49022 
L 119.780889 80.240975 
L 122.949438 77.991731 
L 126.117991 75.742486 
L 129.286543 73.493241 
L 132.455096 71.243997 
L 135.62364 68.994752 
L 138.792193 66.745508 
L 141.960738 64.496263 
L 145.129298 62.247018 
L 148.297851 59.997774 
L 151.466379 57.748529 
L 154.634907 55.499284 
L 157.803526 53.25004 
L 160.972054 51.000795 
L 164.140582 48.75155 
L 167.3092 46.502306 
L 170.477736 44.253061 
L 173.646264 42.003817 
L 176.814792 39.754572 
L 179.983411 37.505327 
L 183.151939 35.256083 
L 186.320467 33.006838 
L 189.488995 30.757593 
L 192.657531 28.508349 
L 195.826141 26.259104 
L 198.994669 24.00986 
L 202.163197 21.760615 
L 205.331824 19.51137 
L 208.500352 17.262126 
L 211.66888 15.012881 
L 214.837408 12.763636 
" clip-path="url(#p00a3c66aa5)" style="fill: none; stroke-dasharray: 2.59,1.12; stroke-dashoffset: 0; stroke: #800080; stroke-width: 0.7"/>
   </g>
   <g id="line2d_32">
    <path d="M 58.179624 122.976623 
L 58.379325 120.727379 
L 58.579035 118.478134 
L 58.778736 116.228889 
L 58.978437 113.979645 
L 59.178138 111.7304 
L 59.377839 109.481156 
L 59.57754 107.231911 
L 59.777241 104.982666 
L 59.976943 102.733422 
L 60.176644 100.484177 
L 60.376345 98.234932 
L 60.576046 95.985688 
L 60.775747 93.736443 
L 60.975448 91.487199 
L 61.175149 89.237954 
L 61.37485 86.988709 
L 61.574551 84.739465 
L 61.774261 82.49022 
L 61.973962 80.240975 
L 62.173663 77.991731 
L 62.373364 75.742486 
L 62.573066 73.493241 
L 62.772766 71.243997 
L 62.972468 68.994752 
L 63.172169 66.745508 
L 63.37187 64.496263 
L 63.571571 62.247018 
L 63.771272 59.997774 
L 63.970973 57.748529 
L 64.170674 55.499284 
L 64.370375 53.25004 
L 64.570077 51.000795 
L 64.769778 48.75155 
L 64.969479 46.502306 
L 65.16918 44.253061 
L 65.36889 42.003817 
L 65.568591 39.754572 
L 65.768292 37.505327 
L 68.629778 35.256083 
L 84.556412 33.006838 
L 100.484339 30.757593 
L 116.424926 28.508349 
L 132.338504 26.259104 
L 148.272906 24.00986 
L 164.195939 21.760615 
L 180.134913 19.51137 
L 196.073362 17.262126 
L 211.976301 15.012881 
L 227.949931 12.763636 
" clip-path="url(#p00a3c66aa5)" style="fill: none; stroke-dasharray: 0.7,1.155; stroke-dashoffset: 0; stroke: #800080; stroke-width: 0.7"/>
   </g>
   <g id="line2d_33">
    <path d="M 58.136639 122.976623 
L 58.245101 120.727379 
L 58.353562 118.478134 
L 58.462024 116.228889 
L 58.570486 113.979645 
L 58.678947 111.7304 
L 58.787409 109.481156 
L 58.89587 107.231911 
L 59.004332 104.982666 
L 59.112793 102.733422 
L 59.221255 100.484177 
L 59.329716 98.234932 
L 59.438178 95.985688 
L 59.546639 93.736443 
L 59.655101 91.487199 
L 59.763563 89.237954 
L 59.872024 86.988709 
L 59.980486 84.739465 
L 60.088947 82.49022 
L 60.197409 80.240975 
L 60.30587 77.991731 
L 60.414332 75.742486 
L 60.522793 73.493241 
L 60.631255 71.243997 
L 60.739716 68.994752 
L 60.848178 66.745508 
L 60.956639 64.496263 
L 61.065101 62.247018 
L 61.173563 59.997774 
L 61.282024 57.748529 
L 61.390486 55.499284 
L 61.498947 53.25004 
L 61.607409 51.000795 
L 61.71587 48.75155 
L 61.824332 46.502306 
L 61.932794 44.253061 
L 62.041255 42.003817 
L 62.149717 39.754572 
L 62.258178 37.505327 
L 62.36664 35.256083 
L 62.475101 33.006838 
L 62.583563 30.757593 
L 62.692024 28.508349 
L 62.800486 26.259104 
L 62.908948 24.00986 
L 63.017409 21.760615 
L 63.125871 19.51137 
L 63.234332 17.262126 
L 63.342793 15.012881 
L 63.451255 12.763636 
" clip-path="url(#p00a3c66aa5)" style="fill: none; stroke: #dda0dd; stroke-width: 0.7; stroke-linecap: square"/>
   </g>
   <g id="line2d_34">
    <path d="M 58.270388 122.976623 
L 58.662721 120.727379 
L 59.055055 118.478134 
L 59.447397 116.228889 
L 59.839731 113.979645 
L 60.232064 111.7304 
L 60.624398 109.481156 
L 61.016731 107.231911 
L 61.409065 104.982666 
L 61.801407 102.733422 
L 62.193741 100.484177 
L 62.586074 98.234932 
L 62.978408 95.985688 
L 63.370742 93.736443 
L 63.763076 91.487199 
L 64.155418 89.237954 
L 64.547751 86.988709 
L 64.940085 84.739465 
L 65.332418 82.49022 
L 65.724752 80.240975 
L 66.117095 77.991731 
L 66.509428 75.742486 
L 66.901762 73.493241 
L 67.294095 71.243997 
L 67.686428 68.994752 
L 68.078763 66.745508 
L 68.471105 64.496263 
L 68.863438 62.247018 
L 69.255772 59.997774 
L 69.648106 57.748529 
L 70.040439 55.499284 
L 70.432772 53.25004 
L 70.825115 51.000795 
L 71.217449 48.75155 
L 71.609782 46.502306 
L 72.002116 44.253061 
L 72.39445 42.003817 
L 72.786783 39.754572 
L 73.179126 37.505327 
L 73.571459 35.256083 
L 73.963793 33.006838 
L 74.356126 30.757593 
L 74.748459 28.508349 
L 75.140802 26.259104 
L 75.533135 24.00986 
L 75.92547 21.760615 
L 76.317804 19.51137 
L 76.710137 17.262126 
L 77.102478 15.012881 
L 77.494814 12.763636 
" clip-path="url(#p00a3c66aa5)" style="fill: none; stroke-dasharray: 2.59,1.12; stroke-dashoffset: 0; stroke: #dda0dd; stroke-width: 0.7"/>
   </g>
   <g id="patch_3">
    <path d="M 41.599174 129.6 
L 41.599174 7.2 
" style="fill: none; stroke: #000000; stroke-width: 0.5; stroke-linejoin: miter; stroke-linecap: square"/>
   </g>
   <g id="patch_4">
    <path d="M 41.599174 129.6 
L 404.299174 129.6 
" style="fill: none; stroke: #000000; stroke-width: 0.5; stroke-linejoin: miter; stroke-linecap: square"/>
   </g>
   <g id="legend_1">
    <g id="patch_5">
     <path d="M 220.729935 124.6 
L 397.299174 124.6 
Q 399.299174 124.6 399.299174 122.6 
L 399.299174 39.97693 
Q 399.299174 37.97693 397.299174 37.97693 
L 220.729935 37.97693 
Q 218.729935 37.97693 218.729935 39.97693 
L 218.729935 122.6 
Q 218.729935 124.6 220.729935 124.6 
z
" style="fill: #ffffff; opacity: 0.8; stroke: #cccccc; stroke-width: 0.5; stroke-linejoin: miter"/>
    </g>
    <g id="line2d_35">
     <path d="M 222.729935 45.47693 
L 232.729935 45.47693 
L 242.729935 45.47693 
" style="fill: none; stroke: #0000ff; stroke-width: 0.7; stroke-linecap: square"/>
    </g>
    <g id="text_17">
     <!-- Versuch SV14 -->
     <g transform="translate(250.729935 48.97693) scale(0.1 -0.1)">
      <defs>
       <path id="CMR17-56" d="M 3776 3745 
C 3834 3886 3936 4160 4365 4160 
L 4365 4332 
C 4218 4319 4051 4319 3891 4319 
C 3738 4319 3475 4319 3328 4332 
L 3328 4160 
C 3648 4160 3661 3936 3661 3898 
C 3661 3827 3642 3783 3622 3732 
L 2362 446 
L 1043 3886 
C 1024 3931 1011 3963 1011 3994 
C 1011 4160 1267 4160 1402 4160 
L 1402 4319 
C 1197 4319 896 4319 685 4319 
C 518 4319 218 4319 64 4332 
L 64 4160 
C 435 4160 506 4135 582 3931 
L 2106 -26 
C 2138 -115 2144 -128 2214 -128 
C 2285 -128 2291 -115 2323 -26 
L 3776 3745 
z
" transform="scale(0.015625)"/>
       <path id="CMR17-65" d="M 2438 1472 
C 2464 1498 2464 1511 2464 1576 
C 2464 2238 2118 2816 1389 2816 
C 710 2816 173 2169 173 1383 
C 173 551 781 -64 1459 -64 
C 2176 -64 2458 607 2458 740 
C 2458 784 2419 784 2406 784 
C 2362 784 2355 771 2330 696 
C 2189 265 1837 51 1504 51 
C 1229 51 954 203 781 480 
C 582 803 582 1176 582 1472 
L 2438 1472 
z
M 589 1568 
C 634 2505 1126 2714 1382 2714 
C 1818 2714 2112 2297 2118 1568 
L 589 1568 
z
" transform="scale(0.015625)"/>
       <path id="CMR17-72" d="M 960 1497 
C 960 2112 1222 2688 1702 2688 
C 1747 2688 1792 2682 1837 2662 
C 1837 2662 1696 2617 1696 2452 
C 1696 2298 1818 2234 1914 2234 
C 1990 2234 2131 2279 2131 2458 
C 2131 2663 1926 2790 1709 2790 
C 1222 2790 1011 2317 947 2093 
L 941 2093 
L 941 2790 
L 198 2720 
L 198 2554 
C 576 2554 634 2515 634 2208 
L 634 428 
C 634 184 608 153 198 153 
L 198 -13 
C 352 0 646 0 813 0 
C 998 0 1325 0 1498 -13 
L 1498 153 
C 1037 153 960 153 960 440 
L 960 1497 
z
" transform="scale(0.015625)"/>
       <path id="CMR17-73" d="M 1978 2697 
C 1978 2813 1971 2819 1933 2819 
C 1907 2819 1901 2813 1824 2717 
C 1805 2691 1747 2626 1728 2601 
C 1523 2819 1235 2819 1126 2819 
C 416 2819 160 2447 160 2076 
C 160 1498 813 1365 998 1325 
C 1402 1243 1542 1217 1677 1101 
C 1760 1025 1901 884 1901 654 
C 1901 384 1747 38 1158 38 
C 602 38 403 460 288 1021 
C 269 1110 269 1117 218 1117 
C 166 1117 160 1110 160 983 
L 160 63 
C 160 -51 166 -58 205 -58 
C 237 -58 243 -51 275 0 
C 314 57 410 211 448 276 
C 576 103 800 -64 1158 -64 
C 1792 -64 2131 283 2131 784 
C 2131 1112 1958 1285 1875 1362 
C 1683 1561 1459 1606 1190 1657 
C 838 1735 390 1825 390 2217 
C 390 2383 480 2737 1126 2737 
C 1811 2737 1850 2094 1862 1888 
C 1869 1856 1901 1849 1920 1849 
C 1978 1849 1978 1869 1978 1978 
L 1978 2697 
z
" transform="scale(0.015625)"/>
       <path id="CMR17-75" d="M 1882 2693 
L 1882 2528 
C 2259 2528 2317 2489 2317 2186 
L 2317 1032 
C 2317 500 2029 38 1555 38 
C 1030 38 986 348 986 678 
L 986 2763 
L 211 2693 
L 211 2528 
C 467 2528 640 2528 646 2274 
L 646 1058 
C 646 633 646 361 813 183 
C 896 101 1056 -64 1517 -64 
C 2061 -64 2272 377 2323 506 
L 2330 506 
L 2330 -63 
L 3091 -63 
L 3091 128 
C 2714 128 2656 166 2656 473 
L 2656 2763 
L 1882 2693 
z
" transform="scale(0.015625)"/>
       <path id="CMR17-63" d="M 2234 2240 
C 2112 2240 1933 2240 1933 2017 
C 1933 1838 2080 1787 2163 1787 
C 2208 1787 2394 1807 2394 2024 
C 2394 2467 1958 2803 1466 2803 
C 787 2803 211 2178 211 1363 
C 211 516 813 -64 1466 -64 
C 2259 -64 2458 677 2458 748 
C 2458 774 2451 793 2406 793 
C 2362 793 2355 787 2330 703 
C 2163 180 1798 51 1523 51 
C 1114 51 621 427 621 1369 
C 621 2338 1094 2688 1472 2688 
C 1722 2688 2093 2573 2234 2240 
z
" transform="scale(0.015625)"/>
       <path id="CMR17-68" d="M 2656 1933 
C 2656 2259 2592 2790 1837 2790 
C 1312 2790 1056 2368 979 2157 
L 973 2157 
L 973 4396 
L 211 4326 
L 211 4160 
C 589 4160 646 4122 646 3817 
L 646 426 
C 646 184 621 153 211 153 
L 211 -13 
C 365 0 646 0 813 0 
C 979 0 1267 0 1421 -13 
L 1421 153 
C 1011 153 986 178 986 428 
L 986 1658 
C 986 2247 1344 2688 1792 2688 
C 2266 2688 2317 2266 2317 1958 
L 2317 428 
C 2317 184 2291 153 1882 153 
L 1882 -13 
C 2035 0 2317 0 2483 0 
C 2650 0 2938 0 3091 -13 
L 3091 153 
C 2682 153 2656 178 2656 428 
L 2656 1933 
z
" transform="scale(0.015625)"/>
       <path id="CMR17-53" d="M 2803 4290 
C 2803 4404 2797 4411 2758 4411 
C 2720 4411 2707 4385 2682 4328 
L 2490 3907 
C 2246 4257 1875 4416 1472 4416 
C 819 4416 294 3901 294 3253 
C 294 3056 339 2776 557 2510 
C 794 2218 1018 2167 1530 2033 
C 1722 1982 2042 1899 2106 1874 
C 2470 1722 2662 1341 2662 985 
C 2662 527 2336 38 1779 38 
C 1094 38 454 419 410 1311 
C 403 1413 397 1419 352 1419 
C 301 1419 294 1413 294 1285 
L 294 -1 
C 294 -115 301 -122 339 -122 
C 384 -122 397 -90 486 108 
C 493 127 493 140 614 381 
C 934 -39 1472 -128 1779 -128 
C 2477 -128 2970 451 2970 1124 
C 2970 1454 2848 1708 2778 1823 
C 2509 2230 2221 2306 1914 2382 
C 1869 2402 1856 2402 1498 2490 
C 1152 2579 1005 2624 845 2796 
C 666 2992 602 3196 602 3399 
C 602 3812 934 4263 1478 4263 
C 2157 4263 2579 3786 2675 2993 
C 2694 2878 2701 2872 2746 2872 
C 2803 2872 2803 2891 2803 2999 
L 2803 4290 
z
" transform="scale(0.015625)"/>
      </defs>
      <use xlink:href="#CMR17-56" transform="scale(0.996264)"/>
      <use xlink:href="#CMR17-65" transform="translate(61.265174 0) scale(0.996264)"/>
      <use xlink:href="#CMR17-72" transform="translate(101.750835 0) scale(0.996264)"/>
      <use xlink:href="#CMR17-73" transform="translate(137.031603 0) scale(0.996264)"/>
      <use xlink:href="#CMR17-75" transform="translate(172.83294 0) scale(0.996264)"/>
      <use xlink:href="#CMR17-63" transform="translate(223.72831 0) scale(0.996264)"/>
      <use xlink:href="#CMR17-68" transform="translate(261.611517 0) scale(0.996264)"/>
      <use xlink:href="#CMR17-53" transform="translate(342.582853 0) scale(0.996264)"/>
      <use xlink:href="#CMR17-56" transform="translate(393.478223 0) scale(0.996264)"/>
      <use xlink:href="#CMR17-31" transform="translate(462.550652 0) scale(0.996264)"/>
      <use xlink:href="#CMR17-34" transform="translate(508.241129 0) scale(0.996264)"/>
     </g>
    </g>
    <g id="line2d_36">
     <path d="M 222.729935 59.414108 
L 232.729935 59.414108 
L 242.729935 59.414108 
" style="fill: none; stroke: #800080; stroke-width: 0.7; stroke-linecap: square"/>
    </g>
    <g id="text_18">
     <!-- Gesamtverformung -->
     <g transform="translate(250.729935 62.914108) scale(0.1 -0.1)">
      <defs>
       <path id="CMR17-47" d="M 3974 1233 
C 3974 1473 3994 1505 4390 1505 
L 4390 1670 
C 4237 1664 3891 1664 3718 1664 
C 3539 1664 3040 1664 2797 1664 
L 2797 1505 
L 2989 1505 
C 3539 1505 3552 1434 3552 1201 
L 3552 774 
C 3552 63 2720 63 2522 63 
C 1862 63 781 511 781 2160 
C 781 3808 1843 4250 2464 4250 
C 3187 4250 3712 3626 3834 2741 
C 3846 2664 3846 2651 3904 2651 
C 3974 2651 3974 2664 3974 2779 
L 3974 4288 
C 3974 4402 3968 4409 3930 4409 
C 3904 4409 3898 4402 3853 4326 
L 3571 3791 
C 3258 4187 2874 4416 2381 4416 
C 1286 4416 294 3456 294 2148 
C 294 845 1267 -128 2394 -128 
C 2912 -128 3418 56 3616 417 
C 3725 158 3904 -20 3936 -20 
C 3968 -20 3974 -13 3974 100 
L 3974 1233 
z
" transform="scale(0.015625)"/>
       <path id="CMR17-61" d="M 2304 1653 
C 2304 2072 2304 2294 2035 2543 
C 1798 2752 1523 2816 1306 2816 
C 800 2816 435 2407 435 1971 
C 435 1728 627 1728 666 1728 
C 749 1728 896 1778 896 1954 
C 896 2112 774 2181 666 2181 
C 640 2181 608 2174 589 2168 
C 723 2592 1069 2714 1293 2714 
C 1613 2714 1965 2429 1965 1885 
L 1965 1600 
C 1587 1600 1133 1549 774 1357 
C 371 1133 256 813 256 570 
C 256 77 832 -64 1171 -64 
C 1523 -64 1850 139 1990 511 
C 2003 233 2182 -18 2464 -18 
C 2598 -18 2938 70 2938 567 
L 2938 920 
L 2822 920 
L 2822 562 
C 2822 178 2650 128 2566 128 
C 2304 128 2304 458 2304 738 
L 2304 1653 
z
M 1965 870 
C 1965 317 1568 38 1216 38 
C 896 38 646 275 646 570 
C 646 761 730 1100 1101 1305 
C 1408 1478 1760 1504 1965 1504 
L 1965 870 
z
" transform="scale(0.015625)"/>
       <path id="CMR17-74" d="M 966 2560 
L 1862 2560 
L 1862 2725 
L 966 2725 
L 966 3904 
L 851 3904 
C 838 3245 614 2668 70 2668 
L 70 2560 
L 627 2560 
L 627 771 
C 627 650 627 -64 1370 -64 
C 1747 -64 1965 306 1965 777 
L 1965 1140 
L 1850 1140 
L 1850 783 
C 1850 344 1677 51 1408 51 
C 1222 51 966 178 966 758 
L 966 2560 
z
" transform="scale(0.015625)"/>
       <path id="CMR17-76" d="M 2502 2163 
C 2560 2304 2662 2560 3034 2560 
L 3034 2726 
C 2912 2726 2752 2726 2630 2726 
C 2496 2726 2285 2726 2157 2732 
L 2157 2566 
C 2317 2553 2406 2477 2406 2311 
C 2406 2253 2406 2240 2368 2151 
L 1664 377 
L 902 2286 
C 864 2369 864 2381 864 2407 
C 864 2560 1075 2560 1171 2560 
L 1171 2732 
C 1018 2726 736 2726 576 2726 
C 403 2726 205 2726 64 2732 
L 64 2560 
C 307 2560 442 2560 518 2362 
L 1446 44 
C 1485 -51 1491 -64 1549 -64 
C 1606 -64 1613 -51 1651 44 
L 2502 2163 
z
" transform="scale(0.015625)"/>
       <path id="CMR17-66" d="M 979 2560 
L 1709 2560 
L 1709 2725 
L 966 2725 
L 966 3494 
C 966 4022 1235 4352 1510 4352 
C 1594 4352 1690 4327 1754 4282 
C 1702 4269 1568 4225 1568 4067 
C 1568 3901 1696 3850 1786 3850 
C 1875 3850 2003 3901 2003 4067 
C 2003 4308 1773 4454 1517 4454 
C 1152 4454 653 4156 653 3481 
L 653 2725 
L 141 2725 
L 141 2560 
L 653 2560 
L 653 427 
C 653 184 627 153 218 153 
L 218 -13 
C 371 0 666 0 832 0 
C 1018 0 1344 0 1517 -13 
L 1517 153 
C 1056 153 979 153 979 439 
L 979 2560 
z
" transform="scale(0.015625)"/>
       <path id="CMR17-6f" d="M 2758 1356 
C 2758 2176 2163 2816 1466 2816 
C 768 2816 173 2176 173 1356 
C 173 551 768 -64 1466 -64 
C 2163 -64 2758 551 2758 1356 
z
M 1466 51 
C 1165 51 909 230 762 480 
C 602 767 582 1126 582 1408 
C 582 1677 595 2010 762 2298 
C 890 2509 1139 2714 1466 2714 
C 1754 2714 1997 2554 2150 2330 
C 2349 2029 2349 1607 2349 1408 
C 2349 1158 2336 775 2163 467 
C 1984 173 1709 51 1466 51 
z
" transform="scale(0.015625)"/>
       <path id="CMR17-6e" d="M 2656 1933 
C 2656 2259 2592 2790 1837 2790 
C 1331 2790 1069 2400 973 2144 
L 966 2144 
L 966 2790 
L 211 2720 
L 211 2554 
C 589 2554 646 2515 646 2208 
L 646 428 
C 646 184 621 153 211 153 
L 211 -13 
C 365 0 646 0 813 0 
C 979 0 1267 0 1421 -13 
L 1421 153 
C 1011 153 986 178 986 428 
L 986 1658 
C 986 2247 1344 2688 1792 2688 
C 2266 2688 2317 2266 2317 1958 
L 2317 428 
C 2317 184 2291 153 1882 153 
L 1882 -13 
C 2035 0 2317 0 2483 0 
C 2650 0 2938 0 3091 -13 
L 3091 153 
C 2682 153 2656 178 2656 428 
L 2656 1933 
z
" transform="scale(0.015625)"/>
       <path id="CMR17-67" d="M 710 1164 
C 832 1068 1043 960 1299 960 
C 1805 960 2240 1357 2240 1888 
C 2240 2054 2189 2310 1997 2509 
C 2176 2692 2438 2752 2586 2752 
C 2611 2752 2650 2752 2682 2734 
C 2656 2728 2598 2703 2598 2605 
C 2598 2527 2656 2471 2739 2471 
C 2835 2471 2886 2533 2886 2614 
C 2886 2731 2790 2854 2586 2854 
C 2330 2854 2106 2738 1926 2580 
C 1734 2753 1504 2816 1299 2816 
C 794 2816 358 2419 358 1888 
C 358 1522 570 1292 634 1228 
C 442 1004 442 743 442 711 
C 442 545 506 302 723 168 
C 390 85 128 -169 128 -486 
C 128 -943 736 -1280 1466 -1280 
C 2170 -1280 2803 -956 2803 -479 
C 2803 384 1856 384 1363 384 
C 1216 384 954 384 922 391 
C 723 423 589 602 589 826 
C 589 883 589 1024 710 1164 
z
M 1299 1068 
C 736 1068 736 1760 736 1889 
C 736 2016 736 2708 1299 2708 
C 1862 2708 1862 2016 1862 1889 
C 1862 1760 1862 1068 1299 1068 
z
M 1466 -1171 
C 826 -1171 384 -835 384 -486 
C 384 -289 493 -105 634 -4 
C 794 104 858 104 1293 104 
C 1818 104 2547 104 2547 -486 
C 2547 -835 2106 -1171 1466 -1171 
z
" transform="scale(0.015625)"/>
      </defs>
      <use xlink:href="#CMR17-47" transform="scale(0.996264)"/>
      <use xlink:href="#CMR17-65" transform="translate(72.355346 0) scale(0.996264)"/>
      <use xlink:href="#CMR17-73" transform="translate(112.841006 0) scale(0.996264)"/>
      <use xlink:href="#CMR17-61" transform="translate(148.642344 0) scale(0.996264)"/>
      <use xlink:href="#CMR17-6d" transform="translate(194.332821 0) scale(0.996264)"/>
      <use xlink:href="#CMR17-74" transform="translate(268.649957 0) scale(0.996264)"/>
      <use xlink:href="#CMR17-76" transform="translate(303.930725 0) scale(0.996264)"/>
      <use xlink:href="#CMR17-65" transform="translate(349.621187 0) scale(0.996264)"/>
      <use xlink:href="#CMR17-72" transform="translate(390.106847 0) scale(0.996264)"/>
      <use xlink:href="#CMR17-66" transform="translate(425.387615 0) scale(0.996264)"/>
      <use xlink:href="#CMR17-6f" transform="translate(452.861127 0) scale(0.996264)"/>
      <use xlink:href="#CMR17-72" transform="translate(498.551605 0) scale(0.996264)"/>
      <use xlink:href="#CMR17-6d" transform="translate(533.832372 0) scale(0.996264)"/>
      <use xlink:href="#CMR17-75" transform="translate(608.149508 0) scale(0.996264)"/>
      <use xlink:href="#CMR17-6e" transform="translate(659.044878 0) scale(0.996264)"/>
      <use xlink:href="#CMR17-67" transform="translate(709.940248 0) scale(0.996264)"/>
     </g>
    </g>
    <g id="line2d_37">
     <path d="M 222.729935 73.351287 
L 232.729935 73.351287 
L 242.729935 73.351287 
" style="fill: none; stroke-dasharray: 2.59,1.12; stroke-dashoffset: 0; stroke: #800080; stroke-width: 0.7"/>
    </g>
    <g id="text_19">
     <!-- Verformung des Zuggurts -->
     <g transform="translate(250.729935 76.851287) scale(0.1 -0.1)">
      <defs>
       <path id="CMR17-64" d="M 1869 4326 
L 1869 4160 
C 2246 4160 2304 4122 2304 3820 
L 2304 2345 
C 2278 2377 2016 2790 1498 2790 
C 845 2790 211 2208 211 1364 
C 211 525 806 -64 1434 -64 
C 1978 -64 2259 337 2291 380 
L 2291 -63 
L 3066 -63 
L 3066 128 
C 2688 128 2630 166 2630 473 
L 2630 4396 
L 1869 4326 
z
M 2291 755 
C 2291 563 2176 390 2029 262 
C 1811 70 1594 38 1472 38 
C 1286 38 621 134 621 1356 
C 621 2612 1363 2688 1530 2688 
C 1824 2688 2061 2522 2208 2291 
C 2291 2157 2291 2138 2291 2023 
L 2291 755 
z
" transform="scale(0.015625)"/>
       <path id="CMR17-5a" d="M 3302 4230 
C 3302 4352 3296 4352 3162 4352 
L 442 4352 
L 378 2948 
L 493 2948 
C 531 3675 723 4192 1760 4192 
L 2816 4192 
L 339 204 
C 294 134 294 127 294 83 
C 294 0 307 0 435 0 
L 3245 0 
L 3334 1666 
L 3219 1666 
C 3162 829 3117 178 1894 178 
L 781 178 
L 3302 4230 
z
" transform="scale(0.015625)"/>
      </defs>
      <use xlink:href="#CMR17-56" transform="scale(0.996264)"/>
      <use xlink:href="#CMR17-65" transform="translate(61.265174 0) scale(0.996264)"/>
      <use xlink:href="#CMR17-72" transform="translate(101.750835 0) scale(0.996264)"/>
      <use xlink:href="#CMR17-66" transform="translate(137.031603 0) scale(0.996264)"/>
      <use xlink:href="#CMR17-6f" transform="translate(164.505115 0) scale(0.996264)"/>
      <use xlink:href="#CMR17-72" transform="translate(210.195592 0) scale(0.996264)"/>
      <use xlink:href="#CMR17-6d" transform="translate(245.47636 0) scale(0.996264)"/>
      <use xlink:href="#CMR17-75" transform="translate(319.793496 0) scale(0.996264)"/>
      <use xlink:href="#CMR17-6e" transform="translate(370.688866 0) scale(0.996264)"/>
      <use xlink:href="#CMR17-67" transform="translate(421.584236 0) scale(0.996264)"/>
      <use xlink:href="#CMR17-64" transform="translate(497.350679 0) scale(0.996264)"/>
      <use xlink:href="#CMR17-65" transform="translate(548.246049 0) scale(0.996264)"/>
      <use xlink:href="#CMR17-73" transform="translate(588.731709 0) scale(0.996264)"/>
      <use xlink:href="#CMR17-5a" transform="translate(654.609013 0) scale(0.996264)"/>
      <use xlink:href="#CMR17-75" transform="translate(710.709184 0) scale(0.996264)"/>
      <use xlink:href="#CMR17-67" transform="translate(761.604554 0) scale(0.996264)"/>
      <use xlink:href="#CMR17-67" transform="translate(807.295031 0) scale(0.996264)"/>
      <use xlink:href="#CMR17-75" transform="translate(852.985508 0) scale(0.996264)"/>
      <use xlink:href="#CMR17-72" transform="translate(903.880878 0) scale(0.996264)"/>
      <use xlink:href="#CMR17-74" transform="translate(939.161646 0) scale(0.996264)"/>
      <use xlink:href="#CMR17-73" transform="translate(974.442414 0) scale(0.996264)"/>
     </g>
    </g>
    <g id="line2d_38">
     <path d="M 222.729935 87.288465 
L 232.729935 87.288465 
L 242.729935 87.288465 
" style="fill: none; stroke-dasharray: 0.7,1.155; stroke-dashoffset: 0; stroke: #800080; stroke-width: 0.7"/>
    </g>
    <g id="text_20">
     <!-- Verformung der Schubbewehrung -->
     <g transform="translate(250.729935 90.788465) scale(0.1 -0.1)">
      <defs>
       <path id="CMR17-62" d="M 960 4396 
L 198 4326 
L 198 4160 
C 576 4160 634 4122 634 3817 
L 634 -13 
L 749 -13 
L 934 441 
C 1120 141 1395 -64 1766 -64 
C 2406 -64 3053 500 3053 1370 
C 3053 2188 2477 2790 1830 2790 
C 1434 2790 1152 2579 960 2330 
L 960 4396 
z
M 973 2004 
C 973 2118 973 2138 1062 2272 
C 1312 2657 1670 2688 1792 2688 
C 1984 2688 2643 2585 2643 1376 
C 2643 108 1888 38 1734 38 
C 1536 38 1248 114 1043 486 
C 973 608 973 621 973 735 
L 973 2004 
z
" transform="scale(0.015625)"/>
       <path id="CMR17-77" d="M 3725 2183 
C 3853 2560 4109 2560 4205 2560 
L 4205 2732 
C 4077 2732 3949 2732 3821 2732 
C 3699 2732 3424 2732 3315 2738 
L 3315 2560 
C 3514 2560 3622 2445 3622 2286 
C 3622 2241 3610 2184 3597 2140 
L 2995 407 
L 2342 2275 
C 2330 2319 2310 2370 2310 2395 
C 2310 2560 2528 2560 2630 2560 
L 2630 2738 
C 2483 2732 2214 2732 2061 2732 
C 1901 2732 1734 2732 1587 2738 
L 1587 2560 
C 1939 2560 1939 2547 2074 2149 
L 1485 451 
L 851 2281 
C 819 2363 819 2376 819 2395 
C 819 2560 1037 2560 1139 2560 
L 1139 2738 
C 986 2732 717 2732 557 2732 
C 416 2732 198 2732 64 2738 
L 64 2560 
C 346 2560 416 2541 486 2331 
L 1274 49 
C 1299 -33 1318 -52 1370 -52 
C 1414 -52 1440 -39 1472 56 
L 2131 1980 
L 2797 56 
C 2829 -39 2854 -52 2899 -52 
C 2950 -52 2970 -33 2995 50 
L 3725 2183 
z
" transform="scale(0.015625)"/>
      </defs>
      <use xlink:href="#CMR17-56" transform="scale(0.996264)"/>
      <use xlink:href="#CMR17-65" transform="translate(61.265174 0) scale(0.996264)"/>
      <use xlink:href="#CMR17-72" transform="translate(101.750835 0) scale(0.996264)"/>
      <use xlink:href="#CMR17-66" transform="translate(137.031603 0) scale(0.996264)"/>
      <use xlink:href="#CMR17-6f" transform="translate(164.505115 0) scale(0.996264)"/>
      <use xlink:href="#CMR17-72" transform="translate(210.195592 0) scale(0.996264)"/>
      <use xlink:href="#CMR17-6d" transform="translate(245.47636 0) scale(0.996264)"/>
      <use xlink:href="#CMR17-75" transform="translate(319.793496 0) scale(0.996264)"/>
      <use xlink:href="#CMR17-6e" transform="translate(370.688866 0) scale(0.996264)"/>
      <use xlink:href="#CMR17-67" transform="translate(421.584236 0) scale(0.996264)"/>
      <use xlink:href="#CMR17-64" transform="translate(497.350679 0) scale(0.996264)"/>
      <use xlink:href="#CMR17-65" transform="translate(548.246049 0) scale(0.996264)"/>
      <use xlink:href="#CMR17-72" transform="translate(588.731709 0) scale(0.996264)"/>
      <use xlink:href="#CMR17-53" transform="translate(654.088443 0) scale(0.996264)"/>
      <use xlink:href="#CMR17-63" transform="translate(704.983813 0) scale(0.996264)"/>
      <use xlink:href="#CMR17-68" transform="translate(742.86702 0) scale(0.996264)"/>
      <use xlink:href="#CMR17-75" transform="translate(791.159936 0) scale(0.996264)"/>
      <use xlink:href="#CMR17-62" transform="translate(842.055305 0) scale(0.996264)"/>
      <use xlink:href="#CMR17-62" transform="translate(892.950675 0) scale(0.996264)"/>
      <use xlink:href="#CMR17-65" transform="translate(946.448484 0) scale(0.996264)"/>
      <use xlink:href="#CMR17-77" transform="translate(986.934144 0) scale(0.996264)"/>
      <use xlink:href="#CMR17-65" transform="translate(1050.841571 0) scale(0.996264)"/>
      <use xlink:href="#CMR17-68" transform="translate(1091.327231 0) scale(0.996264)"/>
      <use xlink:href="#CMR17-72" transform="translate(1142.222601 0) scale(0.996264)"/>
      <use xlink:href="#CMR17-75" transform="translate(1177.503369 0) scale(0.996264)"/>
      <use xlink:href="#CMR17-6e" transform="translate(1228.398738 0) scale(0.996264)"/>
      <use xlink:href="#CMR17-67" transform="translate(1279.294108 0) scale(0.996264)"/>
     </g>
    </g>
    <g id="line2d_39">
     <path d="M 222.729935 101.225643 
L 232.729935 101.225643 
L 242.729935 101.225643 
" style="fill: none; stroke: #dda0dd; stroke-width: 0.7; stroke-linecap: square"/>
    </g>
    <g id="text_21">
     <!-- Verformung der Druckstrebe -->
     <g transform="translate(250.729935 104.725643) scale(0.1 -0.1)">
      <defs>
       <path id="CMR17-44" d="M 333 4352 
L 333 4186 
C 774 4186 845 4186 845 3900 
L 845 452 
C 845 166 774 166 333 166 
L 333 0 
L 2368 0 
C 3398 0 4224 943 4224 2141 
C 4224 3346 3411 4352 2368 4352 
L 333 4352 
z
M 1523 166 
C 1267 166 1254 197 1254 414 
L 1254 3938 
C 1254 4155 1267 4186 1523 4186 
L 2240 4186 
C 2771 4186 3750 3874 3750 2141 
C 3750 1242 3488 879 3366 707 
C 3213 510 2848 166 2240 166 
L 1523 166 
z
" transform="scale(0.015625)"/>
      </defs>
      <use xlink:href="#CMR17-56" transform="scale(0.996264)"/>
      <use xlink:href="#CMR17-65" transform="translate(61.265174 0) scale(0.996264)"/>
      <use xlink:href="#CMR17-72" transform="translate(101.750835 0) scale(0.996264)"/>
      <use xlink:href="#CMR17-66" transform="translate(137.031603 0) scale(0.996264)"/>
      <use xlink:href="#CMR17-6f" transform="translate(164.505115 0) scale(0.996264)"/>
      <use xlink:href="#CMR17-72" transform="translate(210.195592 0) scale(0.996264)"/>
      <use xlink:href="#CMR17-6d" transform="translate(245.47636 0) scale(0.996264)"/>
      <use xlink:href="#CMR17-75" transform="translate(319.793496 0) scale(0.996264)"/>
      <use xlink:href="#CMR17-6e" transform="translate(370.688866 0) scale(0.996264)"/>
      <use xlink:href="#CMR17-67" transform="translate(421.584236 0) scale(0.996264)"/>
      <use xlink:href="#CMR17-64" transform="translate(497.350679 0) scale(0.996264)"/>
      <use xlink:href="#CMR17-65" transform="translate(548.246049 0) scale(0.996264)"/>
      <use xlink:href="#CMR17-72" transform="translate(588.731709 0) scale(0.996264)"/>
      <use xlink:href="#CMR17-44" transform="translate(654.088443 0) scale(0.996264)"/>
      <use xlink:href="#CMR17-72" transform="translate(724.481999 0) scale(0.996264)"/>
      <use xlink:href="#CMR17-75" transform="translate(759.762767 0) scale(0.996264)"/>
      <use xlink:href="#CMR17-63" transform="translate(810.658137 0) scale(0.996264)"/>
      <use xlink:href="#CMR17-6b" transform="translate(848.541343 0) scale(0.996264)"/>
      <use xlink:href="#CMR17-73" transform="translate(896.834259 0) scale(0.996264)"/>
      <use xlink:href="#CMR17-74" transform="translate(932.635597 0) scale(0.996264)"/>
      <use xlink:href="#CMR17-72" transform="translate(967.916365 0) scale(0.996264)"/>
      <use xlink:href="#CMR17-65" transform="translate(1003.197132 0) scale(0.996264)"/>
      <use xlink:href="#CMR17-62" transform="translate(1043.682793 0) scale(0.996264)"/>
      <use xlink:href="#CMR17-65" transform="translate(1097.180601 0) scale(0.996264)"/>
     </g>
    </g>
    <g id="line2d_40">
     <path d="M 222.729935 115.162822 
L 232.729935 115.162822 
L 242.729935 115.162822 
" style="fill: none; stroke-dasharray: 2.59,1.12; stroke-dashoffset: 0; stroke: #dda0dd; stroke-width: 0.7"/>
    </g>
    <g id="text_22">
     <!-- Verformung des Druckgurts -->
     <g transform="translate(250.729935 118.662822) scale(0.1 -0.1)">
      <use xlink:href="#CMR17-56" transform="scale(0.996264)"/>
      <use xlink:href="#CMR17-65" transform="translate(61.265174 0) scale(0.996264)"/>
      <use xlink:href="#CMR17-72" transform="translate(101.750835 0) scale(0.996264)"/>
      <use xlink:href="#CMR17-66" transform="translate(137.031603 0) scale(0.996264)"/>
      <use xlink:href="#CMR17-6f" transform="translate(164.505115 0) scale(0.996264)"/>
      <use xlink:href="#CMR17-72" transform="translate(210.195592 0) scale(0.996264)"/>
      <use xlink:href="#CMR17-6d" transform="translate(245.47636 0) scale(0.996264)"/>
      <use xlink:href="#CMR17-75" transform="translate(319.793496 0) scale(0.996264)"/>
      <use xlink:href="#CMR17-6e" transform="translate(370.688866 0) scale(0.996264)"/>
      <use xlink:href="#CMR17-67" transform="translate(421.584236 0) scale(0.996264)"/>
      <use xlink:href="#CMR17-64" transform="translate(497.350679 0) scale(0.996264)"/>
      <use xlink:href="#CMR17-65" transform="translate(548.246049 0) scale(0.996264)"/>
      <use xlink:href="#CMR17-73" transform="translate(588.731709 0) scale(0.996264)"/>
      <use xlink:href="#CMR17-44" transform="translate(654.609013 0) scale(0.996264)"/>
      <use xlink:href="#CMR17-72" transform="translate(725.002569 0) scale(0.996264)"/>
      <use xlink:href="#CMR17-75" transform="translate(760.283337 0) scale(0.996264)"/>
      <use xlink:href="#CMR17-63" transform="translate(811.178707 0) scale(0.996264)"/>
      <use xlink:href="#CMR17-6b" transform="translate(849.061913 0) scale(0.996264)"/>
      <use xlink:href="#CMR17-67" transform="translate(897.354829 0) scale(0.996264)"/>
      <use xlink:href="#CMR17-75" transform="translate(943.045306 0) scale(0.996264)"/>
      <use xlink:href="#CMR17-72" transform="translate(993.940676 0) scale(0.996264)"/>
      <use xlink:href="#CMR17-74" transform="translate(1029.221444 0) scale(0.996264)"/>
      <use xlink:href="#CMR17-73" transform="translate(1064.502212 0) scale(0.996264)"/>
     </g>
    </g>
   </g>
  </g>
 </g>
 <defs>
  <clipPath id="p00a3c66aa5">
   <rect x="41.599174" y="7.2" width="362.7" height="122.4"/>
  </clipPath>
 </defs>
</svg>
